<?xml version="1.0" standalone="no"?>
<svg width="1133.8125" height="755.875" xmlns="http://www.w3.org/2000/svg" id="svgvm3"><g transform="translate(5,5)" style="font-family: sans-serif;"><g transform="translate(0,1)"><g><g class="tactic initial-access" transform="translate(0, 0)"><g class="techniques"><g class="technique T1566" transform="translate(0, 49.725)"><rect class="cell" height="49.725" width="113.6439606741573" fill="#dadaeb" stroke="#6B7279"/><polygon class="sidebar" transform="translate(0, 49.725)" points="0,0 12,0 12,12" fill="#6B7279" visibility="visible"/><text font-size="12" fill="black"><tspan x="4" y="28.3625">Phishing</tspan></text></g><g class="technique T1078" transform="translate(0, 198.9)"><rect class="cell" height="49.725" width="113.6439606741573" fill="#dadaeb" stroke="#6B7279"/><polygon class="sidebar" transform="translate(0, 49.725)" points="0,0 12,0 12,12" fill="#6B7279" visibility="visible"/><text font-size="12" fill="black"><tspan x="4" y="21.1125">Valid</tspan><tspan x="4" y="35.6125">Accounts</tspan></text></g></g><g class="subtechniques"><g class="subtechnique T1566.001" transform="translate(15, 99.45)"><rect class="cell" height="49.725" width="98.6439606741573" fill="white" stroke="#6B7279"/><rect class="cell" height="49.725" width="3" transform="translate(-3, 0)" fill="#6B7279" stroke="#6B7279"/><text font-size="10.110287921348315" fill="black"><tspan x="4" y="21.1125">Spearphishing</tspan><tspan x="4" y="35.6125">Attachment</tspan></text></g><g class="subtechnique T1566.002" transform="translate(15, 149.175)"><rect class="cell" height="49.725" width="98.6439606741573" fill="white" stroke="#6B7279"/><rect class="cell" height="49.725" width="3" transform="translate(-3, 0)" fill="#6B7279" stroke="#6B7279"/><text font-size="10.110287921348315" fill="black"><tspan x="4" y="21.1125">Spearphishing</tspan><tspan x="4" y="35.6125">Link</tspan></text></g><g class="subtechnique T1078.001" transform="translate(15, 248.625)"><rect class="cell" height="49.725" width="98.6439606741573" fill="white" stroke="#6B7279"/><rect class="cell" height="49.725" width="3" transform="translate(-3, 0)" fill="#6B7279" stroke="#6B7279"/><text font-size="12" fill="black"><tspan x="4" y="21.1125">Default</tspan><tspan x="4" y="35.6125">Accounts</tspan></text></g><g class="subtechnique T1078.002" transform="translate(15, 298.35)"><rect class="cell" height="49.725" width="98.6439606741573" fill="white" stroke="#6B7279"/><rect class="cell" height="49.725" width="3" transform="translate(-3, 0)" fill="#6B7279" stroke="#6B7279"/><text font-size="12" fill="black"><tspan x="4" y="21.1125">Domain</tspan><tspan x="4" y="35.6125">Accounts</tspan></text></g><g class="subtechnique T1078.003" transform="translate(15, 348.075)"><rect class="cell" height="49.725" width="98.6439606741573" fill="white" stroke="#6B7279"/><rect class="cell" height="49.725" width="3" transform="translate(-3, 0)" fill="#6B7279" stroke="#6B7279"/><text font-size="12" fill="black"><tspan x="4" y="21.1125">Local</tspan><tspan x="4" y="35.6125">Accounts</tspan></text></g></g><g class="tactic-label"><text font-size="12" fill="black" font-weight="bold"><tspan text-anchor="middle" x="56.82198033707865" y="21.1125">Initial</tspan><tspan text-anchor="middle" x="56.82198033707865" y="35.6125">Access</tspan></text></g></g><g class="tactic execution" transform="translate(126.27106741573033, 0)"><g class="techniques"><g class="technique T1059" transform="translate(0, 49.725)"><rect class="cell" height="49.725" width="113.6439606741573" fill="#dadaeb" stroke="#6B7279"/><polygon class="sidebar" transform="translate(0, 49.725)" points="0,0 12,0 12,12" fill="#6B7279" visibility="visible"/><text font-size="12" fill="black"><tspan x="4" y="13.695833333333333">Command and</tspan><tspan x="4" y="28.3625">Scripting</tspan><tspan x="4" y="43.02916666666667">Interpreter</tspan></text></g><g class="technique T1106" transform="translate(0, 248.625)"><rect class="cell" height="49.725" width="113.6439606741573" fill="#dadaeb" stroke="#6B7279"/><polygon class="sidebar" transform="translate(0, 49.725)" points="0,0 12,0 12,0" fill="#6B7279" visibility="hidden"/><text font-size="12" fill="black"><tspan x="4" y="28.3625">Native API</tspan></text></g><g class="technique T1204" transform="translate(0, 298.35)"><rect class="cell" height="49.725" width="113.6439606741573" fill="#dadaeb" stroke="#6B7279"/><polygon class="sidebar" transform="translate(0, 49.725)" points="0,0 12,0 12,12" fill="#6B7279" visibility="visible"/><text font-size="12" fill="black"><tspan x="4" y="21.1125">User</tspan><tspan x="4" y="35.6125">Execution</tspan></text></g><g class="technique T1047" transform="translate(0, 397.8)"><rect class="cell" height="49.725" width="113.6439606741573" fill="#dadaeb" stroke="#6B7279"/><polygon class="sidebar" transform="translate(0, 49.725)" points="0,0 12,0 12,0" fill="#6B7279" visibility="hidden"/><text font-size="10.212249531835205" fill="black"><tspan x="4" y="13.695833333333333">Windows</tspan><tspan x="4" y="28.3625">Management</tspan><tspan x="4" y="43.02916666666667">Instrumentation</tspan></text></g></g><g class="subtechniques"><g class="subtechnique T1059.001" transform="translate(15, 99.45)"><rect class="cell" height="49.725" width="98.6439606741573" fill="white" stroke="#6B7279"/><rect class="cell" height="49.725" width="3" transform="translate(-3, 0)" fill="#6B7279" stroke="#6B7279"/><text font-size="12" fill="black"><tspan x="4" y="28.3625">PowerShell</tspan></text></g><g class="subtechnique T1059.003" transform="translate(15, 149.175)"><rect class="cell" height="49.725" width="98.6439606741573" fill="white" stroke="#6B7279"/><rect class="cell" height="49.725" width="3" transform="translate(-3, 0)" fill="#6B7279" stroke="#6B7279"/><text font-size="12" fill="black"><tspan x="4" y="13.695833333333333">Windows</tspan><tspan x="4" y="28.3625">Command</tspan><tspan x="4" y="43.02916666666667">Shell</tspan></text></g><g class="subtechnique T1059.005" transform="translate(15, 198.9)"><rect class="cell" height="49.725" width="98.6439606741573" fill="white" stroke="#6B7279"/><rect class="cell" height="49.725" width="3" transform="translate(-3, 0)" fill="#6B7279" stroke="#6B7279"/><text font-size="12" fill="black"><tspan x="4" y="21.1125">Visual</tspan><tspan x="4" y="35.6125">Basic</tspan></text></g><g class="subtechnique T1204.002" transform="translate(15, 348.075)"><rect class="cell" height="49.725" width="98.6439606741573" fill="white" stroke="#6B7279"/><rect class="cell" height="49.725" width="3" transform="translate(-3, 0)" fill="#6B7279" stroke="#6B7279"/><text font-size="12" fill="black"><tspan x="4" y="21.1125">Malicious</tspan><tspan x="4" y="35.6125">File</tspan></text></g></g><g class="tactic-label"><text font-size="12" fill="black" font-weight="bold"><tspan text-anchor="middle" x="56.82198033707865" y="28.3625">Execution</tspan></text></g></g><g class="tactic persistence" transform="translate(252.54213483146066, 0)"><g class="techniques"><g class="technique T1078" transform="translate(0, 49.725)"><rect class="cell" height="49.725" width="113.6439606741573" fill="#dadaeb" stroke="#6B7279"/><polygon class="sidebar" transform="translate(0, 49.725)" points="0,0 12,0 12,12" fill="#6B7279" visibility="visible"/><text font-size="12" fill="black"><tspan x="4" y="21.1125">Valid</tspan><tspan x="4" y="35.6125">Accounts</tspan></text></g></g><g class="subtechniques"><g class="subtechnique T1078.001" transform="translate(15, 99.45)"><rect class="cell" height="49.725" width="98.6439606741573" fill="white" stroke="#6B7279"/><rect class="cell" height="49.725" width="3" transform="translate(-3, 0)" fill="#6B7279" stroke="#6B7279"/><text font-size="12" fill="black"><tspan x="4" y="21.1125">Default</tspan><tspan x="4" y="35.6125">Accounts</tspan></text></g><g class="subtechnique T1078.002" transform="translate(15, 149.175)"><rect class="cell" height="49.725" width="98.6439606741573" fill="white" stroke="#6B7279"/><rect class="cell" height="49.725" width="3" transform="translate(-3, 0)" fill="#6B7279" stroke="#6B7279"/><text font-size="12" fill="black"><tspan x="4" y="21.1125">Domain</tspan><tspan x="4" y="35.6125">Accounts</tspan></text></g><g class="subtechnique T1078.003" transform="translate(15, 198.9)"><rect class="cell" height="49.725" width="98.6439606741573" fill="white" stroke="#6B7279"/><rect class="cell" height="49.725" width="3" transform="translate(-3, 0)" fill="#6B7279" stroke="#6B7279"/><text font-size="12" fill="black"><tspan x="4" y="21.1125">Local</tspan><tspan x="4" y="35.6125">Accounts</tspan></text></g></g><g class="tactic-label"><text font-size="12" fill="black" font-weight="bold"><tspan text-anchor="middle" x="56.82198033707865" y="28.3625">Persistence</tspan></text></g></g><g class="tactic privilege-escalation" transform="translate(378.813202247191, 0)"><g class="techniques"><g class="technique T1134" transform="translate(0, 49.725)"><rect class="cell" height="49.725" width="113.6439606741573" fill="#dadaeb" stroke="#6B7279"/><polygon class="sidebar" transform="translate(0, 49.725)" points="0,0 12,0 12,12" fill="#6B7279" visibility="visible"/><text font-size="12" fill="black"><tspan x="4" y="21.1125">Access Token</tspan><tspan x="4" y="35.6125">Manipulation</tspan></text></g><g class="technique T1484" transform="translate(0, 198.9)"><rect class="cell" height="49.725" width="113.6439606741573" fill="#dadaeb" stroke="#6B7279"/><polygon class="sidebar" transform="translate(0, 49.725)" points="0,0 12,0 12,0" fill="#6B7279" visibility="hidden"/><text font-size="12" fill="black"><tspan x="4" y="21.1125">Group Policy</tspan><tspan x="4" y="35.6125">Modification</tspan></text></g><g class="technique T1055" transform="translate(0, 248.625)"><rect class="cell" height="49.725" width="113.6439606741573" fill="#dadaeb" stroke="#6B7279"/><polygon class="sidebar" transform="translate(0, 49.725)" points="0,0 12,0 12,0" fill="#6B7279" visibility="visible"/><text font-size="12" fill="black"><tspan x="4" y="21.1125">Process</tspan><tspan x="4" y="35.6125">Injection</tspan></text></g><g class="technique T1078" transform="translate(0, 298.35)"><rect class="cell" height="49.725" width="113.6439606741573" fill="#dadaeb" stroke="#6B7279"/><polygon class="sidebar" transform="translate(0, 49.725)" points="0,0 12,0 12,12" fill="#6B7279" visibility="visible"/><text font-size="12" fill="black"><tspan x="4" y="21.1125">Valid</tspan><tspan x="4" y="35.6125">Accounts</tspan></text></g></g><g class="subtechniques"><g class="subtechnique T1134.001" transform="translate(15, 99.45)"><rect class="cell" height="49.725" width="98.6439606741573" fill="white" stroke="#6B7279"/><rect class="cell" height="49.725" width="3" transform="translate(-3, 0)" fill="#6B7279" stroke="#6B7279"/><text font-size="6.9175654198698995" fill="black"><tspan x="4" y="20.1125">Token</tspan><tspan x="4" y="34.6125">Impersonation/Theft</tspan></text></g><g class="subtechnique T1134.002" transform="translate(15, 149.175)"><rect class="cell" height="49.725" width="98.6439606741573" fill="white" stroke="#6B7279"/><rect class="cell" height="49.725" width="3" transform="translate(-3, 0)" fill="#6B7279" stroke="#6B7279"/><text font-size="12" fill="black"><tspan x="4" y="13.695833333333333">Create</tspan><tspan x="4" y="28.3625">Process</tspan><tspan x="4" y="43.02916666666667">with Token</tspan></text></g><g class="subtechnique T1078.001" transform="translate(15, 348.075)"><rect class="cell" height="49.725" width="98.6439606741573" fill="white" stroke="#6B7279"/><rect class="cell" height="49.725" width="3" transform="translate(-3, 0)" fill="#6B7279" stroke="#6B7279"/><text font-size="12" fill="black"><tspan x="4" y="21.1125">Default</tspan><tspan x="4" y="35.6125">Accounts</tspan></text></g><g class="subtechnique T1078.002" transform="translate(15, 397.8)"><rect class="cell" height="49.725" width="98.6439606741573" fill="white" stroke="#6B7279"/><rect class="cell" height="49.725" width="3" transform="translate(-3, 0)" fill="#6B7279" stroke="#6B7279"/><text font-size="12" fill="black"><tspan x="4" y="21.1125">Domain</tspan><tspan x="4" y="35.6125">Accounts</tspan></text></g><g class="subtechnique T1078.003" transform="translate(15, 447.525)"><rect class="cell" height="49.725" width="98.6439606741573" fill="white" stroke="#6B7279"/><rect class="cell" height="49.725" width="3" transform="translate(-3, 0)" fill="#6B7279" stroke="#6B7279"/><text font-size="12" fill="black"><tspan x="4" y="21.1125">Local</tspan><tspan x="4" y="35.6125">Accounts</tspan></text></g></g><g class="tactic-label"><text font-size="12" fill="black" font-weight="bold"><tspan text-anchor="middle" x="56.82198033707865" y="21.1125">Privilege</tspan><tspan text-anchor="middle" x="56.82198033707865" y="35.6125">Escalation</tspan></text></g></g><g class="tactic defense-evasion" transform="translate(505.0842696629213, 0)"><g class="techniques"><g class="technique T1134" transform="translate(0, 49.725)"><rect class="cell" height="49.725" width="113.6439606741573" fill="#dadaeb" stroke="#6B7279"/><polygon class="sidebar" transform="translate(0, 49.725)" points="0,0 12,0 12,12" fill="#6B7279" visibility="visible"/><text font-size="12" fill="black"><tspan x="4" y="21.1125">Access Token</tspan><tspan x="4" y="35.6125">Manipulation</tspan></text></g><g class="technique T1140" transform="translate(0, 198.9)"><rect class="cell" height="49.725" width="113.6439606741573" fill="#dadaeb" stroke="#6B7279"/><polygon class="sidebar" transform="translate(0, 49.725)" points="0,0 12,0 12,0" fill="#6B7279" visibility="hidden"/><text font-size="8.510207943196004" fill="black"><tspan x="4" y="12.695833333333333">Deobfuscate/Decode</tspan><tspan x="4" y="27.3625">Files</tspan><tspan x="4" y="42.02916666666667">or Information</tspan></text></g><g class="technique T1484" transform="translate(0, 248.625)"><rect class="cell" height="49.725" width="113.6439606741573" fill="#dadaeb" stroke="#6B7279"/><polygon class="sidebar" transform="translate(0, 49.725)" points="0,0 12,0 12,0" fill="#6B7279" visibility="hidden"/><text font-size="12" fill="black"><tspan x="4" y="21.1125">Group Policy</tspan><tspan x="4" y="35.6125">Modification</tspan></text></g><g class="technique T1562" transform="translate(0, 298.35)"><rect class="cell" height="49.725" width="113.6439606741573" fill="#dadaeb" stroke="#6B7279"/><polygon class="sidebar" transform="translate(0, 49.725)" points="0,0 12,0 12,12" fill="#6B7279" visibility="visible"/><text font-size="12" fill="black"><tspan x="4" y="21.1125">Impair</tspan><tspan x="4" y="35.6125">Defenses</tspan></text></g><g class="technique T1036" transform="translate(0, 397.8)"><rect class="cell" height="49.725" width="113.6439606741573" fill="#dadaeb" stroke="#6B7279"/><polygon class="sidebar" transform="translate(0, 49.725)" points="0,0 12,0 12,0" fill="#6B7279" visibility="visible"/><text font-size="12" fill="black"><tspan x="4" y="28.3625">Masquerading</tspan></text></g><g class="technique T1112" transform="translate(0, 447.525)"><rect class="cell" height="49.725" width="113.6439606741573" fill="#dadaeb" stroke="#6B7279"/><polygon class="sidebar" transform="translate(0, 49.725)" points="0,0 12,0 12,0" fill="#6B7279" visibility="hidden"/><text font-size="12" fill="black"><tspan x="4" y="21.1125">Modify</tspan><tspan x="4" y="35.6125">Registry</tspan></text></g><g class="technique T1055" transform="translate(0, 497.25)"><rect class="cell" height="49.725" width="113.6439606741573" fill="#dadaeb" stroke="#6B7279"/><polygon class="sidebar" transform="translate(0, 49.725)" points="0,0 12,0 12,0" fill="#6B7279" visibility="visible"/><text font-size="12" fill="black"><tspan x="4" y="21.1125">Process</tspan><tspan x="4" y="35.6125">Injection</tspan></text></g><g class="technique T1078" transform="translate(0, 546.9749999999999)"><rect class="cell" height="49.725" width="113.6439606741573" fill="#dadaeb" stroke="#6B7279"/><polygon class="sidebar" transform="translate(0, 49.725)" points="0,0 12,0 12,12" fill="#6B7279" visibility="visible"/><text font-size="12" fill="black"><tspan x="4" y="21.1125">Valid</tspan><tspan x="4" y="35.6125">Accounts</tspan></text></g></g><g class="subtechniques"><g class="subtechnique T1134.001" transform="translate(15, 99.45)"><rect class="cell" height="49.725" width="98.6439606741573" fill="white" stroke="#6B7279"/><rect class="cell" height="49.725" width="3" transform="translate(-3, 0)" fill="#6B7279" stroke="#6B7279"/><text font-size="6.9175654198698995" fill="black"><tspan x="4" y="20.1125">Token</tspan><tspan x="4" y="34.6125">Impersonation/Theft</tspan></text></g><g class="subtechnique T1134.002" transform="translate(15, 149.175)"><rect class="cell" height="49.725" width="98.6439606741573" fill="white" stroke="#6B7279"/><rect class="cell" height="49.725" width="3" transform="translate(-3, 0)" fill="#6B7279" stroke="#6B7279"/><text font-size="12" fill="black"><tspan x="4" y="13.695833333333333">Create</tspan><tspan x="4" y="28.3625">Process</tspan><tspan x="4" y="43.02916666666667">with Token</tspan></text></g><g class="subtechnique T1562.001" transform="translate(15, 348.075)"><rect class="cell" height="49.725" width="98.6439606741573" fill="white" stroke="#6B7279"/><rect class="cell" height="49.725" width="3" transform="translate(-3, 0)" fill="#6B7279" stroke="#6B7279"/><text font-size="12" fill="black"><tspan x="4" y="13.695833333333333">Disable</tspan><tspan x="4" y="28.3625">or Modify</tspan><tspan x="4" y="43.02916666666667">Tools</tspan></text></g><g class="subtechnique T1078.001" transform="translate(15, 596.7)"><rect class="cell" height="49.725" width="98.6439606741573" fill="white" stroke="#6B7279"/><rect class="cell" height="49.725" width="3" transform="translate(-3, 0)" fill="#6B7279" stroke="#6B7279"/><text font-size="12" fill="black"><tspan x="4" y="21.1125">Default</tspan><tspan x="4" y="35.6125">Accounts</tspan></text></g><g class="subtechnique T1078.002" transform="translate(15, 646.4250000000001)"><rect class="cell" height="49.725" width="98.6439606741573" fill="white" stroke="#6B7279"/><rect class="cell" height="49.725" width="3" transform="translate(-3, 0)" fill="#6B7279" stroke="#6B7279"/><text font-size="12" fill="black"><tspan x="4" y="21.1125">Domain</tspan><tspan x="4" y="35.6125">Accounts</tspan></text></g><g class="subtechnique T1078.003" transform="translate(15, 696.15)"><rect class="cell" height="49.725" width="98.6439606741573" fill="white" stroke="#6B7279"/><rect class="cell" height="49.725" width="3" transform="translate(-3, 0)" fill="#6B7279" stroke="#6B7279"/><text font-size="12" fill="black"><tspan x="4" y="21.1125">Local</tspan><tspan x="4" y="35.6125">Accounts</tspan></text></g></g><g class="tactic-label"><text font-size="12" fill="black" font-weight="bold"><tspan text-anchor="middle" x="56.82198033707865" y="21.1125">Defense</tspan><tspan text-anchor="middle" x="56.82198033707865" y="35.6125">Evasion</tspan></text></g></g><g class="tactic discovery" transform="translate(631.3553370786517, 0)"><g class="techniques"><g class="technique T1087" transform="translate(0, 49.725)"><rect class="cell" height="49.725" width="113.6439606741573" fill="#dadaeb" stroke="#6B7279"/><polygon class="sidebar" transform="translate(0, 49.725)" points="0,0 12,0 12,12" fill="#6B7279" visibility="visible"/><text font-size="12" fill="black"><tspan x="4" y="21.1125">Account</tspan><tspan x="4" y="35.6125">Discovery</tspan></text></g><g class="technique T1482" transform="translate(0, 248.625)"><rect class="cell" height="49.725" width="113.6439606741573" fill="#dadaeb" stroke="#6B7279"/><polygon class="sidebar" transform="translate(0, 49.725)" points="0,0 12,0 12,0" fill="#6B7279" visibility="hidden"/><text font-size="12" fill="black"><tspan x="4" y="21.1125">Domain Trust</tspan><tspan x="4" y="35.6125">Discovery</tspan></text></g><g class="technique T1069" transform="translate(0, 298.35)"><rect class="cell" height="49.725" width="113.6439606741573" fill="#dadaeb" stroke="#6B7279"/><polygon class="sidebar" transform="translate(0, 49.725)" points="0,0 12,0 12,12" fill="#6B7279" visibility="visible"/><text font-size="12" fill="black"><tspan x="4" y="13.695833333333333">Permission</tspan><tspan x="4" y="28.3625">Groups</tspan><tspan x="4" y="43.02916666666667">Discovery</tspan></text></g></g><g class="subtechniques"><g class="subtechnique T1087.001" transform="translate(15, 99.45)"><rect class="cell" height="49.725" width="98.6439606741573" fill="white" stroke="#6B7279"/><rect class="cell" height="49.725" width="3" transform="translate(-3, 0)" fill="#6B7279" stroke="#6B7279"/><text font-size="12" fill="black"><tspan x="4" y="21.1125">Local</tspan><tspan x="4" y="35.6125">Account</tspan></text></g><g class="subtechnique T1087.002" transform="translate(15, 149.175)"><rect class="cell" height="49.725" width="98.6439606741573" fill="white" stroke="#6B7279"/><rect class="cell" height="49.725" width="3" transform="translate(-3, 0)" fill="#6B7279" stroke="#6B7279"/><text font-size="12" fill="black"><tspan x="4" y="21.1125">Domain</tspan><tspan x="4" y="35.6125">Account</tspan></text></g><g class="subtechnique T1087.003" transform="translate(15, 198.9)"><rect class="cell" height="49.725" width="98.6439606741573" fill="white" stroke="#6B7279"/><rect class="cell" height="49.725" width="3" transform="translate(-3, 0)" fill="#6B7279" stroke="#6B7279"/><text font-size="12" fill="black"><tspan x="4" y="21.1125">Email</tspan><tspan x="4" y="35.6125">Account</tspan></text></g><g class="subtechnique T1069.002" transform="translate(15, 348.075)"><rect class="cell" height="49.725" width="98.6439606741573" fill="white" stroke="#6B7279"/><rect class="cell" height="49.725" width="3" transform="translate(-3, 0)" fill="#6B7279" stroke="#6B7279"/><text font-size="12" fill="black"><tspan x="4" y="21.1125">Domain</tspan><tspan x="4" y="35.6125">Groups</tspan></text></g><g class="subtechnique T1069.001" transform="translate(15, 397.8)"><rect class="cell" height="49.725" width="98.6439606741573" fill="white" stroke="#6B7279"/><rect class="cell" height="49.725" width="3" transform="translate(-3, 0)" fill="#6B7279" stroke="#6B7279"/><text font-size="12" fill="black"><tspan x="4" y="21.1125">Local</tspan><tspan x="4" y="35.6125">Groups</tspan></text></g></g><g class="tactic-label"><text font-size="12" fill="black" font-weight="bold"><tspan text-anchor="middle" x="56.82198033707865" y="28.3625">Discovery</tspan></text></g></g><g class="tactic lateral-movement" transform="translate(757.626404494382, 0)"><g class="techniques"><g class="technique T1021" transform="translate(0, 49.725)"><rect class="cell" height="49.725" width="113.6439606741573" fill="#dadaeb" stroke="#6B7279"/><polygon class="sidebar" transform="translate(0, 49.725)" points="0,0 12,0 12,0" fill="#6B7279" visibility="visible"/><text font-size="12" fill="black"><tspan x="4" y="21.1125">Remote</tspan><tspan x="4" y="35.6125">Services</tspan></text></g></g><g class="subtechniques"/><g class="tactic-label"><text font-size="12" fill="black" font-weight="bold"><tspan text-anchor="middle" x="56.82198033707865" y="21.1125">Lateral</tspan><tspan text-anchor="middle" x="56.82198033707865" y="35.6125">Movement</tspan></text></g></g><g class="tactic command-and-control" transform="translate(883.8974719101122, 0)"><g class="techniques"><g class="technique T1573" transform="translate(0, 49.725)"><rect class="cell" height="49.725" width="113.6439606741573" fill="#dadaeb" stroke="#6B7279"/><polygon class="sidebar" transform="translate(0, 49.725)" points="0,0 12,0 12,12" fill="#6B7279" visibility="visible"/><text font-size="12" fill="black"><tspan x="4" y="21.1125">Encrypted</tspan><tspan x="4" y="35.6125">Channel</tspan></text></g><g class="technique T1105" transform="translate(0, 149.175)"><rect class="cell" height="49.725" width="113.6439606741573" fill="#dadaeb" stroke="#6B7279"/><polygon class="sidebar" transform="translate(0, 49.725)" points="0,0 12,0 12,0" fill="#6B7279" visibility="hidden"/><text font-size="12" fill="black"><tspan x="4" y="21.1125">Ingress Tool</tspan><tspan x="4" y="35.6125">Transfer</tspan></text></g></g><g class="subtechniques"><g class="subtechnique T1573.002" transform="translate(15, 99.45)"><rect class="cell" height="49.725" width="98.6439606741573" fill="white" stroke="#6B7279"/><rect class="cell" height="49.725" width="3" transform="translate(-3, 0)" fill="#6B7279" stroke="#6B7279"/><text font-size="10.952811914794006" fill="black"><tspan x="4" y="21.1125">Asymmetric</tspan><tspan x="4" y="35.6125">Cryptography</tspan></text></g></g><g class="tactic-label"><text font-size="12" fill="black" font-weight="bold"><tspan text-anchor="middle" x="56.82198033707865" y="21.1125">Command</tspan><tspan text-anchor="middle" x="56.82198033707865" y="35.6125">and Control</tspan></text></g></g><g class="tactic exfiltration" transform="translate(1010.1685393258426, 0)"><g class="techniques"><g class="technique T1567" transform="translate(0, 49.725)"><rect class="cell" height="49.725" width="113.6439606741573" fill="#dadaeb" stroke="#6B7279"/><polygon class="sidebar" transform="translate(0, 49.725)" points="0,0 12,0 12,0" fill="#6B7279" visibility="visible"/><text font-size="12" fill="black"><tspan x="4" y="13.695833333333333">Exfiltration</tspan><tspan x="4" y="28.3625">Over</tspan><tspan x="4" y="43.02916666666667">Web Service</tspan></text></g></g><g class="subtechniques"/><g class="tactic-label"><text font-size="12" fill="black" font-weight="bold"><tspan text-anchor="middle" x="56.82198033707865" y="28.3625">Exfiltration</tspan></text></g></g></g></g></g></svg>