<?xml version="1.0" standalone="no"?>
<svg width="1133.8125" height="680.2875" xmlns="http://www.w3.org/2000/svg" id="svgvm0"><g transform="translate(5,5)" style="font-family: sans-serif;"><g transform="translate(0,1)"><g><g class="tactic initial-access" transform="translate(0, 0)"><g class="techniques"><g class="technique T1189" transform="translate(0, 47.87767857142857)"><rect class="cell" height="47.87767857142857" width="128.02927215189874" fill="#bcbddc" stroke="#6B7279"/><polygon class="sidebar" transform="translate(0, 47.87767857142857)" points="0,0 12,0 12,0" fill="#6B7279" visibility="hidden"/><text font-size="12" fill="black"><tspan x="4" y="20.188839285714284">Drive-by</tspan><tspan x="4" y="34.68883928571428">Compromise</tspan></text></g><g class="technique T1566" transform="translate(0, 95.75535714285714)"><rect class="cell" height="47.87767857142857" width="128.02927215189874" fill="#bcbddc" stroke="#6B7279"/><polygon class="sidebar" transform="translate(0, 47.87767857142857)" points="0,0 12,0 12,12" fill="#6B7279" visibility="visible"/><text font-size="12" fill="black"><tspan x="4" y="27.438839285714284">Phishing</tspan></text></g></g><g class="subtechniques"><g class="subtechnique T1566.001" transform="translate(15, 143.6330357142857)"><rect class="cell" height="47.87767857142857" width="113.02927215189874" fill="white" stroke="#6B7279"/><rect class="cell" height="47.87767857142857" width="3" transform="translate(-3, 0)" fill="#6B7279" stroke="#6B7279"/><text font-size="11.714803432327168" fill="black"><tspan x="4" y="20.188839285714284">Spearphishing</tspan><tspan x="4" y="34.68883928571428">Attachment</tspan></text></g><g class="subtechnique T1566.002" transform="translate(15, 191.51071428571427)"><rect class="cell" height="47.87767857142857" width="113.02927215189874" fill="white" stroke="#6B7279"/><rect class="cell" height="47.87767857142857" width="3" transform="translate(-3, 0)" fill="#6B7279" stroke="#6B7279"/><text font-size="11.714803432327168" fill="black"><tspan x="4" y="20.188839285714284">Spearphishing</tspan><tspan x="4" y="34.68883928571428">Link</tspan></text></g></g><g class="tactic-label"><text font-size="12" fill="black" font-weight="bold"><tspan text-anchor="middle" x="64.01463607594937" y="27.438839285714284">Initial Access</tspan></text></g></g><g class="tactic execution" transform="translate(142.25474683544303, 0)"><g class="techniques"><g class="technique T1059" transform="translate(0, 47.87767857142857)"><rect class="cell" height="47.87767857142857" width="128.02927215189874" fill="#bcbddc" stroke="#6B7279"/><polygon class="sidebar" transform="translate(0, 47.87767857142857)" points="0,0 12,0 12,12" fill="#6B7279" visibility="visible"/><text font-size="12" fill="black"><tspan x="4" y="12.772172619047616">Command</tspan><tspan x="4" y="27.438839285714284">and Scripting</tspan><tspan x="4" y="42.10550595238095">Interpreter</tspan></text></g><g class="technique T1106" transform="translate(0, 239.38839285714286)"><rect class="cell" height="47.87767857142857" width="128.02927215189874" fill="#bcbddc" stroke="#6B7279"/><polygon class="sidebar" transform="translate(0, 47.87767857142857)" points="0,0 12,0 12,0" fill="#6B7279" visibility="hidden"/><text font-size="12" fill="black"><tspan x="4" y="27.438839285714284">Native API</tspan></text></g><g class="technique T1204" transform="translate(0, 287.2660714285714)"><rect class="cell" height="47.87767857142857" width="128.02927215189874" fill="#bcbddc" stroke="#6B7279"/><polygon class="sidebar" transform="translate(0, 47.87767857142857)" points="0,0 12,0 12,12" fill="#6B7279" visibility="visible"/><text font-size="12" fill="black"><tspan x="4" y="27.438839285714284">User Execution</tspan></text></g><g class="technique T1047" transform="translate(0, 383.02142857142854)"><rect class="cell" height="47.87767857142857" width="128.02927215189874" fill="#bcbddc" stroke="#6B7279"/><polygon class="sidebar" transform="translate(0, 47.87767857142857)" points="0,0 12,0 12,0" fill="#6B7279" visibility="hidden"/><text font-size="11.60282964135021" fill="black"><tspan x="4" y="12.772172619047616">Windows</tspan><tspan x="4" y="27.438839285714284">Management</tspan><tspan x="4" y="42.10550595238095">Instrumentation</tspan></text></g></g><g class="subtechniques"><g class="subtechnique T1059.001" transform="translate(15, 95.75535714285714)"><rect class="cell" height="47.87767857142857" width="113.02927215189874" fill="white" stroke="#6B7279"/><rect class="cell" height="47.87767857142857" width="3" transform="translate(-3, 0)" fill="#6B7279" stroke="#6B7279"/><text font-size="12" fill="black"><tspan x="4" y="27.438839285714284">PowerShell</tspan></text></g><g class="subtechnique T1059.003" transform="translate(15, 143.6330357142857)"><rect class="cell" height="47.87767857142857" width="113.02927215189874" fill="white" stroke="#6B7279"/><rect class="cell" height="47.87767857142857" width="3" transform="translate(-3, 0)" fill="#6B7279" stroke="#6B7279"/><text font-size="12" fill="black"><tspan x="4" y="12.772172619047616">Windows</tspan><tspan x="4" y="27.438839285714284">Command</tspan><tspan x="4" y="42.10550595238095">Shell</tspan></text></g><g class="subtechnique T1059.005" transform="translate(15, 191.51071428571427)"><rect class="cell" height="47.87767857142857" width="113.02927215189874" fill="white" stroke="#6B7279"/><rect class="cell" height="47.87767857142857" width="3" transform="translate(-3, 0)" fill="#6B7279" stroke="#6B7279"/><text font-size="12" fill="black"><tspan x="4" y="27.438839285714284">Visual Basic</tspan></text></g><g class="subtechnique T1204.002" transform="translate(15, 335.14375)"><rect class="cell" height="47.87767857142857" width="113.02927215189874" fill="white" stroke="#6B7279"/><rect class="cell" height="47.87767857142857" width="3" transform="translate(-3, 0)" fill="#6B7279" stroke="#6B7279"/><text font-size="12" fill="black"><tspan x="4" y="20.188839285714284">Malicious</tspan><tspan x="4" y="34.68883928571428">File</tspan></text></g></g><g class="tactic-label"><text font-size="12" fill="black" font-weight="bold"><tspan text-anchor="middle" x="64.01463607594937" y="27.438839285714284">Execution</tspan></text></g></g><g class="tactic privilege-escalation" transform="translate(284.50949367088606, 0)"><g class="techniques"><g class="technique T1134" transform="translate(0, 47.87767857142857)"><rect class="cell" height="47.87767857142857" width="128.02927215189874" fill="#bcbddc" stroke="#6B7279"/><polygon class="sidebar" transform="translate(0, 47.87767857142857)" points="0,0 12,0 12,12" fill="#6B7279" visibility="visible"/><text font-size="12" fill="black"><tspan x="4" y="20.188839285714284">Access Token</tspan><tspan x="4" y="34.68883928571428">Manipulation</tspan></text></g><g class="technique T1055" transform="translate(0, 191.51071428571427)"><rect class="cell" height="47.87767857142857" width="128.02927215189874" fill="#bcbddc" stroke="#6B7279"/><polygon class="sidebar" transform="translate(0, 47.87767857142857)" points="0,0 12,0 12,0" fill="#6B7279" visibility="visible"/><text font-size="12" fill="black"><tspan x="4" y="20.188839285714284">Process</tspan><tspan x="4" y="34.68883928571428">Injection</tspan></text></g></g><g class="subtechniques"><g class="subtechnique T1134.001" transform="translate(15, 95.75535714285714)"><rect class="cell" height="47.87767857142857" width="113.02927215189874" fill="white" stroke="#6B7279"/><rect class="cell" height="47.87767857142857" width="3" transform="translate(-3, 0)" fill="#6B7279" stroke="#6B7279"/><text font-size="8.015391822118588" fill="black"><tspan x="4" y="19.188839285714284">Token</tspan><tspan x="4" y="33.68883928571428">Impersonation/Theft</tspan></text></g><g class="subtechnique T1134.002" transform="translate(15, 143.6330357142857)"><rect class="cell" height="47.87767857142857" width="113.02927215189874" fill="white" stroke="#6B7279"/><rect class="cell" height="47.87767857142857" width="3" transform="translate(-3, 0)" fill="#6B7279" stroke="#6B7279"/><text font-size="12" fill="black"><tspan x="4" y="12.772172619047616">Create</tspan><tspan x="4" y="27.438839285714284">Process</tspan><tspan x="4" y="42.10550595238095">with Token</tspan></text></g></g><g class="tactic-label"><text font-size="12" fill="black" font-weight="bold"><tspan text-anchor="middle" x="64.01463607594937" y="20.188839285714284">Privilege</tspan><tspan text-anchor="middle" x="64.01463607594937" y="34.68883928571428">Escalation</tspan></text></g></g><g class="tactic defense-evasion" transform="translate(426.7642405063291, 0)"><g class="techniques"><g class="technique T1134" transform="translate(0, 47.87767857142857)"><rect class="cell" height="47.87767857142857" width="128.02927215189874" fill="#bcbddc" stroke="#6B7279"/><polygon class="sidebar" transform="translate(0, 47.87767857142857)" points="0,0 12,0 12,12" fill="#6B7279" visibility="visible"/><text font-size="12" fill="black"><tspan x="4" y="20.188839285714284">Access Token</tspan><tspan x="4" y="34.68883928571428">Manipulation</tspan></text></g><g class="technique T1140" transform="translate(0, 191.51071428571427)"><rect class="cell" height="47.87767857142857" width="128.02927215189874" fill="#bcbddc" stroke="#6B7279"/><polygon class="sidebar" transform="translate(0, 47.87767857142857)" points="0,0 12,0 12,0" fill="#6B7279" visibility="hidden"/><text font-size="9.669024701125176" fill="black"><tspan x="4" y="11.772172619047616">Deobfuscate/Decode</tspan><tspan x="4" y="26.438839285714284">Files</tspan><tspan x="4" y="41.10550595238095">or Information</tspan></text></g><g class="technique T1562" transform="translate(0, 239.38839285714286)"><rect class="cell" height="47.87767857142857" width="128.02927215189874" fill="#bcbddc" stroke="#6B7279"/><polygon class="sidebar" transform="translate(0, 47.87767857142857)" points="0,0 12,0 12,12" fill="#6B7279" visibility="visible"/><text font-size="12" fill="black"><tspan x="4" y="20.188839285714284">Impair</tspan><tspan x="4" y="34.68883928571428">Defenses</tspan></text></g><g class="technique T1070" transform="translate(0, 335.14375)"><rect class="cell" height="47.87767857142857" width="128.02927215189874" fill="#bcbddc" stroke="#6B7279"/><polygon class="sidebar" transform="translate(0, 47.87767857142857)" points="0,0 12,0 12,12" fill="#6B7279" visibility="visible"/><text font-size="12" fill="black"><tspan x="4" y="12.772172619047616">Indicator</tspan><tspan x="4" y="27.438839285714284">Removal</tspan><tspan x="4" y="42.10550595238095">on Host</tspan></text></g><g class="technique T1036" transform="translate(0, 430.8991071428572)"><rect class="cell" height="47.87767857142857" width="128.02927215189874" fill="#bcbddc" stroke="#6B7279"/><polygon class="sidebar" transform="translate(0, 47.87767857142857)" points="0,0 12,0 12,12" fill="#6B7279" visibility="visible"/><text font-size="12" fill="black"><tspan x="4" y="27.438839285714284">Masquerading</tspan></text></g><g class="technique T1112" transform="translate(0, 526.6544642857143)"><rect class="cell" height="47.87767857142857" width="128.02927215189874" fill="#bcbddc" stroke="#6B7279"/><polygon class="sidebar" transform="translate(0, 47.87767857142857)" points="0,0 12,0 12,0" fill="#6B7279" visibility="hidden"/><text font-size="12" fill="black"><tspan x="4" y="20.188839285714284">Modify</tspan><tspan x="4" y="34.68883928571428">Registry</tspan></text></g><g class="technique T1027" transform="translate(0, 574.5321428571428)"><rect class="cell" height="47.87767857142857" width="128.02927215189874" fill="#bcbddc" stroke="#6B7279"/><polygon class="sidebar" transform="translate(0, 47.87767857142857)" points="0,0 12,0 12,0" fill="#6B7279" visibility="visible"/><text font-size="12" fill="black"><tspan x="4" y="12.772172619047616">Obfuscated</tspan><tspan x="4" y="27.438839285714284">Files</tspan><tspan x="4" y="42.10550595238095">or Information</tspan></text></g><g class="technique T1055" transform="translate(0, 622.4098214285715)"><rect class="cell" height="47.87767857142857" width="128.02927215189874" fill="#bcbddc" stroke="#6B7279"/><polygon class="sidebar" transform="translate(0, 47.87767857142857)" points="0,0 12,0 12,0" fill="#6B7279" visibility="visible"/><text font-size="12" fill="black"><tspan x="4" y="20.188839285714284">Process</tspan><tspan x="4" y="34.68883928571428">Injection</tspan></text></g></g><g class="subtechniques"><g class="subtechnique T1134.001" transform="translate(15, 95.75535714285714)"><rect class="cell" height="47.87767857142857" width="113.02927215189874" fill="white" stroke="#6B7279"/><rect class="cell" height="47.87767857142857" width="3" transform="translate(-3, 0)" fill="#6B7279" stroke="#6B7279"/><text font-size="8.015391822118588" fill="black"><tspan x="4" y="19.188839285714284">Token</tspan><tspan x="4" y="33.68883928571428">Impersonation/Theft</tspan></text></g><g class="subtechnique T1134.002" transform="translate(15, 143.6330357142857)"><rect class="cell" height="47.87767857142857" width="113.02927215189874" fill="white" stroke="#6B7279"/><rect class="cell" height="47.87767857142857" width="3" transform="translate(-3, 0)" fill="#6B7279" stroke="#6B7279"/><text font-size="12" fill="black"><tspan x="4" y="12.772172619047616">Create</tspan><tspan x="4" y="27.438839285714284">Process</tspan><tspan x="4" y="42.10550595238095">with Token</tspan></text></g><g class="subtechnique T1562.001" transform="translate(15, 287.2660714285714)"><rect class="cell" height="47.87767857142857" width="113.02927215189874" fill="white" stroke="#6B7279"/><rect class="cell" height="47.87767857142857" width="3" transform="translate(-3, 0)" fill="#6B7279" stroke="#6B7279"/><text font-size="12" fill="black"><tspan x="4" y="20.188839285714284">Disable or</tspan><tspan x="4" y="34.68883928571428">Modify Tools</tspan></text></g><g class="subtechnique T1070.004" transform="translate(15, 383.02142857142854)"><rect class="cell" height="47.87767857142857" width="113.02927215189874" fill="white" stroke="#6B7279"/><rect class="cell" height="47.87767857142857" width="3" transform="translate(-3, 0)" fill="#6B7279" stroke="#6B7279"/><text font-size="12" fill="black"><tspan x="4" y="20.188839285714284">File</tspan><tspan x="4" y="34.68883928571428">Deletion</tspan></text></g><g class="subtechnique T1036.005" transform="translate(15, 478.7767857142857)"><rect class="cell" height="47.87767857142857" width="113.02927215189874" fill="white" stroke="#6B7279"/><rect class="cell" height="47.87767857142857" width="3" transform="translate(-3, 0)" fill="#6B7279" stroke="#6B7279"/><text font-size="10.15282964135021" fill="black"><tspan x="4" y="12.772172619047616">Match</tspan><tspan x="4" y="27.438839285714284">Legitimate Name</tspan><tspan x="4" y="42.10550595238095">or Location</tspan></text></g></g><g class="tactic-label"><text font-size="12" fill="black" font-weight="bold"><tspan text-anchor="middle" x="64.01463607594937" y="20.188839285714284">Defense</tspan><tspan text-anchor="middle" x="64.01463607594937" y="34.68883928571428">Evasion</tspan></text></g></g><g class="tactic discovery" transform="translate(569.0189873417721, 0)"><g class="techniques"><g class="technique T1083" transform="translate(0, 47.87767857142857)"><rect class="cell" height="47.87767857142857" width="128.02927215189874" fill="#bcbddc" stroke="#6B7279"/><polygon class="sidebar" transform="translate(0, 47.87767857142857)" points="0,0 12,0 12,0" fill="#6B7279" visibility="hidden"/><text font-size="12" fill="black"><tspan x="4" y="12.772172619047616">File</tspan><tspan x="4" y="27.438839285714284">and Directory</tspan><tspan x="4" y="42.10550595238095">Discovery</tspan></text></g><g class="technique T1069" transform="translate(0, 95.75535714285714)"><rect class="cell" height="47.87767857142857" width="128.02927215189874" fill="#bcbddc" stroke="#6B7279"/><polygon class="sidebar" transform="translate(0, 47.87767857142857)" points="0,0 12,0 12,12" fill="#6B7279" visibility="visible"/><text font-size="12" fill="black"><tspan x="4" y="12.772172619047616">Permission</tspan><tspan x="4" y="27.438839285714284">Groups</tspan><tspan x="4" y="42.10550595238095">Discovery</tspan></text></g><g class="technique T1012" transform="translate(0, 191.51071428571427)"><rect class="cell" height="47.87767857142857" width="128.02927215189874" fill="#bcbddc" stroke="#6B7279"/><polygon class="sidebar" transform="translate(0, 47.87767857142857)" points="0,0 12,0 12,0" fill="#6B7279" visibility="hidden"/><text font-size="12" fill="black"><tspan x="4" y="27.438839285714284">Query Registry</tspan></text></g><g class="technique T1082" transform="translate(0, 239.38839285714286)"><rect class="cell" height="47.87767857142857" width="128.02927215189874" fill="#bcbddc" stroke="#6B7279"/><polygon class="sidebar" transform="translate(0, 47.87767857142857)" points="0,0 12,0 12,0" fill="#6B7279" visibility="hidden"/><text font-size="12" fill="black"><tspan x="4" y="12.772172619047616">System</tspan><tspan x="4" y="27.438839285714284">Information</tspan><tspan x="4" y="42.10550595238095">Discovery</tspan></text></g><g class="technique T1007" transform="translate(0, 287.2660714285714)"><rect class="cell" height="47.87767857142857" width="128.02927215189874" fill="#bcbddc" stroke="#6B7279"/><polygon class="sidebar" transform="translate(0, 47.87767857142857)" points="0,0 12,0 12,0" fill="#6B7279" visibility="hidden"/><text font-size="12" fill="black"><tspan x="4" y="20.188839285714284">System Service</tspan><tspan x="4" y="34.68883928571428">Discovery</tspan></text></g></g><g class="subtechniques"><g class="subtechnique T1069.002" transform="translate(15, 143.6330357142857)"><rect class="cell" height="47.87767857142857" width="113.02927215189874" fill="white" stroke="#6B7279"/><rect class="cell" height="47.87767857142857" width="3" transform="translate(-3, 0)" fill="#6B7279" stroke="#6B7279"/><text font-size="12" fill="black"><tspan x="4" y="20.188839285714284">Domain</tspan><tspan x="4" y="34.68883928571428">Groups</tspan></text></g></g><g class="tactic-label"><text font-size="12" fill="black" font-weight="bold"><tspan text-anchor="middle" x="64.01463607594937" y="27.438839285714284">Discovery</tspan></text></g></g><g class="tactic command-and-control" transform="translate(711.2737341772151, 0)"><g class="techniques"><g class="technique T1071" transform="translate(0, 47.87767857142857)"><rect class="cell" height="47.87767857142857" width="128.02927215189874" fill="#bcbddc" stroke="#6B7279"/><polygon class="sidebar" transform="translate(0, 47.87767857142857)" points="0,0 12,0 12,12" fill="#6B7279" visibility="visible"/><text font-size="12" fill="black"><tspan x="4" y="20.188839285714284">Application</tspan><tspan x="4" y="34.68883928571428">Layer Protocol</tspan></text></g><g class="technique T1573" transform="translate(0, 143.6330357142857)"><rect class="cell" height="47.87767857142857" width="128.02927215189874" fill="#bcbddc" stroke="#6B7279"/><polygon class="sidebar" transform="translate(0, 47.87767857142857)" points="0,0 12,0 12,12" fill="#6B7279" visibility="visible"/><text font-size="12" fill="black"><tspan x="4" y="20.188839285714284">Encrypted</tspan><tspan x="4" y="34.68883928571428">Channel</tspan></text></g><g class="technique T1105" transform="translate(0, 239.38839285714286)"><rect class="cell" height="47.87767857142857" width="128.02927215189874" fill="#bcbddc" stroke="#6B7279"/><polygon class="sidebar" transform="translate(0, 47.87767857142857)" points="0,0 12,0 12,0" fill="#6B7279" visibility="hidden"/><text font-size="12" fill="black"><tspan x="4" y="20.188839285714284">Ingress</tspan><tspan x="4" y="34.68883928571428">Tool Transfer</tspan></text></g></g><g class="subtechniques"><g class="subtechnique T1071.001" transform="translate(15, 95.75535714285714)"><rect class="cell" height="47.87767857142857" width="113.02927215189874" fill="white" stroke="#6B7279"/><rect class="cell" height="47.87767857142857" width="3" transform="translate(-3, 0)" fill="#6B7279" stroke="#6B7279"/><text font-size="12" fill="black"><tspan x="4" y="20.188839285714284">Web</tspan><tspan x="4" y="34.68883928571428">Protocols</tspan></text></g><g class="subtechnique T1573.002" transform="translate(15, 191.51071428571427)"><rect class="cell" height="47.87767857142857" width="113.02927215189874" fill="white" stroke="#6B7279"/><rect class="cell" height="47.87767857142857" width="3" transform="translate(-3, 0)" fill="#6B7279" stroke="#6B7279"/><text font-size="12" fill="black"><tspan x="4" y="20.188839285714284">Asymmetric</tspan><tspan x="4" y="34.68883928571428">Cryptography</tspan></text></g></g><g class="tactic-label"><text font-size="12" fill="black" font-weight="bold"><tspan text-anchor="middle" x="64.01463607594937" y="20.188839285714284">Command</tspan><tspan text-anchor="middle" x="64.01463607594937" y="34.68883928571428">and Control</tspan></text></g></g><g class="tactic exfiltration" transform="translate(853.5284810126582, 0)"><g class="techniques"><g class="technique T1041" transform="translate(0, 47.87767857142857)"><rect class="cell" height="47.87767857142857" width="128.02927215189874" fill="#bcbddc" stroke="#6B7279"/><polygon class="sidebar" transform="translate(0, 47.87767857142857)" points="0,0 12,0 12,0" fill="#6B7279" visibility="hidden"/><text font-size="12" fill="black"><tspan x="4" y="12.772172619047616">Exfiltration</tspan><tspan x="4" y="27.438839285714284">Over</tspan><tspan x="4" y="42.10550595238095">C2 Channel</tspan></text></g></g><g class="subtechniques"/><g class="tactic-label"><text font-size="12" fill="black" font-weight="bold"><tspan text-anchor="middle" x="64.01463607594937" y="27.438839285714284">Exfiltration</tspan></text></g></g><g class="tactic impact" transform="translate(995.7832278481012, 0)"><g class="techniques"><g class="technique T1485" transform="translate(0, 47.87767857142857)"><rect class="cell" height="47.87767857142857" width="128.02927215189874" fill="#bcbddc" stroke="#6B7279"/><polygon class="sidebar" transform="translate(0, 47.87767857142857)" points="0,0 12,0 12,0" fill="#6B7279" visibility="hidden"/><text font-size="12" fill="black"><tspan x="4" y="20.188839285714284">Data</tspan><tspan x="4" y="34.68883928571428">Destruction</tspan></text></g><g class="technique T1486" transform="translate(0, 95.75535714285714)"><rect class="cell" height="47.87767857142857" width="128.02927215189874" fill="#bcbddc" stroke="#6B7279"/><polygon class="sidebar" transform="translate(0, 47.87767857142857)" points="0,0 12,0 12,0" fill="#6B7279" visibility="hidden"/><text font-size="12" fill="black"><tspan x="4" y="20.188839285714284">Data Encrypted</tspan><tspan x="4" y="34.68883928571428">for Impact</tspan></text></g><g class="technique T1490" transform="translate(0, 143.6330357142857)"><rect class="cell" height="47.87767857142857" width="128.02927215189874" fill="#bcbddc" stroke="#6B7279"/><polygon class="sidebar" transform="translate(0, 47.87767857142857)" points="0,0 12,0 12,0" fill="#6B7279" visibility="hidden"/><text font-size="12" fill="black"><tspan x="4" y="20.188839285714284">Inhibit System</tspan><tspan x="4" y="34.68883928571428">Recovery</tspan></text></g><g class="technique T1489" transform="translate(0, 191.51071428571427)"><rect class="cell" height="47.87767857142857" width="128.02927215189874" fill="#bcbddc" stroke="#6B7279"/><polygon class="sidebar" transform="translate(0, 47.87767857142857)" points="0,0 12,0 12,0" fill="#6B7279" visibility="hidden"/><text font-size="12" fill="black"><tspan x="4" y="27.438839285714284">Service Stop</tspan></text></g></g><g class="subtechniques"/><g class="tactic-label"><text font-size="12" fill="black" font-weight="bold"><tspan text-anchor="middle" x="64.01463607594937" y="27.438839285714284">Impact</tspan></text></g></g></g></g></g></svg>