<?xml version="1.0" standalone="no"?>
<svg width="1440" height="864" xmlns="http://www.w3.org/2000/svg" id="svgvm0"><g transform="translate(5,5)" style="font-family: sans-serif;"><g transform="translate(0,1)"><g><g class="tactic initial-access" transform="translate(0, 0)"><g class="techniques"><g class="technique T1566" transform="translate(0, 85.4)"><rect class="cell" height="85.4" width="130" fill="#dadaeb" stroke="#6B7279"/><polygon class="sidebar" transform="translate(0, 85.4)" points="0,0 12,0 12,12" fill="#6B7279" visibility="visible"/><text font-size="12" fill="black"><tspan x="4" y="46.2">Phishing</tspan></text></g><g class="technique T1078" transform="translate(0, 341.6)"><rect class="cell" height="85.4" width="130" fill="#dadaeb" stroke="#6B7279"/><polygon class="sidebar" transform="translate(0, 85.4)" points="0,0 12,0 12,0" fill="#6B7279" visibility="hidden"/><text font-size="12" fill="black"><tspan x="4" y="46.2">Valid Accounts</tspan></text></g></g><g class="subtechniques"><g class="subtechnique T1566.001" transform="translate(15, 170.8)"><rect class="cell" height="85.4" width="115" fill="white" stroke="#6B7279"/><rect class="cell" height="85.4" width="3" transform="translate(-3, 0)" fill="#6B7279" stroke="#6B7279"/><text font-size="11.934615384615382" fill="black"><tspan x="4" y="38.95">Spearphishing</tspan><tspan x="4" y="53.45">Attachment</tspan></text></g><g class="subtechnique T1566.002" transform="translate(15, 256.2)"><rect class="cell" height="85.4" width="115" fill="white" stroke="#6B7279"/><rect class="cell" height="85.4" width="3" transform="translate(-3, 0)" fill="#6B7279" stroke="#6B7279"/><text font-size="11.934615384615382" fill="black"><tspan x="4" y="38.95">Spearphishing</tspan><tspan x="4" y="53.45">Link</tspan></text></g></g><g class="tactic-label"><text font-size="12" fill="black" font-weight="bold"><tspan text-anchor="middle" x="65" y="46.2">Initial Access</tspan></text></g></g><g class="tactic execution" transform="translate(144.44444444444443, 0)"><g class="techniques"><g class="technique T1059" transform="translate(0, 85.4)"><rect class="cell" height="85.4" width="130" fill="#dadaeb" stroke="#6B7279"/><polygon class="sidebar" transform="translate(0, 85.4)" points="0,0 12,0 12,12" fill="#6B7279" visibility="visible"/><text font-size="12" fill="black"><tspan x="4" y="31.533333333333335">Command</tspan><tspan x="4" y="46.2">and Scripting</tspan><tspan x="4" y="60.86666666666667">Interpreter</tspan></text></g><g class="technique T1106" transform="translate(0, 427)"><rect class="cell" height="85.4" width="130" fill="#dadaeb" stroke="#6B7279"/><polygon class="sidebar" transform="translate(0, 85.4)" points="0,0 12,0 12,0" fill="#6B7279" visibility="hidden"/><text font-size="12" fill="black"><tspan x="4" y="46.2">Native API</tspan></text></g><g class="technique T1204" transform="translate(0, 512.4)"><rect class="cell" height="85.4" width="130" fill="#dadaeb" stroke="#6B7279"/><polygon class="sidebar" transform="translate(0, 85.4)" points="0,0 12,0 12,12" fill="#6B7279" visibility="visible"/><text font-size="12" fill="black"><tspan x="4" y="46.2">User Execution</tspan></text></g></g><g class="subtechniques"><g class="subtechnique T1059.001" transform="translate(15, 170.8)"><rect class="cell" height="85.4" width="115" fill="white" stroke="#6B7279"/><rect class="cell" height="85.4" width="3" transform="translate(-3, 0)" fill="#6B7279" stroke="#6B7279"/><text font-size="12" fill="black"><tspan x="4" y="46.2">PowerShell</tspan></text></g><g class="subtechnique T1059.003" transform="translate(15, 256.2)"><rect class="cell" height="85.4" width="115" fill="white" stroke="#6B7279"/><rect class="cell" height="85.4" width="3" transform="translate(-3, 0)" fill="#6B7279" stroke="#6B7279"/><text font-size="12" fill="black"><tspan x="4" y="31.533333333333335">Windows</tspan><tspan x="4" y="46.2">Command</tspan><tspan x="4" y="60.86666666666667">Shell</tspan></text></g><g class="subtechnique T1059.005" transform="translate(15, 341.6)"><rect class="cell" height="85.4" width="115" fill="white" stroke="#6B7279"/><rect class="cell" height="85.4" width="3" transform="translate(-3, 0)" fill="#6B7279" stroke="#6B7279"/><text font-size="12" fill="black"><tspan x="4" y="46.2">Visual Basic</tspan></text></g><g class="subtechnique T1204.002" transform="translate(15, 597.8)"><rect class="cell" height="85.4" width="115" fill="white" stroke="#6B7279"/><rect class="cell" height="85.4" width="3" transform="translate(-3, 0)" fill="#6B7279" stroke="#6B7279"/><text font-size="12" fill="black"><tspan x="4" y="38.95">Malicious</tspan><tspan x="4" y="53.45">File</tspan></text></g></g><g class="tactic-label"><text font-size="12" fill="black" font-weight="bold"><tspan text-anchor="middle" x="65" y="46.2">Execution</tspan></text></g></g><g class="tactic persistence" transform="translate(288.88888888888886, 0)"><g class="techniques"><g class="technique T1078" transform="translate(0, 85.4)"><rect class="cell" height="85.4" width="130" fill="#dadaeb" stroke="#6B7279"/><polygon class="sidebar" transform="translate(0, 85.4)" points="0,0 12,0 12,0" fill="#6B7279" visibility="hidden"/><text font-size="12" fill="black"><tspan x="4" y="46.2">Valid Accounts</tspan></text></g></g><g class="subtechniques"/><g class="tactic-label"><text font-size="12" fill="black" font-weight="bold"><tspan text-anchor="middle" x="65" y="46.2">Persistence</tspan></text></g></g><g class="tactic privilege-escalation" transform="translate(433.33333333333326, 0)"><g class="techniques"><g class="technique T1134" transform="translate(0, 85.4)"><rect class="cell" height="85.4" width="130" fill="#dadaeb" stroke="#6B7279"/><polygon class="sidebar" transform="translate(0, 85.4)" points="0,0 12,0 12,12" fill="#6B7279" visibility="visible"/><text font-size="12" fill="black"><tspan x="4" y="38.95">Access Token</tspan><tspan x="4" y="53.45">Manipulation</tspan></text></g><g class="technique T1484" transform="translate(0, 341.6)"><rect class="cell" height="85.4" width="130" fill="#dadaeb" stroke="#6B7279"/><polygon class="sidebar" transform="translate(0, 85.4)" points="0,0 12,0 12,0" fill="#6B7279" visibility="hidden"/><text font-size="12" fill="black"><tspan x="4" y="38.95">Domain Policy</tspan><tspan x="4" y="53.45">Modification</tspan></text></g><g class="technique T1055" transform="translate(0, 427)"><rect class="cell" height="85.4" width="130" fill="#dadaeb" stroke="#6B7279"/><polygon class="sidebar" transform="translate(0, 85.4)" points="0,0 12,0 12,0" fill="#6B7279" visibility="hidden"/><text font-size="12" fill="black"><tspan x="4" y="38.95">Process</tspan><tspan x="4" y="53.45">Injection</tspan></text></g><g class="technique T1078" transform="translate(0, 512.4)"><rect class="cell" height="85.4" width="130" fill="#dadaeb" stroke="#6B7279"/><polygon class="sidebar" transform="translate(0, 85.4)" points="0,0 12,0 12,0" fill="#6B7279" visibility="hidden"/><text font-size="12" fill="black"><tspan x="4" y="46.2">Valid Accounts</tspan></text></g></g><g class="subtechniques"><g class="subtechnique T1134.001" transform="translate(15, 170.8)"><rect class="cell" height="85.4" width="115" fill="white" stroke="#6B7279"/><rect class="cell" height="85.4" width="3" transform="translate(-3, 0)" fill="#6B7279" stroke="#6B7279"/><text font-size="8.16578947368421" fill="black"><tspan x="4" y="37.95">Token</tspan><tspan x="4" y="52.45">Impersonation/Theft</tspan></text></g><g class="subtechnique T1134.002" transform="translate(15, 256.2)"><rect class="cell" height="85.4" width="115" fill="white" stroke="#6B7279"/><rect class="cell" height="85.4" width="3" transform="translate(-3, 0)" fill="#6B7279" stroke="#6B7279"/><text font-size="12" fill="black"><tspan x="4" y="31.533333333333335">Create</tspan><tspan x="4" y="46.2">Process</tspan><tspan x="4" y="60.86666666666667">with Token</tspan></text></g></g><g class="tactic-label"><text font-size="12" fill="black" font-weight="bold"><tspan text-anchor="middle" x="65" y="38.95">Privilege</tspan><tspan text-anchor="middle" x="65" y="53.45">Escalation</tspan></text></g></g><g class="tactic defense-evasion" transform="translate(577.7777777777777, 0)"><g class="techniques"><g class="technique T1134" transform="translate(0, 85.4)"><rect class="cell" height="85.4" width="130" fill="#dadaeb" stroke="#6B7279"/><polygon class="sidebar" transform="translate(0, 85.4)" points="0,0 12,0 12,12" fill="#6B7279" visibility="hidden"/><text font-size="12" fill="black"><tspan x="4" y="38.95">Access Token</tspan><tspan x="4" y="53.45">Manipulation</tspan></text></g><g class="technique T1140" transform="translate(0, 170.8)"><rect class="cell" height="85.4" width="130" fill="#dadaeb" stroke="#6B7279"/><polygon class="sidebar" transform="translate(0, 85.4)" points="0,0 12,0 12,0" fill="#6B7279" visibility="hidden"/><text font-size="9.827777777777778" fill="black"><tspan x="4" y="30.533333333333335">Deobfuscate/Decode</tspan><tspan x="4" y="45.2">Files</tspan><tspan x="4" y="59.86666666666667">or Information</tspan></text></g><g class="technique T1484" transform="translate(0, 256.2)"><rect class="cell" height="85.4" width="130" fill="#dadaeb" stroke="#6B7279"/><polygon class="sidebar" transform="translate(0, 85.4)" points="0,0 12,0 12,0" fill="#6B7279" visibility="hidden"/><text font-size="12" fill="black"><tspan x="4" y="38.95">Domain Policy</tspan><tspan x="4" y="53.45">Modification</tspan></text></g><g class="technique T1562" transform="translate(0, 341.6)"><rect class="cell" height="85.4" width="130" fill="#dadaeb" stroke="#6B7279"/><polygon class="sidebar" transform="translate(0, 85.4)" points="0,0 12,0 12,12" fill="#6B7279" visibility="visible"/><text font-size="12" fill="black"><tspan x="4" y="38.95">Impair</tspan><tspan x="4" y="53.45">Defenses</tspan></text></g><g class="technique T1036" transform="translate(0, 512.4)"><rect class="cell" height="85.4" width="130" fill="#dadaeb" stroke="#6B7279"/><polygon class="sidebar" transform="translate(0, 85.4)" points="0,0 12,0 12,0" fill="#6B7279" visibility="hidden"/><text font-size="12" fill="black"><tspan x="4" y="46.2">Masquerading</tspan></text></g><g class="technique T1112" transform="translate(0, 597.8)"><rect class="cell" height="85.4" width="130" fill="#dadaeb" stroke="#6B7279"/><polygon class="sidebar" transform="translate(0, 85.4)" points="0,0 12,0 12,0" fill="#6B7279" visibility="hidden"/><text font-size="12" fill="black"><tspan x="4" y="38.95">Modify</tspan><tspan x="4" y="53.45">Registry</tspan></text></g><g class="technique T1055" transform="translate(0, 683.2)"><rect class="cell" height="85.4" width="130" fill="#dadaeb" stroke="#6B7279"/><polygon class="sidebar" transform="translate(0, 85.4)" points="0,0 12,0 12,0" fill="#6B7279" visibility="hidden"/><text font-size="12" fill="black"><tspan x="4" y="38.95">Process</tspan><tspan x="4" y="53.45">Injection</tspan></text></g><g class="technique T1078" transform="translate(0, 768.6)"><rect class="cell" height="85.4" width="130" fill="#dadaeb" stroke="#6B7279"/><polygon class="sidebar" transform="translate(0, 85.4)" points="0,0 12,0 12,0" fill="#6B7279" visibility="hidden"/><text font-size="12" fill="black"><tspan x="4" y="46.2">Valid Accounts</tspan></text></g></g><g class="subtechniques"><g class="subtechnique T1562.001" transform="translate(15, 427)"><rect class="cell" height="85.4" width="115" fill="white" stroke="#6B7279"/><rect class="cell" height="85.4" width="3" transform="translate(-3, 0)" fill="#6B7279" stroke="#6B7279"/><text font-size="12" fill="black"><tspan x="4" y="38.95">Disable or</tspan><tspan x="4" y="53.45">Modify Tools</tspan></text></g></g><g class="tactic-label"><text font-size="12" fill="black" font-weight="bold"><tspan text-anchor="middle" x="65" y="38.95">Defense</tspan><tspan text-anchor="middle" x="65" y="53.45">Evasion</tspan></text></g></g><g class="tactic discovery" transform="translate(722.2222222222222, 0)"><g class="techniques"><g class="technique T1087" transform="translate(0, 85.4)"><rect class="cell" height="85.4" width="130" fill="#dadaeb" stroke="#6B7279"/><polygon class="sidebar" transform="translate(0, 85.4)" points="0,0 12,0 12,0" fill="#6B7279" visibility="hidden"/><text font-size="12" fill="black"><tspan x="4" y="38.95">Account</tspan><tspan x="4" y="53.45">Discovery</tspan></text></g><g class="technique T1482" transform="translate(0, 170.8)"><rect class="cell" height="85.4" width="130" fill="#dadaeb" stroke="#6B7279"/><polygon class="sidebar" transform="translate(0, 85.4)" points="0,0 12,0 12,0" fill="#6B7279" visibility="hidden"/><text font-size="12" fill="black"><tspan x="4" y="38.95">Domain Trust</tspan><tspan x="4" y="53.45">Discovery</tspan></text></g><g class="technique T1069" transform="translate(0, 256.2)"><rect class="cell" height="85.4" width="130" fill="#dadaeb" stroke="#6B7279"/><polygon class="sidebar" transform="translate(0, 85.4)" points="0,0 12,0 12,0" fill="#6B7279" visibility="hidden"/><text font-size="12" fill="black"><tspan x="4" y="31.533333333333335">Permission</tspan><tspan x="4" y="46.2">Groups</tspan><tspan x="4" y="60.86666666666667">Discovery</tspan></text></g></g><g class="subtechniques"/><g class="tactic-label"><text font-size="12" fill="black" font-weight="bold"><tspan text-anchor="middle" x="65" y="46.2">Discovery</tspan></text></g></g><g class="tactic lateral-movement" transform="translate(866.6666666666665, 0)"><g class="techniques"><g class="technique T1021" transform="translate(0, 85.4)"><rect class="cell" height="85.4" width="130" fill="#dadaeb" stroke="#6B7279"/><polygon class="sidebar" transform="translate(0, 85.4)" points="0,0 12,0 12,0" fill="#6B7279" visibility="hidden"/><text font-size="12" fill="black"><tspan x="4" y="38.95">Remote</tspan><tspan x="4" y="53.45">Services</tspan></text></g></g><g class="subtechniques"/><g class="tactic-label"><text font-size="12" fill="black" font-weight="bold"><tspan text-anchor="middle" x="65" y="38.95">Lateral</tspan><tspan text-anchor="middle" x="65" y="53.45">Movement</tspan></text></g></g><g class="tactic command-and-control" transform="translate(1011.111111111111, 0)"><g class="techniques"><g class="technique T1573" transform="translate(0, 85.4)"><rect class="cell" height="85.4" width="130" fill="#dadaeb" stroke="#6B7279"/><polygon class="sidebar" transform="translate(0, 85.4)" points="0,0 12,0 12,12" fill="#6B7279" visibility="visible"/><text font-size="12" fill="black"><tspan x="4" y="38.95">Encrypted</tspan><tspan x="4" y="53.45">Channel</tspan></text></g><g class="technique T1105" transform="translate(0, 256.2)"><rect class="cell" height="85.4" width="130" fill="#dadaeb" stroke="#6B7279"/><polygon class="sidebar" transform="translate(0, 85.4)" points="0,0 12,0 12,0" fill="#6B7279" visibility="hidden"/><text font-size="12" fill="black"><tspan x="4" y="38.95">Ingress</tspan><tspan x="4" y="53.45">Tool Transfer</tspan></text></g></g><g class="subtechniques"><g class="subtechnique T1573.002" transform="translate(15, 170.8)"><rect class="cell" height="85.4" width="115" fill="white" stroke="#6B7279"/><rect class="cell" height="85.4" width="3" transform="translate(-3, 0)" fill="#6B7279" stroke="#6B7279"/><text font-size="12" fill="black"><tspan x="4" y="38.95">Asymmetric</tspan><tspan x="4" y="53.45">Cryptography</tspan></text></g></g><g class="tactic-label"><text font-size="12" fill="black" font-weight="bold"><tspan text-anchor="middle" x="65" y="38.95">Command</tspan><tspan text-anchor="middle" x="65" y="53.45">and Control</tspan></text></g></g><g class="tactic exfiltration" transform="translate(1155.5555555555554, 0)"><g class="techniques"><g class="technique T1567" transform="translate(0, 85.4)"><rect class="cell" height="85.4" width="130" fill="#dadaeb" stroke="#6B7279"/><polygon class="sidebar" transform="translate(0, 85.4)" points="0,0 12,0 12,0" fill="#6B7279" visibility="hidden"/><text font-size="12" fill="black"><tspan x="4" y="31.533333333333335">Exfiltration</tspan><tspan x="4" y="46.2">Over</tspan><tspan x="4" y="60.86666666666667">Web Service</tspan></text></g></g><g class="subtechniques"/><g class="tactic-label"><text font-size="12" fill="black" font-weight="bold"><tspan text-anchor="middle" x="65" y="46.2">Exfiltration</tspan></text></g></g><g class="tactic impact" transform="translate(1299.9999999999998, 0)"><g class="techniques"><g class="technique T1486" transform="translate(0, 85.4)"><rect class="cell" height="85.4" width="130" fill="#dadaeb" stroke="#6B7279"/><polygon class="sidebar" transform="translate(0, 85.4)" points="0,0 12,0 12,0" fill="#6B7279" visibility="hidden"/><text font-size="12" fill="black"><tspan x="4" y="38.95">Data Encrypted</tspan><tspan x="4" y="53.45">for Impact</tspan></text></g></g><g class="subtechniques"/><g class="tactic-label"><text font-size="12" fill="black" font-weight="bold"><tspan text-anchor="middle" x="65" y="46.2">Impact</tspan></text></g></g></g></g></g></svg>