<?xml version="1.0" standalone="no"?>
<svg width="1440" height="864" xmlns="http://www.w3.org/2000/svg" id="svgvm0"><g transform="translate(5,5)" style="font-family: sans-serif;"><g transform="translate(0,1)"><g><g class="tactic initial-access" transform="translate(0, 0)"><g class="techniques"><g class="technique T1189" transform="translate(0, 85.4)"><rect class="cell" height="85.4" width="162.9113924050633" fill="#dadaeb" stroke="#6B7279"/><polygon class="sidebar" transform="translate(0, 85.4)" points="0,0 12,0 12,0" fill="#6B7279" visibility="hidden"/><text font-size="12" fill="black"><tspan x="4" y="38.95">Drive-by</tspan><tspan x="4" y="53.45">Compromise</tspan></text></g><g class="technique T1566" transform="translate(0, 170.8)"><rect class="cell" height="85.4" width="162.9113924050633" fill="#dadaeb" stroke="#6B7279"/><polygon class="sidebar" transform="translate(0, 85.4)" points="0,0 12,0 12,0" fill="#6B7279" visibility="hidden"/><text font-size="12" fill="black"><tspan x="4" y="46.2">Phishing</tspan></text></g></g><g class="subtechniques"/><g class="tactic-label"><text font-size="12" fill="black" font-weight="bold"><tspan text-anchor="middle" x="81.45569620253166" y="46.2">Initial Access</tspan></text></g></g><g class="tactic execution" transform="translate(181.0126582278481, 0)"><g class="techniques"><g class="technique T1059" transform="translate(0, 85.4)"><rect class="cell" height="85.4" width="162.9113924050633" fill="#dadaeb" stroke="#6B7279"/><polygon class="sidebar" transform="translate(0, 85.4)" points="0,0 12,0 12,0" fill="#6B7279" visibility="hidden"/><text font-size="12" fill="black"><tspan x="4" y="31.533333333333335">Command</tspan><tspan x="4" y="46.2">and Scripting</tspan><tspan x="4" y="60.86666666666667">Interpreter</tspan></text></g><g class="technique T1203" transform="translate(0, 170.8)"><rect class="cell" height="85.4" width="162.9113924050633" fill="#dadaeb" stroke="#6B7279"/><polygon class="sidebar" transform="translate(0, 85.4)" points="0,0 12,0 12,0" fill="#6B7279" visibility="hidden"/><text font-size="12" fill="black"><tspan x="4" y="38.95">Exploitation for</tspan><tspan x="4" y="53.45">Client Execution</tspan></text></g><g class="technique T1106" transform="translate(0, 256.2)"><rect class="cell" height="85.4" width="162.9113924050633" fill="#dadaeb" stroke="#6B7279"/><polygon class="sidebar" transform="translate(0, 85.4)" points="0,0 12,0 12,0" fill="#6B7279" visibility="hidden"/><text font-size="12" fill="black"><tspan x="4" y="46.2">Native API</tspan></text></g></g><g class="subtechniques"/><g class="tactic-label"><text font-size="12" fill="black" font-weight="bold"><tspan text-anchor="middle" x="81.45569620253166" y="46.2">Execution</tspan></text></g></g><g class="tactic defense-evasion" transform="translate(362.0253164556962, 0)"><g class="techniques"><g class="technique T1140" transform="translate(0, 85.4)"><rect class="cell" height="85.4" width="162.9113924050633" fill="#dadaeb" stroke="#6B7279"/><polygon class="sidebar" transform="translate(0, 85.4)" points="0,0 12,0 12,0" fill="#6B7279" visibility="hidden"/><text font-size="12" fill="black"><tspan x="4" y="31.533333333333335">Deobfuscate/Decode</tspan><tspan x="4" y="46.2">Files</tspan><tspan x="4" y="60.86666666666667">or Information</tspan></text></g><g class="technique T1027" transform="translate(0, 170.8)"><rect class="cell" height="85.4" width="162.9113924050633" fill="#dadaeb" stroke="#6B7279"/><polygon class="sidebar" transform="translate(0, 85.4)" points="0,0 12,0 12,0" fill="#6B7279" visibility="hidden"/><text font-size="12" fill="black"><tspan x="4" y="38.95">Obfuscated Files</tspan><tspan x="4" y="53.45">or Information</tspan></text></g></g><g class="subtechniques"/><g class="tactic-label"><text font-size="12" fill="black" font-weight="bold"><tspan text-anchor="middle" x="81.45569620253166" y="46.2">Defense Evasion</tspan></text></g></g><g class="tactic credential-access" transform="translate(543.0379746835443, 0)"><g class="techniques"><g class="technique T1555" transform="translate(0, 85.4)"><rect class="cell" height="85.4" width="162.9113924050633" fill="#dadaeb" stroke="#6B7279"/><polygon class="sidebar" transform="translate(0, 85.4)" points="0,0 12,0 12,12" fill="#6B7279" visibility="visible"/><text font-size="12" fill="black"><tspan x="4" y="38.95">Credentials from</tspan><tspan x="4" y="53.45">Password Stores</tspan></text></g><g class="technique T1056" transform="translate(0, 256.2)"><rect class="cell" height="85.4" width="162.9113924050633" fill="#dadaeb" stroke="#6B7279"/><polygon class="sidebar" transform="translate(0, 85.4)" points="0,0 12,0 12,0" fill="#6B7279" visibility="hidden"/><text font-size="12" fill="black"><tspan x="4" y="46.2">Input Capture</tspan></text></g><g class="technique T1003" transform="translate(0, 341.6)"><rect class="cell" height="85.4" width="162.9113924050633" fill="#dadaeb" stroke="#6B7279"/><polygon class="sidebar" transform="translate(0, 85.4)" points="0,0 12,0 12,0" fill="#6B7279" visibility="hidden"/><text font-size="12" fill="black"><tspan x="4" y="38.95">OS</tspan><tspan x="4" y="53.45">Credential Dumping</tspan></text></g><g class="technique T1552" transform="translate(0, 427)"><rect class="cell" height="85.4" width="162.9113924050633" fill="#dadaeb" stroke="#6B7279"/><polygon class="sidebar" transform="translate(0, 85.4)" points="0,0 12,0 12,12" fill="#6B7279" visibility="visible"/><text font-size="12" fill="black"><tspan x="4" y="38.95">Unsecured</tspan><tspan x="4" y="53.45">Credentials</tspan></text></g></g><g class="subtechniques"><g class="subtechnique T1555.003" transform="translate(15, 170.8)"><rect class="cell" height="85.4" width="147.9113924050633" fill="white" stroke="#6B7279"/><rect class="cell" height="85.4" width="3" transform="translate(-3, 0)" fill="#6B7279" stroke="#6B7279"/><text font-size="12" fill="black"><tspan x="4" y="38.95">Credentials from</tspan><tspan x="4" y="53.45">Web Browsers</tspan></text></g><g class="subtechnique T1552.001" transform="translate(15, 512.4)"><rect class="cell" height="85.4" width="147.9113924050633" fill="white" stroke="#6B7279"/><rect class="cell" height="85.4" width="3" transform="translate(-3, 0)" fill="#6B7279" stroke="#6B7279"/><text font-size="12" fill="black"><tspan x="4" y="38.95">Credentials</tspan><tspan x="4" y="53.45">In Files</tspan></text></g></g><g class="tactic-label"><text font-size="12" fill="black" font-weight="bold"><tspan text-anchor="middle" x="81.45569620253166" y="46.2">Credential Access</tspan></text></g></g><g class="tactic discovery" transform="translate(724.0506329113924, 0)"><g class="techniques"><g class="technique T1087" transform="translate(0, 85.4)"><rect class="cell" height="85.4" width="162.9113924050633" fill="#dadaeb" stroke="#6B7279"/><polygon class="sidebar" transform="translate(0, 85.4)" points="0,0 12,0 12,0" fill="#6B7279" visibility="hidden"/><text font-size="12" fill="black"><tspan x="4" y="46.2">Account Discovery</tspan></text></g><g class="technique T1083" transform="translate(0, 170.8)"><rect class="cell" height="85.4" width="162.9113924050633" fill="#dadaeb" stroke="#6B7279"/><polygon class="sidebar" transform="translate(0, 85.4)" points="0,0 12,0 12,0" fill="#6B7279" visibility="hidden"/><text font-size="12" fill="black"><tspan x="4" y="38.95">File and Directory</tspan><tspan x="4" y="53.45">Discovery</tspan></text></g><g class="technique T1057" transform="translate(0, 256.2)"><rect class="cell" height="85.4" width="162.9113924050633" fill="#dadaeb" stroke="#6B7279"/><polygon class="sidebar" transform="translate(0, 85.4)" points="0,0 12,0 12,0" fill="#6B7279" visibility="hidden"/><text font-size="12" fill="black"><tspan x="4" y="46.2">Process Discovery</tspan></text></g><g class="technique T1012" transform="translate(0, 341.6)"><rect class="cell" height="85.4" width="162.9113924050633" fill="#dadaeb" stroke="#6B7279"/><polygon class="sidebar" transform="translate(0, 85.4)" points="0,0 12,0 12,0" fill="#6B7279" visibility="hidden"/><text font-size="12" fill="black"><tspan x="4" y="46.2">Query Registry</tspan></text></g><g class="technique T1018" transform="translate(0, 427)"><rect class="cell" height="85.4" width="162.9113924050633" fill="#dadaeb" stroke="#6B7279"/><polygon class="sidebar" transform="translate(0, 85.4)" points="0,0 12,0 12,0" fill="#6B7279" visibility="hidden"/><text font-size="12" fill="black"><tspan x="4" y="38.95">Remote</tspan><tspan x="4" y="53.45">System Discovery</tspan></text></g><g class="technique T1082" transform="translate(0, 512.4)"><rect class="cell" height="85.4" width="162.9113924050633" fill="#dadaeb" stroke="#6B7279"/><polygon class="sidebar" transform="translate(0, 85.4)" points="0,0 12,0 12,0" fill="#6B7279" visibility="hidden"/><text font-size="12" fill="black"><tspan x="4" y="38.95">System Information</tspan><tspan x="4" y="53.45">Discovery</tspan></text></g><g class="technique T1016" transform="translate(0, 597.8)"><rect class="cell" height="85.4" width="162.9113924050633" fill="#dadaeb" stroke="#6B7279"/><polygon class="sidebar" transform="translate(0, 85.4)" points="0,0 12,0 12,0" fill="#6B7279" visibility="hidden"/><text font-size="12" fill="black"><tspan x="4" y="31.533333333333335">System Network</tspan><tspan x="4" y="46.2">Configuration</tspan><tspan x="4" y="60.86666666666667">Discovery</tspan></text></g><g class="technique T1033" transform="translate(0, 683.2)"><rect class="cell" height="85.4" width="162.9113924050633" fill="#dadaeb" stroke="#6B7279"/><polygon class="sidebar" transform="translate(0, 85.4)" points="0,0 12,0 12,0" fill="#6B7279" visibility="hidden"/><text font-size="12" fill="black"><tspan x="4" y="38.95">System Owner/User</tspan><tspan x="4" y="53.45">Discovery</tspan></text></g><g class="technique T1124" transform="translate(0, 768.6)"><rect class="cell" height="85.4" width="162.9113924050633" fill="#dadaeb" stroke="#6B7279"/><polygon class="sidebar" transform="translate(0, 85.4)" points="0,0 12,0 12,0" fill="#6B7279" visibility="hidden"/><text font-size="12" fill="black"><tspan x="4" y="38.95">System</tspan><tspan x="4" y="53.45">Time Discovery</tspan></text></g></g><g class="subtechniques"/><g class="tactic-label"><text font-size="12" fill="black" font-weight="bold"><tspan text-anchor="middle" x="81.45569620253166" y="46.2">Discovery</tspan></text></g></g><g class="tactic collection" transform="translate(905.0632911392405, 0)"><g class="techniques"><g class="technique T1560" transform="translate(0, 85.4)"><rect class="cell" height="85.4" width="162.9113924050633" fill="#dadaeb" stroke="#6B7279"/><polygon class="sidebar" transform="translate(0, 85.4)" points="0,0 12,0 12,0" fill="#6B7279" visibility="hidden"/><text font-size="12" fill="black"><tspan x="4" y="38.95">Archive</tspan><tspan x="4" y="53.45">Collected Data</tspan></text></g><g class="technique T1119" transform="translate(0, 170.8)"><rect class="cell" height="85.4" width="162.9113924050633" fill="#dadaeb" stroke="#6B7279"/><polygon class="sidebar" transform="translate(0, 85.4)" points="0,0 12,0 12,0" fill="#6B7279" visibility="hidden"/><text font-size="12" fill="black"><tspan x="4" y="38.95">Automated</tspan><tspan x="4" y="53.45">Collection</tspan></text></g><g class="technique T1005" transform="translate(0, 256.2)"><rect class="cell" height="85.4" width="162.9113924050633" fill="#dadaeb" stroke="#6B7279"/><polygon class="sidebar" transform="translate(0, 85.4)" points="0,0 12,0 12,0" fill="#6B7279" visibility="hidden"/><text font-size="12" fill="black"><tspan x="4" y="38.95">Data</tspan><tspan x="4" y="53.45">from Local System</tspan></text></g><g class="technique T1114" transform="translate(0, 341.6)"><rect class="cell" height="85.4" width="162.9113924050633" fill="#dadaeb" stroke="#6B7279"/><polygon class="sidebar" transform="translate(0, 85.4)" points="0,0 12,0 12,0" fill="#6B7279" visibility="hidden"/><text font-size="12" fill="black"><tspan x="4" y="46.2">Email Collection</tspan></text></g><g class="technique T1056" transform="translate(0, 427)"><rect class="cell" height="85.4" width="162.9113924050633" fill="#dadaeb" stroke="#6B7279"/><polygon class="sidebar" transform="translate(0, 85.4)" points="0,0 12,0 12,0" fill="#6B7279" visibility="hidden"/><text font-size="12" fill="black"><tspan x="4" y="46.2">Input Capture</tspan></text></g><g class="technique T1113" transform="translate(0, 512.4)"><rect class="cell" height="85.4" width="162.9113924050633" fill="#dadaeb" stroke="#6B7279"/><polygon class="sidebar" transform="translate(0, 85.4)" points="0,0 12,0 12,0" fill="#6B7279" visibility="hidden"/><text font-size="12" fill="black"><tspan x="4" y="46.2">Screen Capture</tspan></text></g></g><g class="subtechniques"/><g class="tactic-label"><text font-size="12" fill="black" font-weight="bold"><tspan text-anchor="middle" x="81.45569620253166" y="46.2">Collection</tspan></text></g></g><g class="tactic command-and-control" transform="translate(1086.0759493670887, 0)"><g class="techniques"><g class="technique T1071" transform="translate(0, 85.4)"><rect class="cell" height="85.4" width="162.9113924050633" fill="#dadaeb" stroke="#6B7279"/><polygon class="sidebar" transform="translate(0, 85.4)" points="0,0 12,0 12,0" fill="#6B7279" visibility="hidden"/><text font-size="12" fill="black"><tspan x="4" y="38.95">Application</tspan><tspan x="4" y="53.45">Layer Protocol</tspan></text></g><g class="technique T1132" transform="translate(0, 170.8)"><rect class="cell" height="85.4" width="162.9113924050633" fill="#dadaeb" stroke="#6B7279"/><polygon class="sidebar" transform="translate(0, 85.4)" points="0,0 12,0 12,0" fill="#6B7279" visibility="hidden"/><text font-size="12" fill="black"><tspan x="4" y="46.2">Data Encoding</tspan></text></g><g class="technique T1095" transform="translate(0, 256.2)"><rect class="cell" height="85.4" width="162.9113924050633" fill="#dadaeb" stroke="#6B7279"/><polygon class="sidebar" transform="translate(0, 85.4)" points="0,0 12,0 12,0" fill="#6B7279" visibility="hidden"/><text font-size="12" fill="black"><tspan x="4" y="38.95">Non-Application</tspan><tspan x="4" y="53.45">Layer Protocol</tspan></text></g></g><g class="subtechniques"/><g class="tactic-label"><text font-size="12" fill="black" font-weight="bold"><tspan text-anchor="middle" x="81.45569620253166" y="38.95">Command</tspan><tspan text-anchor="middle" x="81.45569620253166" y="53.45">and Control</tspan></text></g></g><g class="tactic exfiltration" transform="translate(1267.0886075949368, 0)"><g class="techniques"><g class="technique T1041" transform="translate(0, 85.4)"><rect class="cell" height="85.4" width="162.9113924050633" fill="#dadaeb" stroke="#6B7279"/><polygon class="sidebar" transform="translate(0, 85.4)" points="0,0 12,0 12,0" fill="#6B7279" visibility="hidden"/><text font-size="12" fill="black"><tspan x="4" y="38.95">Exfiltration</tspan><tspan x="4" y="53.45">Over C2 Channel</tspan></text></g></g><g class="subtechniques"/><g class="tactic-label"><text font-size="12" fill="black" font-weight="bold"><tspan text-anchor="middle" x="81.45569620253166" y="46.2">Exfiltration</tspan></text></g></g></g></g></g></svg>