<?xml version="1.0" standalone="no"?>
<svg width="1056" height="816" xmlns="http://www.w3.org/2000/svg" id="svgvm0"><g transform="translate(5,5)" style="font-family: sans-serif;"><g transform="translate(0,1)"><g><g class="tactic privilege-escalation" transform="translate(0, 0)"><g class="techniques"><g class="technique T1134" transform="translate(0, 100.75)"><rect class="cell" height="100.75" width="136.43478260869566" fill="white" stroke="#6B7279"/><polygon class="sidebar" transform="translate(0, 100.75)" points="0,0 12,0 12,12" fill="#6B7279" visibility="visible"/><text font-size="10.346135265700484" fill="black"><tspan x="4" y="46.625">Access Token</tspan><tspan x="4" y="61.125">Manipulation</tspan></text></g><g class="technique T1055" transform="translate(0, 302.25)"><rect class="cell" height="100.75" width="136.43478260869566" fill="white" stroke="#6B7279"/><polygon class="sidebar" transform="translate(0, 100.75)" points="0,0 12,0 12,12" fill="#6B7279" visibility="visible"/><text font-size="10.346135265700484" fill="black"><tspan x="4" y="46.625">Process</tspan><tspan x="4" y="61.125">Injection</tspan></text></g></g><g class="subtechniques"><g class="subtechnique T1134.002" transform="translate(15, 201.5)"><rect class="cell" height="100.75" width="121.43478260869566" fill="#8ec843ff" stroke="#6B7279"/><rect class="cell" height="100.75" width="3" transform="translate(-3, 0)" fill="#6B7279" stroke="#6B7279"/><text font-size="10.346135265700484" fill="black"><tspan x="4" y="39.20833333333333">Create</tspan><tspan x="4" y="53.875">Process</tspan><tspan x="4" y="68.54166666666666">with Token</tspan></text></g><g class="subtechnique T1055.012" transform="translate(15, 403)"><rect class="cell" height="100.75" width="121.43478260869566" fill="#8ec843ff" stroke="#6B7279"/><rect class="cell" height="100.75" width="3" transform="translate(-3, 0)" fill="#6B7279" stroke="#6B7279"/><text font-size="10.346135265700484" fill="black"><tspan x="4" y="46.625">Process</tspan><tspan x="4" y="61.125">Hollowing</tspan></text></g></g><g class="tactic-label"><text font-size="12" fill="black" font-weight="bold"><tspan text-anchor="middle" x="68.21739130434783" y="46.625">Privilege</tspan><tspan text-anchor="middle" x="68.21739130434783" y="61.125">Escalation</tspan></text></g></g><g class="tactic defense-evasion" transform="translate(151.59420289855072, 0)"><g class="techniques"><g class="technique T1134" transform="translate(0, 100.75)"><rect class="cell" height="100.75" width="136.43478260869566" fill="white" stroke="#6B7279"/><polygon class="sidebar" transform="translate(0, 100.75)" points="0,0 12,0 12,12" fill="#6B7279" visibility="visible"/><text font-size="10.346135265700484" fill="black"><tspan x="4" y="46.625">Access Token</tspan><tspan x="4" y="61.125">Manipulation</tspan></text></g><g class="technique T1140" transform="translate(0, 302.25)"><rect class="cell" height="100.75" width="136.43478260869566" fill="#8ec843ff" stroke="#6B7279"/><polygon class="sidebar" transform="translate(0, 100.75)" points="0,0 12,0 12,0" fill="#6B7279" visibility="hidden"/><text font-size="10.346135265700484" fill="black"><tspan x="4" y="39.20833333333333">Deobfuscate/Decode</tspan><tspan x="4" y="53.875">Files</tspan><tspan x="4" y="68.54166666666666">or Information</tspan></text></g><g class="technique T1070" transform="translate(0, 403)"><rect class="cell" height="100.75" width="136.43478260869566" fill="white" stroke="#6B7279"/><polygon class="sidebar" transform="translate(0, 100.75)" points="0,0 12,0 12,12" fill="#6B7279" visibility="visible"/><text font-size="10.346135265700484" fill="black"><tspan x="4" y="46.625">Indicator</tspan><tspan x="4" y="61.125">Removal on Host</tspan></text></g><g class="technique T1055" transform="translate(0, 604.5)"><rect class="cell" height="100.75" width="136.43478260869566" fill="white" stroke="#6B7279"/><polygon class="sidebar" transform="translate(0, 100.75)" points="0,0 12,0 12,12" fill="#6B7279" visibility="visible"/><text font-size="10.346135265700484" fill="black"><tspan x="4" y="46.625">Process</tspan><tspan x="4" y="61.125">Injection</tspan></text></g></g><g class="subtechniques"><g class="subtechnique T1134.002" transform="translate(15, 201.5)"><rect class="cell" height="100.75" width="121.43478260869566" fill="#8ec843ff" stroke="#6B7279"/><rect class="cell" height="100.75" width="3" transform="translate(-3, 0)" fill="#6B7279" stroke="#6B7279"/><text font-size="10.346135265700484" fill="black"><tspan x="4" y="39.20833333333333">Create</tspan><tspan x="4" y="53.875">Process</tspan><tspan x="4" y="68.54166666666666">with Token</tspan></text></g><g class="subtechnique T1070.004" transform="translate(15, 503.75)"><rect class="cell" height="100.75" width="121.43478260869566" fill="#8ec843ff" stroke="#6B7279"/><rect class="cell" height="100.75" width="3" transform="translate(-3, 0)" fill="#6B7279" stroke="#6B7279"/><text font-size="10.346135265700484" fill="black"><tspan x="4" y="53.875">File Deletion</tspan></text></g><g class="subtechnique T1055.012" transform="translate(15, 705.25)"><rect class="cell" height="100.75" width="121.43478260869566" fill="#8ec843ff" stroke="#6B7279"/><rect class="cell" height="100.75" width="3" transform="translate(-3, 0)" fill="#6B7279" stroke="#6B7279"/><text font-size="10.346135265700484" fill="black"><tspan x="4" y="46.625">Process</tspan><tspan x="4" y="61.125">Hollowing</tspan></text></g></g><g class="tactic-label"><text font-size="12" fill="black" font-weight="bold"><tspan text-anchor="middle" x="68.21739130434783" y="53.875">Defense Evasion</tspan></text></g></g><g class="tactic credential-access" transform="translate(303.18840579710144, 0)"><g class="techniques"><g class="technique T1555" transform="translate(0, 100.75)"><rect class="cell" height="100.75" width="136.43478260869566" fill="white" stroke="#6B7279"/><polygon class="sidebar" transform="translate(0, 100.75)" points="0,0 12,0 12,12" fill="#6B7279" visibility="visible"/><text font-size="10.346135265700484" fill="black"><tspan x="4" y="39.20833333333333">Credentials</tspan><tspan x="4" y="53.875">from</tspan><tspan x="4" y="68.54166666666666">Password Stores</tspan></text></g><g class="technique T1552" transform="translate(0, 302.25)"><rect class="cell" height="100.75" width="136.43478260869566" fill="white" stroke="#6B7279"/><polygon class="sidebar" transform="translate(0, 100.75)" points="0,0 12,0 12,12" fill="#6B7279" visibility="visible"/><text font-size="10.346135265700484" fill="black"><tspan x="4" y="46.625">Unsecured</tspan><tspan x="4" y="61.125">Credentials</tspan></text></g></g><g class="subtechniques"><g class="subtechnique T1555.003" transform="translate(15, 201.5)"><rect class="cell" height="100.75" width="121.43478260869566" fill="#8ec843ff" stroke="#6B7279"/><rect class="cell" height="100.75" width="3" transform="translate(-3, 0)" fill="#6B7279" stroke="#6B7279"/><text font-size="10.346135265700484" fill="black"><tspan x="4" y="39.20833333333333">Credentials</tspan><tspan x="4" y="53.875">from</tspan><tspan x="4" y="68.54166666666666">Web Browsers</tspan></text></g><g class="subtechnique T1552.001" transform="translate(15, 403)"><rect class="cell" height="100.75" width="121.43478260869566" fill="#8ec843ff" stroke="#6B7279"/><rect class="cell" height="100.75" width="3" transform="translate(-3, 0)" fill="#6B7279" stroke="#6B7279"/><text font-size="10.346135265700484" fill="black"><tspan x="4" y="46.625">Credentials</tspan><tspan x="4" y="61.125">In Files</tspan></text></g></g><g class="tactic-label"><text font-size="12" fill="black" font-weight="bold"><tspan text-anchor="middle" x="68.21739130434783" y="46.625">Credential</tspan><tspan text-anchor="middle" x="68.21739130434783" y="61.125">Access</tspan></text></g></g><g class="tactic discovery" transform="translate(454.78260869565213, 0)"><g class="techniques"><g class="technique T1083" transform="translate(0, 100.75)"><rect class="cell" height="100.75" width="136.43478260869566" fill="#8ec843ff" stroke="#6B7279"/><polygon class="sidebar" transform="translate(0, 100.75)" points="0,0 12,0 12,0" fill="#6B7279" visibility="hidden"/><text font-size="10.346135265700484" fill="black"><tspan x="4" y="39.20833333333333">File</tspan><tspan x="4" y="53.875">and Directory</tspan><tspan x="4" y="68.54166666666666">Discovery</tspan></text></g><g class="technique T1057" transform="translate(0, 201.5)"><rect class="cell" height="100.75" width="136.43478260869566" fill="#8ec843ff" stroke="#6B7279"/><polygon class="sidebar" transform="translate(0, 100.75)" points="0,0 12,0 12,0" fill="#6B7279" visibility="hidden"/><text font-size="10.346135265700484" fill="black"><tspan x="4" y="46.625">Process</tspan><tspan x="4" y="61.125">Discovery</tspan></text></g><g class="technique T1012" transform="translate(0, 302.25)"><rect class="cell" height="100.75" width="136.43478260869566" fill="#8ec843ff" stroke="#6B7279"/><polygon class="sidebar" transform="translate(0, 100.75)" points="0,0 12,0 12,0" fill="#6B7279" visibility="hidden"/><text font-size="10.346135265700484" fill="black"><tspan x="4" y="53.875">Query Registry</tspan></text></g><g class="technique T1082" transform="translate(0, 403)"><rect class="cell" height="100.75" width="136.43478260869566" fill="#8ec843ff" stroke="#6B7279"/><polygon class="sidebar" transform="translate(0, 100.75)" points="0,0 12,0 12,0" fill="#6B7279" visibility="hidden"/><text font-size="10.346135265700484" fill="black"><tspan x="4" y="39.20833333333333">System</tspan><tspan x="4" y="53.875">Information</tspan><tspan x="4" y="68.54166666666666">Discovery</tspan></text></g><g class="technique T1016" transform="translate(0, 503.75)"><rect class="cell" height="100.75" width="136.43478260869566" fill="#8ec843ff" stroke="#6B7279"/><polygon class="sidebar" transform="translate(0, 100.75)" points="0,0 12,0 12,0" fill="#6B7279" visibility="visible"/><text font-size="10.346135265700484" fill="black"><tspan x="4" y="39.20833333333333">System Network</tspan><tspan x="4" y="53.875">Configuration</tspan><tspan x="4" y="68.54166666666666">Discovery</tspan></text></g><g class="technique T1033" transform="translate(0, 604.5)"><rect class="cell" height="100.75" width="136.43478260869566" fill="#8ec843ff" stroke="#6B7279"/><polygon class="sidebar" transform="translate(0, 100.75)" points="0,0 12,0 12,0" fill="#6B7279" visibility="hidden"/><text font-size="10.346135265700484" fill="black"><tspan x="4" y="39.20833333333333">System</tspan><tspan x="4" y="53.875">Owner/User</tspan><tspan x="4" y="68.54166666666666">Discovery</tspan></text></g><g class="technique T1124" transform="translate(0, 705.25)"><rect class="cell" height="100.75" width="136.43478260869566" fill="#8ec843ff" stroke="#6B7279"/><polygon class="sidebar" transform="translate(0, 100.75)" points="0,0 12,0 12,0" fill="#6B7279" visibility="hidden"/><text font-size="10.346135265700484" fill="black"><tspan x="4" y="46.625">System</tspan><tspan x="4" y="61.125">Time Discovery</tspan></text></g></g><g class="subtechniques"/><g class="tactic-label"><text font-size="12" fill="black" font-weight="bold"><tspan text-anchor="middle" x="68.21739130434783" y="53.875">Discovery</tspan></text></g></g><g class="tactic collection" transform="translate(606.3768115942029, 0)"><g class="techniques"><g class="technique T1113" transform="translate(0, 100.75)"><rect class="cell" height="100.75" width="136.43478260869566" fill="#8ec843ff" stroke="#6B7279"/><polygon class="sidebar" transform="translate(0, 100.75)" points="0,0 12,0 12,0" fill="#6B7279" visibility="hidden"/><text font-size="10.346135265700484" fill="black"><tspan x="4" y="53.875">Screen Capture</tspan></text></g></g><g class="subtechniques"/><g class="tactic-label"><text font-size="12" fill="black" font-weight="bold"><tspan text-anchor="middle" x="68.21739130434783" y="53.875">Collection</tspan></text></g></g><g class="tactic command-and-control" transform="translate(757.9710144927536, 0)"><g class="techniques"><g class="technique T1573" transform="translate(0, 100.75)"><rect class="cell" height="100.75" width="136.43478260869566" fill="white" stroke="#6B7279"/><polygon class="sidebar" transform="translate(0, 100.75)" points="0,0 12,0 12,12" fill="#6B7279" visibility="visible"/><text font-size="10.346135265700484" fill="#aaaaaa"><tspan x="4" y="46.625">Encrypted</tspan><tspan x="4" y="61.125">Channel</tspan></text></g><g class="technique T1105" transform="translate(0, 302.25)"><rect class="cell" height="100.75" width="136.43478260869566" fill="#8ec843ff" stroke="#6B7279"/><polygon class="sidebar" transform="translate(0, 100.75)" points="0,0 12,0 12,0" fill="#6B7279" visibility="hidden"/><text font-size="10.346135265700484" fill="black"><tspan x="4" y="46.625">Ingress</tspan><tspan x="4" y="61.125">Tool Transfer</tspan></text></g></g><g class="subtechniques"><g class="subtechnique T1573.001" transform="translate(15, 201.5)"><rect class="cell" height="100.75" width="121.43478260869566" fill="#8ec843ff" stroke="#6B7279"/><rect class="cell" height="100.75" width="3" transform="translate(-3, 0)" fill="#6B7279" stroke="#6B7279"/><text font-size="10.346135265700484" fill="black"><tspan x="4" y="46.625">Symmetric</tspan><tspan x="4" y="61.125">Cryptography</tspan></text></g></g><g class="tactic-label"><text font-size="12" fill="black" font-weight="bold"><tspan text-anchor="middle" x="68.21739130434783" y="46.625">Command</tspan><tspan text-anchor="middle" x="68.21739130434783" y="61.125">and Control</tspan></text></g></g><g class="tactic exfiltration" transform="translate(909.5652173913043, 0)"><g class="techniques"><g class="technique T1041" transform="translate(0, 100.75)"><rect class="cell" height="100.75" width="136.43478260869566" fill="#8ec843ff" stroke="#6B7279"/><polygon class="sidebar" transform="translate(0, 100.75)" points="0,0 12,0 12,0" fill="#6B7279" visibility="hidden"/><text font-size="10.346135265700484" fill="black"><tspan x="4" y="46.625">Exfiltration</tspan><tspan x="4" y="61.125">Over C2 Channel</tspan></text></g></g><g class="subtechniques"/><g class="tactic-label"><text font-size="12" fill="black" font-weight="bold"><tspan text-anchor="middle" x="68.21739130434783" y="53.875">Exfiltration</tspan></text></g></g></g></g></g></svg>