<?xml version="1.0" standalone="no"?>
<svg width="1440" height="864" xmlns="http://www.w3.org/2000/svg" id="svgvm0"><g transform="translate(5,5)" style="font-family: sans-serif;"><g transform="translate(0,1)"><g><g class="tactic initial-access" transform="translate(0, 0)"><g class="techniques"><g class="technique T1566" transform="translate(0, 106.75)"><rect class="cell" height="106.75" width="130" fill="white" stroke="#6B7279"/><polygon class="sidebar" transform="translate(0, 106.75)" points="0,0 12,0 12,12" fill="#6B7279" visibility="visible"/><text font-size="8.040909090909091" fill="black"><tspan x="4" y="49.625">T1566:</tspan><tspan x="4" y="64.125">Phishing</tspan></text></g></g><g class="subtechniques"><g class="subtechnique T1566.001" transform="translate(15, 213.5)"><rect class="cell" height="106.75" width="115" fill="white" stroke="#6B7279"/><rect class="cell" height="106.75" width="3" transform="translate(-3, 0)" fill="#6B7279" stroke="#6B7279"/><text font-size="8.040909090909091" fill="black"><tspan x="4" y="42.20833333333333">T1566.001:</tspan><tspan x="4" y="56.875">Spearphishing</tspan><tspan x="4" y="71.54166666666666">Attachment</tspan></text></g></g><g class="tactic-label"><text font-size="12" fill="black" font-weight="bold"><tspan text-anchor="middle" x="65" y="56.875">Initial Access</tspan></text></g></g><g class="tactic execution" transform="translate(144.44444444444443, 0)"><g class="techniques"><g class="technique T1204" transform="translate(0, 106.75)"><rect class="cell" height="106.75" width="130" fill="white" stroke="#6B7279"/><polygon class="sidebar" transform="translate(0, 106.75)" points="0,0 12,0 12,12" fill="#6B7279" visibility="visible"/><text font-size="8.040909090909091" fill="black"><tspan x="4" y="49.625">T1204:</tspan><tspan x="4" y="64.125">User Execution</tspan></text></g></g><g class="subtechniques"><g class="subtechnique T1204.002" transform="translate(15, 213.5)"><rect class="cell" height="106.75" width="115" fill="white" stroke="#6B7279"/><rect class="cell" height="106.75" width="3" transform="translate(-3, 0)" fill="#6B7279" stroke="#6B7279"/><text font-size="8.040909090909091" fill="black"><tspan x="4" y="42.20833333333333">T1204.002:</tspan><tspan x="4" y="56.875">Malicious</tspan><tspan x="4" y="71.54166666666666">File</tspan></text></g></g><g class="tactic-label"><text font-size="12" fill="black" font-weight="bold"><tspan text-anchor="middle" x="65" y="56.875">Execution</tspan></text></g></g><g class="tactic persistence" transform="translate(288.88888888888886, 0)"><g class="techniques"><g class="technique T1547" transform="translate(0, 106.75)"><rect class="cell" height="106.75" width="130" fill="white" stroke="#6B7279"/><polygon class="sidebar" transform="translate(0, 106.75)" points="0,0 12,0 12,12" fill="#6B7279" visibility="visible"/><text font-size="8.040909090909091" fill="black"><tspan x="4" y="34.75">T1547:</tspan><tspan x="4" y="49.5">Boot or Logon</tspan><tspan x="4" y="64.25">Autostart</tspan><tspan x="4" y="79">Execution</tspan></text></g></g><g class="subtechniques"><g class="subtechnique T1547.001" transform="translate(15, 213.5)"><rect class="cell" height="106.75" width="115" fill="white" stroke="#6B7279"/><rect class="cell" height="106.75" width="3" transform="translate(-3, 0)" fill="#6B7279" stroke="#6B7279"/><text font-size="8.040909090909091" fill="black"><tspan x="4" y="34.75">T1547.001:</tspan><tspan x="4" y="49.5">Registry</tspan><tspan x="4" y="64.25">Run Keys /</tspan><tspan x="4" y="79">Startup Folder</tspan></text></g></g><g class="tactic-label"><text font-size="12" fill="black" font-weight="bold"><tspan text-anchor="middle" x="65" y="56.875">Persistence</tspan></text></g></g><g class="tactic privilege-escalation" transform="translate(433.33333333333326, 0)"><g class="techniques"><g class="technique T1547" transform="translate(0, 106.75)"><rect class="cell" height="106.75" width="130" fill="white" stroke="#6B7279"/><polygon class="sidebar" transform="translate(0, 106.75)" points="0,0 12,0 12,12" fill="#6B7279" visibility="visible"/><text font-size="8.040909090909091" fill="black"><tspan x="4" y="34.75">T1547:</tspan><tspan x="4" y="49.5">Boot or Logon</tspan><tspan x="4" y="64.25">Autostart</tspan><tspan x="4" y="79">Execution</tspan></text></g><g class="technique T1055" transform="translate(0, 320.25)"><rect class="cell" height="106.75" width="130" fill="white" stroke="#6B7279"/><polygon class="sidebar" transform="translate(0, 106.75)" points="0,0 12,0 12,12" fill="#6B7279" visibility="visible"/><text font-size="8.040909090909091" fill="black"><tspan x="4" y="49.625">T1055: Process</tspan><tspan x="4" y="64.125">Injection</tspan></text></g></g><g class="subtechniques"><g class="subtechnique T1547.001" transform="translate(15, 213.5)"><rect class="cell" height="106.75" width="115" fill="white" stroke="#6B7279"/><rect class="cell" height="106.75" width="3" transform="translate(-3, 0)" fill="#6B7279" stroke="#6B7279"/><text font-size="8.040909090909091" fill="black"><tspan x="4" y="34.75">T1547.001:</tspan><tspan x="4" y="49.5">Registry</tspan><tspan x="4" y="64.25">Run Keys /</tspan><tspan x="4" y="79">Startup Folder</tspan></text></g><g class="subtechnique T1055.012" transform="translate(15, 427)"><rect class="cell" height="106.75" width="115" fill="white" stroke="#6B7279"/><rect class="cell" height="106.75" width="3" transform="translate(-3, 0)" fill="#6B7279" stroke="#6B7279"/><text font-size="8.040909090909091" fill="black"><tspan x="4" y="42.20833333333333">T1055.012:</tspan><tspan x="4" y="56.875">Process</tspan><tspan x="4" y="71.54166666666666">Hollowing</tspan></text></g></g><g class="tactic-label"><text font-size="12" fill="black" font-weight="bold"><tspan text-anchor="middle" x="65" y="49.625">Privilege</tspan><tspan text-anchor="middle" x="65" y="64.125">Escalation</tspan></text></g></g><g class="tactic defense-evasion" transform="translate(577.7777777777777, 0)"><g class="techniques"><g class="technique T1140" transform="translate(0, 106.75)"><rect class="cell" height="106.75" width="130" fill="white" stroke="#6B7279"/><polygon class="sidebar" transform="translate(0, 106.75)" points="0,0 12,0 12,0" fill="#6B7279" visibility="hidden"/><text font-size="8.040909090909091" fill="black"><tspan x="4" y="33.75">T1140:</tspan><tspan x="4" y="48.5">Deobfuscate/Decode</tspan><tspan x="4" y="63.25">Files</tspan><tspan x="4" y="78">or Information</tspan></text></g><g class="technique T1562" transform="translate(0, 213.5)"><rect class="cell" height="106.75" width="130" fill="white" stroke="#6B7279"/><polygon class="sidebar" transform="translate(0, 106.75)" points="0,0 12,0 12,12" fill="#6B7279" visibility="hidden"/><text font-size="8.040909090909091" fill="black"><tspan x="4" y="49.625">T1562: Impair</tspan><tspan x="4" y="64.125">Defenses</tspan></text></g><g class="technique T1112" transform="translate(0, 320.25)"><rect class="cell" height="106.75" width="130" fill="white" stroke="#6B7279"/><polygon class="sidebar" transform="translate(0, 106.75)" points="0,0 12,0 12,0" fill="#6B7279" visibility="hidden"/><text font-size="8.040909090909091" fill="black"><tspan x="4" y="49.625">T1112: Modify</tspan><tspan x="4" y="64.125">Registry</tspan></text></g><g class="technique T1055" transform="translate(0, 427)"><rect class="cell" height="106.75" width="130" fill="white" stroke="#6B7279"/><polygon class="sidebar" transform="translate(0, 106.75)" points="0,0 12,0 12,12" fill="#6B7279" visibility="visible"/><text font-size="8.040909090909091" fill="black"><tspan x="4" y="49.625">T1055: Process</tspan><tspan x="4" y="64.125">Injection</tspan></text></g><g class="technique T1497" transform="translate(0, 640.5)"><rect class="cell" height="106.75" width="130" fill="white" stroke="#6B7279"/><polygon class="sidebar" transform="translate(0, 106.75)" points="0,0 12,0 12,0" fill="#6B7279" visibility="visible"/><text font-size="8.040909090909091" fill="black"><tspan x="4" y="41.20833333333333">T1497:</tspan><tspan x="4" y="55.875">Virtualization/Sandbox</tspan><tspan x="4" y="70.54166666666666">Evasion</tspan></text></g></g><g class="subtechniques"><g class="subtechnique T1055.012" transform="translate(15, 533.75)"><rect class="cell" height="106.75" width="115" fill="white" stroke="#6B7279"/><rect class="cell" height="106.75" width="3" transform="translate(-3, 0)" fill="#6B7279" stroke="#6B7279"/><text font-size="8.040909090909091" fill="black"><tspan x="4" y="42.20833333333333">T1055.012:</tspan><tspan x="4" y="56.875">Process</tspan><tspan x="4" y="71.54166666666666">Hollowing</tspan></text></g></g><g class="tactic-label"><text font-size="12" fill="black" font-weight="bold"><tspan text-anchor="middle" x="65" y="49.625">Defense</tspan><tspan text-anchor="middle" x="65" y="64.125">Evasion</tspan></text></g></g><g class="tactic credential-access" transform="translate(722.2222222222222, 0)"><g class="techniques"><g class="technique T1555" transform="translate(0, 106.75)"><rect class="cell" height="106.75" width="130" fill="white" stroke="#6B7279"/><polygon class="sidebar" transform="translate(0, 106.75)" points="0,0 12,0 12,12" fill="#6B7279" visibility="visible"/><text font-size="8.040909090909091" fill="black"><tspan x="4" y="34.75">T1555:</tspan><tspan x="4" y="49.5">Credentials</tspan><tspan x="4" y="64.25">from Password</tspan><tspan x="4" y="79">Stores</tspan></text></g><g class="technique T1056" transform="translate(0, 320.25)"><rect class="cell" height="106.75" width="130" fill="white" stroke="#6B7279"/><polygon class="sidebar" transform="translate(0, 106.75)" points="0,0 12,0 12,12" fill="#6B7279" visibility="visible"/><text font-size="8.040909090909091" fill="black"><tspan x="4" y="49.625">T1056:</tspan><tspan x="4" y="64.125">Input Capture</tspan></text></g></g><g class="subtechniques"><g class="subtechnique T1555.003" transform="translate(15, 213.5)"><rect class="cell" height="106.75" width="115" fill="white" stroke="#6B7279"/><rect class="cell" height="106.75" width="3" transform="translate(-3, 0)" fill="#6B7279" stroke="#6B7279"/><text font-size="8.040909090909091" fill="black"><tspan x="4" y="34.75">T1555.003:</tspan><tspan x="4" y="49.5">Credentials</tspan><tspan x="4" y="64.25">from</tspan><tspan x="4" y="79">Web Browsers</tspan></text></g><g class="subtechnique T1056.001" transform="translate(15, 427)"><rect class="cell" height="106.75" width="115" fill="white" stroke="#6B7279"/><rect class="cell" height="106.75" width="3" transform="translate(-3, 0)" fill="#6B7279" stroke="#6B7279"/><text font-size="8.040909090909091" fill="black"><tspan x="4" y="49.625">T1056.001:</tspan><tspan x="4" y="64.125">Keylogging</tspan></text></g><g class="subtechnique T1056.003" transform="translate(15, 533.75)"><rect class="cell" height="106.75" width="115" fill="white" stroke="#6B7279"/><rect class="cell" height="106.75" width="3" transform="translate(-3, 0)" fill="#6B7279" stroke="#6B7279"/><text font-size="8.040909090909091" fill="black"><tspan x="4" y="42.20833333333333">T1056.003:</tspan><tspan x="4" y="56.875">Web Portal</tspan><tspan x="4" y="71.54166666666666">Capture</tspan></text></g></g><g class="tactic-label"><text font-size="12" fill="black" font-weight="bold"><tspan text-anchor="middle" x="65" y="49.625">Credential</tspan><tspan text-anchor="middle" x="65" y="64.125">Access</tspan></text></g></g><g class="tactic discovery" transform="translate(866.6666666666665, 0)"><g class="techniques"><g class="technique T1057" transform="translate(0, 106.75)"><rect class="cell" height="106.75" width="130" fill="white" stroke="#6B7279"/><polygon class="sidebar" transform="translate(0, 106.75)" points="0,0 12,0 12,0" fill="#6B7279" visibility="hidden"/><text font-size="8.040909090909091" fill="black"><tspan x="4" y="49.625">T1057: Process</tspan><tspan x="4" y="64.125">Discovery</tspan></text></g><g class="technique T1012" transform="translate(0, 213.5)"><rect class="cell" height="106.75" width="130" fill="white" stroke="#6B7279"/><polygon class="sidebar" transform="translate(0, 106.75)" points="0,0 12,0 12,0" fill="#6B7279" visibility="hidden"/><text font-size="8.040909090909091" fill="black"><tspan x="4" y="49.625">T1012:</tspan><tspan x="4" y="64.125">Query Registry</tspan></text></g><g class="technique T1082" transform="translate(0, 320.25)"><rect class="cell" height="106.75" width="130" fill="white" stroke="#6B7279"/><polygon class="sidebar" transform="translate(0, 106.75)" points="0,0 12,0 12,0" fill="#6B7279" visibility="hidden"/><text font-size="8.040909090909091" fill="black"><tspan x="4" y="42.20833333333333">T1082: System</tspan><tspan x="4" y="56.875">Information</tspan><tspan x="4" y="71.54166666666666">Discovery</tspan></text></g><g class="technique T1497" transform="translate(0, 427)"><rect class="cell" height="106.75" width="130" fill="white" stroke="#6B7279"/><polygon class="sidebar" transform="translate(0, 106.75)" points="0,0 12,0 12,0" fill="#6B7279" visibility="hidden"/><text font-size="8.040909090909091" fill="black"><tspan x="4" y="41.20833333333333">T1497:</tspan><tspan x="4" y="55.875">Virtualization/Sandbox</tspan><tspan x="4" y="70.54166666666666">Evasion</tspan></text></g></g><g class="subtechniques"/><g class="tactic-label"><text font-size="12" fill="black" font-weight="bold"><tspan text-anchor="middle" x="65" y="56.875">Discovery</tspan></text></g></g><g class="tactic collection" transform="translate(1011.111111111111, 0)"><g class="techniques"><g class="technique T1185" transform="translate(0, 106.75)"><rect class="cell" height="106.75" width="130" fill="white" stroke="#6B7279"/><polygon class="sidebar" transform="translate(0, 106.75)" points="0,0 12,0 12,0" fill="#6B7279" visibility="hidden"/><text font-size="8.040909090909091" fill="black"><tspan x="4" y="42.20833333333333">T1185: Browser</tspan><tspan x="4" y="56.875">Session</tspan><tspan x="4" y="71.54166666666666">Hijacking</tspan></text></g><g class="technique T1115" transform="translate(0, 213.5)"><rect class="cell" height="106.75" width="130" fill="white" stroke="#6B7279"/><polygon class="sidebar" transform="translate(0, 106.75)" points="0,0 12,0 12,0" fill="#6B7279" visibility="hidden"/><text font-size="8.040909090909091" fill="black"><tspan x="4" y="49.625">T1115:</tspan><tspan x="4" y="64.125">Clipboard Data</tspan></text></g><g class="technique T1056" transform="translate(0, 320.25)"><rect class="cell" height="106.75" width="130" fill="white" stroke="#6B7279"/><polygon class="sidebar" transform="translate(0, 106.75)" points="0,0 12,0 12,12" fill="#6B7279" visibility="visible"/><text font-size="8.040909090909091" fill="black"><tspan x="4" y="49.625">T1056:</tspan><tspan x="4" y="64.125">Input Capture</tspan></text></g><g class="technique T1113" transform="translate(0, 640.5)"><rect class="cell" height="106.75" width="130" fill="white" stroke="#6B7279"/><polygon class="sidebar" transform="translate(0, 106.75)" points="0,0 12,0 12,0" fill="#6B7279" visibility="hidden"/><text font-size="8.040909090909091" fill="black"><tspan x="4" y="49.625">T1113:</tspan><tspan x="4" y="64.125">Screen Capture</tspan></text></g></g><g class="subtechniques"><g class="subtechnique T1056.001" transform="translate(15, 427)"><rect class="cell" height="106.75" width="115" fill="white" stroke="#6B7279"/><rect class="cell" height="106.75" width="3" transform="translate(-3, 0)" fill="#6B7279" stroke="#6B7279"/><text font-size="8.040909090909091" fill="black"><tspan x="4" y="49.625">T1056.001:</tspan><tspan x="4" y="64.125">Keylogging</tspan></text></g><g class="subtechnique T1056.003" transform="translate(15, 533.75)"><rect class="cell" height="106.75" width="115" fill="white" stroke="#6B7279"/><rect class="cell" height="106.75" width="3" transform="translate(-3, 0)" fill="#6B7279" stroke="#6B7279"/><text font-size="8.040909090909091" fill="black"><tspan x="4" y="42.20833333333333">T1056.003:</tspan><tspan x="4" y="56.875">Web Portal</tspan><tspan x="4" y="71.54166666666666">Capture</tspan></text></g></g><g class="tactic-label"><text font-size="12" fill="black" font-weight="bold"><tspan text-anchor="middle" x="65" y="56.875">Collection</tspan></text></g></g><g class="tactic command-and-control" transform="translate(1155.5555555555554, 0)"><g class="techniques"><g class="technique T1071" transform="translate(0, 106.75)"><rect class="cell" height="106.75" width="130" fill="white" stroke="#6B7279"/><polygon class="sidebar" transform="translate(0, 106.75)" points="0,0 12,0 12,12" fill="#6B7279" visibility="visible"/><text font-size="8.040909090909091" fill="black"><tspan x="4" y="42.20833333333333">T1071:</tspan><tspan x="4" y="56.875">Application</tspan><tspan x="4" y="71.54166666666666">Layer Protocol</tspan></text></g><g class="technique T1573" transform="translate(0, 427)"><rect class="cell" height="106.75" width="130" fill="white" stroke="#6B7279"/><polygon class="sidebar" transform="translate(0, 106.75)" points="0,0 12,0 12,12" fill="#6B7279" visibility="visible"/><text font-size="8.040909090909091" fill="black"><tspan x="4" y="42.20833333333333">T1573:</tspan><tspan x="4" y="56.875">Encrypted</tspan><tspan x="4" y="71.54166666666666">Channel</tspan></text></g><g class="technique T1102" transform="translate(0, 640.5)"><rect class="cell" height="106.75" width="130" fill="white" stroke="#6B7279"/><polygon class="sidebar" transform="translate(0, 106.75)" points="0,0 12,0 12,12" fill="#6B7279" visibility="visible"/><text font-size="8.040909090909091" fill="black"><tspan x="4" y="49.625">T1102:</tspan><tspan x="4" y="64.125">Web Service</tspan></text></g></g><g class="subtechniques"><g class="subtechnique T1071.001" transform="translate(15, 213.5)"><rect class="cell" height="106.75" width="115" fill="white" stroke="#6B7279"/><rect class="cell" height="106.75" width="3" transform="translate(-3, 0)" fill="#6B7279" stroke="#6B7279"/><text font-size="8.040909090909091" fill="black"><tspan x="4" y="42.20833333333333">T1071.001:</tspan><tspan x="4" y="56.875">Web</tspan><tspan x="4" y="71.54166666666666">Protocols</tspan></text></g><g class="subtechnique T1071.004" transform="translate(15, 320.25)"><rect class="cell" height="106.75" width="115" fill="white" stroke="#6B7279"/><rect class="cell" height="106.75" width="3" transform="translate(-3, 0)" fill="#6B7279" stroke="#6B7279"/><text font-size="8.040909090909091" fill="black"><tspan x="4" y="49.625">T1071.004:</tspan><tspan x="4" y="64.125">DNS</tspan></text></g><g class="subtechnique T1573.001" transform="translate(15, 533.75)"><rect class="cell" height="106.75" width="115" fill="white" stroke="#6B7279"/><rect class="cell" height="106.75" width="3" transform="translate(-3, 0)" fill="#6B7279" stroke="#6B7279"/><text font-size="8.040909090909091" fill="black"><tspan x="4" y="42.20833333333333">T1573.001:</tspan><tspan x="4" y="56.875">Symmetric</tspan><tspan x="4" y="71.54166666666666">Cryptography</tspan></text></g><g class="subtechnique T1102.002" transform="translate(15, 747.25)"><rect class="cell" height="106.75" width="115" fill="white" stroke="#6B7279"/><rect class="cell" height="106.75" width="3" transform="translate(-3, 0)" fill="#6B7279" stroke="#6B7279"/><text font-size="8.040909090909091" fill="black"><tspan x="4" y="42.20833333333333">T1102.002:</tspan><tspan x="4" y="56.875">Bidirectional</tspan><tspan x="4" y="71.54166666666666">Communication</tspan></text></g></g><g class="tactic-label"><text font-size="12" fill="black" font-weight="bold"><tspan text-anchor="middle" x="65" y="49.625">Command</tspan><tspan text-anchor="middle" x="65" y="64.125">and Control</tspan></text></g></g><g class="tactic exfiltration" transform="translate(1299.9999999999998, 0)"><g class="techniques"><g class="technique T1041" transform="translate(0, 106.75)"><rect class="cell" height="106.75" width="130" fill="white" stroke="#6B7279"/><polygon class="sidebar" transform="translate(0, 106.75)" points="0,0 12,0 12,0" fill="#6B7279" visibility="hidden"/><text font-size="8.040909090909091" fill="black"><tspan x="4" y="34.75">T1041:</tspan><tspan x="4" y="49.5">Exfiltration</tspan><tspan x="4" y="64.25">Over</tspan><tspan x="4" y="79">C2 Channel</tspan></text></g></g><g class="subtechniques"/><g class="tactic-label"><text font-size="12" fill="black" font-weight="bold"><tspan text-anchor="middle" x="65" y="56.875">Exfiltration</tspan></text></g></g></g></g></g></svg>