<?xml version="1.0" standalone="no"?>
<svg width="1056" height="816" xmlns="http://www.w3.org/2000/svg" id="svgvm0"><g transform="translate(5,5)" style="font-family: sans-serif;"><g><g transform="translate(0, 0)"><g transform="translate(0,5)"><rect class="header-box" width="336.8474576271186" height="86" stroke="black" fill="white" rx="5"/><rect class="label-cover" x="8" y="-10" width="34.6953125" height="18" fill="white" rx="5"/><text class="header-box-label" x="10" font-size="12" fill="black" y="3">about</text><g class="header-box-content" fill="black" transform="translate(5, 0)"><g transform="translate(0, 4.095238095238102)"><text font-size="12"><tspan x="4" y="42.4047619047619">Cyberzaintza_Remcos</tspan></text></g></g></g></g><g transform="translate(354.57627118644064, 0)"><g transform="translate(0,5)"><rect class="header-box" width="336.8474576271186" height="86" stroke="black" fill="white" rx="5"/><rect class="label-cover" x="8" y="-10" width="43.68359375" height="18" fill="white" rx="5"/><text class="header-box-label" x="10" font-size="12" fill="black" y="3">domain</text><g class="header-box-content" fill="black" transform="translate(5, 0)"><g transform="translate(0, 4.095238095238102)"><text font-size="12"><tspan x="4" y="42.4047619047619">Enterprise ATT&amp;CK v14</tspan></text></g></g></g></g><g transform="translate(709.1525423728813, 0)"><g transform="translate(0,5)"><rect class="header-box" width="336.8474576271186" height="86" stroke="black" fill="white" rx="5"/><rect class="label-cover" x="8" y="-10" width="53.359375" height="18" fill="white" rx="5"/><text class="header-box-label" x="10" font-size="12" fill="black" y="3">platforms</text><g class="header-box-content" fill="black" transform="translate(5, 0)"><g transform="translate(0, 4.095238095238102)"><text font-size="12"><tspan x="4" y="27.73809523809523">Linux, macOS, Windows,</tspan><tspan x="4" y="42.4047619047619">Network, PRE, Containers, Office 365,</tspan><tspan x="4" y="57.07142857142856">SaaS, Google Workspace, IaaS, Azure AD</tspan></text></g></g></g></g></g><g transform="translate(0,97)"><g><g class="tactic initial-access" transform="translate(0, 0)"><g class="techniques"><g class="technique T1189" transform="translate(0, 59.166666666666664)"><rect class="cell" height="59.166666666666664" width="104.6" fill="#e60d0d" stroke="#6B7279"/><polygon class="sidebar" transform="translate(0, 59.166666666666664)" points="0,0 12,0 12,0" fill="#6B7279" visibility="hidden"/><text font-size="6.366818181818181" fill="white"><tspan x="4" y="25.833333333333332">Drive-by</tspan><tspan x="4" y="40.33333333333333">Compromise</tspan></text></g><g class="technique T1190" transform="translate(0, 118.33333333333333)"><rect class="cell" height="59.166666666666664" width="104.6" fill="#e60d0d" stroke="#6B7279"/><polygon class="sidebar" transform="translate(0, 59.166666666666664)" points="0,0 12,0 12,0" fill="#6B7279" visibility="hidden"/><text font-size="6.366818181818181" fill="white"><tspan x="4" y="18.416666666666664">Exploit</tspan><tspan x="4" y="33.08333333333333">Public-Facing</tspan><tspan x="4" y="47.75">Application</tspan></text></g><g class="technique T1566" transform="translate(0, 177.5)"><rect class="cell" height="59.166666666666664" width="104.6" fill="#e60d0d" stroke="#6B7279"/><polygon class="sidebar" transform="translate(0, 59.166666666666664)" points="0,0 12,0 12,12" fill="#6B7279" visibility="visible"/><text font-size="6.366818181818181" fill="white"><tspan x="4" y="33.08333333333333">Phishing</tspan></text></g></g><g class="subtechniques"><g class="subtechnique T1566.001" transform="translate(15, 236.66666666666666)"><rect class="cell" height="59.166666666666664" width="89.6" fill="#e60d0d" stroke="#6B7279"/><rect class="cell" height="59.166666666666664" width="3" transform="translate(-3, 0)" fill="#6B7279" stroke="#6B7279"/><text font-size="6.366818181818181" fill="white"><tspan x="4" y="24.833333333333332">Spearphishing</tspan><tspan x="4" y="39.33333333333333">Attachment</tspan></text></g></g><g class="tactic-label"><text font-size="12" fill="black" font-weight="bold"><tspan text-anchor="middle" x="52.3" y="25.833333333333332">Initial</tspan><tspan text-anchor="middle" x="52.3" y="40.33333333333333">Access</tspan></text></g></g><g class="tactic execution" transform="translate(104.6, 0)"><g class="techniques"><g class="technique T1059" transform="translate(0, 59.166666666666664)"><rect class="cell" height="59.166666666666664" width="104.6" fill="#e60d0d" stroke="#6B7279"/><polygon class="sidebar" transform="translate(0, 59.166666666666664)" points="0,0 12,0 12,0" fill="#6B7279" visibility="hidden"/><text font-size="6.366818181818181" fill="white"><tspan x="4" y="18.416666666666664">Command and</tspan><tspan x="4" y="33.08333333333333">Scripting</tspan><tspan x="4" y="47.75">Interpreter</tspan></text></g><g class="technique T1106" transform="translate(0, 118.33333333333333)"><rect class="cell" height="59.166666666666664" width="104.6" fill="#e60d0d" stroke="#6B7279"/><polygon class="sidebar" transform="translate(0, 59.166666666666664)" points="0,0 12,0 12,0" fill="#6B7279" visibility="hidden"/><text font-size="6.366818181818181" fill="white"><tspan x="4" y="33.08333333333333">Native API</tspan></text></g><g class="technique T1569" transform="translate(0, 177.5)"><rect class="cell" height="59.166666666666664" width="104.6" fill="white" stroke="#6B7279"/><polygon class="sidebar" transform="translate(0, 59.166666666666664)" points="0,0 12,0 12,12" fill="#6B7279" visibility="visible"/><text font-size="6.366818181818181" fill="#aaaaaa"><tspan x="4" y="25.833333333333332">System</tspan><tspan x="4" y="40.33333333333333">Services</tspan></text></g></g><g class="subtechniques"><g class="subtechnique T1569.002" transform="translate(15, 236.66666666666666)"><rect class="cell" height="59.166666666666664" width="89.6" fill="#e60d0d" stroke="#6B7279"/><rect class="cell" height="59.166666666666664" width="3" transform="translate(-3, 0)" fill="#6B7279" stroke="#6B7279"/><text font-size="6.366818181818181" fill="white"><tspan x="4" y="25.833333333333332">Service</tspan><tspan x="4" y="40.33333333333333">Execution</tspan></text></g></g><g class="tactic-label"><text font-size="12" fill="black" font-weight="bold"><tspan text-anchor="middle" x="52.3" y="33.08333333333333">Execution</tspan></text></g></g><g class="tactic persistence" transform="translate(209.2, 0)"><g class="techniques"><g class="technique T1543" transform="translate(0, 59.166666666666664)"><rect class="cell" height="59.166666666666664" width="104.6" fill="white" stroke="#6B7279"/><polygon class="sidebar" transform="translate(0, 59.166666666666664)" points="0,0 12,0 12,12" fill="#6B7279" visibility="visible"/><text font-size="6.366818181818181" fill="#aaaaaa"><tspan x="4" y="11.270833333333332">Create</tspan><tspan x="4" y="25.8125">or Modify</tspan><tspan x="4" y="40.354166666666664">System</tspan><tspan x="4" y="54.89583333333333">Process</tspan></text></g></g><g class="subtechniques"><g class="subtechnique T1543.003" transform="translate(15, 118.33333333333333)"><rect class="cell" height="59.166666666666664" width="89.6" fill="#e60d0d" stroke="#6B7279"/><rect class="cell" height="59.166666666666664" width="3" transform="translate(-3, 0)" fill="#6B7279" stroke="#6B7279"/><text font-size="6.366818181818181" fill="white"><tspan x="4" y="25.833333333333332">Windows</tspan><tspan x="4" y="40.33333333333333">Service</tspan></text></g></g><g class="tactic-label"><text font-size="12" fill="black" font-weight="bold"><tspan text-anchor="middle" x="52.3" y="33.08333333333333">Persistence</tspan></text></g></g><g class="tactic privilege-escalation" transform="translate(313.79999999999995, 0)"><g class="techniques"><g class="technique T1548" transform="translate(0, 59.166666666666664)"><rect class="cell" height="59.166666666666664" width="104.6" fill="white" stroke="#6B7279"/><polygon class="sidebar" transform="translate(0, 59.166666666666664)" points="0,0 12,0 12,12" fill="#6B7279" visibility="visible"/><text font-size="6.366818181818181" fill="#aaaaaa"><tspan x="4" y="11.270833333333332">Abuse</tspan><tspan x="4" y="25.8125">Elevation</tspan><tspan x="4" y="40.354166666666664">Control</tspan><tspan x="4" y="54.89583333333333">Mechanism</tspan></text></g><g class="technique T1134" transform="translate(0, 177.5)"><rect class="cell" height="59.166666666666664" width="104.6" fill="#e60d0d" stroke="#6B7279"/><polygon class="sidebar" transform="translate(0, 59.166666666666664)" points="0,0 12,0 12,0" fill="#6B7279" visibility="hidden"/><text font-size="6.366818181818181" fill="white"><tspan x="4" y="25.833333333333332">Access Token</tspan><tspan x="4" y="40.33333333333333">Manipulation</tspan></text></g><g class="technique T1543" transform="translate(0, 236.66666666666666)"><rect class="cell" height="59.166666666666664" width="104.6" fill="white" stroke="#6B7279"/><polygon class="sidebar" transform="translate(0, 59.166666666666664)" points="0,0 12,0 12,12" fill="#6B7279" visibility="visible"/><text font-size="6.366818181818181" fill="#aaaaaa"><tspan x="4" y="11.270833333333332">Create</tspan><tspan x="4" y="25.8125">or Modify</tspan><tspan x="4" y="40.354166666666664">System</tspan><tspan x="4" y="54.89583333333333">Process</tspan></text></g><g class="technique T1055" transform="translate(0, 355)"><rect class="cell" height="59.166666666666664" width="104.6" fill="#e60d0d" stroke="#6B7279"/><polygon class="sidebar" transform="translate(0, 59.166666666666664)" points="0,0 12,0 12,0" fill="#6B7279" visibility="hidden"/><text font-size="6.366818181818181" fill="white"><tspan x="4" y="25.833333333333332">Process</tspan><tspan x="4" y="40.33333333333333">Injection</tspan></text></g></g><g class="subtechniques"><g class="subtechnique T1548.002" transform="translate(15, 118.33333333333333)"><rect class="cell" height="59.166666666666664" width="89.6" fill="#e60d0d" stroke="#6B7279"/><rect class="cell" height="59.166666666666664" width="3" transform="translate(-3, 0)" fill="#6B7279" stroke="#6B7279"/><text font-size="6.366818181818181" fill="white"><tspan x="4" y="11.270833333333332">Bypass</tspan><tspan x="4" y="25.8125">User</tspan><tspan x="4" y="40.354166666666664">Account</tspan><tspan x="4" y="54.89583333333333">Control</tspan></text></g><g class="subtechnique T1543.003" transform="translate(15, 295.83333333333337)"><rect class="cell" height="59.166666666666664" width="89.6" fill="#e60d0d" stroke="#6B7279"/><rect class="cell" height="59.166666666666664" width="3" transform="translate(-3, 0)" fill="#6B7279" stroke="#6B7279"/><text font-size="6.366818181818181" fill="white"><tspan x="4" y="25.833333333333332">Windows</tspan><tspan x="4" y="40.33333333333333">Service</tspan></text></g></g><g class="tactic-label"><text font-size="12" fill="black" font-weight="bold"><tspan text-anchor="middle" x="52.3" y="25.833333333333332">Privilege</tspan><tspan text-anchor="middle" x="52.3" y="40.33333333333333">Escalation</tspan></text></g></g><g class="tactic defense-evasion" transform="translate(418.4, 0)"><g class="techniques"><g class="technique T1548" transform="translate(0, 59.166666666666664)"><rect class="cell" height="59.166666666666664" width="104.6" fill="white" stroke="#6B7279"/><polygon class="sidebar" transform="translate(0, 59.166666666666664)" points="0,0 12,0 12,12" fill="#6B7279" visibility="visible"/><text font-size="6.366818181818181" fill="#aaaaaa"><tspan x="4" y="11.270833333333332">Abuse</tspan><tspan x="4" y="25.8125">Elevation</tspan><tspan x="4" y="40.354166666666664">Control</tspan><tspan x="4" y="54.89583333333333">Mechanism</tspan></text></g><g class="technique T1134" transform="translate(0, 177.5)"><rect class="cell" height="59.166666666666664" width="104.6" fill="#e60d0d" stroke="#6B7279"/><polygon class="sidebar" transform="translate(0, 59.166666666666664)" points="0,0 12,0 12,0" fill="#6B7279" visibility="hidden"/><text font-size="6.366818181818181" fill="white"><tspan x="4" y="25.833333333333332">Access Token</tspan><tspan x="4" y="40.33333333333333">Manipulation</tspan></text></g><g class="technique T1140" transform="translate(0, 236.66666666666666)"><rect class="cell" height="59.166666666666664" width="104.6" fill="#e60d0d" stroke="#6B7279"/><polygon class="sidebar" transform="translate(0, 59.166666666666664)" points="0,0 12,0 12,0" fill="#6B7279" visibility="hidden"/><text font-size="6.366818181818181" fill="white"><tspan x="4" y="17.416666666666664">Deobfuscate/Decode</tspan><tspan x="4" y="32.08333333333333">Files</tspan><tspan x="4" y="46.75">or Information</tspan></text></g><g class="technique T1562" transform="translate(0, 295.83333333333337)"><rect class="cell" height="59.166666666666664" width="104.6" fill="white" stroke="#6B7279"/><polygon class="sidebar" transform="translate(0, 59.166666666666664)" points="0,0 12,0 12,12" fill="#6B7279" visibility="visible"/><text font-size="6.366818181818181" fill="#aaaaaa"><tspan x="4" y="25.833333333333332">Impair</tspan><tspan x="4" y="40.33333333333333">Defenses</tspan></text></g><g class="technique T1036" transform="translate(0, 414.1666666666667)"><rect class="cell" height="59.166666666666664" width="104.6" fill="#e60d0d" stroke="#6B7279"/><polygon class="sidebar" transform="translate(0, 59.166666666666664)" points="0,0 12,0 12,0" fill="#6B7279" visibility="hidden"/><text font-size="6.366818181818181" fill="white"><tspan x="4" y="33.08333333333333">Masquerading</tspan></text></g><g class="technique T1027" transform="translate(0, 473.3333333333333)"><rect class="cell" height="59.166666666666664" width="104.6" fill="#e60d0d" stroke="#6B7279"/><polygon class="sidebar" transform="translate(0, 59.166666666666664)" points="0,0 12,0 12,12" fill="#6B7279" visibility="visible"/><text font-size="6.366818181818181" fill="white"><tspan x="4" y="18.416666666666664">Obfuscated</tspan><tspan x="4" y="33.08333333333333">Files or</tspan><tspan x="4" y="47.75">Information</tspan></text></g><g class="technique T1055" transform="translate(0, 591.6666666666667)"><rect class="cell" height="59.166666666666664" width="104.6" fill="#e60d0d" stroke="#6B7279"/><polygon class="sidebar" transform="translate(0, 59.166666666666664)" points="0,0 12,0 12,0" fill="#6B7279" visibility="hidden"/><text font-size="6.366818181818181" fill="white"><tspan x="4" y="25.833333333333332">Process</tspan><tspan x="4" y="40.33333333333333">Injection</tspan></text></g><g class="technique T1497" transform="translate(0, 650.8333333333333)"><rect class="cell" height="59.166666666666664" width="104.6" fill="#e60d0d" stroke="#6B7279"/><polygon class="sidebar" transform="translate(0, 59.166666666666664)" points="0,0 12,0 12,0" fill="#6B7279" visibility="hidden"/><text font-size="6.366818181818181" fill="white"><tspan x="4" y="23.833333333333332">Virtualization/Sandbox</tspan><tspan x="4" y="38.33333333333333">Evasion</tspan></text></g></g><g class="subtechniques"><g class="subtechnique T1548.002" transform="translate(15, 118.33333333333333)"><rect class="cell" height="59.166666666666664" width="89.6" fill="#e60d0d" stroke="#6B7279"/><rect class="cell" height="59.166666666666664" width="3" transform="translate(-3, 0)" fill="#6B7279" stroke="#6B7279"/><text font-size="6.366818181818181" fill="white"><tspan x="4" y="11.270833333333332">Bypass</tspan><tspan x="4" y="25.8125">User</tspan><tspan x="4" y="40.354166666666664">Account</tspan><tspan x="4" y="54.89583333333333">Control</tspan></text></g><g class="subtechnique T1562.001" transform="translate(15, 355)"><rect class="cell" height="59.166666666666664" width="89.6" fill="#e60d0d" stroke="#6B7279"/><rect class="cell" height="59.166666666666664" width="3" transform="translate(-3, 0)" fill="#6B7279" stroke="#6B7279"/><text font-size="6.366818181818181" fill="white"><tspan x="4" y="18.416666666666664">Disable</tspan><tspan x="4" y="33.08333333333333">or Modify</tspan><tspan x="4" y="47.75">Tools</tspan></text></g><g class="subtechnique T1027.002" transform="translate(15, 532.5)"><rect class="cell" height="59.166666666666664" width="89.6" fill="#e60d0d" stroke="#6B7279"/><rect class="cell" height="59.166666666666664" width="3" transform="translate(-3, 0)" fill="#6B7279" stroke="#6B7279"/><text font-size="6.366818181818181" fill="white"><tspan x="4" y="25.833333333333332">Software</tspan><tspan x="4" y="40.33333333333333">Packing</tspan></text></g></g><g class="tactic-label"><text font-size="12" fill="black" font-weight="bold"><tspan text-anchor="middle" x="52.3" y="25.833333333333332">Defense</tspan><tspan text-anchor="middle" x="52.3" y="40.33333333333333">Evasion</tspan></text></g></g><g class="tactic credential-access" transform="translate(523, 0)"><g class="techniques"><g class="technique T1056" transform="translate(0, 59.166666666666664)"><rect class="cell" height="59.166666666666664" width="104.6" fill="#e60d0d" stroke="#6B7279"/><polygon class="sidebar" transform="translate(0, 59.166666666666664)" points="0,0 12,0 12,0" fill="#6B7279" visibility="hidden"/><text font-size="6.366818181818181" fill="white"><tspan x="4" y="25.833333333333332">Input</tspan><tspan x="4" y="40.33333333333333">Capture</tspan></text></g><g class="technique T1003" transform="translate(0, 118.33333333333333)"><rect class="cell" height="59.166666666666664" width="104.6" fill="#e60d0d" stroke="#6B7279"/><polygon class="sidebar" transform="translate(0, 59.166666666666664)" points="0,0 12,0 12,0" fill="#6B7279" visibility="hidden"/><text font-size="6.366818181818181" fill="white"><tspan x="4" y="18.416666666666664">OS</tspan><tspan x="4" y="33.08333333333333">Credential</tspan><tspan x="4" y="47.75">Dumping</tspan></text></g><g class="technique T1552" transform="translate(0, 177.5)"><rect class="cell" height="59.166666666666664" width="104.6" fill="white" stroke="#6B7279"/><polygon class="sidebar" transform="translate(0, 59.166666666666664)" points="0,0 12,0 12,12" fill="#6B7279" visibility="visible"/><text font-size="6.366818181818181" fill="#aaaaaa"><tspan x="4" y="25.833333333333332">Unsecured</tspan><tspan x="4" y="40.33333333333333">Credentials</tspan></text></g></g><g class="subtechniques"><g class="subtechnique T1552.001" transform="translate(15, 236.66666666666666)"><rect class="cell" height="59.166666666666664" width="89.6" fill="#e60d0d" stroke="#6B7279"/><rect class="cell" height="59.166666666666664" width="3" transform="translate(-3, 0)" fill="#6B7279" stroke="#6B7279"/><text font-size="6.366818181818181" fill="white"><tspan x="4" y="25.833333333333332">Credentials</tspan><tspan x="4" y="40.33333333333333">In Files</tspan></text></g></g><g class="tactic-label"><text font-size="12" fill="black" font-weight="bold"><tspan text-anchor="middle" x="52.3" y="25.833333333333332">Credential</tspan><tspan text-anchor="middle" x="52.3" y="40.33333333333333">Access</tspan></text></g></g><g class="tactic discovery" transform="translate(627.5999999999999, 0)"><g class="techniques"><g class="technique T1087" transform="translate(0, 59.166666666666664)"><rect class="cell" height="59.166666666666664" width="104.6" fill="#e60d0d" stroke="#6B7279"/><polygon class="sidebar" transform="translate(0, 59.166666666666664)" points="0,0 12,0 12,0" fill="#6B7279" visibility="hidden"/><text font-size="6.366818181818181" fill="white"><tspan x="4" y="25.833333333333332">Account</tspan><tspan x="4" y="40.33333333333333">Discovery</tspan></text></g><g class="technique T1010" transform="translate(0, 118.33333333333333)"><rect class="cell" height="59.166666666666664" width="104.6" fill="#e60d0d" stroke="#6B7279"/><polygon class="sidebar" transform="translate(0, 59.166666666666664)" points="0,0 12,0 12,0" fill="#6B7279" visibility="hidden"/><text font-size="6.366818181818181" fill="white"><tspan x="4" y="18.416666666666664">Application</tspan><tspan x="4" y="33.08333333333333">Window</tspan><tspan x="4" y="47.75">Discovery</tspan></text></g><g class="technique T1083" transform="translate(0, 177.5)"><rect class="cell" height="59.166666666666664" width="104.6" fill="#e60d0d" stroke="#6B7279"/><polygon class="sidebar" transform="translate(0, 59.166666666666664)" points="0,0 12,0 12,0" fill="#6B7279" visibility="hidden"/><text font-size="6.366818181818181" fill="white"><tspan x="4" y="18.416666666666664">File and</tspan><tspan x="4" y="33.08333333333333">Directory</tspan><tspan x="4" y="47.75">Discovery</tspan></text></g><g class="technique T1057" transform="translate(0, 236.66666666666666)"><rect class="cell" height="59.166666666666664" width="104.6" fill="#e60d0d" stroke="#6B7279"/><polygon class="sidebar" transform="translate(0, 59.166666666666664)" points="0,0 12,0 12,0" fill="#6B7279" visibility="hidden"/><text font-size="6.366818181818181" fill="white"><tspan x="4" y="25.833333333333332">Process</tspan><tspan x="4" y="40.33333333333333">Discovery</tspan></text></g><g class="technique T1518" transform="translate(0, 295.83333333333337)"><rect class="cell" height="59.166666666666664" width="104.6" fill="#e60d0d" stroke="#6B7279"/><polygon class="sidebar" transform="translate(0, 59.166666666666664)" points="0,0 12,0 12,12" fill="#6B7279" visibility="visible"/><text font-size="6.366818181818181" fill="white"><tspan x="4" y="25.833333333333332">Software</tspan><tspan x="4" y="40.33333333333333">Discovery</tspan></text></g><g class="technique T1082" transform="translate(0, 414.1666666666667)"><rect class="cell" height="59.166666666666664" width="104.6" fill="#e60d0d" stroke="#6B7279"/><polygon class="sidebar" transform="translate(0, 59.166666666666664)" points="0,0 12,0 12,0" fill="#6B7279" visibility="hidden"/><text font-size="6.366818181818181" fill="white"><tspan x="4" y="18.416666666666664">System</tspan><tspan x="4" y="33.08333333333333">Information</tspan><tspan x="4" y="47.75">Discovery</tspan></text></g><g class="technique T1033" transform="translate(0, 473.3333333333333)"><rect class="cell" height="59.166666666666664" width="104.6" fill="#e60d0d" stroke="#6B7279"/><polygon class="sidebar" transform="translate(0, 59.166666666666664)" points="0,0 12,0 12,0" fill="#6B7279" visibility="hidden"/><text font-size="6.366818181818181" fill="white"><tspan x="4" y="18.416666666666664">System</tspan><tspan x="4" y="33.08333333333333">Owner/User</tspan><tspan x="4" y="47.75">Discovery</tspan></text></g><g class="technique T1007" transform="translate(0, 532.5)"><rect class="cell" height="59.166666666666664" width="104.6" fill="#e60d0d" stroke="#6B7279"/><polygon class="sidebar" transform="translate(0, 59.166666666666664)" points="0,0 12,0 12,0" fill="#6B7279" visibility="hidden"/><text font-size="6.366818181818181" fill="white"><tspan x="4" y="18.416666666666664">System</tspan><tspan x="4" y="33.08333333333333">Service</tspan><tspan x="4" y="47.75">Discovery</tspan></text></g><g class="technique T1124" transform="translate(0, 591.6666666666667)"><rect class="cell" height="59.166666666666664" width="104.6" fill="#e60d0d" stroke="#6B7279"/><polygon class="sidebar" transform="translate(0, 59.166666666666664)" points="0,0 12,0 12,0" fill="#6B7279" visibility="hidden"/><text font-size="6.366818181818181" fill="white"><tspan x="4" y="25.833333333333332">System Time</tspan><tspan x="4" y="40.33333333333333">Discovery</tspan></text></g><g class="technique T1497" transform="translate(0, 650.8333333333333)"><rect class="cell" height="59.166666666666664" width="104.6" fill="#e60d0d" stroke="#6B7279"/><polygon class="sidebar" transform="translate(0, 59.166666666666664)" points="0,0 12,0 12,0" fill="#6B7279" visibility="hidden"/><text font-size="6.366818181818181" fill="white"><tspan x="4" y="23.833333333333332">Virtualization/Sandbox</tspan><tspan x="4" y="38.33333333333333">Evasion</tspan></text></g></g><g class="subtechniques"><g class="subtechnique T1518.001" transform="translate(15, 355)"><rect class="cell" height="59.166666666666664" width="89.6" fill="#e60d0d" stroke="#6B7279"/><rect class="cell" height="59.166666666666664" width="3" transform="translate(-3, 0)" fill="#6B7279" stroke="#6B7279"/><text font-size="6.366818181818181" fill="white"><tspan x="4" y="18.416666666666664">Security</tspan><tspan x="4" y="33.08333333333333">Software</tspan><tspan x="4" y="47.75">Discovery</tspan></text></g></g><g class="tactic-label"><text font-size="12" fill="black" font-weight="bold"><tspan text-anchor="middle" x="52.3" y="33.08333333333333">Discovery</tspan></text></g></g><g class="tactic collection" transform="translate(732.1999999999999, 0)"><g class="techniques"><g class="technique T1560" transform="translate(0, 59.166666666666664)"><rect class="cell" height="59.166666666666664" width="104.6" fill="#e60d0d" stroke="#6B7279"/><polygon class="sidebar" transform="translate(0, 59.166666666666664)" points="0,0 12,0 12,0" fill="#6B7279" visibility="hidden"/><text font-size="6.366818181818181" fill="white"><tspan x="4" y="18.416666666666664">Archive</tspan><tspan x="4" y="33.08333333333333">Collected</tspan><tspan x="4" y="47.75">Data</tspan></text></g><g class="technique T1123" transform="translate(0, 118.33333333333333)"><rect class="cell" height="59.166666666666664" width="104.6" fill="#e60d0d" stroke="#6B7279"/><polygon class="sidebar" transform="translate(0, 59.166666666666664)" points="0,0 12,0 12,0" fill="#6B7279" visibility="hidden"/><text font-size="6.366818181818181" fill="white"><tspan x="4" y="25.833333333333332">Audio</tspan><tspan x="4" y="40.33333333333333">Capture</tspan></text></g><g class="technique T1115" transform="translate(0, 177.5)"><rect class="cell" height="59.166666666666664" width="104.6" fill="#e60d0d" stroke="#6B7279"/><polygon class="sidebar" transform="translate(0, 59.166666666666664)" points="0,0 12,0 12,0" fill="#6B7279" visibility="hidden"/><text font-size="6.366818181818181" fill="white"><tspan x="4" y="25.833333333333332">Clipboard</tspan><tspan x="4" y="40.33333333333333">Data</tspan></text></g><g class="technique T1005" transform="translate(0, 236.66666666666666)"><rect class="cell" height="59.166666666666664" width="104.6" fill="#e60d0d" stroke="#6B7279"/><polygon class="sidebar" transform="translate(0, 59.166666666666664)" points="0,0 12,0 12,0" fill="#6B7279" visibility="hidden"/><text font-size="6.366818181818181" fill="white"><tspan x="4" y="18.416666666666664">Data</tspan><tspan x="4" y="33.08333333333333">from Local</tspan><tspan x="4" y="47.75">System</tspan></text></g><g class="technique T1114" transform="translate(0, 295.83333333333337)"><rect class="cell" height="59.166666666666664" width="104.6" fill="#e60d0d" stroke="#6B7279"/><polygon class="sidebar" transform="translate(0, 59.166666666666664)" points="0,0 12,0 12,0" fill="#6B7279" visibility="hidden"/><text font-size="6.366818181818181" fill="white"><tspan x="4" y="25.833333333333332">Email</tspan><tspan x="4" y="40.33333333333333">Collection</tspan></text></g><g class="technique T1056" transform="translate(0, 355)"><rect class="cell" height="59.166666666666664" width="104.6" fill="#e60d0d" stroke="#6B7279"/><polygon class="sidebar" transform="translate(0, 59.166666666666664)" points="0,0 12,0 12,0" fill="#6B7279" visibility="hidden"/><text font-size="6.366818181818181" fill="white"><tspan x="4" y="25.833333333333332">Input</tspan><tspan x="4" y="40.33333333333333">Capture</tspan></text></g><g class="technique T1113" transform="translate(0, 414.1666666666667)"><rect class="cell" height="59.166666666666664" width="104.6" fill="#e60d0d" stroke="#6B7279"/><polygon class="sidebar" transform="translate(0, 59.166666666666664)" points="0,0 12,0 12,0" fill="#6B7279" visibility="hidden"/><text font-size="6.366818181818181" fill="white"><tspan x="4" y="25.833333333333332">Screen</tspan><tspan x="4" y="40.33333333333333">Capture</tspan></text></g><g class="technique T1125" transform="translate(0, 473.3333333333333)"><rect class="cell" height="59.166666666666664" width="104.6" fill="#e60d0d" stroke="#6B7279"/><polygon class="sidebar" transform="translate(0, 59.166666666666664)" points="0,0 12,0 12,0" fill="#6B7279" visibility="hidden"/><text font-size="6.366818181818181" fill="white"><tspan x="4" y="25.833333333333332">Video</tspan><tspan x="4" y="40.33333333333333">Capture</tspan></text></g></g><g class="subtechniques"/><g class="tactic-label"><text font-size="12" fill="black" font-weight="bold"><tspan text-anchor="middle" x="52.3" y="33.08333333333333">Collection</tspan></text></g></g><g class="tactic command-and-control" transform="translate(836.8, 0)"><g class="techniques"><g class="technique T1071" transform="translate(0, 59.166666666666664)"><rect class="cell" height="59.166666666666664" width="104.6" fill="#e60d0d" stroke="#6B7279"/><polygon class="sidebar" transform="translate(0, 59.166666666666664)" points="0,0 12,0 12,0" fill="#6B7279" visibility="hidden"/><text font-size="6.366818181818181" fill="white"><tspan x="4" y="18.416666666666664">Application</tspan><tspan x="4" y="33.08333333333333">Layer</tspan><tspan x="4" y="47.75">Protocol</tspan></text></g><g class="technique T1573" transform="translate(0, 118.33333333333333)"><rect class="cell" height="59.166666666666664" width="104.6" fill="#e60d0d" stroke="#6B7279"/><polygon class="sidebar" transform="translate(0, 59.166666666666664)" points="0,0 12,0 12,0" fill="#6B7279" visibility="hidden"/><text font-size="6.366818181818181" fill="white"><tspan x="4" y="25.833333333333332">Encrypted</tspan><tspan x="4" y="40.33333333333333">Channel</tspan></text></g><g class="technique T1105" transform="translate(0, 177.5)"><rect class="cell" height="59.166666666666664" width="104.6" fill="#e60d0d" stroke="#6B7279"/><polygon class="sidebar" transform="translate(0, 59.166666666666664)" points="0,0 12,0 12,0" fill="#6B7279" visibility="hidden"/><text font-size="6.366818181818181" fill="white"><tspan x="4" y="18.416666666666664">Ingress</tspan><tspan x="4" y="33.08333333333333">Tool</tspan><tspan x="4" y="47.75">Transfer</tspan></text></g><g class="technique T1095" transform="translate(0, 236.66666666666666)"><rect class="cell" height="59.166666666666664" width="104.6" fill="#e60d0d" stroke="#6B7279"/><polygon class="sidebar" transform="translate(0, 59.166666666666664)" points="0,0 12,0 12,0" fill="#6B7279" visibility="hidden"/><text font-size="6.366818181818181" fill="white"><tspan x="4" y="24.833333333333332">Non-Application</tspan><tspan x="4" y="39.33333333333333">Layer Protocol</tspan></text></g><g class="technique T1571" transform="translate(0, 295.83333333333337)"><rect class="cell" height="59.166666666666664" width="104.6" fill="#e60d0d" stroke="#6B7279"/><polygon class="sidebar" transform="translate(0, 59.166666666666664)" points="0,0 12,0 12,0" fill="#6B7279" visibility="hidden"/><text font-size="6.366818181818181" fill="white"><tspan x="4" y="25.833333333333332">Non-Standard</tspan><tspan x="4" y="40.33333333333333">Port</tspan></text></g></g><g class="subtechniques"/><g class="tactic-label"><text font-size="12" fill="black" font-weight="bold"><tspan text-anchor="middle" x="52.3" y="25.833333333333332">Command</tspan><tspan text-anchor="middle" x="52.3" y="40.33333333333333">and Control</tspan></text></g></g><g class="tactic impact" transform="translate(941.4, 0)"><g class="techniques"><g class="technique T1529" transform="translate(0, 59.166666666666664)"><rect class="cell" height="59.166666666666664" width="104.6" fill="#e60d0d" stroke="#6B7279"/><polygon class="sidebar" transform="translate(0, 59.166666666666664)" points="0,0 12,0 12,0" fill="#6B7279" visibility="hidden"/><text font-size="6.366818181818181" fill="white"><tspan x="4" y="24.833333333333332">System</tspan><tspan x="4" y="39.33333333333333">Shutdown/Reboot</tspan></text></g></g><g class="subtechniques"/><g class="tactic-label"><text font-size="12" fill="black" font-weight="bold"><tspan text-anchor="middle" x="52.3" y="33.08333333333333">Impact</tspan></text></g></g></g></g></g></svg>