<?xml version="1.0" standalone="no"?>
<svg width="1536" height="816" xmlns="http://www.w3.org/2000/svg" id="svgvm0"><g transform="translate(5,5)" style="font-family: sans-serif;"><g transform="translate(0,1)"><g><g class="tactic initial-access" transform="translate(0, 0)"><g class="techniques"><g class="technique T1566" transform="translate(0, 80.60000000000001)"><rect class="cell" height="80.60000000000001" width="154.31460674157304" fill="#dadaeb" stroke="#6B7279"/><polygon class="sidebar" transform="translate(0, 80.60000000000001)" points="0,0 12,0 12,12" fill="#6B7279" visibility="visible"/><text font-size="12" fill="black"><tspan x="4" y="43.800000000000004">Phishing</tspan></text></g></g><g class="subtechniques"><g class="subtechnique T1566.002" transform="translate(15, 161.20000000000002)"><rect class="cell" height="80.60000000000001" width="139.31460674157304" fill="white" stroke="#6B7279"/><rect class="cell" height="80.60000000000001" width="3" transform="translate(-3, 0)" fill="#6B7279" stroke="#6B7279"/><text font-size="12" fill="black"><tspan x="4" y="36.550000000000004">Spearphishing</tspan><tspan x="4" y="51.050000000000004">Link</tspan></text></g></g><g class="tactic-label"><text font-size="12" fill="black" font-weight="bold"><tspan text-anchor="middle" x="77.15730337078652" y="43.800000000000004">Initial Access</tspan></text></g></g><g class="tactic persistence" transform="translate(171.46067415730337, 0)"><g class="techniques"><g class="technique T1547" transform="translate(0, 80.60000000000001)"><rect class="cell" height="80.60000000000001" width="154.31460674157304" fill="#dadaeb" stroke="#6B7279"/><polygon class="sidebar" transform="translate(0, 80.60000000000001)" points="0,0 12,0 12,12" fill="#6B7279" visibility="visible"/><text font-size="12" fill="black"><tspan x="4" y="29.133333333333336">Boot or</tspan><tspan x="4" y="43.800000000000004">Logon Autostart</tspan><tspan x="4" y="58.46666666666667">Execution</tspan></text></g></g><g class="subtechniques"><g class="subtechnique T1547.001" transform="translate(15, 161.20000000000002)"><rect class="cell" height="80.60000000000001" width="139.31460674157304" fill="white" stroke="#6B7279"/><rect class="cell" height="80.60000000000001" width="3" transform="translate(-3, 0)" fill="#6B7279" stroke="#6B7279"/><text font-size="12" fill="black"><tspan x="4" y="29.133333333333336">Registry</tspan><tspan x="4" y="43.800000000000004">Run Keys /</tspan><tspan x="4" y="58.46666666666667">Startup Folder</tspan></text></g></g><g class="tactic-label"><text font-size="12" fill="black" font-weight="bold"><tspan text-anchor="middle" x="77.15730337078652" y="43.800000000000004">Persistence</tspan></text></g></g><g class="tactic privilege-escalation" transform="translate(342.92134831460675, 0)"><g class="techniques"><g class="technique T1547" transform="translate(0, 80.60000000000001)"><rect class="cell" height="80.60000000000001" width="154.31460674157304" fill="#dadaeb" stroke="#6B7279"/><polygon class="sidebar" transform="translate(0, 80.60000000000001)" points="0,0 12,0 12,12" fill="#6B7279" visibility="visible"/><text font-size="12" fill="black"><tspan x="4" y="29.133333333333336">Boot or</tspan><tspan x="4" y="43.800000000000004">Logon Autostart</tspan><tspan x="4" y="58.46666666666667">Execution</tspan></text></g></g><g class="subtechniques"><g class="subtechnique T1547.001" transform="translate(15, 161.20000000000002)"><rect class="cell" height="80.60000000000001" width="139.31460674157304" fill="white" stroke="#6B7279"/><rect class="cell" height="80.60000000000001" width="3" transform="translate(-3, 0)" fill="#6B7279" stroke="#6B7279"/><text font-size="12" fill="black"><tspan x="4" y="29.133333333333336">Registry</tspan><tspan x="4" y="43.800000000000004">Run Keys /</tspan><tspan x="4" y="58.46666666666667">Startup Folder</tspan></text></g></g><g class="tactic-label"><text font-size="12" fill="black" font-weight="bold"><tspan text-anchor="middle" x="77.15730337078652" y="36.550000000000004">Privilege</tspan><tspan text-anchor="middle" x="77.15730337078652" y="51.050000000000004">Escalation</tspan></text></g></g><g class="tactic defense-evasion" transform="translate(514.3820224719101, 0)"><g class="techniques"><g class="technique T1140" transform="translate(0, 80.60000000000001)"><rect class="cell" height="80.60000000000001" width="154.31460674157304" fill="#dadaeb" stroke="#6B7279"/><polygon class="sidebar" transform="translate(0, 80.60000000000001)" points="0,0 12,0 12,0" fill="#6B7279" visibility="hidden"/><text font-size="11.78645443196005" fill="black"><tspan x="4" y="29.133333333333336">Deobfuscate/Decode</tspan><tspan x="4" y="43.800000000000004">Files</tspan><tspan x="4" y="58.46666666666667">or Information</tspan></text></g><g class="technique T1222" transform="translate(0, 161.20000000000002)"><rect class="cell" height="80.60000000000001" width="154.31460674157304" fill="#dadaeb" stroke="#6B7279"/><polygon class="sidebar" transform="translate(0, 80.60000000000001)" points="0,0 12,0 12,0" fill="#6B7279" visibility="visible"/><text font-size="12" fill="black"><tspan x="4" y="21.675000000000004">File</tspan><tspan x="4" y="36.425000000000004">and Directory</tspan><tspan x="4" y="51.175000000000004">Permissions</tspan><tspan x="4" y="65.92500000000001">Modification</tspan></text></g><g class="technique T1562" transform="translate(0, 241.79999999999998)"><rect class="cell" height="80.60000000000001" width="154.31460674157304" fill="#dadaeb" stroke="#6B7279"/><polygon class="sidebar" transform="translate(0, 80.60000000000001)" points="0,0 12,0 12,12" fill="#6B7279" visibility="visible"/><text font-size="12" fill="black"><tspan x="4" y="43.800000000000004">Impair Defenses</tspan></text></g><g class="technique T1036" transform="translate(0, 403)"><rect class="cell" height="80.60000000000001" width="154.31460674157304" fill="#dadaeb" stroke="#6B7279"/><polygon class="sidebar" transform="translate(0, 80.60000000000001)" points="0,0 12,0 12,0" fill="#6B7279" visibility="visible"/><text font-size="12" fill="black"><tspan x="4" y="43.800000000000004">Masquerading</tspan></text></g><g class="technique T1112" transform="translate(0, 483.59999999999997)"><rect class="cell" height="80.60000000000001" width="154.31460674157304" fill="#dadaeb" stroke="#6B7279"/><polygon class="sidebar" transform="translate(0, 80.60000000000001)" points="0,0 12,0 12,0" fill="#6B7279" visibility="hidden"/><text font-size="12" fill="black"><tspan x="4" y="43.800000000000004">Modify Registry</tspan></text></g><g class="technique T1027" transform="translate(0, 564.1999999999999)"><rect class="cell" height="80.60000000000001" width="154.31460674157304" fill="#dadaeb" stroke="#6B7279"/><polygon class="sidebar" transform="translate(0, 80.60000000000001)" points="0,0 12,0 12,12" fill="#6B7279" visibility="visible"/><text font-size="12" fill="black"><tspan x="4" y="36.550000000000004">Obfuscated Files</tspan><tspan x="4" y="51.050000000000004">or Information</tspan></text></g><g class="technique T1497" transform="translate(0, 725.4)"><rect class="cell" height="80.60000000000001" width="154.31460674157304" fill="#dadaeb" stroke="#6B7279"/><polygon class="sidebar" transform="translate(0, 80.60000000000001)" points="0,0 12,0 12,0" fill="#6B7279" visibility="visible"/><text font-size="9.643462717058224" fill="black"><tspan x="4" y="35.550000000000004">Virtualization/Sandbox</tspan><tspan x="4" y="50.050000000000004">Evasion</tspan></text></g></g><g class="subtechniques"><g class="subtechnique T1562.001" transform="translate(15, 322.40000000000003)"><rect class="cell" height="80.60000000000001" width="139.31460674157304" fill="white" stroke="#6B7279"/><rect class="cell" height="80.60000000000001" width="3" transform="translate(-3, 0)" fill="#6B7279" stroke="#6B7279"/><text font-size="12" fill="black"><tspan x="4" y="36.550000000000004">Disable</tspan><tspan x="4" y="51.050000000000004">or Modify Tools</tspan></text></g><g class="subtechnique T1027.001" transform="translate(15, 644.8000000000001)"><rect class="cell" height="80.60000000000001" width="139.31460674157304" fill="white" stroke="#6B7279"/><rect class="cell" height="80.60000000000001" width="3" transform="translate(-3, 0)" fill="#6B7279" stroke="#6B7279"/><text font-size="12" fill="black"><tspan x="4" y="43.800000000000004">Binary Padding</tspan></text></g></g><g class="tactic-label"><text font-size="12" fill="black" font-weight="bold"><tspan text-anchor="middle" x="77.15730337078652" y="43.800000000000004">Defense Evasion</tspan></text></g></g><g class="tactic credential-access" transform="translate(685.8426966292135, 0)"><g class="techniques"><g class="technique T1555" transform="translate(0, 80.60000000000001)"><rect class="cell" height="80.60000000000001" width="154.31460674157304" fill="#dadaeb" stroke="#6B7279"/><polygon class="sidebar" transform="translate(0, 80.60000000000001)" points="0,0 12,0 12,12" fill="#6B7279" visibility="visible"/><text font-size="12" fill="black"><tspan x="4" y="36.550000000000004">Credentials from</tspan><tspan x="4" y="51.050000000000004">Password Stores</tspan></text></g><g class="technique T1056" transform="translate(0, 241.79999999999998)"><rect class="cell" height="80.60000000000001" width="154.31460674157304" fill="#dadaeb" stroke="#6B7279"/><polygon class="sidebar" transform="translate(0, 80.60000000000001)" points="0,0 12,0 12,0" fill="#6B7279" visibility="visible"/><text font-size="12" fill="black"><tspan x="4" y="43.800000000000004">Input Capture</tspan></text></g><g class="technique T1552" transform="translate(0, 322.40000000000003)"><rect class="cell" height="80.60000000000001" width="154.31460674157304" fill="#dadaeb" stroke="#6B7279"/><polygon class="sidebar" transform="translate(0, 80.60000000000001)" points="0,0 12,0 12,12" fill="#6B7279" visibility="visible"/><text font-size="12" fill="black"><tspan x="4" y="36.550000000000004">Unsecured</tspan><tspan x="4" y="51.050000000000004">Credentials</tspan></text></g></g><g class="subtechniques"><g class="subtechnique T1555.003" transform="translate(15, 161.20000000000002)"><rect class="cell" height="80.60000000000001" width="139.31460674157304" fill="white" stroke="#6B7279"/><rect class="cell" height="80.60000000000001" width="3" transform="translate(-3, 0)" fill="#6B7279" stroke="#6B7279"/><text font-size="12" fill="black"><tspan x="4" y="29.133333333333336">Credentials</tspan><tspan x="4" y="43.800000000000004">from</tspan><tspan x="4" y="58.46666666666667">Web Browsers</tspan></text></g><g class="subtechnique T1552.001" transform="translate(15, 403)"><rect class="cell" height="80.60000000000001" width="139.31460674157304" fill="white" stroke="#6B7279"/><rect class="cell" height="80.60000000000001" width="3" transform="translate(-3, 0)" fill="#6B7279" stroke="#6B7279"/><text font-size="12" fill="black"><tspan x="4" y="36.550000000000004">Credentials</tspan><tspan x="4" y="51.050000000000004">In Files</tspan></text></g></g><g class="tactic-label"><text font-size="12" fill="black" font-weight="bold"><tspan text-anchor="middle" x="77.15730337078652" y="43.800000000000004">Credential Access</tspan></text></g></g><g class="tactic discovery" transform="translate(857.3033707865169, 0)"><g class="techniques"><g class="technique T1010" transform="translate(0, 80.60000000000001)"><rect class="cell" height="80.60000000000001" width="154.31460674157304" fill="#dadaeb" stroke="#6B7279"/><polygon class="sidebar" transform="translate(0, 80.60000000000001)" points="0,0 12,0 12,0" fill="#6B7279" visibility="hidden"/><text font-size="12" fill="black"><tspan x="4" y="36.550000000000004">Application</tspan><tspan x="4" y="51.050000000000004">Window Discovery</tspan></text></g><g class="technique T1083" transform="translate(0, 161.20000000000002)"><rect class="cell" height="80.60000000000001" width="154.31460674157304" fill="#dadaeb" stroke="#6B7279"/><polygon class="sidebar" transform="translate(0, 80.60000000000001)" points="0,0 12,0 12,0" fill="#6B7279" visibility="hidden"/><text font-size="12" fill="black"><tspan x="4" y="29.133333333333336">File</tspan><tspan x="4" y="43.800000000000004">and Directory</tspan><tspan x="4" y="58.46666666666667">Discovery</tspan></text></g><g class="technique T1057" transform="translate(0, 241.79999999999998)"><rect class="cell" height="80.60000000000001" width="154.31460674157304" fill="white" stroke="#6B7279"/><polygon class="sidebar" transform="translate(0, 80.60000000000001)" points="0,0 12,0 12,0" fill="#6B7279" visibility="hidden"/><text font-size="12" fill="black"><tspan x="4" y="43.800000000000004">Process Discovery</tspan></text></g><g class="technique T1518" transform="translate(0, 322.40000000000003)"><rect class="cell" height="80.60000000000001" width="154.31460674157304" fill="#dadaeb" stroke="#6B7279"/><polygon class="sidebar" transform="translate(0, 80.60000000000001)" points="0,0 12,0 12,12" fill="#6B7279" visibility="visible"/><text font-size="12" fill="black"><tspan x="4" y="36.550000000000004">Software</tspan><tspan x="4" y="51.050000000000004">Discovery</tspan></text></g><g class="technique T1082" transform="translate(0, 483.59999999999997)"><rect class="cell" height="80.60000000000001" width="154.31460674157304" fill="#dadaeb" stroke="#6B7279"/><polygon class="sidebar" transform="translate(0, 80.60000000000001)" points="0,0 12,0 12,0" fill="#6B7279" visibility="hidden"/><text font-size="12" fill="black"><tspan x="4" y="29.133333333333336">System</tspan><tspan x="4" y="43.800000000000004">Information</tspan><tspan x="4" y="58.46666666666667">Discovery</tspan></text></g><g class="technique T1497" transform="translate(0, 564.1999999999999)"><rect class="cell" height="80.60000000000001" width="154.31460674157304" fill="#dadaeb" stroke="#6B7279"/><polygon class="sidebar" transform="translate(0, 80.60000000000001)" points="0,0 12,0 12,0" fill="#6B7279" visibility="visible"/><text font-size="9.643462717058224" fill="black"><tspan x="4" y="35.550000000000004">Virtualization/Sandbox</tspan><tspan x="4" y="50.050000000000004">Evasion</tspan></text></g></g><g class="subtechniques"><g class="subtechnique T1518.001" transform="translate(15, 403)"><rect class="cell" height="80.60000000000001" width="139.31460674157304" fill="white" stroke="#6B7279"/><rect class="cell" height="80.60000000000001" width="3" transform="translate(-3, 0)" fill="#6B7279" stroke="#6B7279"/><text font-size="12" fill="black"><tspan x="4" y="29.133333333333336">Security</tspan><tspan x="4" y="43.800000000000004">Software</tspan><tspan x="4" y="58.46666666666667">Discovery</tspan></text></g></g><g class="tactic-label"><text font-size="12" fill="black" font-weight="bold"><tspan text-anchor="middle" x="77.15730337078652" y="43.800000000000004">Discovery</tspan></text></g></g><g class="tactic collection" transform="translate(1028.7640449438202, 0)"><g class="techniques"><g class="technique T1056" transform="translate(0, 80.60000000000001)"><rect class="cell" height="80.60000000000001" width="154.31460674157304" fill="#dadaeb" stroke="#6B7279"/><polygon class="sidebar" transform="translate(0, 80.60000000000001)" points="0,0 12,0 12,0" fill="#6B7279" visibility="visible"/><text font-size="12" fill="black"><tspan x="4" y="43.800000000000004">Input Capture</tspan></text></g></g><g class="subtechniques"/><g class="tactic-label"><text font-size="12" fill="black" font-weight="bold"><tspan text-anchor="middle" x="77.15730337078652" y="43.800000000000004">Collection</tspan></text></g></g><g class="tactic command-and-control" transform="translate(1200.2247191011236, 0)"><g class="techniques"><g class="technique T1071" transform="translate(0, 80.60000000000001)"><rect class="cell" height="80.60000000000001" width="154.31460674157304" fill="#dadaeb" stroke="#6B7279"/><polygon class="sidebar" transform="translate(0, 80.60000000000001)" points="0,0 12,0 12,0" fill="#6B7279" visibility="visible"/><text font-size="12" fill="black"><tspan x="4" y="36.550000000000004">Application</tspan><tspan x="4" y="51.050000000000004">Layer Protocol</tspan></text></g><g class="technique T1568" transform="translate(0, 161.20000000000002)"><rect class="cell" height="80.60000000000001" width="154.31460674157304" fill="#dadaeb" stroke="#6B7279"/><polygon class="sidebar" transform="translate(0, 80.60000000000001)" points="0,0 12,0 12,12" fill="#6B7279" visibility="visible"/><text font-size="12" fill="black"><tspan x="4" y="36.550000000000004">Dynamic</tspan><tspan x="4" y="51.050000000000004">Resolution</tspan></text></g></g><g class="subtechniques"><g class="subtechnique T1568.002" transform="translate(15, 241.79999999999998)"><rect class="cell" height="80.60000000000001" width="139.31460674157304" fill="white" stroke="#6B7279"/><rect class="cell" height="80.60000000000001" width="3" transform="translate(-3, 0)" fill="#6B7279" stroke="#6B7279"/><text font-size="12" fill="black"><tspan x="4" y="29.133333333333336">Domain</tspan><tspan x="4" y="43.800000000000004">Generation</tspan><tspan x="4" y="58.46666666666667">Algorithms</tspan></text></g></g><g class="tactic-label"><text font-size="12" fill="black" font-weight="bold"><tspan text-anchor="middle" x="77.15730337078652" y="36.550000000000004">Command</tspan><tspan text-anchor="middle" x="77.15730337078652" y="51.050000000000004">and Control</tspan></text></g></g><g class="tactic exfiltration" transform="translate(1371.685393258427, 0)"><g class="techniques"><g class="technique T1041" transform="translate(0, 80.60000000000001)"><rect class="cell" height="80.60000000000001" width="154.31460674157304" fill="#dadaeb" stroke="#6B7279"/><polygon class="sidebar" transform="translate(0, 80.60000000000001)" points="0,0 12,0 12,0" fill="#6B7279" visibility="hidden"/><text font-size="12" fill="black"><tspan x="4" y="36.550000000000004">Exfiltration</tspan><tspan x="4" y="51.050000000000004">Over C2 Channel</tspan></text></g></g><g class="subtechniques"/><g class="tactic-label"><text font-size="12" fill="black" font-weight="bold"><tspan text-anchor="middle" x="77.15730337078652" y="43.800000000000004">Exfiltration</tspan></text></g></g></g></g></g></svg>