<?xml version="1.0" standalone="no"?>
<svg width="1436.1625000000001" height="566.90625" xmlns="http://www.w3.org/2000/svg" id="svgvm0"><g transform="translate(5,5)" style="font-family: sans-serif;"><g transform="translate(0,1)"><g><g class="tactic initial-access" transform="translate(-2.2737367544323206e-15, 0)"><g class="techniques"><g class="technique T1566" transform="translate(0, 61.87847222222222)"><rect class="cell" height="61.87847222222222" width="144.21867977528092" fill="#dadaeb" stroke="#6B7279"/><polygon class="sidebar" transform="translate(0, 61.87847222222222)" points="0,0 12,0 12,12" fill="#6B7279" visibility="visible"/><text font-size="12" fill="black"><tspan x="4" y="34.439236111111114">Phishing</tspan></text></g></g><g class="subtechniques"><g class="subtechnique T1566.001" transform="translate(15, 123.75694444444444)"><rect class="cell" height="61.87847222222222" width="129.21867977528092" fill="white" stroke="#6B7279"/><rect class="cell" height="61.87847222222222" width="3" transform="translate(-3, 0)" fill="#6B7279" stroke="#6B7279"/><text font-size="12" fill="black"><tspan x="4" y="27.18923611111111">Spearphishing</tspan><tspan x="4" y="41.689236111111114">Attachment</tspan></text></g></g><g class="tactic-label"><text font-size="12" fill="black" font-weight="bold"><tspan text-anchor="middle" x="72.10933988764046" y="34.439236111111114">Initial Access</tspan></text></g></g><g class="tactic execution" transform="translate(160.2429775280899, 0)"><g class="techniques"><g class="technique T1059" transform="translate(0, 61.87847222222222)"><rect class="cell" height="61.87847222222222" width="144.21867977528092" fill="#dadaeb" stroke="#6B7279"/><polygon class="sidebar" transform="translate(0, 61.87847222222222)" points="0,0 12,0 12,12" fill="#6B7279" visibility="visible"/><text font-size="12" fill="black"><tspan x="4" y="19.772569444444443">Command and</tspan><tspan x="4" y="34.439236111111114">Scripting</tspan><tspan x="4" y="49.10590277777777">Interpreter</tspan></text></g><g class="technique T1106" transform="translate(0, 185.63541666666666)"><rect class="cell" height="61.87847222222222" width="144.21867977528092" fill="#dadaeb" stroke="#6B7279"/><polygon class="sidebar" transform="translate(0, 61.87847222222222)" points="0,0 12,0 12,0" fill="#6B7279" visibility="hidden"/><text font-size="12" fill="black"><tspan x="4" y="34.439236111111114">Native API</tspan></text></g><g class="technique T1053" transform="translate(0, 247.51388888888889)"><rect class="cell" height="61.87847222222222" width="144.21867977528092" fill="#dadaeb" stroke="#6B7279"/><polygon class="sidebar" transform="translate(0, 61.87847222222222)" points="0,0 12,0 12,12" fill="#6B7279" visibility="visible"/><text font-size="12" fill="black"><tspan x="4" y="27.18923611111111">Scheduled</tspan><tspan x="4" y="41.689236111111114">Task/Job</tspan></text></g><g class="technique T1204" transform="translate(0, 371.2708333333333)"><rect class="cell" height="61.87847222222222" width="144.21867977528092" fill="#dadaeb" stroke="#6B7279"/><polygon class="sidebar" transform="translate(0, 61.87847222222222)" points="0,0 12,0 12,12" fill="#6B7279" visibility="visible"/><text font-size="12" fill="black"><tspan x="4" y="34.439236111111114">User Execution</tspan></text></g></g><g class="subtechniques"><g class="subtechnique T1059.003" transform="translate(15, 123.75694444444444)"><rect class="cell" height="61.87847222222222" width="129.21867977528092" fill="white" stroke="#6B7279"/><rect class="cell" height="61.87847222222222" width="3" transform="translate(-3, 0)" fill="#6B7279" stroke="#6B7279"/><text font-size="12" fill="black"><tspan x="4" y="27.18923611111111">Windows</tspan><tspan x="4" y="41.689236111111114">Command Shell</tspan></text></g><g class="subtechnique T1053.005" transform="translate(15, 309.39236111111114)"><rect class="cell" height="61.87847222222222" width="129.21867977528092" fill="white" stroke="#6B7279"/><rect class="cell" height="61.87847222222222" width="3" transform="translate(-3, 0)" fill="#6B7279" stroke="#6B7279"/><text font-size="12" fill="black"><tspan x="4" y="34.439236111111114">Scheduled Task</tspan></text></g><g class="subtechnique T1204.002" transform="translate(15, 433.14930555555554)"><rect class="cell" height="61.87847222222222" width="129.21867977528092" fill="white" stroke="#6B7279"/><rect class="cell" height="61.87847222222222" width="3" transform="translate(-3, 0)" fill="#6B7279" stroke="#6B7279"/><text font-size="12" fill="black"><tspan x="4" y="34.439236111111114">Malicious File</tspan></text></g></g><g class="tactic-label"><text font-size="12" fill="black" font-weight="bold"><tspan text-anchor="middle" x="72.10933988764046" y="34.439236111111114">Execution</tspan></text></g></g><g class="tactic persistence" transform="translate(320.4859550561798, 0)"><g class="techniques"><g class="technique T1547" transform="translate(0, 61.87847222222222)"><rect class="cell" height="61.87847222222222" width="144.21867977528092" fill="#dadaeb" stroke="#6B7279"/><polygon class="sidebar" transform="translate(0, 61.87847222222222)" points="0,0 12,0 12,12" fill="#6B7279" visibility="visible"/><text font-size="12" fill="black"><tspan x="4" y="19.772569444444443">Boot or Logon</tspan><tspan x="4" y="34.439236111111114">Autostart</tspan><tspan x="4" y="49.10590277777777">Execution</tspan></text></g><g class="technique T1053" transform="translate(0, 185.63541666666666)"><rect class="cell" height="61.87847222222222" width="144.21867977528092" fill="#dadaeb" stroke="#6B7279"/><polygon class="sidebar" transform="translate(0, 61.87847222222222)" points="0,0 12,0 12,12" fill="#6B7279" visibility="visible"/><text font-size="12" fill="black"><tspan x="4" y="27.18923611111111">Scheduled</tspan><tspan x="4" y="41.689236111111114">Task/Job</tspan></text></g></g><g class="subtechniques"><g class="subtechnique T1547.001" transform="translate(15, 123.75694444444444)"><rect class="cell" height="61.87847222222222" width="129.21867977528092" fill="white" stroke="#6B7279"/><rect class="cell" height="61.87847222222222" width="3" transform="translate(-3, 0)" fill="#6B7279" stroke="#6B7279"/><text font-size="12" fill="black"><tspan x="4" y="19.772569444444443">Registry Run</tspan><tspan x="4" y="34.439236111111114">Keys / Startup</tspan><tspan x="4" y="49.10590277777777">Folder</tspan></text></g><g class="subtechnique T1053.005" transform="translate(15, 247.51388888888889)"><rect class="cell" height="61.87847222222222" width="129.21867977528092" fill="white" stroke="#6B7279"/><rect class="cell" height="61.87847222222222" width="3" transform="translate(-3, 0)" fill="#6B7279" stroke="#6B7279"/><text font-size="12" fill="black"><tspan x="4" y="34.439236111111114">Scheduled Task</tspan></text></g></g><g class="tactic-label"><text font-size="12" fill="black" font-weight="bold"><tspan text-anchor="middle" x="72.10933988764046" y="34.439236111111114">Persistence</tspan></text></g></g><g class="tactic privilege-escalation" transform="translate(480.7289325842697, 0)"><g class="techniques"><g class="technique T1547" transform="translate(0, 61.87847222222222)"><rect class="cell" height="61.87847222222222" width="144.21867977528092" fill="#dadaeb" stroke="#6B7279"/><polygon class="sidebar" transform="translate(0, 61.87847222222222)" points="0,0 12,0 12,12" fill="#6B7279" visibility="visible"/><text font-size="12" fill="black"><tspan x="4" y="19.772569444444443">Boot or Logon</tspan><tspan x="4" y="34.439236111111114">Autostart</tspan><tspan x="4" y="49.10590277777777">Execution</tspan></text></g><g class="technique T1055" transform="translate(0, 185.63541666666666)"><rect class="cell" height="61.87847222222222" width="144.21867977528092" fill="#dadaeb" stroke="#6B7279"/><polygon class="sidebar" transform="translate(0, 61.87847222222222)" points="0,0 12,0 12,12" fill="#6B7279" visibility="visible"/><text font-size="12" fill="black"><tspan x="4" y="27.18923611111111">Process</tspan><tspan x="4" y="41.689236111111114">Injection</tspan></text></g><g class="technique T1053" transform="translate(0, 309.39236111111114)"><rect class="cell" height="61.87847222222222" width="144.21867977528092" fill="#dadaeb" stroke="#6B7279"/><polygon class="sidebar" transform="translate(0, 61.87847222222222)" points="0,0 12,0 12,12" fill="#6B7279" visibility="visible"/><text font-size="12" fill="black"><tspan x="4" y="27.18923611111111">Scheduled</tspan><tspan x="4" y="41.689236111111114">Task/Job</tspan></text></g></g><g class="subtechniques"><g class="subtechnique T1547.001" transform="translate(15, 123.75694444444444)"><rect class="cell" height="61.87847222222222" width="129.21867977528092" fill="white" stroke="#6B7279"/><rect class="cell" height="61.87847222222222" width="3" transform="translate(-3, 0)" fill="#6B7279" stroke="#6B7279"/><text font-size="12" fill="black"><tspan x="4" y="19.772569444444443">Registry Run</tspan><tspan x="4" y="34.439236111111114">Keys / Startup</tspan><tspan x="4" y="49.10590277777777">Folder</tspan></text></g><g class="subtechnique T1055.012" transform="translate(15, 247.51388888888889)"><rect class="cell" height="61.87847222222222" width="129.21867977528092" fill="white" stroke="#6B7279"/><rect class="cell" height="61.87847222222222" width="3" transform="translate(-3, 0)" fill="#6B7279" stroke="#6B7279"/><text font-size="12" fill="black"><tspan x="4" y="27.18923611111111">Process</tspan><tspan x="4" y="41.689236111111114">Hollowing</tspan></text></g><g class="subtechnique T1053.005" transform="translate(15, 371.2708333333333)"><rect class="cell" height="61.87847222222222" width="129.21867977528092" fill="white" stroke="#6B7279"/><rect class="cell" height="61.87847222222222" width="3" transform="translate(-3, 0)" fill="#6B7279" stroke="#6B7279"/><text font-size="12" fill="black"><tspan x="4" y="34.439236111111114">Scheduled Task</tspan></text></g></g><g class="tactic-label"><text font-size="12" fill="black" font-weight="bold"><tspan text-anchor="middle" x="72.10933988764046" y="27.18923611111111">Privilege</tspan><tspan text-anchor="middle" x="72.10933988764046" y="41.689236111111114">Escalation</tspan></text></g></g><g class="tactic defense-evasion" transform="translate(640.9719101123596, 0)"><g class="techniques"><g class="technique T1140" transform="translate(0, 61.87847222222222)"><rect class="cell" height="61.87847222222222" width="144.21867977528092" fill="#dadaeb" stroke="#6B7279"/><polygon class="sidebar" transform="translate(0, 61.87847222222222)" points="0,0 12,0 12,0" fill="#6B7279" visibility="hidden"/><text font-size="10.973171426342073" fill="black"><tspan x="4" y="19.772569444444443">Deobfuscate/Decode</tspan><tspan x="4" y="34.439236111111114">Files or</tspan><tspan x="4" y="49.10590277777777">Information</tspan></text></g><g class="technique T1562" transform="translate(0, 123.75694444444444)"><rect class="cell" height="61.87847222222222" width="144.21867977528092" fill="#dadaeb" stroke="#6B7279"/><polygon class="sidebar" transform="translate(0, 61.87847222222222)" points="0,0 12,0 12,12" fill="#6B7279" visibility="visible"/><text font-size="12" fill="black"><tspan x="4" y="34.439236111111114">Impair Defenses</tspan></text></g><g class="technique T1112" transform="translate(0, 247.51388888888889)"><rect class="cell" height="61.87847222222222" width="144.21867977528092" fill="#dadaeb" stroke="#6B7279"/><polygon class="sidebar" transform="translate(0, 61.87847222222222)" points="0,0 12,0 12,0" fill="#6B7279" visibility="hidden"/><text font-size="12" fill="black"><tspan x="4" y="34.439236111111114">Modify Registry</tspan></text></g><g class="technique T1027" transform="translate(0, 309.39236111111114)"><rect class="cell" height="61.87847222222222" width="144.21867977528092" fill="#dadaeb" stroke="#6B7279"/><polygon class="sidebar" transform="translate(0, 61.87847222222222)" points="0,0 12,0 12,12" fill="#6B7279" visibility="visible"/><text font-size="12" fill="black"><tspan x="4" y="27.18923611111111">Obfuscated Files</tspan><tspan x="4" y="41.689236111111114">or Information</tspan></text></g><g class="technique T1055" transform="translate(0, 433.14930555555554)"><rect class="cell" height="61.87847222222222" width="144.21867977528092" fill="#dadaeb" stroke="#6B7279"/><polygon class="sidebar" transform="translate(0, 61.87847222222222)" points="0,0 12,0 12,12" fill="#6B7279" visibility="visible"/><text font-size="12" fill="black"><tspan x="4" y="27.18923611111111">Process</tspan><tspan x="4" y="41.689236111111114">Injection</tspan></text></g></g><g class="subtechniques"><g class="subtechnique T1562.001" transform="translate(15, 185.63541666666666)"><rect class="cell" height="61.87847222222222" width="129.21867977528092" fill="white" stroke="#6B7279"/><rect class="cell" height="61.87847222222222" width="3" transform="translate(-3, 0)" fill="#6B7279" stroke="#6B7279"/><text font-size="12" fill="black"><tspan x="4" y="27.18923611111111">Disable or</tspan><tspan x="4" y="41.689236111111114">Modify Tools</tspan></text></g><g class="subtechnique T1027.002" transform="translate(15, 371.2708333333333)"><rect class="cell" height="61.87847222222222" width="129.21867977528092" fill="white" stroke="#6B7279"/><rect class="cell" height="61.87847222222222" width="3" transform="translate(-3, 0)" fill="#6B7279" stroke="#6B7279"/><text font-size="12" fill="black"><tspan x="4" y="27.18923611111111">Software</tspan><tspan x="4" y="41.689236111111114">Packing</tspan></text></g><g class="subtechnique T1055.012" transform="translate(15, 495.02777777777777)"><rect class="cell" height="61.87847222222222" width="129.21867977528092" fill="white" stroke="#6B7279"/><rect class="cell" height="61.87847222222222" width="3" transform="translate(-3, 0)" fill="#6B7279" stroke="#6B7279"/><text font-size="12" fill="black"><tspan x="4" y="27.18923611111111">Process</tspan><tspan x="4" y="41.689236111111114">Hollowing</tspan></text></g></g><g class="tactic-label"><text font-size="12" fill="black" font-weight="bold"><tspan text-anchor="middle" x="72.10933988764046" y="34.439236111111114">Defense Evasion</tspan></text></g></g><g class="tactic credential-access" transform="translate(801.2148876404495, 0)"><g class="techniques"><g class="technique T1555" transform="translate(0, 61.87847222222222)"><rect class="cell" height="61.87847222222222" width="144.21867977528092" fill="#dadaeb" stroke="#6B7279"/><polygon class="sidebar" transform="translate(0, 61.87847222222222)" points="0,0 12,0 12,12" fill="#6B7279" visibility="visible"/><text font-size="12" fill="black"><tspan x="4" y="27.18923611111111">Credentials from</tspan><tspan x="4" y="41.689236111111114">Password Stores</tspan></text></g><g class="technique T1056" transform="translate(0, 185.63541666666666)"><rect class="cell" height="61.87847222222222" width="144.21867977528092" fill="#dadaeb" stroke="#6B7279"/><polygon class="sidebar" transform="translate(0, 61.87847222222222)" points="0,0 12,0 12,12" fill="#6B7279" visibility="visible"/><text font-size="12" fill="black"><tspan x="4" y="34.439236111111114">Input Capture</tspan></text></g><g class="technique T1552" transform="translate(0, 309.39236111111114)"><rect class="cell" height="61.87847222222222" width="144.21867977528092" fill="#dadaeb" stroke="#6B7279"/><polygon class="sidebar" transform="translate(0, 61.87847222222222)" points="0,0 12,0 12,12" fill="#6B7279" visibility="visible"/><text font-size="12" fill="black"><tspan x="4" y="27.18923611111111">Unsecured</tspan><tspan x="4" y="41.689236111111114">Credentials</tspan></text></g></g><g class="subtechniques"><g class="subtechnique T1555.003" transform="translate(15, 123.75694444444444)"><rect class="cell" height="61.87847222222222" width="129.21867977528092" fill="white" stroke="#6B7279"/><rect class="cell" height="61.87847222222222" width="3" transform="translate(-3, 0)" fill="#6B7279" stroke="#6B7279"/><text font-size="12" fill="black"><tspan x="4" y="19.772569444444443">Credentials</tspan><tspan x="4" y="34.439236111111114">from Web</tspan><tspan x="4" y="49.10590277777777">Browsers</tspan></text></g><g class="subtechnique T1056.004" transform="translate(15, 247.51388888888889)"><rect class="cell" height="61.87847222222222" width="129.21867977528092" fill="white" stroke="#6B7279"/><rect class="cell" height="61.87847222222222" width="3" transform="translate(-3, 0)" fill="#6B7279" stroke="#6B7279"/><text font-size="12" fill="black"><tspan x="4" y="27.18923611111111">Credential API</tspan><tspan x="4" y="41.689236111111114">Hooking</tspan></text></g><g class="subtechnique T1552.001" transform="translate(15, 371.2708333333333)"><rect class="cell" height="61.87847222222222" width="129.21867977528092" fill="white" stroke="#6B7279"/><rect class="cell" height="61.87847222222222" width="3" transform="translate(-3, 0)" fill="#6B7279" stroke="#6B7279"/><text font-size="12" fill="black"><tspan x="4" y="27.18923611111111">Credentials In</tspan><tspan x="4" y="41.689236111111114">Files</tspan></text></g><g class="subtechnique T1552.002" transform="translate(15, 433.14930555555554)"><rect class="cell" height="61.87847222222222" width="129.21867977528092" fill="white" stroke="#6B7279"/><rect class="cell" height="61.87847222222222" width="3" transform="translate(-3, 0)" fill="#6B7279" stroke="#6B7279"/><text font-size="12" fill="black"><tspan x="4" y="27.18923611111111">Credentials in</tspan><tspan x="4" y="41.689236111111114">Registry</tspan></text></g></g><g class="tactic-label"><text font-size="12" fill="black" font-weight="bold"><tspan text-anchor="middle" x="72.10933988764046" y="27.18923611111111">Credential</tspan><tspan text-anchor="middle" x="72.10933988764046" y="41.689236111111114">Access</tspan></text></g></g><g class="tactic discovery" transform="translate(961.4578651685395, 0)"><g class="techniques"><g class="technique T1482" transform="translate(0, 61.87847222222222)"><rect class="cell" height="61.87847222222222" width="144.21867977528092" fill="#dadaeb" stroke="#6B7279"/><polygon class="sidebar" transform="translate(0, 61.87847222222222)" points="0,0 12,0 12,0" fill="#6B7279" visibility="hidden"/><text font-size="12" fill="black"><tspan x="4" y="27.18923611111111">Domain Trust</tspan><tspan x="4" y="41.689236111111114">Discovery</tspan></text></g><g class="technique T1083" transform="translate(0, 123.75694444444444)"><rect class="cell" height="61.87847222222222" width="144.21867977528092" fill="#dadaeb" stroke="#6B7279"/><polygon class="sidebar" transform="translate(0, 61.87847222222222)" points="0,0 12,0 12,0" fill="#6B7279" visibility="hidden"/><text font-size="12" fill="black"><tspan x="4" y="19.772569444444443">File and</tspan><tspan x="4" y="34.439236111111114">Directory</tspan><tspan x="4" y="49.10590277777777">Discovery</tspan></text></g><g class="technique T1082" transform="translate(0, 185.63541666666666)"><rect class="cell" height="61.87847222222222" width="144.21867977528092" fill="#dadaeb" stroke="#6B7279"/><polygon class="sidebar" transform="translate(0, 61.87847222222222)" points="0,0 12,0 12,0" fill="#6B7279" visibility="hidden"/><text font-size="12" fill="black"><tspan x="4" y="19.772569444444443">System</tspan><tspan x="4" y="34.439236111111114">Information</tspan><tspan x="4" y="49.10590277777777">Discovery</tspan></text></g><g class="technique T1016" transform="translate(0, 247.51388888888889)"><rect class="cell" height="61.87847222222222" width="144.21867977528092" fill="#dadaeb" stroke="#6B7279"/><polygon class="sidebar" transform="translate(0, 61.87847222222222)" points="0,0 12,0 12,0" fill="#6B7279" visibility="hidden"/><text font-size="12" fill="black"><tspan x="4" y="19.772569444444443">System Network</tspan><tspan x="4" y="34.439236111111114">Configuration</tspan><tspan x="4" y="49.10590277777777">Discovery</tspan></text></g><g class="technique T1007" transform="translate(0, 309.39236111111114)"><rect class="cell" height="61.87847222222222" width="144.21867977528092" fill="#dadaeb" stroke="#6B7279"/><polygon class="sidebar" transform="translate(0, 61.87847222222222)" points="0,0 12,0 12,0" fill="#6B7279" visibility="hidden"/><text font-size="12" fill="black"><tspan x="4" y="27.18923611111111">System Service</tspan><tspan x="4" y="41.689236111111114">Discovery</tspan></text></g></g><g class="subtechniques"/><g class="tactic-label"><text font-size="12" fill="black" font-weight="bold"><tspan text-anchor="middle" x="72.10933988764046" y="34.439236111111114">Discovery</tspan></text></g></g><g class="tactic collection" transform="translate(1121.7008426966295, 0)"><g class="techniques"><g class="technique T1005" transform="translate(0, 61.87847222222222)"><rect class="cell" height="61.87847222222222" width="144.21867977528092" fill="#dadaeb" stroke="#6B7279"/><polygon class="sidebar" transform="translate(0, 61.87847222222222)" points="0,0 12,0 12,0" fill="#6B7279" visibility="hidden"/><text font-size="12" fill="black"><tspan x="4" y="27.18923611111111">Data from Local</tspan><tspan x="4" y="41.689236111111114">System</tspan></text></g><g class="technique T1056" transform="translate(0, 123.75694444444444)"><rect class="cell" height="61.87847222222222" width="144.21867977528092" fill="#dadaeb" stroke="#6B7279"/><polygon class="sidebar" transform="translate(0, 61.87847222222222)" points="0,0 12,0 12,12" fill="#6B7279" visibility="visible"/><text font-size="12" fill="black"><tspan x="4" y="34.439236111111114">Input Capture</tspan></text></g><g class="technique T1185" transform="translate(0, 247.51388888888889)"><rect class="cell" height="61.87847222222222" width="144.21867977528092" fill="#dadaeb" stroke="#6B7279"/><polygon class="sidebar" transform="translate(0, 61.87847222222222)" points="0,0 12,0 12,0" fill="#6B7279" visibility="hidden"/><text font-size="12" fill="black"><tspan x="4" y="27.18923611111111">Man in the</tspan><tspan x="4" y="41.689236111111114">Browser</tspan></text></g></g><g class="subtechniques"><g class="subtechnique T1056.004" transform="translate(15, 185.63541666666666)"><rect class="cell" height="61.87847222222222" width="129.21867977528092" fill="white" stroke="#6B7279"/><rect class="cell" height="61.87847222222222" width="3" transform="translate(-3, 0)" fill="#6B7279" stroke="#6B7279"/><text font-size="12" fill="black"><tspan x="4" y="27.18923611111111">Credential API</tspan><tspan x="4" y="41.689236111111114">Hooking</tspan></text></g></g><g class="tactic-label"><text font-size="12" fill="black" font-weight="bold"><tspan text-anchor="middle" x="72.10933988764046" y="34.439236111111114">Collection</tspan></text></g></g><g class="tactic command-and-control" transform="translate(1281.9438202247193, 0)"><g class="techniques"><g class="technique T1071" transform="translate(0, 61.87847222222222)"><rect class="cell" height="61.87847222222222" width="144.21867977528092" fill="#dadaeb" stroke="#6B7279"/><polygon class="sidebar" transform="translate(0, 61.87847222222222)" points="0,0 12,0 12,12" fill="#6B7279" visibility="visible"/><text font-size="12" fill="black"><tspan x="4" y="27.18923611111111">Application</tspan><tspan x="4" y="41.689236111111114">Layer Protocol</tspan></text></g><g class="technique T1573" transform="translate(0, 185.63541666666666)"><rect class="cell" height="61.87847222222222" width="144.21867977528092" fill="#dadaeb" stroke="#6B7279"/><polygon class="sidebar" transform="translate(0, 61.87847222222222)" points="0,0 12,0 12,12" fill="#6B7279" visibility="visible"/><text font-size="12" fill="black"><tspan x="4" y="27.18923611111111">Encrypted</tspan><tspan x="4" y="41.689236111111114">Channel</tspan></text></g><g class="technique T1105" transform="translate(0, 309.39236111111114)"><rect class="cell" height="61.87847222222222" width="144.21867977528092" fill="#dadaeb" stroke="#6B7279"/><polygon class="sidebar" transform="translate(0, 61.87847222222222)" points="0,0 12,0 12,0" fill="#6B7279" visibility="hidden"/><text font-size="12" fill="black"><tspan x="4" y="27.18923611111111">Ingress Tool</tspan><tspan x="4" y="41.689236111111114">Transfer</tspan></text></g><g class="technique T1571" transform="translate(0, 371.2708333333333)"><rect class="cell" height="61.87847222222222" width="144.21867977528092" fill="#dadaeb" stroke="#6B7279"/><polygon class="sidebar" transform="translate(0, 61.87847222222222)" points="0,0 12,0 12,0" fill="#6B7279" visibility="hidden"/><text font-size="12" fill="black"><tspan x="4" y="27.18923611111111">Non-Standard</tspan><tspan x="4" y="41.689236111111114">Port</tspan></text></g></g><g class="subtechniques"><g class="subtechnique T1071.001" transform="translate(15, 123.75694444444444)"><rect class="cell" height="61.87847222222222" width="129.21867977528092" fill="white" stroke="#6B7279"/><rect class="cell" height="61.87847222222222" width="3" transform="translate(-3, 0)" fill="#6B7279" stroke="#6B7279"/><text font-size="12" fill="black"><tspan x="4" y="34.439236111111114">Web Protocols</tspan></text></g><g class="subtechnique T1573.001" transform="translate(15, 247.51388888888889)"><rect class="cell" height="61.87847222222222" width="129.21867977528092" fill="white" stroke="#6B7279"/><rect class="cell" height="61.87847222222222" width="3" transform="translate(-3, 0)" fill="#6B7279" stroke="#6B7279"/><text font-size="12" fill="black"><tspan x="4" y="27.18923611111111">Symmetric</tspan><tspan x="4" y="41.689236111111114">Cryptography</tspan></text></g></g><g class="tactic-label"><text font-size="12" fill="black" font-weight="bold"><tspan text-anchor="middle" x="72.10933988764046" y="27.18923611111111">Command and</tspan><tspan text-anchor="middle" x="72.10933988764046" y="41.689236111111115">Control</tspan></text></g></g></g></g></g></svg>