<?xml version="1.0" standalone="no"?>
<svg width="1700.7187500000002" height="755.875" xmlns="http://www.w3.org/2000/svg" id="svgvm1"><g transform="translate(5,5)" style="font-family: sans-serif;"><g transform="translate(0,1)"><g><g class="tactic initial-access" transform="translate(0, 0)"><g class="techniques"><g class="technique T1189" transform="translate(0, 82.875)"><rect class="cell" height="82.875" width="170.97155898876406" fill="#dadaeb" stroke="#6B7279"/><polygon class="sidebar" transform="translate(0, 82.875)" points="0,0 12,0 12,0" fill="#6B7279" visibility="hidden"/><text font-size="12" fill="black"><tspan x="4" y="44.9375">Drive-by Compromise</tspan></text></g><g class="technique T1078" transform="translate(0, 165.75)"><rect class="cell" height="82.875" width="170.97155898876406" fill="#dadaeb" stroke="#6B7279"/><polygon class="sidebar" transform="translate(0, 82.875)" points="0,0 12,0 12,12" fill="#6B7279" visibility="visible"/><text font-size="12" fill="black"><tspan x="4" y="44.9375">Valid Accounts</tspan></text></g></g><g class="subtechniques"><g class="subtechnique T1078.003" transform="translate(15, 248.625)"><rect class="cell" height="82.875" width="155.97155898876406" fill="white" stroke="#6B7279"/><rect class="cell" height="82.875" width="3" transform="translate(-3, 0)" fill="#6B7279" stroke="#6B7279"/><text font-size="12" fill="black"><tspan x="4" y="44.9375">Local Accounts</tspan></text></g></g><g class="tactic-label"><text font-size="12" fill="black" font-weight="bold"><tspan text-anchor="middle" x="85.48577949438203" y="44.9375">Initial Access</tspan></text></g></g><g class="tactic execution" transform="translate(189.9683988764045, 0)"><g class="techniques"><g class="technique T1059" transform="translate(0, 82.875)"><rect class="cell" height="82.875" width="170.97155898876406" fill="#dadaeb" stroke="#6B7279"/><polygon class="sidebar" transform="translate(0, 82.875)" points="0,0 12,0 12,12" fill="#6B7279" visibility="visible"/><text font-size="12" fill="black"><tspan x="4" y="30.270833333333332">Command and</tspan><tspan x="4" y="44.9375">Scripting</tspan><tspan x="4" y="59.604166666666664">Interpreter</tspan></text></g><g class="technique T1106" transform="translate(0, 248.625)"><rect class="cell" height="82.875" width="170.97155898876406" fill="#dadaeb" stroke="#6B7279"/><polygon class="sidebar" transform="translate(0, 82.875)" points="0,0 12,0 12,0" fill="#6B7279" visibility="hidden"/><text font-size="12" fill="black"><tspan x="4" y="44.9375">Native API</tspan></text></g><g class="technique T1129" transform="translate(0, 331.5)"><rect class="cell" height="82.875" width="170.97155898876406" fill="#dadaeb" stroke="#6B7279"/><polygon class="sidebar" transform="translate(0, 82.875)" points="0,0 12,0 12,0" fill="#6B7279" visibility="hidden"/><text font-size="12" fill="black"><tspan x="4" y="44.9375">Shared Modules</tspan></text></g><g class="technique T1569" transform="translate(0, 414.375)"><rect class="cell" height="82.875" width="170.97155898876406" fill="#dadaeb" stroke="#6B7279"/><polygon class="sidebar" transform="translate(0, 82.875)" points="0,0 12,0 12,0" fill="#6B7279" visibility="visible"/><text font-size="12" fill="black"><tspan x="4" y="44.9375">System Services</tspan></text></g><g class="technique T1204" transform="translate(0, 497.25)"><rect class="cell" height="82.875" width="170.97155898876406" fill="#dadaeb" stroke="#6B7279"/><polygon class="sidebar" transform="translate(0, 82.875)" points="0,0 12,0 12,12" fill="#6B7279" visibility="visible"/><text font-size="12" fill="black"><tspan x="4" y="44.9375">User Execution</tspan></text></g></g><g class="subtechniques"><g class="subtechnique T1059.003" transform="translate(15, 165.75)"><rect class="cell" height="82.875" width="155.97155898876406" fill="white" stroke="#6B7279"/><rect class="cell" height="82.875" width="3" transform="translate(-3, 0)" fill="#6B7279" stroke="#6B7279"/><text font-size="12" fill="black"><tspan x="4" y="37.6875">Windows Command</tspan><tspan x="4" y="52.1875">Shell</tspan></text></g><g class="subtechnique T1204.002" transform="translate(15, 580.125)"><rect class="cell" height="82.875" width="155.97155898876406" fill="white" stroke="#6B7279"/><rect class="cell" height="82.875" width="3" transform="translate(-3, 0)" fill="#6B7279" stroke="#6B7279"/><text font-size="12" fill="black"><tspan x="4" y="44.9375">Malicious File</tspan></text></g></g><g class="tactic-label"><text font-size="12" fill="black" font-weight="bold"><tspan text-anchor="middle" x="85.48577949438203" y="44.9375">Execution</tspan></text></g></g><g class="tactic persistence" transform="translate(379.936797752809, 0)"><g class="techniques"><g class="technique T1136" transform="translate(0, 82.875)"><rect class="cell" height="82.875" width="170.97155898876406" fill="#dadaeb" stroke="#6B7279"/><polygon class="sidebar" transform="translate(0, 82.875)" points="0,0 12,0 12,12" fill="#6B7279" visibility="visible"/><text font-size="12" fill="black"><tspan x="4" y="44.9375">Create Account</tspan></text></g><g class="technique T1543" transform="translate(0, 248.625)"><rect class="cell" height="82.875" width="170.97155898876406" fill="#dadaeb" stroke="#6B7279"/><polygon class="sidebar" transform="translate(0, 82.875)" points="0,0 12,0 12,12" fill="#6B7279" visibility="visible"/><text font-size="12" fill="black"><tspan x="4" y="37.6875">Create or Modify</tspan><tspan x="4" y="52.1875">System Process</tspan></text></g><g class="technique T1078" transform="translate(0, 414.375)"><rect class="cell" height="82.875" width="170.97155898876406" fill="#dadaeb" stroke="#6B7279"/><polygon class="sidebar" transform="translate(0, 82.875)" points="0,0 12,0 12,12" fill="#6B7279" visibility="visible"/><text font-size="12" fill="black"><tspan x="4" y="44.9375">Valid Accounts</tspan></text></g></g><g class="subtechniques"><g class="subtechnique T1136.001" transform="translate(15, 165.75)"><rect class="cell" height="82.875" width="155.97155898876406" fill="white" stroke="#6B7279"/><rect class="cell" height="82.875" width="3" transform="translate(-3, 0)" fill="#6B7279" stroke="#6B7279"/><text font-size="12" fill="black"><tspan x="4" y="44.9375">Local Account</tspan></text></g><g class="subtechnique T1543.003" transform="translate(15, 331.5)"><rect class="cell" height="82.875" width="155.97155898876406" fill="white" stroke="#6B7279"/><rect class="cell" height="82.875" width="3" transform="translate(-3, 0)" fill="#6B7279" stroke="#6B7279"/><text font-size="12" fill="black"><tspan x="4" y="44.9375">Windows Service</tspan></text></g><g class="subtechnique T1078.003" transform="translate(15, 497.25)"><rect class="cell" height="82.875" width="155.97155898876406" fill="white" stroke="#6B7279"/><rect class="cell" height="82.875" width="3" transform="translate(-3, 0)" fill="#6B7279" stroke="#6B7279"/><text font-size="12" fill="black"><tspan x="4" y="44.9375">Local Accounts</tspan></text></g></g><g class="tactic-label"><text font-size="12" fill="black" font-weight="bold"><tspan text-anchor="middle" x="85.48577949438203" y="44.9375">Persistence</tspan></text></g></g><g class="tactic privilege-escalation" transform="translate(569.9051966292135, 0)"><g class="techniques"><g class="technique T1543" transform="translate(0, 82.875)"><rect class="cell" height="82.875" width="170.97155898876406" fill="#dadaeb" stroke="#6B7279"/><polygon class="sidebar" transform="translate(0, 82.875)" points="0,0 12,0 12,12" fill="#6B7279" visibility="visible"/><text font-size="12" fill="black"><tspan x="4" y="37.6875">Create or Modify</tspan><tspan x="4" y="52.1875">System Process</tspan></text></g><g class="technique T1078" transform="translate(0, 248.625)"><rect class="cell" height="82.875" width="170.97155898876406" fill="#dadaeb" stroke="#6B7279"/><polygon class="sidebar" transform="translate(0, 82.875)" points="0,0 12,0 12,12" fill="#6B7279" visibility="visible"/><text font-size="12" fill="black"><tspan x="4" y="44.9375">Valid Accounts</tspan></text></g></g><g class="subtechniques"><g class="subtechnique T1543.003" transform="translate(15, 165.75)"><rect class="cell" height="82.875" width="155.97155898876406" fill="white" stroke="#6B7279"/><rect class="cell" height="82.875" width="3" transform="translate(-3, 0)" fill="#6B7279" stroke="#6B7279"/><text font-size="12" fill="black"><tspan x="4" y="44.9375">Windows Service</tspan></text></g><g class="subtechnique T1078.003" transform="translate(15, 331.5)"><rect class="cell" height="82.875" width="155.97155898876406" fill="white" stroke="#6B7279"/><rect class="cell" height="82.875" width="3" transform="translate(-3, 0)" fill="#6B7279" stroke="#6B7279"/><text font-size="12" fill="black"><tspan x="4" y="44.9375">Local Accounts</tspan></text></g></g><g class="tactic-label"><text font-size="12" fill="black" font-weight="bold"><tspan text-anchor="middle" x="85.48577949438203" y="37.6875">Privilege</tspan><tspan text-anchor="middle" x="85.48577949438203" y="52.1875">Escalation</tspan></text></g></g><g class="tactic defense-evasion" transform="translate(759.873595505618, 0)"><g class="techniques"><g class="technique T1140" transform="translate(0, 82.875)"><rect class="cell" height="82.875" width="170.97155898876406" fill="#dadaeb" stroke="#6B7279"/><polygon class="sidebar" transform="translate(0, 82.875)" points="0,0 12,0 12,0" fill="#6B7279" visibility="hidden"/><text font-size="12" fill="black"><tspan x="4" y="30.270833333333332">Deobfuscate/Decode</tspan><tspan x="4" y="44.9375">Files or</tspan><tspan x="4" y="59.604166666666664">Information</tspan></text></g><g class="technique T1562" transform="translate(0, 165.75)"><rect class="cell" height="82.875" width="170.97155898876406" fill="#dadaeb" stroke="#6B7279"/><polygon class="sidebar" transform="translate(0, 82.875)" points="0,0 12,0 12,12" fill="#6B7279" visibility="visible"/><text font-size="12" fill="black"><tspan x="4" y="44.9375">Impair Defenses</tspan></text></g><g class="technique T1078" transform="translate(0, 331.5)"><rect class="cell" height="82.875" width="170.97155898876406" fill="#dadaeb" stroke="#6B7279"/><polygon class="sidebar" transform="translate(0, 82.875)" points="0,0 12,0 12,12" fill="#6B7279" visibility="visible"/><text font-size="12" fill="black"><tspan x="4" y="44.9375">Valid Accounts</tspan></text></g><g class="technique T1497" transform="translate(0, 497.25)"><rect class="cell" height="82.875" width="170.97155898876406" fill="#dadaeb" stroke="#6B7279"/><polygon class="sidebar" transform="translate(0, 82.875)" points="0,0 12,0 12,12" fill="#6B7279" visibility="visible"/><text font-size="10.741307296986722" fill="black"><tspan x="4" y="37.6875">Virtualization/Sandbox</tspan><tspan x="4" y="52.1875">Evasion</tspan></text></g></g><g class="subtechniques"><g class="subtechnique T1562.001" transform="translate(15, 248.625)"><rect class="cell" height="82.875" width="155.97155898876406" fill="white" stroke="#6B7279"/><rect class="cell" height="82.875" width="3" transform="translate(-3, 0)" fill="#6B7279" stroke="#6B7279"/><text font-size="12" fill="black"><tspan x="4" y="37.6875">Disable or Modify</tspan><tspan x="4" y="52.1875">Tools</tspan></text></g><g class="subtechnique T1078.003" transform="translate(15, 414.375)"><rect class="cell" height="82.875" width="155.97155898876406" fill="white" stroke="#6B7279"/><rect class="cell" height="82.875" width="3" transform="translate(-3, 0)" fill="#6B7279" stroke="#6B7279"/><text font-size="12" fill="black"><tspan x="4" y="44.9375">Local Accounts</tspan></text></g><g class="subtechnique T1497.001" transform="translate(15, 580.125)"><rect class="cell" height="82.875" width="155.97155898876406" fill="white" stroke="#6B7279"/><rect class="cell" height="82.875" width="3" transform="translate(-3, 0)" fill="#6B7279" stroke="#6B7279"/><text font-size="12" fill="black"><tspan x="4" y="44.9375">System Checks</tspan></text></g></g><g class="tactic-label"><text font-size="12" fill="black" font-weight="bold"><tspan text-anchor="middle" x="85.48577949438203" y="44.9375">Defense Evasion</tspan></text></g></g><g class="tactic discovery" transform="translate(949.8419943820226, 0)"><g class="techniques"><g class="technique T1087" transform="translate(0, 82.875)"><rect class="cell" height="82.875" width="170.97155898876406" fill="#dadaeb" stroke="#6B7279"/><polygon class="sidebar" transform="translate(0, 82.875)" points="0,0 12,0 12,12" fill="#6B7279" visibility="visible"/><text font-size="12" fill="black"><tspan x="4" y="44.9375">Account Discovery</tspan></text></g><g class="technique T1083" transform="translate(0, 248.625)"><rect class="cell" height="82.875" width="170.97155898876406" fill="#dadaeb" stroke="#6B7279"/><polygon class="sidebar" transform="translate(0, 82.875)" points="0,0 12,0 12,0" fill="#6B7279" visibility="hidden"/><text font-size="12" fill="black"><tspan x="4" y="37.6875">File and Directory</tspan><tspan x="4" y="52.1875">Discovery</tspan></text></g><g class="technique T1135" transform="translate(0, 331.5)"><rect class="cell" height="82.875" width="170.97155898876406" fill="#dadaeb" stroke="#6B7279"/><polygon class="sidebar" transform="translate(0, 82.875)" points="0,0 12,0 12,0" fill="#6B7279" visibility="hidden"/><text font-size="12" fill="black"><tspan x="4" y="37.6875">Network Share</tspan><tspan x="4" y="52.1875">Discovery</tspan></text></g><g class="technique T1057" transform="translate(0, 414.375)"><rect class="cell" height="82.875" width="170.97155898876406" fill="#dadaeb" stroke="#6B7279"/><polygon class="sidebar" transform="translate(0, 82.875)" points="0,0 12,0 12,0" fill="#6B7279" visibility="hidden"/><text font-size="12" fill="black"><tspan x="4" y="44.9375">Process Discovery</tspan></text></g><g class="technique T1049" transform="translate(0, 497.25)"><rect class="cell" height="82.875" width="170.97155898876406" fill="#dadaeb" stroke="#6B7279"/><polygon class="sidebar" transform="translate(0, 82.875)" points="0,0 12,0 12,0" fill="#6B7279" visibility="hidden"/><text font-size="12" fill="black"><tspan x="4" y="30.270833333333332">System Network</tspan><tspan x="4" y="44.9375">Connections</tspan><tspan x="4" y="59.604166666666664">Discovery</tspan></text></g><g class="technique T1497" transform="translate(0, 580.125)"><rect class="cell" height="82.875" width="170.97155898876406" fill="#dadaeb" stroke="#6B7279"/><polygon class="sidebar" transform="translate(0, 82.875)" points="0,0 12,0 12,12" fill="#6B7279" visibility="visible"/><text font-size="10.741307296986722" fill="black"><tspan x="4" y="37.6875">Virtualization/Sandbox</tspan><tspan x="4" y="52.1875">Evasion</tspan></text></g></g><g class="subtechniques"><g class="subtechnique T1087.001" transform="translate(15, 165.75)"><rect class="cell" height="82.875" width="155.97155898876406" fill="white" stroke="#6B7279"/><rect class="cell" height="82.875" width="3" transform="translate(-3, 0)" fill="#6B7279" stroke="#6B7279"/><text font-size="12" fill="black"><tspan x="4" y="44.9375">Local Account</tspan></text></g><g class="subtechnique T1497.001" transform="translate(15, 663)"><rect class="cell" height="82.875" width="155.97155898876406" fill="white" stroke="#6B7279"/><rect class="cell" height="82.875" width="3" transform="translate(-3, 0)" fill="#6B7279" stroke="#6B7279"/><text font-size="12" fill="black"><tspan x="4" y="44.9375">System Checks</tspan></text></g></g><g class="tactic-label"><text font-size="12" fill="black" font-weight="bold"><tspan text-anchor="middle" x="85.48577949438203" y="44.9375">Discovery</tspan></text></g></g><g class="tactic lateral-movement" transform="translate(1139.810393258427, 0)"><g class="techniques"><g class="technique T1021" transform="translate(0, 82.875)"><rect class="cell" height="82.875" width="170.97155898876406" fill="#dadaeb" stroke="#6B7279"/><polygon class="sidebar" transform="translate(0, 82.875)" points="0,0 12,0 12,12" fill="#6B7279" visibility="visible"/><text font-size="12" fill="black"><tspan x="4" y="44.9375">Remote Services</tspan></text></g></g><g class="subtechniques"><g class="subtechnique T1021.002" transform="translate(15, 165.75)"><rect class="cell" height="82.875" width="155.97155898876406" fill="white" stroke="#6B7279"/><rect class="cell" height="82.875" width="3" transform="translate(-3, 0)" fill="#6B7279" stroke="#6B7279"/><text font-size="12" fill="black"><tspan x="4" y="37.6875">SMB/Windows Admin</tspan><tspan x="4" y="52.1875">Shares</tspan></text></g></g><g class="tactic-label"><text font-size="12" fill="black" font-weight="bold"><tspan text-anchor="middle" x="85.48577949438203" y="44.9375">Lateral Movement</tspan></text></g></g><g class="tactic command-and-control" transform="translate(1329.7787921348315, 0)"><g class="techniques"><g class="technique T1071" transform="translate(0, 82.875)"><rect class="cell" height="82.875" width="170.97155898876406" fill="#dadaeb" stroke="#6B7279"/><polygon class="sidebar" transform="translate(0, 82.875)" points="0,0 12,0 12,12" fill="#6B7279" visibility="visible"/><text font-size="12" fill="black"><tspan x="4" y="37.6875">Application Layer</tspan><tspan x="4" y="52.1875">Protocol</tspan></text></g><g class="technique T1573" transform="translate(0, 248.625)"><rect class="cell" height="82.875" width="170.97155898876406" fill="#dadaeb" stroke="#6B7279"/><polygon class="sidebar" transform="translate(0, 82.875)" points="0,0 12,0 12,12" fill="#6B7279" visibility="visible"/><text font-size="12" fill="black"><tspan x="4" y="44.9375">Encrypted Channel</tspan></text></g></g><g class="subtechniques"><g class="subtechnique T1071.001" transform="translate(15, 165.75)"><rect class="cell" height="82.875" width="155.97155898876406" fill="white" stroke="#6B7279"/><rect class="cell" height="82.875" width="3" transform="translate(-3, 0)" fill="#6B7279" stroke="#6B7279"/><text font-size="12" fill="black"><tspan x="4" y="44.9375">Web Protocols</tspan></text></g><g class="subtechnique T1573.001" transform="translate(15, 331.5)"><rect class="cell" height="82.875" width="155.97155898876406" fill="white" stroke="#6B7279"/><rect class="cell" height="82.875" width="3" transform="translate(-3, 0)" fill="#6B7279" stroke="#6B7279"/><text font-size="12" fill="black"><tspan x="4" y="37.6875">Symmetric</tspan><tspan x="4" y="52.1875">Cryptography</tspan></text></g><g class="subtechnique T1573.002" transform="translate(15, 414.375)"><rect class="cell" height="82.875" width="155.97155898876406" fill="white" stroke="#6B7279"/><rect class="cell" height="82.875" width="3" transform="translate(-3, 0)" fill="#6B7279" stroke="#6B7279"/><text font-size="12" fill="black"><tspan x="4" y="37.6875">Asymmetric</tspan><tspan x="4" y="52.1875">Cryptography</tspan></text></g></g><g class="tactic-label"><text font-size="12" fill="black" font-weight="bold"><tspan text-anchor="middle" x="85.48577949438203" y="44.9375">Command and Control</tspan></text></g></g><g class="tactic impact" transform="translate(1519.747191011236, 0)"><g class="techniques"><g class="technique T1485" transform="translate(0, 82.875)"><rect class="cell" height="82.875" width="170.97155898876406" fill="#dadaeb" stroke="#6B7279"/><polygon class="sidebar" transform="translate(0, 82.875)" points="0,0 12,0 12,0" fill="#6B7279" visibility="hidden"/><text font-size="12" fill="black"><tspan x="4" y="44.9375">Data Destruction</tspan></text></g><g class="technique T1486" transform="translate(0, 165.75)"><rect class="cell" height="82.875" width="170.97155898876406" fill="#dadaeb" stroke="#6B7279"/><polygon class="sidebar" transform="translate(0, 82.875)" points="0,0 12,0 12,0" fill="#6B7279" visibility="hidden"/><text font-size="12" fill="black"><tspan x="4" y="37.6875">Data Encrypted for</tspan><tspan x="4" y="52.1875">Impact</tspan></text></g><g class="technique T1565" transform="translate(0, 248.625)"><rect class="cell" height="82.875" width="170.97155898876406" fill="#dadaeb" stroke="#6B7279"/><polygon class="sidebar" transform="translate(0, 82.875)" points="0,0 12,0 12,12" fill="#6B7279" visibility="visible"/><text font-size="12" fill="black"><tspan x="4" y="44.9375">Data Manipulation</tspan></text></g><g class="technique T1490" transform="translate(0, 414.375)"><rect class="cell" height="82.875" width="170.97155898876406" fill="#dadaeb" stroke="#6B7279"/><polygon class="sidebar" transform="translate(0, 82.875)" points="0,0 12,0 12,0" fill="#6B7279" visibility="hidden"/><text font-size="12" fill="black"><tspan x="4" y="37.6875">Inhibit System</tspan><tspan x="4" y="52.1875">Recovery</tspan></text></g><g class="technique T1489" transform="translate(0, 497.25)"><rect class="cell" height="82.875" width="170.97155898876406" fill="#dadaeb" stroke="#6B7279"/><polygon class="sidebar" transform="translate(0, 82.875)" points="0,0 12,0 12,0" fill="#6B7279" visibility="hidden"/><text font-size="12" fill="black"><tspan x="4" y="44.9375">Service Stop</tspan></text></g></g><g class="subtechniques"><g class="subtechnique T1565.001" transform="translate(15, 331.5)"><rect class="cell" height="82.875" width="155.97155898876406" fill="white" stroke="#6B7279"/><rect class="cell" height="82.875" width="3" transform="translate(-3, 0)" fill="#6B7279" stroke="#6B7279"/><text font-size="12" fill="black"><tspan x="4" y="37.6875">Stored Data</tspan><tspan x="4" y="52.1875">Manipulation</tspan></text></g></g><g class="tactic-label"><text font-size="12" fill="black" font-weight="bold"><tspan text-anchor="middle" x="85.48577949438203" y="44.9375">Impact</tspan></text></g></g></g></g></g></svg>