<?xml version="1.0" standalone="no"?>
<svg width="1440" height="864" xmlns="http://www.w3.org/2000/svg" id="svgvm0"><g transform="translate(5,5)" style="font-family: sans-serif;"><g transform="translate(0,1)"><g><g class="tactic initial-access" transform="translate(0, 0)"><g class="techniques"><g class="technique T1190" transform="translate(0, 170.8)"><rect class="cell" height="170.8" width="186.52173913043478" fill="#dadaeb" stroke="#6B7279"/><polygon class="sidebar" transform="translate(0, 170.8)" points="0,0 12,0 12,0" fill="#6B7279" visibility="hidden"/><text font-size="12" fill="black"><tspan x="4" y="81.65">Exploit Public-Facing</tspan><tspan x="4" y="96.15">Application</tspan></text></g><g class="technique T1566" transform="translate(0, 341.6)"><rect class="cell" height="170.8" width="186.52173913043478" fill="#dadaeb" stroke="#6B7279"/><polygon class="sidebar" transform="translate(0, 170.8)" points="0,0 12,0 12,0" fill="#6B7279" visibility="hidden"/><text font-size="12" fill="black"><tspan x="4" y="88.9">Phishing</tspan></text></g><g class="technique T1078" transform="translate(0, 512.4)"><rect class="cell" height="170.8" width="186.52173913043478" fill="#dadaeb" stroke="#6B7279"/><polygon class="sidebar" transform="translate(0, 170.8)" points="0,0 12,0 12,0" fill="#6B7279" visibility="hidden"/><text font-size="12" fill="black"><tspan x="4" y="88.9">Valid Accounts</tspan></text></g></g><g class="subtechniques"/><g class="tactic-label"><text font-size="12" fill="black" font-weight="bold"><tspan text-anchor="middle" x="93.26086956521739" y="88.9">Initial Access</tspan></text></g></g><g class="tactic execution" transform="translate(207.2463768115942, 0)"><g class="techniques"><g class="technique T1059" transform="translate(0, 170.8)"><rect class="cell" height="170.8" width="186.52173913043478" fill="#dadaeb" stroke="#6B7279"/><polygon class="sidebar" transform="translate(0, 170.8)" points="0,0 12,0 12,0" fill="#6B7279" visibility="hidden"/><text font-size="12" fill="black"><tspan x="4" y="81.65">Command and</tspan><tspan x="4" y="96.15">Scripting Interpreter</tspan></text></g><g class="technique T1129" transform="translate(0, 341.6)"><rect class="cell" height="170.8" width="186.52173913043478" fill="#dadaeb" stroke="#6B7279"/><polygon class="sidebar" transform="translate(0, 170.8)" points="0,0 12,0 12,0" fill="#6B7279" visibility="hidden"/><text font-size="12" fill="black"><tspan x="4" y="88.9">Shared Modules</tspan></text></g></g><g class="subtechniques"/><g class="tactic-label"><text font-size="12" fill="black" font-weight="bold"><tspan text-anchor="middle" x="93.26086956521739" y="88.9">Execution</tspan></text></g></g><g class="tactic persistence" transform="translate(414.4927536231884, 0)"><g class="techniques"><g class="technique T1078" transform="translate(0, 170.8)"><rect class="cell" height="170.8" width="186.52173913043478" fill="#dadaeb" stroke="#6B7279"/><polygon class="sidebar" transform="translate(0, 170.8)" points="0,0 12,0 12,0" fill="#6B7279" visibility="hidden"/><text font-size="12" fill="black"><tspan x="4" y="88.9">Valid Accounts</tspan></text></g></g><g class="subtechniques"/><g class="tactic-label"><text font-size="12" fill="black" font-weight="bold"><tspan text-anchor="middle" x="93.26086956521739" y="88.9">Persistence</tspan></text></g></g><g class="tactic privilege-escalation" transform="translate(621.7391304347825, 0)"><g class="techniques"><g class="technique T1078" transform="translate(0, 170.8)"><rect class="cell" height="170.8" width="186.52173913043478" fill="#dadaeb" stroke="#6B7279"/><polygon class="sidebar" transform="translate(0, 170.8)" points="0,0 12,0 12,0" fill="#6B7279" visibility="hidden"/><text font-size="12" fill="black"><tspan x="4" y="88.9">Valid Accounts</tspan></text></g></g><g class="subtechniques"/><g class="tactic-label"><text font-size="12" fill="black" font-weight="bold"><tspan text-anchor="middle" x="93.26086956521739" y="88.9">Privilege Escalation</tspan></text></g></g><g class="tactic defense-evasion" transform="translate(828.9855072463768, 0)"><g class="techniques"><g class="technique T1027" transform="translate(0, 170.8)"><rect class="cell" height="170.8" width="186.52173913043478" fill="#dadaeb" stroke="#6B7279"/><polygon class="sidebar" transform="translate(0, 170.8)" points="0,0 12,0 12,0" fill="#6B7279" visibility="hidden"/><text font-size="12" fill="black"><tspan x="4" y="81.65">Obfuscated</tspan><tspan x="4" y="96.15">Files or Information</tspan></text></g><g class="technique T1078" transform="translate(0, 341.6)"><rect class="cell" height="170.8" width="186.52173913043478" fill="#dadaeb" stroke="#6B7279"/><polygon class="sidebar" transform="translate(0, 170.8)" points="0,0 12,0 12,0" fill="#6B7279" visibility="hidden"/><text font-size="12" fill="black"><tspan x="4" y="88.9">Valid Accounts</tspan></text></g></g><g class="subtechniques"/><g class="tactic-label"><text font-size="12" fill="black" font-weight="bold"><tspan text-anchor="middle" x="93.26086956521739" y="88.9">Defense Evasion</tspan></text></g></g><g class="tactic discovery" transform="translate(1036.231884057971, 0)"><g class="techniques"><g class="technique T1083" transform="translate(0, 170.8)"><rect class="cell" height="170.8" width="186.52173913043478" fill="#dadaeb" stroke="#6B7279"/><polygon class="sidebar" transform="translate(0, 170.8)" points="0,0 12,0 12,0" fill="#6B7279" visibility="hidden"/><text font-size="12" fill="black"><tspan x="4" y="81.65">File and</tspan><tspan x="4" y="96.15">Directory Discovery</tspan></text></g><g class="technique T1057" transform="translate(0, 341.6)"><rect class="cell" height="170.8" width="186.52173913043478" fill="#dadaeb" stroke="#6B7279"/><polygon class="sidebar" transform="translate(0, 170.8)" points="0,0 12,0 12,0" fill="#6B7279" visibility="hidden"/><text font-size="12" fill="black"><tspan x="4" y="88.9">Process Discovery</tspan></text></g><g class="technique T1082" transform="translate(0, 512.4)"><rect class="cell" height="170.8" width="186.52173913043478" fill="#dadaeb" stroke="#6B7279"/><polygon class="sidebar" transform="translate(0, 170.8)" points="0,0 12,0 12,0" fill="#6B7279" visibility="hidden"/><text font-size="12" fill="black"><tspan x="4" y="81.65">System</tspan><tspan x="4" y="96.15">Information Discovery</tspan></text></g><g class="technique T1049" transform="translate(0, 683.2)"><rect class="cell" height="170.8" width="186.52173913043478" fill="#dadaeb" stroke="#6B7279"/><polygon class="sidebar" transform="translate(0, 170.8)" points="0,0 12,0 12,0" fill="#6B7279" visibility="hidden"/><text font-size="12" fill="black"><tspan x="4" y="81.65">System Network</tspan><tspan x="4" y="96.15">Connections Discovery</tspan></text></g></g><g class="subtechniques"/><g class="tactic-label"><text font-size="12" fill="black" font-weight="bold"><tspan text-anchor="middle" x="93.26086956521739" y="88.9">Discovery</tspan></text></g></g><g class="tactic impact" transform="translate(1243.478260869565, 0)"><g class="techniques"><g class="technique T1486" transform="translate(0, 170.8)"><rect class="cell" height="170.8" width="186.52173913043478" fill="#dadaeb" stroke="#6B7279"/><polygon class="sidebar" transform="translate(0, 170.8)" points="0,0 12,0 12,0" fill="#6B7279" visibility="hidden"/><text font-size="12" fill="black"><tspan x="4" y="81.65">Data</tspan><tspan x="4" y="96.15">Encrypted for Impact</tspan></text></g><g class="technique T1490" transform="translate(0, 341.6)"><rect class="cell" height="170.8" width="186.52173913043478" fill="#dadaeb" stroke="#6B7279"/><polygon class="sidebar" transform="translate(0, 170.8)" points="0,0 12,0 12,0" fill="#6B7279" visibility="hidden"/><text font-size="12" fill="black"><tspan x="4" y="81.65">Inhibit</tspan><tspan x="4" y="96.15">System Recovery</tspan></text></g><g class="technique T1489" transform="translate(0, 512.4)"><rect class="cell" height="170.8" width="186.52173913043478" fill="#dadaeb" stroke="#6B7279"/><polygon class="sidebar" transform="translate(0, 170.8)" points="0,0 12,0 12,0" fill="#6B7279" visibility="hidden"/><text font-size="12" fill="black"><tspan x="4" y="88.9">Service Stop</tspan></text></g></g><g class="subtechniques"/><g class="tactic-label"><text font-size="12" fill="black" font-weight="bold"><tspan text-anchor="middle" x="93.26086956521739" y="88.9">Impact</tspan></text></g></g></g></g></g></svg>