<?xml version="1.0" standalone="no"?>
<svg width="1056" height="816" xmlns="http://www.w3.org/2000/svg" id="svgvm0"><g transform="translate(5,5)" style="font-family: sans-serif;"><g transform="translate(0,1)"><g><g class="tactic initial-access" transform="translate(0, 0)"><g class="techniques"><g class="technique T1133" transform="translate(0, 100.75)"><rect class="cell" height="100.75" width="119.16455696202532" fill="white" stroke="#6B7279"/><polygon class="sidebar" transform="translate(0, 100.75)" points="0,0 12,0 12,0" fill="#6B7279" visibility="hidden"/><text font-size="12" fill="black"><tspan x="4" y="39.20833333333333">External</tspan><tspan x="4" y="53.875">Remote</tspan><tspan x="4" y="68.54166666666666">Services</tspan></text></g><g class="technique T1078" transform="translate(0, 201.5)"><rect class="cell" height="100.75" width="119.16455696202532" fill="white" stroke="#6B7279"/><polygon class="sidebar" transform="translate(0, 100.75)" points="0,0 12,0 12,12" fill="#6B7279" visibility="hidden"/><text font-size="12" fill="black"><tspan x="4" y="46.625">Valid</tspan><tspan x="4" y="61.125">Accounts</tspan></text></g></g><g class="subtechniques"/><g class="tactic-label"><text font-size="12" fill="black" font-weight="bold"><tspan text-anchor="middle" x="59.58227848101266" y="46.625">Initial</tspan><tspan text-anchor="middle" x="59.58227848101266" y="61.125">Access</tspan></text></g></g><g class="tactic execution" transform="translate(132.40506329113924, 0)"><g class="techniques"><g class="technique T1059" transform="translate(0, 100.75)"><rect class="cell" height="100.75" width="119.16455696202532" fill="white" stroke="#6B7279"/><polygon class="sidebar" transform="translate(0, 100.75)" points="0,0 12,0 12,12" fill="#6B7279" visibility="hidden"/><text font-size="12" fill="black"><tspan x="4" y="39.20833333333333">Command</tspan><tspan x="4" y="53.875">and Scripting</tspan><tspan x="4" y="68.54166666666666">Interpreter</tspan></text></g><g class="technique T1106" transform="translate(0, 201.5)"><rect class="cell" height="100.75" width="119.16455696202532" fill="white" stroke="#6B7279"/><polygon class="sidebar" transform="translate(0, 100.75)" points="0,0 12,0 12,0" fill="#6B7279" visibility="hidden"/><text font-size="12" fill="black"><tspan x="4" y="53.875">Native API</tspan></text></g><g class="technique T1053" transform="translate(0, 302.25)"><rect class="cell" height="100.75" width="119.16455696202532" fill="white" stroke="#6B7279"/><polygon class="sidebar" transform="translate(0, 100.75)" points="0,0 12,0 12,12" fill="#6B7279" visibility="hidden"/><text font-size="12" fill="black"><tspan x="4" y="46.625">Scheduled</tspan><tspan x="4" y="61.125">Task/Job</tspan></text></g><g class="technique T1204" transform="translate(0, 403)"><rect class="cell" height="100.75" width="119.16455696202532" fill="white" stroke="#6B7279"/><polygon class="sidebar" transform="translate(0, 100.75)" points="0,0 12,0 12,12" fill="#6B7279" visibility="hidden"/><text font-size="12" fill="black"><tspan x="4" y="46.625">User</tspan><tspan x="4" y="61.125">Execution</tspan></text></g></g><g class="subtechniques"/><g class="tactic-label"><text font-size="12" fill="black" font-weight="bold"><tspan text-anchor="middle" x="59.58227848101266" y="53.875">Execution</tspan></text></g></g><g class="tactic persistence" transform="translate(264.8101265822785, 0)"><g class="techniques"><g class="technique T1547" transform="translate(0, 100.75)"><rect class="cell" height="100.75" width="119.16455696202532" fill="white" stroke="#6B7279"/><polygon class="sidebar" transform="translate(0, 100.75)" points="0,0 12,0 12,12" fill="#6B7279" visibility="hidden"/><text font-size="12" fill="black"><tspan x="4" y="39.20833333333333">Boot or Logon</tspan><tspan x="4" y="53.875">Autostart</tspan><tspan x="4" y="68.54166666666666">Execution</tspan></text></g><g class="technique T1133" transform="translate(0, 201.5)"><rect class="cell" height="100.75" width="119.16455696202532" fill="white" stroke="#6B7279"/><polygon class="sidebar" transform="translate(0, 100.75)" points="0,0 12,0 12,0" fill="#6B7279" visibility="hidden"/><text font-size="12" fill="black"><tspan x="4" y="39.20833333333333">External</tspan><tspan x="4" y="53.875">Remote</tspan><tspan x="4" y="68.54166666666666">Services</tspan></text></g><g class="technique T1053" transform="translate(0, 302.25)"><rect class="cell" height="100.75" width="119.16455696202532" fill="white" stroke="#6B7279"/><polygon class="sidebar" transform="translate(0, 100.75)" points="0,0 12,0 12,12" fill="#6B7279" visibility="hidden"/><text font-size="12" fill="black"><tspan x="4" y="46.625">Scheduled</tspan><tspan x="4" y="61.125">Task/Job</tspan></text></g><g class="technique T1078" transform="translate(0, 403)"><rect class="cell" height="100.75" width="119.16455696202532" fill="white" stroke="#6B7279"/><polygon class="sidebar" transform="translate(0, 100.75)" points="0,0 12,0 12,12" fill="#6B7279" visibility="hidden"/><text font-size="12" fill="black"><tspan x="4" y="46.625">Valid</tspan><tspan x="4" y="61.125">Accounts</tspan></text></g></g><g class="subtechniques"/><g class="tactic-label"><text font-size="12" fill="black" font-weight="bold"><tspan text-anchor="middle" x="59.58227848101266" y="53.875">Persistence</tspan></text></g></g><g class="tactic privilege-escalation" transform="translate(397.2151898734177, 0)"><g class="techniques"><g class="technique T1548" transform="translate(0, 100.75)"><rect class="cell" height="100.75" width="119.16455696202532" fill="white" stroke="#6B7279"/><polygon class="sidebar" transform="translate(0, 100.75)" points="0,0 12,0 12,12" fill="#6B7279" visibility="hidden"/><text font-size="12" fill="black"><tspan x="4" y="31.75">Abuse</tspan><tspan x="4" y="46.5">Elevation</tspan><tspan x="4" y="61.25">Control</tspan><tspan x="4" y="76">Mechanism</tspan></text></g><g class="technique T1134" transform="translate(0, 201.5)"><rect class="cell" height="100.75" width="119.16455696202532" fill="white" stroke="#6B7279"/><polygon class="sidebar" transform="translate(0, 100.75)" points="0,0 12,0 12,12" fill="#6B7279" visibility="hidden"/><text font-size="12" fill="black"><tspan x="4" y="46.625">Access Token</tspan><tspan x="4" y="61.125">Manipulation</tspan></text></g><g class="technique T1547" transform="translate(0, 302.25)"><rect class="cell" height="100.75" width="119.16455696202532" fill="white" stroke="#6B7279"/><polygon class="sidebar" transform="translate(0, 100.75)" points="0,0 12,0 12,12" fill="#6B7279" visibility="hidden"/><text font-size="12" fill="black"><tspan x="4" y="39.20833333333333">Boot or Logon</tspan><tspan x="4" y="53.875">Autostart</tspan><tspan x="4" y="68.54166666666666">Execution</tspan></text></g><g class="technique T1053" transform="translate(0, 403)"><rect class="cell" height="100.75" width="119.16455696202532" fill="white" stroke="#6B7279"/><polygon class="sidebar" transform="translate(0, 100.75)" points="0,0 12,0 12,12" fill="#6B7279" visibility="hidden"/><text font-size="12" fill="black"><tspan x="4" y="46.625">Scheduled</tspan><tspan x="4" y="61.125">Task/Job</tspan></text></g><g class="technique T1078" transform="translate(0, 503.75)"><rect class="cell" height="100.75" width="119.16455696202532" fill="white" stroke="#6B7279"/><polygon class="sidebar" transform="translate(0, 100.75)" points="0,0 12,0 12,12" fill="#6B7279" visibility="hidden"/><text font-size="12" fill="black"><tspan x="4" y="46.625">Valid</tspan><tspan x="4" y="61.125">Accounts</tspan></text></g></g><g class="subtechniques"/><g class="tactic-label"><text font-size="12" fill="black" font-weight="bold"><tspan text-anchor="middle" x="59.58227848101266" y="46.625">Privilege</tspan><tspan text-anchor="middle" x="59.58227848101266" y="61.125">Escalation</tspan></text></g></g><g class="tactic defense-evasion" transform="translate(529.620253164557, 0)"><g class="techniques"><g class="technique T1548" transform="translate(0, 100.75)"><rect class="cell" height="100.75" width="119.16455696202532" fill="white" stroke="#6B7279"/><polygon class="sidebar" transform="translate(0, 100.75)" points="0,0 12,0 12,12" fill="#6B7279" visibility="hidden"/><text font-size="12" fill="black"><tspan x="4" y="31.75">Abuse</tspan><tspan x="4" y="46.5">Elevation</tspan><tspan x="4" y="61.25">Control</tspan><tspan x="4" y="76">Mechanism</tspan></text></g><g class="technique T1134" transform="translate(0, 201.5)"><rect class="cell" height="100.75" width="119.16455696202532" fill="white" stroke="#6B7279"/><polygon class="sidebar" transform="translate(0, 100.75)" points="0,0 12,0 12,12" fill="#6B7279" visibility="hidden"/><text font-size="12" fill="black"><tspan x="4" y="46.625">Access Token</tspan><tspan x="4" y="61.125">Manipulation</tspan></text></g><g class="technique T1211" transform="translate(0, 302.25)"><rect class="cell" height="100.75" width="119.16455696202532" fill="white" stroke="#6B7279"/><polygon class="sidebar" transform="translate(0, 100.75)" points="0,0 12,0 12,0" fill="#6B7279" visibility="hidden"/><text font-size="12" fill="black"><tspan x="4" y="39.20833333333333">Exploitation</tspan><tspan x="4" y="53.875">for Defense</tspan><tspan x="4" y="68.54166666666666">Evasion</tspan></text></g><g class="technique T1222" transform="translate(0, 403)"><rect class="cell" height="100.75" width="119.16455696202532" fill="white" stroke="#6B7279"/><polygon class="sidebar" transform="translate(0, 100.75)" points="0,0 12,0 12,0" fill="#6B7279" visibility="hidden"/><text font-size="12" fill="black"><tspan x="4" y="31.75">File</tspan><tspan x="4" y="46.5">and Directory</tspan><tspan x="4" y="61.25">Permissions</tspan><tspan x="4" y="76">Modification</tspan></text></g><g class="technique T1070" transform="translate(0, 503.75)"><rect class="cell" height="100.75" width="119.16455696202532" fill="white" stroke="#6B7279"/><polygon class="sidebar" transform="translate(0, 100.75)" points="0,0 12,0 12,0" fill="#6B7279" visibility="hidden"/><text font-size="12" fill="black"><tspan x="4" y="39.20833333333333">Indicator</tspan><tspan x="4" y="53.875">Removal</tspan><tspan x="4" y="68.54166666666666">on Host</tspan></text></g><g class="technique T1078" transform="translate(0, 604.5)"><rect class="cell" height="100.75" width="119.16455696202532" fill="white" stroke="#6B7279"/><polygon class="sidebar" transform="translate(0, 100.75)" points="0,0 12,0 12,12" fill="#6B7279" visibility="hidden"/><text font-size="12" fill="black"><tspan x="4" y="46.625">Valid</tspan><tspan x="4" y="61.125">Accounts</tspan></text></g></g><g class="subtechniques"/><g class="tactic-label"><text font-size="12" fill="black" font-weight="bold"><tspan text-anchor="middle" x="59.58227848101266" y="46.625">Defense</tspan><tspan text-anchor="middle" x="59.58227848101266" y="61.125">Evasion</tspan></text></g></g><g class="tactic discovery" transform="translate(662.0253164556962, 0)"><g class="techniques"><g class="technique T1083" transform="translate(0, 100.75)"><rect class="cell" height="100.75" width="119.16455696202532" fill="white" stroke="#6B7279"/><polygon class="sidebar" transform="translate(0, 100.75)" points="0,0 12,0 12,0" fill="#6B7279" visibility="hidden"/><text font-size="12" fill="black"><tspan x="4" y="39.20833333333333">File</tspan><tspan x="4" y="53.875">and Directory</tspan><tspan x="4" y="68.54166666666666">Discovery</tspan></text></g><g class="technique T1135" transform="translate(0, 201.5)"><rect class="cell" height="100.75" width="119.16455696202532" fill="white" stroke="#6B7279"/><polygon class="sidebar" transform="translate(0, 100.75)" points="0,0 12,0 12,0" fill="#6B7279" visibility="hidden"/><text font-size="12" fill="black"><tspan x="4" y="46.625">Network Share</tspan><tspan x="4" y="61.125">Discovery</tspan></text></g><g class="technique T1057" transform="translate(0, 302.25)"><rect class="cell" height="100.75" width="119.16455696202532" fill="white" stroke="#6B7279"/><polygon class="sidebar" transform="translate(0, 100.75)" points="0,0 12,0 12,0" fill="#6B7279" visibility="hidden"/><text font-size="12" fill="black"><tspan x="4" y="46.625">Process</tspan><tspan x="4" y="61.125">Discovery</tspan></text></g><g class="technique T1018" transform="translate(0, 403)"><rect class="cell" height="100.75" width="119.16455696202532" fill="white" stroke="#6B7279"/><polygon class="sidebar" transform="translate(0, 100.75)" points="0,0 12,0 12,0" fill="#6B7279" visibility="hidden"/><text font-size="12" fill="black"><tspan x="4" y="46.625">Remote System</tspan><tspan x="4" y="61.125">Discovery</tspan></text></g><g class="technique T1082" transform="translate(0, 503.75)"><rect class="cell" height="100.75" width="119.16455696202532" fill="white" stroke="#6B7279"/><polygon class="sidebar" transform="translate(0, 100.75)" points="0,0 12,0 12,0" fill="#6B7279" visibility="hidden"/><text font-size="12" fill="black"><tspan x="4" y="39.20833333333333">System</tspan><tspan x="4" y="53.875">Information</tspan><tspan x="4" y="68.54166666666666">Discovery</tspan></text></g><g class="technique T1033" transform="translate(0, 604.5)"><rect class="cell" height="100.75" width="119.16455696202532" fill="white" stroke="#6B7279"/><polygon class="sidebar" transform="translate(0, 100.75)" points="0,0 12,0 12,0" fill="#6B7279" visibility="hidden"/><text font-size="12" fill="black"><tspan x="4" y="39.20833333333333">System</tspan><tspan x="4" y="53.875">Owner/User</tspan><tspan x="4" y="68.54166666666666">Discovery</tspan></text></g><g class="technique T1007" transform="translate(0, 705.25)"><rect class="cell" height="100.75" width="119.16455696202532" fill="white" stroke="#6B7279"/><polygon class="sidebar" transform="translate(0, 100.75)" points="0,0 12,0 12,0" fill="#6B7279" visibility="hidden"/><text font-size="12" fill="black"><tspan x="4" y="39.20833333333333">System</tspan><tspan x="4" y="53.875">Service</tspan><tspan x="4" y="68.54166666666666">Discovery</tspan></text></g></g><g class="subtechniques"/><g class="tactic-label"><text font-size="12" fill="black" font-weight="bold"><tspan text-anchor="middle" x="59.58227848101266" y="53.875">Discovery</tspan></text></g></g><g class="tactic lateral-movement" transform="translate(794.4303797468355, 0)"><g class="techniques"><g class="technique T1570" transform="translate(0, 100.75)"><rect class="cell" height="100.75" width="119.16455696202532" fill="white" stroke="#6B7279"/><polygon class="sidebar" transform="translate(0, 100.75)" points="0,0 12,0 12,0" fill="#6B7279" visibility="hidden"/><text font-size="12" fill="black"><tspan x="4" y="46.625">Lateral</tspan><tspan x="4" y="61.125">Tool Transfer</tspan></text></g><g class="technique T1021" transform="translate(0, 201.5)"><rect class="cell" height="100.75" width="119.16455696202532" fill="white" stroke="#6B7279"/><polygon class="sidebar" transform="translate(0, 100.75)" points="0,0 12,0 12,12" fill="#6B7279" visibility="hidden"/><text font-size="12" fill="black"><tspan x="4" y="46.625">Remote</tspan><tspan x="4" y="61.125">Services</tspan></text></g></g><g class="subtechniques"/><g class="tactic-label"><text font-size="12" fill="black" font-weight="bold"><tspan text-anchor="middle" x="59.58227848101266" y="46.625">Lateral</tspan><tspan text-anchor="middle" x="59.58227848101266" y="61.125">Movement</tspan></text></g></g><g class="tactic impact" transform="translate(926.8354430379748, 0)"><g class="techniques"><g class="technique T1486" transform="translate(0, 100.75)"><rect class="cell" height="100.75" width="119.16455696202532" fill="white" stroke="#6B7279"/><polygon class="sidebar" transform="translate(0, 100.75)" points="0,0 12,0 12,0" fill="#6B7279" visibility="hidden"/><text font-size="12" fill="black"><tspan x="4" y="39.20833333333333">Data</tspan><tspan x="4" y="53.875">Encrypted</tspan><tspan x="4" y="68.54166666666666">for Impact</tspan></text></g><g class="technique T1490" transform="translate(0, 201.5)"><rect class="cell" height="100.75" width="119.16455696202532" fill="white" stroke="#6B7279"/><polygon class="sidebar" transform="translate(0, 100.75)" points="0,0 12,0 12,0" fill="#6B7279" visibility="hidden"/><text font-size="12" fill="black"><tspan x="4" y="39.20833333333333">Inhibit</tspan><tspan x="4" y="53.875">System</tspan><tspan x="4" y="68.54166666666666">Recovery</tspan></text></g><g class="technique T1489" transform="translate(0, 302.25)"><rect class="cell" height="100.75" width="119.16455696202532" fill="white" stroke="#6B7279"/><polygon class="sidebar" transform="translate(0, 100.75)" points="0,0 12,0 12,0" fill="#6B7279" visibility="hidden"/><text font-size="12" fill="black"><tspan x="4" y="53.875">Service Stop</tspan></text></g></g><g class="subtechniques"/><g class="tactic-label"><text font-size="12" fill="black" font-weight="bold"><tspan text-anchor="middle" x="59.58227848101266" y="53.875">Impact</tspan></text></g></g></g></g></g></svg>