<?xml version="1.0" standalone="no"?>
<svg width="1440" height="864" xmlns="http://www.w3.org/2000/svg" id="svgvm0"><g transform="translate(5,5)" style="font-family: sans-serif;"><g transform="translate(0,1)"><g><g class="tactic initial-access" transform="translate(0, 0)"><g class="techniques"><g class="technique T1091" transform="translate(0, 122)"><rect class="cell" height="122" width="144.6067415730337" fill="#dadaeb" stroke="#6B7279"/><polygon class="sidebar" transform="translate(0, 122)" points="0,0 12,0 12,0" fill="#6B7279" visibility="hidden"/><text font-size="12" fill="black"><tspan x="4" y="49.83333333333333">Replication</tspan><tspan x="4" y="64.5">Through</tspan><tspan x="4" y="79.16666666666666">Removable Media</tspan></text></g></g><g class="subtechniques"/><g class="tactic-label"><text font-size="12" fill="black" font-weight="bold"><tspan text-anchor="middle" x="72.30337078651685" y="64.5">Initial Access</tspan></text></g></g><g class="tactic execution" transform="translate(160.67415730337078, 0)"><g class="techniques"><g class="technique T1106" transform="translate(0, 122)"><rect class="cell" height="122" width="144.6067415730337" fill="#dadaeb" stroke="#6B7279"/><polygon class="sidebar" transform="translate(0, 122)" points="0,0 12,0 12,0" fill="#6B7279" visibility="hidden"/><text font-size="12" fill="black"><tspan x="4" y="64.5">Native API</tspan></text></g><g class="technique T1569" transform="translate(0, 244)"><rect class="cell" height="122" width="144.6067415730337" fill="#dadaeb" stroke="#6B7279"/><polygon class="sidebar" transform="translate(0, 122)" points="0,0 12,0 12,12" fill="#6B7279" visibility="visible"/><text font-size="12" fill="black"><tspan x="4" y="64.5">System Services</tspan></text></g><g class="technique T1204" transform="translate(0, 488)"><rect class="cell" height="122" width="144.6067415730337" fill="#dadaeb" stroke="#6B7279"/><polygon class="sidebar" transform="translate(0, 122)" points="0,0 12,0 12,12" fill="#6B7279" visibility="visible"/><text font-size="12" fill="black"><tspan x="4" y="64.5">User Execution</tspan></text></g></g><g class="subtechniques"><g class="subtechnique T1569.002" transform="translate(15, 366)"><rect class="cell" height="122" width="129.6067415730337" fill="white" stroke="#6B7279"/><rect class="cell" height="122" width="3" transform="translate(-3, 0)" fill="#6B7279" stroke="#6B7279"/><text font-size="12" fill="black"><tspan x="4" y="57.25">Service</tspan><tspan x="4" y="71.75">Execution</tspan></text></g><g class="subtechnique T1204.002" transform="translate(15, 610)"><rect class="cell" height="122" width="129.6067415730337" fill="white" stroke="#6B7279"/><rect class="cell" height="122" width="3" transform="translate(-3, 0)" fill="#6B7279" stroke="#6B7279"/><text font-size="12" fill="black"><tspan x="4" y="64.5">Malicious File</tspan></text></g></g><g class="tactic-label"><text font-size="12" fill="black" font-weight="bold"><tspan text-anchor="middle" x="72.30337078651685" y="64.5">Execution</tspan></text></g></g><g class="tactic persistence" transform="translate(321.34831460674155, 0)"><g class="techniques"><g class="technique T1547" transform="translate(0, 122)"><rect class="cell" height="122" width="144.6067415730337" fill="#dadaeb" stroke="#6B7279"/><polygon class="sidebar" transform="translate(0, 122)" points="0,0 12,0 12,12" fill="#6B7279" visibility="visible"/><text font-size="12" fill="black"><tspan x="4" y="49.83333333333333">Boot or</tspan><tspan x="4" y="64.5">Logon Autostart</tspan><tspan x="4" y="79.16666666666666">Execution</tspan></text></g><g class="technique T1554" transform="translate(0, 366)"><rect class="cell" height="122" width="144.6067415730337" fill="#dadaeb" stroke="#6B7279"/><polygon class="sidebar" transform="translate(0, 122)" points="0,0 12,0 12,0" fill="#6B7279" visibility="hidden"/><text font-size="12" fill="black"><tspan x="4" y="49.83333333333333">Compromise</tspan><tspan x="4" y="64.5">Client</tspan><tspan x="4" y="79.16666666666666">Software Binary</tspan></text></g><g class="technique T1543" transform="translate(0, 488)"><rect class="cell" height="122" width="144.6067415730337" fill="#dadaeb" stroke="#6B7279"/><polygon class="sidebar" transform="translate(0, 122)" points="0,0 12,0 12,12" fill="#6B7279" visibility="visible"/><text font-size="12" fill="black"><tspan x="4" y="57.25">Create or Modify</tspan><tspan x="4" y="71.75">System Process</tspan></text></g></g><g class="subtechniques"><g class="subtechnique T1547.001" transform="translate(15, 244)"><rect class="cell" height="122" width="129.6067415730337" fill="white" stroke="#6B7279"/><rect class="cell" height="122" width="3" transform="translate(-3, 0)" fill="#6B7279" stroke="#6B7279"/><text font-size="12" fill="black"><tspan x="4" y="49.83333333333333">Registry</tspan><tspan x="4" y="64.5">Run Keys /</tspan><tspan x="4" y="79.16666666666666">Startup Folder</tspan></text></g><g class="subtechnique T1543.003" transform="translate(15, 610)"><rect class="cell" height="122" width="129.6067415730337" fill="white" stroke="#6B7279"/><rect class="cell" height="122" width="3" transform="translate(-3, 0)" fill="#6B7279" stroke="#6B7279"/><text font-size="12" fill="black"><tspan x="4" y="57.25">Windows</tspan><tspan x="4" y="71.75">Service</tspan></text></g></g><g class="tactic-label"><text font-size="12" fill="black" font-weight="bold"><tspan text-anchor="middle" x="72.30337078651685" y="64.5">Persistence</tspan></text></g></g><g class="tactic privilege-escalation" transform="translate(482.02247191011236, 0)"><g class="techniques"><g class="technique T1547" transform="translate(0, 122)"><rect class="cell" height="122" width="144.6067415730337" fill="#dadaeb" stroke="#6B7279"/><polygon class="sidebar" transform="translate(0, 122)" points="0,0 12,0 12,12" fill="#6B7279" visibility="visible"/><text font-size="12" fill="black"><tspan x="4" y="49.83333333333333">Boot or</tspan><tspan x="4" y="64.5">Logon Autostart</tspan><tspan x="4" y="79.16666666666666">Execution</tspan></text></g><g class="technique T1543" transform="translate(0, 366)"><rect class="cell" height="122" width="144.6067415730337" fill="#dadaeb" stroke="#6B7279"/><polygon class="sidebar" transform="translate(0, 122)" points="0,0 12,0 12,12" fill="#6B7279" visibility="visible"/><text font-size="12" fill="black"><tspan x="4" y="57.25">Create or Modify</tspan><tspan x="4" y="71.75">System Process</tspan></text></g></g><g class="subtechniques"><g class="subtechnique T1547.001" transform="translate(15, 244)"><rect class="cell" height="122" width="129.6067415730337" fill="white" stroke="#6B7279"/><rect class="cell" height="122" width="3" transform="translate(-3, 0)" fill="#6B7279" stroke="#6B7279"/><text font-size="12" fill="black"><tspan x="4" y="49.83333333333333">Registry</tspan><tspan x="4" y="64.5">Run Keys /</tspan><tspan x="4" y="79.16666666666666">Startup Folder</tspan></text></g><g class="subtechnique T1543.003" transform="translate(15, 488)"><rect class="cell" height="122" width="129.6067415730337" fill="white" stroke="#6B7279"/><rect class="cell" height="122" width="3" transform="translate(-3, 0)" fill="#6B7279" stroke="#6B7279"/><text font-size="12" fill="black"><tspan x="4" y="57.25">Windows</tspan><tspan x="4" y="71.75">Service</tspan></text></g></g><g class="tactic-label"><text font-size="12" fill="black" font-weight="bold"><tspan text-anchor="middle" x="72.30337078651685" y="57.25">Privilege</tspan><tspan text-anchor="middle" x="72.30337078651685" y="71.75">Escalation</tspan></text></g></g><g class="tactic defense-evasion" transform="translate(642.6966292134831, 0)"><g class="techniques"><g class="technique T1222" transform="translate(0, 122)"><rect class="cell" height="122" width="144.6067415730337" fill="#dadaeb" stroke="#6B7279"/><polygon class="sidebar" transform="translate(0, 122)" points="0,0 12,0 12,12" fill="#6B7279" visibility="visible"/><text font-size="12" fill="black"><tspan x="4" y="42.375">File</tspan><tspan x="4" y="57.125">and Directory</tspan><tspan x="4" y="71.875">Permissions</tspan><tspan x="4" y="86.625">Modification</tspan></text></g><g class="technique T1564" transform="translate(0, 366)"><rect class="cell" height="122" width="144.6067415730337" fill="#dadaeb" stroke="#6B7279"/><polygon class="sidebar" transform="translate(0, 122)" points="0,0 12,0 12,12" fill="#6B7279" visibility="visible"/><text font-size="12" fill="black"><tspan x="4" y="64.5">Hide Artifacts</tspan></text></g></g><g class="subtechniques"><g class="subtechnique T1222.001" transform="translate(15, 244)"><rect class="cell" height="122" width="129.6067415730337" fill="white" stroke="#6B7279"/><rect class="cell" height="122" width="3" transform="translate(-3, 0)" fill="#6B7279" stroke="#6B7279"/><text font-size="12" fill="black"><tspan x="4" y="42.375">Windows File</tspan><tspan x="4" y="57.125">and Directory</tspan><tspan x="4" y="71.875">Permissions</tspan><tspan x="4" y="86.625">Modification</tspan></text></g><g class="subtechnique T1564.001" transform="translate(15, 488)"><rect class="cell" height="122" width="129.6067415730337" fill="white" stroke="#6B7279"/><rect class="cell" height="122" width="3" transform="translate(-3, 0)" fill="#6B7279" stroke="#6B7279"/><text font-size="12" fill="black"><tspan x="4" y="49.83333333333333">Hidden</tspan><tspan x="4" y="64.5">Files and</tspan><tspan x="4" y="79.16666666666666">Directories</tspan></text></g><g class="subtechnique T1564.003" transform="translate(15, 610)"><rect class="cell" height="122" width="129.6067415730337" fill="white" stroke="#6B7279"/><rect class="cell" height="122" width="3" transform="translate(-3, 0)" fill="#6B7279" stroke="#6B7279"/><text font-size="12" fill="black"><tspan x="4" y="64.5">Hidden Window</tspan></text></g><g class="subtechnique T1564.004" transform="translate(15, 732)"><rect class="cell" height="122" width="129.6067415730337" fill="white" stroke="#6B7279"/><rect class="cell" height="122" width="3" transform="translate(-3, 0)" fill="#6B7279" stroke="#6B7279"/><text font-size="12" fill="black"><tspan x="4" y="57.25">NTFS File</tspan><tspan x="4" y="71.75">Attributes</tspan></text></g></g><g class="tactic-label"><text font-size="12" fill="black" font-weight="bold"><tspan text-anchor="middle" x="72.30337078651685" y="64.5">Defense Evasion</tspan></text></g></g><g class="tactic discovery" transform="translate(803.3707865168539, 0)"><g class="techniques"><g class="technique T1083" transform="translate(0, 122)"><rect class="cell" height="122" width="144.6067415730337" fill="#dadaeb" stroke="#6B7279"/><polygon class="sidebar" transform="translate(0, 122)" points="0,0 12,0 12,0" fill="#6B7279" visibility="hidden"/><text font-size="12" fill="black"><tspan x="4" y="49.83333333333333">File</tspan><tspan x="4" y="64.5">and Directory</tspan><tspan x="4" y="79.16666666666666">Discovery</tspan></text></g><g class="technique T1012" transform="translate(0, 244)"><rect class="cell" height="122" width="144.6067415730337" fill="#dadaeb" stroke="#6B7279"/><polygon class="sidebar" transform="translate(0, 122)" points="0,0 12,0 12,0" fill="#6B7279" visibility="hidden"/><text font-size="12" fill="black"><tspan x="4" y="64.5">Query Registry</tspan></text></g><g class="technique T1614" transform="translate(0, 366)"><rect class="cell" height="122" width="144.6067415730337" fill="#dadaeb" stroke="#6B7279"/><polygon class="sidebar" transform="translate(0, 122)" points="0,0 12,0 12,0" fill="#6B7279" visibility="hidden"/><text font-size="12" fill="black"><tspan x="4" y="57.25">System Location</tspan><tspan x="4" y="71.75">Discovery</tspan></text></g><g class="technique T1016" transform="translate(0, 488)"><rect class="cell" height="122" width="144.6067415730337" fill="#dadaeb" stroke="#6B7279"/><polygon class="sidebar" transform="translate(0, 122)" points="0,0 12,0 12,12" fill="#6B7279" visibility="visible"/><text font-size="12" fill="black"><tspan x="4" y="49.83333333333333">System Network</tspan><tspan x="4" y="64.5">Configuration</tspan><tspan x="4" y="79.16666666666666">Discovery</tspan></text></g></g><g class="subtechniques"><g class="subtechnique T1016.001" transform="translate(15, 610)"><rect class="cell" height="122" width="129.6067415730337" fill="white" stroke="#6B7279"/><rect class="cell" height="122" width="3" transform="translate(-3, 0)" fill="#6B7279" stroke="#6B7279"/><text font-size="12" fill="black"><tspan x="4" y="49.83333333333333">Internet</tspan><tspan x="4" y="64.5">Connection</tspan><tspan x="4" y="79.16666666666666">Discovery</tspan></text></g></g><g class="tactic-label"><text font-size="12" fill="black" font-weight="bold"><tspan text-anchor="middle" x="72.30337078651685" y="64.5">Discovery</tspan></text></g></g><g class="tactic lateral-movement" transform="translate(964.0449438202247, 0)"><g class="techniques"><g class="technique T1091" transform="translate(0, 122)"><rect class="cell" height="122" width="144.6067415730337" fill="#dadaeb" stroke="#6B7279"/><polygon class="sidebar" transform="translate(0, 122)" points="0,0 12,0 12,0" fill="#6B7279" visibility="hidden"/><text font-size="12" fill="black"><tspan x="4" y="49.83333333333333">Replication</tspan><tspan x="4" y="64.5">Through</tspan><tspan x="4" y="79.16666666666666">Removable Media</tspan></text></g></g><g class="subtechniques"/><g class="tactic-label"><text font-size="12" fill="black" font-weight="bold"><tspan text-anchor="middle" x="72.30337078651685" y="64.5">Lateral Movement</tspan></text></g></g><g class="tactic command-and-control" transform="translate(1124.7191011235955, 0)"><g class="techniques"><g class="technique T1001" transform="translate(0, 122)"><rect class="cell" height="122" width="144.6067415730337" fill="#dadaeb" stroke="#6B7279"/><polygon class="sidebar" transform="translate(0, 122)" points="0,0 12,0 12,12" fill="#6B7279" visibility="visible"/><text font-size="12" fill="black"><tspan x="4" y="64.5">Data Obfuscation</tspan></text></g></g><g class="subtechniques"><g class="subtechnique T1001.001" transform="translate(15, 244)"><rect class="cell" height="122" width="129.6067415730337" fill="white" stroke="#6B7279"/><rect class="cell" height="122" width="3" transform="translate(-3, 0)" fill="#6B7279" stroke="#6B7279"/><text font-size="12" fill="black"><tspan x="4" y="64.5">Junk Data</tspan></text></g></g><g class="tactic-label"><text font-size="12" fill="black" font-weight="bold"><tspan text-anchor="middle" x="72.30337078651685" y="57.25">Command</tspan><tspan text-anchor="middle" x="72.30337078651685" y="71.75">and Control</tspan></text></g></g><g class="tactic impact" transform="translate(1285.3932584269662, 0)"><g class="techniques"><g class="technique T1486" transform="translate(0, 122)"><rect class="cell" height="122" width="144.6067415730337" fill="#dadaeb" stroke="#6B7279"/><polygon class="sidebar" transform="translate(0, 122)" points="0,0 12,0 12,0" fill="#6B7279" visibility="hidden"/><text font-size="12" fill="black"><tspan x="4" y="57.25">Data Encrypted</tspan><tspan x="4" y="71.75">for Impact</tspan></text></g></g><g class="subtechniques"/><g class="tactic-label"><text font-size="12" fill="black" font-weight="bold"><tspan text-anchor="middle" x="72.30337078651685" y="64.5">Impact</tspan></text></g></g></g></g></g></svg>