<?xml version="1.0" standalone="no"?>
<svg width="1056" height="816" xmlns="http://www.w3.org/2000/svg" id="svgvm0"><g transform="translate(5,5)" style="font-family: sans-serif;"><g transform="translate(0,1)"><g><g class="tactic initial-access" transform="translate(0, 0)"><g class="techniques"><g class="technique T1133" transform="translate(0, 115.14285714285714)"><rect class="cell" height="115.14285714285714" width="136.43478260869566" fill="#dadaeb" stroke="#6B7279"/><polygon class="sidebar" transform="translate(0, 115.14285714285714)" points="0,0 12,0 12,0" fill="#6B7279" visibility="hidden"/><text font-size="10.346135265700484" fill="black"><tspan x="4" y="53.82142857142857">External</tspan><tspan x="4" y="68.32142857142857">Remote Services</tspan></text></g><g class="technique T1078" transform="translate(0, 230.28571428571428)"><rect class="cell" height="115.14285714285714" width="136.43478260869566" fill="#dadaeb" stroke="#6B7279"/><polygon class="sidebar" transform="translate(0, 115.14285714285714)" points="0,0 12,0 12,0" fill="#6B7279" visibility="hidden"/><text font-size="10.346135265700484" fill="black"><tspan x="4" y="61.07142857142857">Valid Accounts</tspan></text></g></g><g class="subtechniques"/><g class="tactic-label"><text font-size="12" fill="black" font-weight="bold"><tspan text-anchor="middle" x="68.21739130434783" y="61.07142857142857">Initial Access</tspan></text></g></g><g class="tactic execution" transform="translate(151.59420289855072, 0)"><g class="techniques"><g class="technique T1204" transform="translate(0, 115.14285714285714)"><rect class="cell" height="115.14285714285714" width="136.43478260869566" fill="#dadaeb" stroke="#6B7279"/><polygon class="sidebar" transform="translate(0, 115.14285714285714)" points="0,0 12,0 12,12" fill="#6B7279" visibility="visible"/><text font-size="10.346135265700484" fill="black"><tspan x="4" y="61.07142857142857">User Execution</tspan></text></g></g><g class="subtechniques"><g class="subtechnique T1204.002" transform="translate(15, 230.28571428571428)"><rect class="cell" height="115.14285714285714" width="121.43478260869566" fill="#dadaeb" stroke="#6B7279"/><rect class="cell" height="115.14285714285714" width="3" transform="translate(-3, 0)" fill="#6B7279" stroke="#6B7279"/><text font-size="10.346135265700484" fill="black"><tspan x="4" y="53.82142857142857">Malicious</tspan><tspan x="4" y="68.32142857142857">File</tspan></text></g></g><g class="tactic-label"><text font-size="12" fill="black" font-weight="bold"><tspan text-anchor="middle" x="68.21739130434783" y="61.07142857142857">Execution</tspan></text></g></g><g class="tactic persistence" transform="translate(303.18840579710144, 0)"><g class="techniques"><g class="technique T1133" transform="translate(0, 115.14285714285714)"><rect class="cell" height="115.14285714285714" width="136.43478260869566" fill="#dadaeb" stroke="#6B7279"/><polygon class="sidebar" transform="translate(0, 115.14285714285714)" points="0,0 12,0 12,0" fill="#6B7279" visibility="hidden"/><text font-size="10.346135265700484" fill="black"><tspan x="4" y="53.82142857142857">External</tspan><tspan x="4" y="68.32142857142857">Remote Services</tspan></text></g><g class="technique T1078" transform="translate(0, 230.28571428571428)"><rect class="cell" height="115.14285714285714" width="136.43478260869566" fill="#dadaeb" stroke="#6B7279"/><polygon class="sidebar" transform="translate(0, 115.14285714285714)" points="0,0 12,0 12,0" fill="#6B7279" visibility="hidden"/><text font-size="10.346135265700484" fill="black"><tspan x="4" y="61.07142857142857">Valid Accounts</tspan></text></g></g><g class="subtechniques"/><g class="tactic-label"><text font-size="12" fill="black" font-weight="bold"><tspan text-anchor="middle" x="68.21739130434783" y="61.07142857142857">Persistence</tspan></text></g></g><g class="tactic privilege-escalation" transform="translate(454.78260869565213, 0)"><g class="techniques"><g class="technique T1078" transform="translate(0, 115.14285714285714)"><rect class="cell" height="115.14285714285714" width="136.43478260869566" fill="#dadaeb" stroke="#6B7279"/><polygon class="sidebar" transform="translate(0, 115.14285714285714)" points="0,0 12,0 12,0" fill="#6B7279" visibility="hidden"/><text font-size="10.346135265700484" fill="black"><tspan x="4" y="61.07142857142857">Valid Accounts</tspan></text></g></g><g class="subtechniques"/><g class="tactic-label"><text font-size="12" fill="black" font-weight="bold"><tspan text-anchor="middle" x="68.21739130434783" y="53.82142857142857">Privilege</tspan><tspan text-anchor="middle" x="68.21739130434783" y="68.32142857142857">Escalation</tspan></text></g></g><g class="tactic defense-evasion" transform="translate(606.3768115942029, 0)"><g class="techniques"><g class="technique T1140" transform="translate(0, 115.14285714285714)"><rect class="cell" height="115.14285714285714" width="136.43478260869566" fill="#dadaeb" stroke="#6B7279"/><polygon class="sidebar" transform="translate(0, 115.14285714285714)" points="0,0 12,0 12,0" fill="#6B7279" visibility="hidden"/><text font-size="10.346135265700484" fill="black"><tspan x="4" y="46.4047619047619">Deobfuscate/Decode</tspan><tspan x="4" y="61.07142857142857">Files</tspan><tspan x="4" y="75.73809523809524">or Information</tspan></text></g><g class="technique T1027" transform="translate(0, 230.28571428571428)"><rect class="cell" height="115.14285714285714" width="136.43478260869566" fill="#dadaeb" stroke="#6B7279"/><polygon class="sidebar" transform="translate(0, 115.14285714285714)" points="0,0 12,0 12,12" fill="#6B7279" visibility="visible"/><text font-size="10.346135265700484" fill="black"><tspan x="4" y="46.4047619047619">Obfuscated</tspan><tspan x="4" y="61.07142857142857">Files</tspan><tspan x="4" y="75.73809523809524">or Information</tspan></text></g><g class="technique T1078" transform="translate(0, 690.8571428571428)"><rect class="cell" height="115.14285714285714" width="136.43478260869566" fill="#dadaeb" stroke="#6B7279"/><polygon class="sidebar" transform="translate(0, 115.14285714285714)" points="0,0 12,0 12,0" fill="#6B7279" visibility="hidden"/><text font-size="10.346135265700484" fill="black"><tspan x="4" y="61.07142857142857">Valid Accounts</tspan></text></g></g><g class="subtechniques"><g class="subtechnique T1027.001" transform="translate(15, 345.4285714285714)"><rect class="cell" height="115.14285714285714" width="121.43478260869566" fill="#dadaeb" stroke="#6B7279"/><rect class="cell" height="115.14285714285714" width="3" transform="translate(-3, 0)" fill="#6B7279" stroke="#6B7279"/><text font-size="10.346135265700484" fill="black"><tspan x="4" y="53.82142857142857">Binary</tspan><tspan x="4" y="68.32142857142857">Padding</tspan></text></g><g class="subtechnique T1027.007" transform="translate(15, 460.57142857142856)"><rect class="cell" height="115.14285714285714" width="121.43478260869566" fill="#dadaeb" stroke="#6B7279"/><rect class="cell" height="115.14285714285714" width="3" transform="translate(-3, 0)" fill="#6B7279" stroke="#6B7279"/><text font-size="10.346135265700484" fill="black"><tspan x="4" y="53.82142857142857">Dynamic API</tspan><tspan x="4" y="68.32142857142857">Resolution</tspan></text></g><g class="subtechnique T1027.002" transform="translate(15, 575.7142857142858)"><rect class="cell" height="115.14285714285714" width="121.43478260869566" fill="#dadaeb" stroke="#6B7279"/><rect class="cell" height="115.14285714285714" width="3" transform="translate(-3, 0)" fill="#6B7279" stroke="#6B7279"/><text font-size="10.346135265700484" fill="black"><tspan x="4" y="53.82142857142857">Software</tspan><tspan x="4" y="68.32142857142857">Packing</tspan></text></g></g><g class="tactic-label"><text font-size="12" fill="black" font-weight="bold"><tspan text-anchor="middle" x="68.21739130434783" y="61.07142857142857">Defense Evasion</tspan></text></g></g><g class="tactic discovery" transform="translate(757.9710144927536, 0)"><g class="techniques"><g class="technique T1083" transform="translate(0, 115.14285714285714)"><rect class="cell" height="115.14285714285714" width="136.43478260869566" fill="#dadaeb" stroke="#6B7279"/><polygon class="sidebar" transform="translate(0, 115.14285714285714)" points="0,0 12,0 12,0" fill="#6B7279" visibility="hidden"/><text font-size="10.346135265700484" fill="black"><tspan x="4" y="46.4047619047619">File</tspan><tspan x="4" y="61.07142857142857">and Directory</tspan><tspan x="4" y="75.73809523809524">Discovery</tspan></text></g><g class="technique T1135" transform="translate(0, 230.28571428571428)"><rect class="cell" height="115.14285714285714" width="136.43478260869566" fill="#dadaeb" stroke="#6B7279"/><polygon class="sidebar" transform="translate(0, 115.14285714285714)" points="0,0 12,0 12,0" fill="#6B7279" visibility="hidden"/><text font-size="10.346135265700484" fill="black"><tspan x="4" y="53.82142857142857">Network</tspan><tspan x="4" y="68.32142857142857">Share Discovery</tspan></text></g></g><g class="subtechniques"/><g class="tactic-label"><text font-size="12" fill="black" font-weight="bold"><tspan text-anchor="middle" x="68.21739130434783" y="61.07142857142857">Discovery</tspan></text></g></g><g class="tactic impact" transform="translate(909.5652173913043, 0)"><g class="techniques"><g class="technique T1486" transform="translate(0, 115.14285714285714)"><rect class="cell" height="115.14285714285714" width="136.43478260869566" fill="#dadaeb" stroke="#6B7279"/><polygon class="sidebar" transform="translate(0, 115.14285714285714)" points="0,0 12,0 12,0" fill="#6B7279" visibility="hidden"/><text font-size="10.346135265700484" fill="black"><tspan x="4" y="53.82142857142857">Data Encrypted</tspan><tspan x="4" y="68.32142857142857">for Impact</tspan></text></g></g><g class="subtechniques"/><g class="tactic-label"><text font-size="12" fill="black" font-weight="bold"><tspan text-anchor="middle" x="68.21739130434783" y="61.07142857142857">Impact</tspan></text></g></g></g></g></g></svg>