<?xml version="1.0" standalone="no"?>
<svg width="1056" height="816" xmlns="http://www.w3.org/2000/svg" id="svgvm0"><g transform="translate(5,5)" style="font-family: sans-serif;"><g transform="translate(0,1)"><g><g class="tactic execution" transform="translate(0, 0)"><g class="techniques"><g class="technique T1059" transform="translate(0, 53.733333333333334)"><rect class="cell" height="53.733333333333334" width="159.5593220338983" fill="white" stroke="#6B7279"/><polygon class="sidebar" transform="translate(0, 53.733333333333334)" points="0,0 12,0 12,12" fill="#6B7279" visibility="visible"/><text font-size="10.421632471008028" fill="black"><tspan x="4" y="15.7">Command</tspan><tspan x="4" y="30.366666666666667">and Scripting</tspan><tspan x="4" y="45.03333333333333">Interpreter</tspan></text></g><g class="technique T1106" transform="translate(0, 537.3333333333333)"><rect class="cell" height="53.733333333333334" width="159.5593220338983" fill="white" stroke="#6B7279"/><polygon class="sidebar" transform="translate(0, 53.733333333333334)" points="0,0 12,0 12,0" fill="#6B7279" visibility="hidden"/><text font-size="10.421632471008028" fill="black"><tspan x="4" y="30.366666666666667">Native API</tspan></text></g><g class="technique T1204" transform="translate(0, 591.0666666666666)"><rect class="cell" height="53.733333333333334" width="159.5593220338983" fill="white" stroke="#6B7279"/><polygon class="sidebar" transform="translate(0, 53.733333333333334)" points="0,0 12,0 12,12" fill="#6B7279" visibility="visible"/><text font-size="10.421632471008028" fill="black"><tspan x="4" y="30.366666666666667">User Execution</tspan></text></g></g><g class="subtechniques"><g class="subtechnique T1059.008" transform="translate(15, 107.46666666666667)"><rect class="cell" height="53.733333333333334" width="144.5593220338983" fill="white" stroke="#6B7279"/><rect class="cell" height="53.733333333333334" width="3" transform="translate(-3, 0)" fill="#6B7279" stroke="#6B7279"/><text font-size="10.421632471008028" fill="black"><tspan x="4" y="23.116666666666667">Network</tspan><tspan x="4" y="37.61666666666667">Device CLI</tspan></text></g><g class="subtechnique T1059.004" transform="translate(15, 161.20000000000002)"><rect class="cell" height="53.733333333333334" width="144.5593220338983" fill="white" stroke="#6B7279"/><rect class="cell" height="53.733333333333334" width="3" transform="translate(-3, 0)" fill="#6B7279" stroke="#6B7279"/><text font-size="10.421632471008028" fill="black"><tspan x="4" y="30.366666666666667">Unix Shell</tspan></text></g><g class="subtechnique T1059.002" transform="translate(15, 214.93333333333334)"><rect class="cell" height="53.733333333333334" width="144.5593220338983" fill="white" stroke="#6B7279"/><rect class="cell" height="53.733333333333334" width="3" transform="translate(-3, 0)" fill="#6B7279" stroke="#6B7279"/><text font-size="10.421632471008028" fill="black"><tspan x="4" y="30.366666666666667">AppleScript</tspan></text></g><g class="subtechnique T1059.003" transform="translate(15, 268.66666666666663)"><rect class="cell" height="53.733333333333334" width="144.5593220338983" fill="white" stroke="#6B7279"/><rect class="cell" height="53.733333333333334" width="3" transform="translate(-3, 0)" fill="#6B7279" stroke="#6B7279"/><text font-size="10.421632471008028" fill="black"><tspan x="4" y="23.116666666666667">Windows</tspan><tspan x="4" y="37.61666666666667">Command Shell</tspan></text></g><g class="subtechnique T1059.005" transform="translate(15, 322.40000000000003)"><rect class="cell" height="53.733333333333334" width="144.5593220338983" fill="white" stroke="#6B7279"/><rect class="cell" height="53.733333333333334" width="3" transform="translate(-3, 0)" fill="#6B7279" stroke="#6B7279"/><text font-size="10.421632471008028" fill="black"><tspan x="4" y="30.366666666666667">Visual Basic</tspan></text></g><g class="subtechnique T1059.006" transform="translate(15, 376.1333333333333)"><rect class="cell" height="53.733333333333334" width="144.5593220338983" fill="white" stroke="#6B7279"/><rect class="cell" height="53.733333333333334" width="3" transform="translate(-3, 0)" fill="#6B7279" stroke="#6B7279"/><text font-size="10.421632471008028" fill="black"><tspan x="4" y="30.366666666666667">Python</tspan></text></g><g class="subtechnique T1059.001" transform="translate(15, 429.8666666666667)"><rect class="cell" height="53.733333333333334" width="144.5593220338983" fill="white" stroke="#6B7279"/><rect class="cell" height="53.733333333333334" width="3" transform="translate(-3, 0)" fill="#6B7279" stroke="#6B7279"/><text font-size="10.421632471008028" fill="black"><tspan x="4" y="30.366666666666667">PowerShell</tspan></text></g><g class="subtechnique T1059.007" transform="translate(15, 483.59999999999997)"><rect class="cell" height="53.733333333333334" width="144.5593220338983" fill="white" stroke="#6B7279"/><rect class="cell" height="53.733333333333334" width="3" transform="translate(-3, 0)" fill="#6B7279" stroke="#6B7279"/><text font-size="10.421632471008028" fill="black"><tspan x="4" y="30.366666666666667">JavaScript</tspan></text></g><g class="subtechnique T1204.001" transform="translate(15, 644.8000000000001)"><rect class="cell" height="53.733333333333334" width="144.5593220338983" fill="white" stroke="#6B7279"/><rect class="cell" height="53.733333333333334" width="3" transform="translate(-3, 0)" fill="#6B7279" stroke="#6B7279"/><text font-size="10.421632471008028" fill="black"><tspan x="4" y="30.366666666666667">Malicious Link</tspan></text></g><g class="subtechnique T1204.003" transform="translate(15, 698.5333333333333)"><rect class="cell" height="53.733333333333334" width="144.5593220338983" fill="white" stroke="#6B7279"/><rect class="cell" height="53.733333333333334" width="3" transform="translate(-3, 0)" fill="#6B7279" stroke="#6B7279"/><text font-size="10.421632471008028" fill="black"><tspan x="4" y="30.366666666666667">Malicious Image</tspan></text></g><g class="subtechnique T1204.002" transform="translate(15, 752.2666666666667)"><rect class="cell" height="53.733333333333334" width="144.5593220338983" fill="white" stroke="#6B7279"/><rect class="cell" height="53.733333333333334" width="3" transform="translate(-3, 0)" fill="#6B7279" stroke="#6B7279"/><text font-size="10.421632471008028" fill="black"><tspan x="4" y="30.366666666666667">Malicious File</tspan></text></g></g><g class="tactic-label"><text font-size="12" fill="black" font-weight="bold"><tspan text-anchor="middle" x="79.77966101694915" y="30.366666666666667">Execution</tspan></text></g></g><g class="tactic privilege-escalation" transform="translate(177.28813559322032, 0)"><g class="techniques"><g class="technique T1548" transform="translate(0, 53.733333333333334)"><rect class="cell" height="53.733333333333334" width="159.5593220338983" fill="white" stroke="#6B7279"/><polygon class="sidebar" transform="translate(0, 53.733333333333334)" points="0,0 12,0 12,12" fill="#6B7279" visibility="visible"/><text font-size="10.421632471008028" fill="black"><tspan x="4" y="23.116666666666667">Abuse Elevation</tspan><tspan x="4" y="37.61666666666667">Control Mechanism</tspan></text></g><g class="technique T1134" transform="translate(0, 161.20000000000002)"><rect class="cell" height="53.733333333333334" width="159.5593220338983" fill="white" stroke="#6B7279"/><polygon class="sidebar" transform="translate(0, 53.733333333333334)" points="0,0 12,0 12,12" fill="#6B7279" visibility="visible"/><text font-size="10.421632471008028" fill="black"><tspan x="4" y="23.116666666666667">Access</tspan><tspan x="4" y="37.61666666666667">Token Manipulation</tspan></text></g></g><g class="subtechniques"><g class="subtechnique T1548.002" transform="translate(15, 107.46666666666667)"><rect class="cell" height="53.733333333333334" width="144.5593220338983" fill="white" stroke="#6B7279"/><rect class="cell" height="53.733333333333334" width="3" transform="translate(-3, 0)" fill="#6B7279" stroke="#6B7279"/><text font-size="10.421632471008028" fill="black"><tspan x="4" y="23.116666666666667">Bypass User</tspan><tspan x="4" y="37.61666666666667">Account Control</tspan></text></g><g class="subtechnique T1134.001" transform="translate(15, 214.93333333333334)"><rect class="cell" height="53.733333333333334" width="144.5593220338983" fill="white" stroke="#6B7279"/><rect class="cell" height="53.733333333333334" width="3" transform="translate(-3, 0)" fill="#6B7279" stroke="#6B7279"/><text font-size="10.421632471008028" fill="black"><tspan x="4" y="23.116666666666667">Token</tspan><tspan x="4" y="37.61666666666667">Impersonation/Theft</tspan></text></g></g><g class="tactic-label"><text font-size="12" fill="black" font-weight="bold"><tspan text-anchor="middle" x="79.77966101694915" y="23.116666666666667">Privilege</tspan><tspan text-anchor="middle" x="79.77966101694915" y="37.61666666666667">Escalation</tspan></text></g></g><g class="tactic defense-evasion" transform="translate(354.57627118644064, 0)"><g class="techniques"><g class="technique T1548" transform="translate(0, 53.733333333333334)"><rect class="cell" height="53.733333333333334" width="159.5593220338983" fill="white" stroke="#6B7279"/><polygon class="sidebar" transform="translate(0, 53.733333333333334)" points="0,0 12,0 12,12" fill="#6B7279" visibility="visible"/><text font-size="10.421632471008028" fill="black"><tspan x="4" y="23.116666666666667">Abuse Elevation</tspan><tspan x="4" y="37.61666666666667">Control Mechanism</tspan></text></g><g class="technique T1134" transform="translate(0, 161.20000000000002)"><rect class="cell" height="53.733333333333334" width="159.5593220338983" fill="white" stroke="#6B7279"/><polygon class="sidebar" transform="translate(0, 53.733333333333334)" points="0,0 12,0 12,12" fill="#6B7279" visibility="visible"/><text font-size="10.421632471008028" fill="black"><tspan x="4" y="23.116666666666667">Access</tspan><tspan x="4" y="37.61666666666667">Token Manipulation</tspan></text></g><g class="technique T1211" transform="translate(0, 268.66666666666663)"><rect class="cell" height="53.733333333333334" width="159.5593220338983" fill="white" stroke="#6B7279"/><polygon class="sidebar" transform="translate(0, 53.733333333333334)" points="0,0 12,0 12,0" fill="#6B7279" visibility="hidden"/><text font-size="10.421632471008028" fill="black"><tspan x="4" y="23.116666666666667">Exploitation for</tspan><tspan x="4" y="37.61666666666667">Defense Evasion</tspan></text></g><g class="technique T1222" transform="translate(0, 322.40000000000003)"><rect class="cell" height="53.733333333333334" width="159.5593220338983" fill="white" stroke="#6B7279"/><polygon class="sidebar" transform="translate(0, 53.733333333333334)" points="0,0 12,0 12,0" fill="#6B7279" visibility="visible"/><text font-size="10.421632471008028" fill="black"><tspan x="4" y="15.7">File and Directory</tspan><tspan x="4" y="30.366666666666667">Permissions</tspan><tspan x="4" y="45.03333333333333">Modification</tspan></text></g><g class="technique T1070" transform="translate(0, 376.1333333333333)"><rect class="cell" height="53.733333333333334" width="159.5593220338983" fill="white" stroke="#6B7279"/><polygon class="sidebar" transform="translate(0, 53.733333333333334)" points="0,0 12,0 12,0" fill="#6B7279" visibility="visible"/><text font-size="10.421632471008028" fill="black"><tspan x="4" y="23.116666666666667">Indicator</tspan><tspan x="4" y="37.61666666666667">Removal on Host</tspan></text></g></g><g class="subtechniques"><g class="subtechnique T1548.002" transform="translate(15, 107.46666666666667)"><rect class="cell" height="53.733333333333334" width="144.5593220338983" fill="white" stroke="#6B7279"/><rect class="cell" height="53.733333333333334" width="3" transform="translate(-3, 0)" fill="#6B7279" stroke="#6B7279"/><text font-size="10.421632471008028" fill="black"><tspan x="4" y="23.116666666666667">Bypass User</tspan><tspan x="4" y="37.61666666666667">Account Control</tspan></text></g><g class="subtechnique T1134.001" transform="translate(15, 214.93333333333334)"><rect class="cell" height="53.733333333333334" width="144.5593220338983" fill="white" stroke="#6B7279"/><rect class="cell" height="53.733333333333334" width="3" transform="translate(-3, 0)" fill="#6B7279" stroke="#6B7279"/><text font-size="10.421632471008028" fill="black"><tspan x="4" y="23.116666666666667">Token</tspan><tspan x="4" y="37.61666666666667">Impersonation/Theft</tspan></text></g></g><g class="tactic-label"><text font-size="12" fill="black" font-weight="bold"><tspan text-anchor="middle" x="79.77966101694915" y="30.366666666666667">Defense Evasion</tspan></text></g></g><g class="tactic discovery" transform="translate(531.864406779661, 0)"><g class="techniques"><g class="technique T1083" transform="translate(0, 53.733333333333334)"><rect class="cell" height="53.733333333333334" width="159.5593220338983" fill="white" stroke="#6B7279"/><polygon class="sidebar" transform="translate(0, 53.733333333333334)" points="0,0 12,0 12,0" fill="#6B7279" visibility="hidden"/><text font-size="10.421632471008028" fill="black"><tspan x="4" y="23.116666666666667">File and Directory</tspan><tspan x="4" y="37.61666666666667">Discovery</tspan></text></g><g class="technique T1135" transform="translate(0, 107.46666666666667)"><rect class="cell" height="53.733333333333334" width="159.5593220338983" fill="white" stroke="#6B7279"/><polygon class="sidebar" transform="translate(0, 53.733333333333334)" points="0,0 12,0 12,0" fill="#6B7279" visibility="hidden"/><text font-size="10.421632471008028" fill="black"><tspan x="4" y="23.116666666666667">Network</tspan><tspan x="4" y="37.61666666666667">Share Discovery</tspan></text></g><g class="technique T1057" transform="translate(0, 161.20000000000002)"><rect class="cell" height="53.733333333333334" width="159.5593220338983" fill="white" stroke="#6B7279"/><polygon class="sidebar" transform="translate(0, 53.733333333333334)" points="0,0 12,0 12,0" fill="#6B7279" visibility="hidden"/><text font-size="10.421632471008028" fill="black"><tspan x="4" y="30.366666666666667">Process Discovery</tspan></text></g><g class="technique T1018" transform="translate(0, 214.93333333333334)"><rect class="cell" height="53.733333333333334" width="159.5593220338983" fill="white" stroke="#6B7279"/><polygon class="sidebar" transform="translate(0, 53.733333333333334)" points="0,0 12,0 12,0" fill="#6B7279" visibility="hidden"/><text font-size="10.421632471008028" fill="black"><tspan x="4" y="23.116666666666667">Remote</tspan><tspan x="4" y="37.61666666666667">System Discovery</tspan></text></g><g class="technique T1082" transform="translate(0, 268.66666666666663)"><rect class="cell" height="53.733333333333334" width="159.5593220338983" fill="white" stroke="#6B7279"/><polygon class="sidebar" transform="translate(0, 53.733333333333334)" points="0,0 12,0 12,0" fill="#6B7279" visibility="hidden"/><text font-size="10.421632471008028" fill="black"><tspan x="4" y="23.116666666666667">System Information</tspan><tspan x="4" y="37.61666666666667">Discovery</tspan></text></g><g class="technique T1033" transform="translate(0, 322.40000000000003)"><rect class="cell" height="53.733333333333334" width="159.5593220338983" fill="white" stroke="#6B7279"/><polygon class="sidebar" transform="translate(0, 53.733333333333334)" points="0,0 12,0 12,0" fill="#6B7279" visibility="hidden"/><text font-size="10.421632471008028" fill="black"><tspan x="4" y="23.116666666666667">System Owner/User</tspan><tspan x="4" y="37.61666666666667">Discovery</tspan></text></g><g class="technique T1007" transform="translate(0, 376.1333333333333)"><rect class="cell" height="53.733333333333334" width="159.5593220338983" fill="white" stroke="#6B7279"/><polygon class="sidebar" transform="translate(0, 53.733333333333334)" points="0,0 12,0 12,0" fill="#6B7279" visibility="hidden"/><text font-size="10.421632471008028" fill="black"><tspan x="4" y="23.116666666666667">System</tspan><tspan x="4" y="37.61666666666667">Service Discovery</tspan></text></g></g><g class="subtechniques"/><g class="tactic-label"><text font-size="12" fill="black" font-weight="bold"><tspan text-anchor="middle" x="79.77966101694915" y="30.366666666666667">Discovery</tspan></text></g></g><g class="tactic lateral-movement" transform="translate(709.1525423728813, 0)"><g class="techniques"><g class="technique T1570" transform="translate(0, 53.733333333333334)"><rect class="cell" height="53.733333333333334" width="159.5593220338983" fill="white" stroke="#6B7279"/><polygon class="sidebar" transform="translate(0, 53.733333333333334)" points="0,0 12,0 12,0" fill="#6B7279" visibility="hidden"/><text font-size="10.421632471008028" fill="black"><tspan x="4" y="23.116666666666667">Lateral</tspan><tspan x="4" y="37.61666666666667">Tool Transfer</tspan></text></g></g><g class="subtechniques"/><g class="tactic-label"><text font-size="12" fill="black" font-weight="bold"><tspan text-anchor="middle" x="79.77966101694915" y="30.366666666666667">Lateral Movement</tspan></text></g></g><g class="tactic impact" transform="translate(886.4406779661016, 0)"><g class="techniques"><g class="technique T1486" transform="translate(0, 53.733333333333334)"><rect class="cell" height="53.733333333333334" width="159.5593220338983" fill="white" stroke="#6B7279"/><polygon class="sidebar" transform="translate(0, 53.733333333333334)" points="0,0 12,0 12,0" fill="#6B7279" visibility="hidden"/><text font-size="10.421632471008028" fill="black"><tspan x="4" y="23.116666666666667">Data Encrypted</tspan><tspan x="4" y="37.61666666666667">for Impact</tspan></text></g><g class="technique T1490" transform="translate(0, 107.46666666666667)"><rect class="cell" height="53.733333333333334" width="159.5593220338983" fill="white" stroke="#6B7279"/><polygon class="sidebar" transform="translate(0, 53.733333333333334)" points="0,0 12,0 12,0" fill="#6B7279" visibility="hidden"/><text font-size="10.421632471008028" fill="black"><tspan x="4" y="23.116666666666667">Inhibit</tspan><tspan x="4" y="37.61666666666667">System Recovery</tspan></text></g><g class="technique T1489" transform="translate(0, 161.20000000000002)"><rect class="cell" height="53.733333333333334" width="159.5593220338983" fill="white" stroke="#6B7279"/><polygon class="sidebar" transform="translate(0, 53.733333333333334)" points="0,0 12,0 12,0" fill="#6B7279" visibility="hidden"/><text font-size="10.421632471008028" fill="black"><tspan x="4" y="30.366666666666667">Service Stop</tspan></text></g></g><g class="subtechniques"/><g class="tactic-label"><text font-size="12" fill="black" font-weight="bold"><tspan text-anchor="middle" x="79.77966101694915" y="30.366666666666667">Impact</tspan></text></g></g></g></g></g></svg>