<?xml version="1.0" standalone="no"?>
<svg width="1056" height="816" xmlns="http://www.w3.org/2000/svg" id="svgvm0"><g transform="translate(5,5)" style="font-family: sans-serif;"><g transform="translate(0,1)"><g><g class="tactic initial-access" transform="translate(0, 0)"><g class="techniques"><g class="technique T1190" transform="translate(0, 115.14285714285714)"><rect class="cell" height="115.14285714285714" width="159.5593220338983" fill="#c6dbef" stroke="#6B7279"/><polygon class="sidebar" transform="translate(0, 115.14285714285714)" points="0,0 12,0 12,0" fill="#6B7279" visibility="hidden"/><text font-size="11.000612052730697" fill="black"><tspan x="4" y="46.4047619047619">Exploit</tspan><tspan x="4" y="61.07142857142857">Public-Facing</tspan><tspan x="4" y="75.73809523809524">Application</tspan></text></g></g><g class="subtechniques"/><g class="tactic-label"><text font-size="12" fill="black" font-weight="bold"><tspan text-anchor="middle" x="79.77966101694915" y="61.07142857142857">Initial Access</tspan></text></g></g><g class="tactic execution" transform="translate(177.28813559322032, 0)"><g class="techniques"><g class="technique T1059" transform="translate(0, 115.14285714285714)"><rect class="cell" height="115.14285714285714" width="159.5593220338983" fill="#c6dbef" stroke="#6B7279"/><polygon class="sidebar" transform="translate(0, 115.14285714285714)" points="0,0 12,0 12,12" fill="#6B7279" visibility="visible"/><text font-size="11.000612052730697" fill="black"><tspan x="4" y="46.4047619047619">Command</tspan><tspan x="4" y="61.07142857142857">and Scripting</tspan><tspan x="4" y="75.73809523809524">Interpreter</tspan></text></g></g><g class="subtechniques"><g class="subtechnique T1059.004" transform="translate(15, 230.28571428571428)"><rect class="cell" height="115.14285714285714" width="144.5593220338983" fill="#c6dbef" stroke="#6B7279"/><rect class="cell" height="115.14285714285714" width="3" transform="translate(-3, 0)" fill="#6B7279" stroke="#6B7279"/><text font-size="11.000612052730697" fill="black"><tspan x="4" y="61.07142857142857">Unix Shell</tspan></text></g></g><g class="tactic-label"><text font-size="12" fill="black" font-weight="bold"><tspan text-anchor="middle" x="79.77966101694915" y="61.07142857142857">Execution</tspan></text></g></g><g class="tactic persistence" transform="translate(354.57627118644064, 0)"><g class="techniques"><g class="technique T1543" transform="translate(0, 115.14285714285714)"><rect class="cell" height="115.14285714285714" width="159.5593220338983" fill="#c6dbef" stroke="#6B7279"/><polygon class="sidebar" transform="translate(0, 115.14285714285714)" points="0,0 12,0 12,12" fill="#6B7279" visibility="visible"/><text font-size="11.000612052730697" fill="black"><tspan x="4" y="53.82142857142857">Create or Modify</tspan><tspan x="4" y="68.32142857142857">System Process</tspan></text></g></g><g class="subtechniques"><g class="subtechnique T1543.002" transform="translate(15, 230.28571428571428)"><rect class="cell" height="115.14285714285714" width="144.5593220338983" fill="#c6dbef" stroke="#6B7279"/><rect class="cell" height="115.14285714285714" width="3" transform="translate(-3, 0)" fill="#6B7279" stroke="#6B7279"/><text font-size="11.000612052730697" fill="black"><tspan x="4" y="61.07142857142857">Systemd Service</tspan></text></g></g><g class="tactic-label"><text font-size="12" fill="black" font-weight="bold"><tspan text-anchor="middle" x="79.77966101694915" y="61.07142857142857">Persistence</tspan></text></g></g><g class="tactic defense-evasion" transform="translate(531.864406779661, 0)"><g class="techniques"><g class="technique T1222" transform="translate(0, 115.14285714285714)"><rect class="cell" height="115.14285714285714" width="159.5593220338983" fill="#c6dbef" stroke="#6B7279"/><polygon class="sidebar" transform="translate(0, 115.14285714285714)" points="0,0 12,0 12,12" fill="#6B7279" visibility="visible"/><text font-size="11.000612052730697" fill="black"><tspan x="4" y="46.4047619047619">File and Directory</tspan><tspan x="4" y="61.07142857142857">Permissions</tspan><tspan x="4" y="75.73809523809524">Modification</tspan></text></g><g class="technique T1070" transform="translate(0, 345.4285714285714)"><rect class="cell" height="115.14285714285714" width="159.5593220338983" fill="#c6dbef" stroke="#6B7279"/><polygon class="sidebar" transform="translate(0, 115.14285714285714)" points="0,0 12,0 12,12" fill="#6B7279" visibility="visible"/><text font-size="11.000612052730697" fill="black"><tspan x="4" y="61.07142857142857">Indicator Removal</tspan></text></g></g><g class="subtechniques"><g class="subtechnique T1222.002" transform="translate(15, 230.28571428571428)"><rect class="cell" height="115.14285714285714" width="144.5593220338983" fill="#c6dbef" stroke="#6B7279"/><rect class="cell" height="115.14285714285714" width="3" transform="translate(-3, 0)" fill="#6B7279" stroke="#6B7279"/><text font-size="11.000612052730697" fill="black"><tspan x="4" y="38.94642857142857">Linux and Mac</tspan><tspan x="4" y="53.69642857142857">File and Directory</tspan><tspan x="4" y="68.44642857142857">Permissions</tspan><tspan x="4" y="83.19642857142857">Modification</tspan></text></g><g class="subtechnique T1070.003" transform="translate(15, 460.57142857142856)"><rect class="cell" height="115.14285714285714" width="144.5593220338983" fill="#c6dbef" stroke="#6B7279"/><rect class="cell" height="115.14285714285714" width="3" transform="translate(-3, 0)" fill="#6B7279" stroke="#6B7279"/><text font-size="11.000612052730697" fill="black"><tspan x="4" y="53.82142857142857">Clear</tspan><tspan x="4" y="68.32142857142857">Command History</tspan></text></g><g class="subtechnique T1070.002" transform="translate(15, 575.7142857142858)"><rect class="cell" height="115.14285714285714" width="144.5593220338983" fill="#c6dbef" stroke="#6B7279"/><rect class="cell" height="115.14285714285714" width="3" transform="translate(-3, 0)" fill="#6B7279" stroke="#6B7279"/><text font-size="11.000612052730697" fill="black"><tspan x="4" y="53.82142857142857">Clear Linux or</tspan><tspan x="4" y="68.32142857142857">Mac System Logs</tspan></text></g><g class="subtechnique T1070.004" transform="translate(15, 690.8571428571428)"><rect class="cell" height="115.14285714285714" width="144.5593220338983" fill="#c6dbef" stroke="#6B7279"/><rect class="cell" height="115.14285714285714" width="3" transform="translate(-3, 0)" fill="#6B7279" stroke="#6B7279"/><text font-size="11.000612052730697" fill="black"><tspan x="4" y="61.07142857142857">File Deletion</tspan></text></g></g><g class="tactic-label"><text font-size="12" fill="black" font-weight="bold"><tspan text-anchor="middle" x="79.77966101694915" y="61.07142857142857">Defense Evasion</tspan></text></g></g><g class="tactic discovery" transform="translate(709.1525423728813, 0)"><g class="techniques"><g class="technique T1083" transform="translate(0, 115.14285714285714)"><rect class="cell" height="115.14285714285714" width="159.5593220338983" fill="#c6dbef" stroke="#6B7279"/><polygon class="sidebar" transform="translate(0, 115.14285714285714)" points="0,0 12,0 12,0" fill="#6B7279" visibility="hidden"/><text font-size="11.000612052730697" fill="black"><tspan x="4" y="53.82142857142857">File and Directory</tspan><tspan x="4" y="68.32142857142857">Discovery</tspan></text></g><g class="technique T1057" transform="translate(0, 230.28571428571428)"><rect class="cell" height="115.14285714285714" width="159.5593220338983" fill="#c6dbef" stroke="#6B7279"/><polygon class="sidebar" transform="translate(0, 115.14285714285714)" points="0,0 12,0 12,0" fill="#6B7279" visibility="hidden"/><text font-size="11.000612052730697" fill="black"><tspan x="4" y="61.07142857142857">Process Discovery</tspan></text></g><g class="technique T1082" transform="translate(0, 345.4285714285714)"><rect class="cell" height="115.14285714285714" width="159.5593220338983" fill="#c6dbef" stroke="#6B7279"/><polygon class="sidebar" transform="translate(0, 115.14285714285714)" points="0,0 12,0 12,0" fill="#6B7279" visibility="hidden"/><text font-size="11.000612052730697" fill="black"><tspan x="4" y="53.82142857142857">System Information</tspan><tspan x="4" y="68.32142857142857">Discovery</tspan></text></g><g class="technique T1007" transform="translate(0, 460.57142857142856)"><rect class="cell" height="115.14285714285714" width="159.5593220338983" fill="#c6dbef" stroke="#6B7279"/><polygon class="sidebar" transform="translate(0, 115.14285714285714)" points="0,0 12,0 12,0" fill="#6B7279" visibility="hidden"/><text font-size="11.000612052730697" fill="black"><tspan x="4" y="53.82142857142857">System</tspan><tspan x="4" y="68.32142857142857">Service Discovery</tspan></text></g></g><g class="subtechniques"/><g class="tactic-label"><text font-size="12" fill="black" font-weight="bold"><tspan text-anchor="middle" x="79.77966101694915" y="61.07142857142857">Discovery</tspan></text></g></g><g class="tactic impact" transform="translate(886.4406779661016, 0)"><g class="techniques"><g class="technique T1486" transform="translate(0, 115.14285714285714)"><rect class="cell" height="115.14285714285714" width="159.5593220338983" fill="#c6dbef" stroke="#6B7279"/><polygon class="sidebar" transform="translate(0, 115.14285714285714)" points="0,0 12,0 12,0" fill="#6B7279" visibility="hidden"/><text font-size="11.000612052730697" fill="black"><tspan x="4" y="53.82142857142857">Data Encrypted</tspan><tspan x="4" y="68.32142857142857">for Impact</tspan></text></g><g class="technique T1565" transform="translate(0, 230.28571428571428)"><rect class="cell" height="115.14285714285714" width="159.5593220338983" fill="#c6dbef" stroke="#6B7279"/><polygon class="sidebar" transform="translate(0, 115.14285714285714)" points="0,0 12,0 12,12" fill="#6B7279" visibility="visible"/><text font-size="11.000612052730697" fill="black"><tspan x="4" y="61.07142857142857">Data Manipulation</tspan></text></g><g class="technique T1489" transform="translate(0, 460.57142857142856)"><rect class="cell" height="115.14285714285714" width="159.5593220338983" fill="#c6dbef" stroke="#6B7279"/><polygon class="sidebar" transform="translate(0, 115.14285714285714)" points="0,0 12,0 12,0" fill="#6B7279" visibility="hidden"/><text font-size="11.000612052730697" fill="black"><tspan x="4" y="61.07142857142857">Service Stop</tspan></text></g></g><g class="subtechniques"><g class="subtechnique T1565.001" transform="translate(15, 345.4285714285714)"><rect class="cell" height="115.14285714285714" width="144.5593220338983" fill="#c6dbef" stroke="#6B7279"/><rect class="cell" height="115.14285714285714" width="3" transform="translate(-3, 0)" fill="#6B7279" stroke="#6B7279"/><text font-size="11.000612052730697" fill="black"><tspan x="4" y="53.82142857142857">Stored Data</tspan><tspan x="4" y="68.32142857142857">Manipulation</tspan></text></g></g><g class="tactic-label"><text font-size="12" fill="black" font-weight="bold"><tspan text-anchor="middle" x="79.77966101694915" y="61.07142857142857">Impact</tspan></text></g></g></g></g></g></svg>