<?xml version="1.0" standalone="no"?>
<svg width="1056" height="816" xmlns="http://www.w3.org/2000/svg" id="svgvm0"><g transform="translate(5,5)" style="font-family: sans-serif;"><g transform="translate(0,1)"><g><g class="tactic initial-access" transform="translate(0, 0)"><g class="techniques"><g class="technique T1133" transform="translate(0, 134.33333333333331)"><rect class="cell" height="134.33333333333331" width="136.43478260869566" fill="#d9d9d9" stroke="#6B7279"/><polygon class="sidebar" transform="translate(0, 134.33333333333331)" points="0,0 12,0 12,0" fill="#6B7279" visibility="hidden"/><text font-size="10.346135265700484" fill="black"><tspan x="4" y="63.41666666666666">External</tspan><tspan x="4" y="77.91666666666666">Remote Services</tspan></text></g></g><g class="subtechniques"/><g class="tactic-label"><text font-size="12" fill="black" font-weight="bold"><tspan text-anchor="middle" x="68.21739130434783" y="70.66666666666666">Initial Access</tspan></text></g></g><g class="tactic execution" transform="translate(151.59420289855072, 0)"><g class="techniques"><g class="technique T1059" transform="translate(0, 134.33333333333331)"><rect class="cell" height="134.33333333333331" width="136.43478260869566" fill="#d9d9d9" stroke="#6B7279"/><polygon class="sidebar" transform="translate(0, 134.33333333333331)" points="0,0 12,0 12,12" fill="#6B7279" visibility="visible"/><text font-size="10.346135265700484" fill="black"><tspan x="4" y="55.999999999999986">Command</tspan><tspan x="4" y="70.66666666666666">and Scripting</tspan><tspan x="4" y="85.33333333333331">Interpreter</tspan></text></g><g class="technique T1204" transform="translate(0, 403)"><rect class="cell" height="134.33333333333331" width="136.43478260869566" fill="#d9d9d9" stroke="#6B7279"/><polygon class="sidebar" transform="translate(0, 134.33333333333331)" points="0,0 12,0 12,12" fill="#6B7279" visibility="visible"/><text font-size="10.346135265700484" fill="black"><tspan x="4" y="70.66666666666666">User Execution</tspan></text></g></g><g class="subtechniques"><g class="subtechnique T1059.003" transform="translate(15, 268.66666666666663)"><rect class="cell" height="134.33333333333331" width="121.43478260869566" fill="#d9d9d9" stroke="#6B7279"/><rect class="cell" height="134.33333333333331" width="3" transform="translate(-3, 0)" fill="#6B7279" stroke="#6B7279"/><text font-size="10.346135265700484" fill="black"><tspan x="4" y="63.41666666666666">Windows</tspan><tspan x="4" y="77.91666666666666">Command Shell</tspan></text></g><g class="subtechnique T1204.002" transform="translate(15, 537.3333333333333)"><rect class="cell" height="134.33333333333331" width="121.43478260869566" fill="#d9d9d9" stroke="#6B7279"/><rect class="cell" height="134.33333333333331" width="3" transform="translate(-3, 0)" fill="#6B7279" stroke="#6B7279"/><text font-size="10.346135265700484" fill="black"><tspan x="4" y="63.41666666666666">Malicious</tspan><tspan x="4" y="77.91666666666666">File</tspan></text></g></g><g class="tactic-label"><text font-size="12" fill="black" font-weight="bold"><tspan text-anchor="middle" x="68.21739130434783" y="70.66666666666666">Execution</tspan></text></g></g><g class="tactic persistence" transform="translate(303.18840579710144, 0)"><g class="techniques"><g class="technique T1547" transform="translate(0, 134.33333333333331)"><rect class="cell" height="134.33333333333331" width="136.43478260869566" fill="#d9d9d9" stroke="#6B7279"/><polygon class="sidebar" transform="translate(0, 134.33333333333331)" points="0,0 12,0 12,12" fill="#6B7279" visibility="visible"/><text font-size="10.346135265700484" fill="black"><tspan x="4" y="55.999999999999986">Boot or</tspan><tspan x="4" y="70.66666666666666">Logon Autostart</tspan><tspan x="4" y="85.33333333333331">Execution</tspan></text></g><g class="technique T1133" transform="translate(0, 403)"><rect class="cell" height="134.33333333333331" width="136.43478260869566" fill="#d9d9d9" stroke="#6B7279"/><polygon class="sidebar" transform="translate(0, 134.33333333333331)" points="0,0 12,0 12,0" fill="#6B7279" visibility="hidden"/><text font-size="10.346135265700484" fill="black"><tspan x="4" y="63.41666666666666">External</tspan><tspan x="4" y="77.91666666666666">Remote Services</tspan></text></g></g><g class="subtechniques"><g class="subtechnique T1547.001" transform="translate(15, 268.66666666666663)"><rect class="cell" height="134.33333333333331" width="121.43478260869566" fill="#d9d9d9" stroke="#6B7279"/><rect class="cell" height="134.33333333333331" width="3" transform="translate(-3, 0)" fill="#6B7279" stroke="#6B7279"/><text font-size="10.346135265700484" fill="black"><tspan x="4" y="48.54166666666666">Registry</tspan><tspan x="4" y="63.29166666666666">Run Keys</tspan><tspan x="4" y="78.04166666666666">/ Startup</tspan><tspan x="4" y="92.79166666666666">Folder</tspan></text></g></g><g class="tactic-label"><text font-size="12" fill="black" font-weight="bold"><tspan text-anchor="middle" x="68.21739130434783" y="70.66666666666666">Persistence</tspan></text></g></g><g class="tactic privilege-escalation" transform="translate(454.78260869565213, 0)"><g class="techniques"><g class="technique T1547" transform="translate(0, 134.33333333333331)"><rect class="cell" height="134.33333333333331" width="136.43478260869566" fill="#d9d9d9" stroke="#6B7279"/><polygon class="sidebar" transform="translate(0, 134.33333333333331)" points="0,0 12,0 12,12" fill="#6B7279" visibility="visible"/><text font-size="10.346135265700484" fill="black"><tspan x="4" y="55.999999999999986">Boot or</tspan><tspan x="4" y="70.66666666666666">Logon Autostart</tspan><tspan x="4" y="85.33333333333331">Execution</tspan></text></g></g><g class="subtechniques"><g class="subtechnique T1547.001" transform="translate(15, 268.66666666666663)"><rect class="cell" height="134.33333333333331" width="121.43478260869566" fill="#d9d9d9" stroke="#6B7279"/><rect class="cell" height="134.33333333333331" width="3" transform="translate(-3, 0)" fill="#6B7279" stroke="#6B7279"/><text font-size="10.346135265700484" fill="black"><tspan x="4" y="48.54166666666666">Registry</tspan><tspan x="4" y="63.29166666666666">Run Keys</tspan><tspan x="4" y="78.04166666666666">/ Startup</tspan><tspan x="4" y="92.79166666666666">Folder</tspan></text></g></g><g class="tactic-label"><text font-size="12" fill="black" font-weight="bold"><tspan text-anchor="middle" x="68.21739130434783" y="63.41666666666666">Privilege</tspan><tspan text-anchor="middle" x="68.21739130434783" y="77.91666666666666">Escalation</tspan></text></g></g><g class="tactic defense-evasion" transform="translate(606.3768115942029, 0)"><g class="techniques"><g class="technique T1140" transform="translate(0, 134.33333333333331)"><rect class="cell" height="134.33333333333331" width="136.43478260869566" fill="#d9d9d9" stroke="#6B7279"/><polygon class="sidebar" transform="translate(0, 134.33333333333331)" points="0,0 12,0 12,0" fill="#6B7279" visibility="hidden"/><text font-size="10.346135265700484" fill="black"><tspan x="4" y="55.999999999999986">Deobfuscate/Decode</tspan><tspan x="4" y="70.66666666666666">Files</tspan><tspan x="4" y="85.33333333333331">or Information</tspan></text></g><g class="technique T1027" transform="translate(0, 268.66666666666663)"><rect class="cell" height="134.33333333333331" width="136.43478260869566" fill="#d9d9d9" stroke="#6B7279"/><polygon class="sidebar" transform="translate(0, 134.33333333333331)" points="0,0 12,0 12,12" fill="#6B7279" visibility="visible"/><text font-size="10.346135265700484" fill="black"><tspan x="4" y="55.999999999999986">Obfuscated</tspan><tspan x="4" y="70.66666666666666">Files</tspan><tspan x="4" y="85.33333333333331">or Information</tspan></text></g></g><g class="subtechniques"><g class="subtechnique T1027.001" transform="translate(15, 403)"><rect class="cell" height="134.33333333333331" width="121.43478260869566" fill="#d9d9d9" stroke="#6B7279"/><rect class="cell" height="134.33333333333331" width="3" transform="translate(-3, 0)" fill="#6B7279" stroke="#6B7279"/><text font-size="10.346135265700484" fill="black"><tspan x="4" y="63.41666666666666">Binary</tspan><tspan x="4" y="77.91666666666666">Padding</tspan></text></g><g class="subtechnique T1027.007" transform="translate(15, 537.3333333333333)"><rect class="cell" height="134.33333333333331" width="121.43478260869566" fill="#d9d9d9" stroke="#6B7279"/><rect class="cell" height="134.33333333333331" width="3" transform="translate(-3, 0)" fill="#6B7279" stroke="#6B7279"/><text font-size="10.346135265700484" fill="black"><tspan x="4" y="63.41666666666666">Dynamic API</tspan><tspan x="4" y="77.91666666666666">Resolution</tspan></text></g><g class="subtechnique T1027.002" transform="translate(15, 671.6666666666667)"><rect class="cell" height="134.33333333333331" width="121.43478260869566" fill="#d9d9d9" stroke="#6B7279"/><rect class="cell" height="134.33333333333331" width="3" transform="translate(-3, 0)" fill="#6B7279" stroke="#6B7279"/><text font-size="10.346135265700484" fill="black"><tspan x="4" y="63.41666666666666">Software</tspan><tspan x="4" y="77.91666666666666">Packing</tspan></text></g></g><g class="tactic-label"><text font-size="12" fill="black" font-weight="bold"><tspan text-anchor="middle" x="68.21739130434783" y="70.66666666666666">Defense Evasion</tspan></text></g></g><g class="tactic discovery" transform="translate(757.9710144927536, 0)"><g class="techniques"><g class="technique T1083" transform="translate(0, 134.33333333333331)"><rect class="cell" height="134.33333333333331" width="136.43478260869566" fill="#d9d9d9" stroke="#6B7279"/><polygon class="sidebar" transform="translate(0, 134.33333333333331)" points="0,0 12,0 12,0" fill="#6B7279" visibility="hidden"/><text font-size="10.346135265700484" fill="black"><tspan x="4" y="55.999999999999986">File</tspan><tspan x="4" y="70.66666666666666">and Directory</tspan><tspan x="4" y="85.33333333333331">Discovery</tspan></text></g><g class="technique T1135" transform="translate(0, 268.66666666666663)"><rect class="cell" height="134.33333333333331" width="136.43478260869566" fill="#d9d9d9" stroke="#6B7279"/><polygon class="sidebar" transform="translate(0, 134.33333333333331)" points="0,0 12,0 12,0" fill="#6B7279" visibility="hidden"/><text font-size="10.346135265700484" fill="black"><tspan x="4" y="63.41666666666666">Network</tspan><tspan x="4" y="77.91666666666666">Share Discovery</tspan></text></g><g class="technique T1057" transform="translate(0, 403)"><rect class="cell" height="134.33333333333331" width="136.43478260869566" fill="#d9d9d9" stroke="#6B7279"/><polygon class="sidebar" transform="translate(0, 134.33333333333331)" points="0,0 12,0 12,0" fill="#6B7279" visibility="hidden"/><text font-size="10.346135265700484" fill="black"><tspan x="4" y="63.41666666666666">Process</tspan><tspan x="4" y="77.91666666666666">Discovery</tspan></text></g><g class="technique T1012" transform="translate(0, 537.3333333333333)"><rect class="cell" height="134.33333333333331" width="136.43478260869566" fill="#d9d9d9" stroke="#6B7279"/><polygon class="sidebar" transform="translate(0, 134.33333333333331)" points="0,0 12,0 12,0" fill="#6B7279" visibility="hidden"/><text font-size="10.346135265700484" fill="black"><tspan x="4" y="70.66666666666666">Query Registry</tspan></text></g><g class="technique T1082" transform="translate(0, 671.6666666666667)"><rect class="cell" height="134.33333333333331" width="136.43478260869566" fill="#d9d9d9" stroke="#6B7279"/><polygon class="sidebar" transform="translate(0, 134.33333333333331)" points="0,0 12,0 12,0" fill="#6B7279" visibility="hidden"/><text font-size="10.346135265700484" fill="black"><tspan x="4" y="55.999999999999986">System</tspan><tspan x="4" y="70.66666666666666">Information</tspan><tspan x="4" y="85.33333333333331">Discovery</tspan></text></g></g><g class="subtechniques"/><g class="tactic-label"><text font-size="12" fill="black" font-weight="bold"><tspan text-anchor="middle" x="68.21739130434783" y="70.66666666666666">Discovery</tspan></text></g></g><g class="tactic impact" transform="translate(909.5652173913043, 0)"><g class="techniques"><g class="technique T1486" transform="translate(0, 134.33333333333331)"><rect class="cell" height="134.33333333333331" width="136.43478260869566" fill="#d9d9d9" stroke="#6B7279"/><polygon class="sidebar" transform="translate(0, 134.33333333333331)" points="0,0 12,0 12,0" fill="#6B7279" visibility="hidden"/><text font-size="10.346135265700484" fill="black"><tspan x="4" y="63.41666666666666">Data Encrypted</tspan><tspan x="4" y="77.91666666666666">for Impact</tspan></text></g></g><g class="subtechniques"/><g class="tactic-label"><text font-size="12" fill="black" font-weight="bold"><tspan text-anchor="middle" x="68.21739130434783" y="70.66666666666666">Impact</tspan></text></g></g></g></g></g></svg>