<?xml version="1.0" standalone="no"?>
<svg width="1440" height="864" xmlns="http://www.w3.org/2000/svg" id="svgvm0"><g transform="translate(5,5)" style="font-family: sans-serif;"><g transform="translate(0,1)"><g><g class="tactic initial-access" transform="translate(0, 0)"><g class="techniques"><g class="technique T1189" transform="translate(0, 142.33333333333331)"><rect class="cell" height="142.33333333333331" width="186.52173913043478" fill="#dadaeb" stroke="#6B7279"/><polygon class="sidebar" transform="translate(0, 142.33333333333331)" points="0,0 12,0 12,0" fill="#6B7279" visibility="hidden"/><text font-size="12" fill="black"><tspan x="4" y="74.66666666666666">Drive-by Compromise</tspan></text></g><g class="technique T1190" transform="translate(0, 284.66666666666663)"><rect class="cell" height="142.33333333333331" width="186.52173913043478" fill="#dadaeb" stroke="#6B7279"/><polygon class="sidebar" transform="translate(0, 142.33333333333331)" points="0,0 12,0 12,0" fill="#6B7279" visibility="hidden"/><text font-size="12" fill="black"><tspan x="4" y="67.41666666666666">Exploit Public-Facing</tspan><tspan x="4" y="81.91666666666666">Application</tspan></text></g></g><g class="subtechniques"/><g class="tactic-label"><text font-size="12" fill="black" font-weight="bold"><tspan text-anchor="middle" x="93.26086956521739" y="74.66666666666666">Initial Access</tspan></text></g></g><g class="tactic execution" transform="translate(207.2463768115942, 0)"><g class="techniques"><g class="technique T1059" transform="translate(0, 142.33333333333331)"><rect class="cell" height="142.33333333333331" width="186.52173913043478" fill="#dadaeb" stroke="#6B7279"/><polygon class="sidebar" transform="translate(0, 142.33333333333331)" points="0,0 12,0 12,12" fill="#6B7279" visibility="visible"/><text font-size="12" fill="black"><tspan x="4" y="67.41666666666666">Command and</tspan><tspan x="4" y="81.91666666666666">Scripting Interpreter</tspan></text></g><g class="technique T1106" transform="translate(0, 427)"><rect class="cell" height="142.33333333333331" width="186.52173913043478" fill="#dadaeb" stroke="#6B7279"/><polygon class="sidebar" transform="translate(0, 142.33333333333331)" points="0,0 12,0 12,0" fill="#6B7279" visibility="hidden"/><text font-size="12" fill="black"><tspan x="4" y="74.66666666666666">Native API</tspan></text></g><g class="technique T1204" transform="translate(0, 569.3333333333333)"><rect class="cell" height="142.33333333333331" width="186.52173913043478" fill="#dadaeb" stroke="#6B7279"/><polygon class="sidebar" transform="translate(0, 142.33333333333331)" points="0,0 12,0 12,12" fill="#6B7279" visibility="visible"/><text font-size="12" fill="black"><tspan x="4" y="74.66666666666666">User Execution</tspan></text></g></g><g class="subtechniques"><g class="subtechnique T1059.003" transform="translate(15, 284.66666666666663)"><rect class="cell" height="142.33333333333331" width="171.52173913043478" fill="white" stroke="#6B7279"/><rect class="cell" height="142.33333333333331" width="3" transform="translate(-3, 0)" fill="#6B7279" stroke="#6B7279"/><text font-size="12" fill="black"><tspan x="4" y="67.41666666666666">Windows</tspan><tspan x="4" y="81.91666666666666">Command Shell</tspan></text></g><g class="subtechnique T1204.002" transform="translate(15, 711.6666666666667)"><rect class="cell" height="142.33333333333331" width="171.52173913043478" fill="white" stroke="#6B7279"/><rect class="cell" height="142.33333333333331" width="3" transform="translate(-3, 0)" fill="#6B7279" stroke="#6B7279"/><text font-size="12" fill="black"><tspan x="4" y="74.66666666666666">Malicious File</tspan></text></g></g><g class="tactic-label"><text font-size="12" fill="black" font-weight="bold"><tspan text-anchor="middle" x="93.26086956521739" y="74.66666666666666">Execution</tspan></text></g></g><g class="tactic defense-evasion" transform="translate(414.4927536231884, 0)"><g class="techniques"><g class="technique T1140" transform="translate(0, 142.33333333333331)"><rect class="cell" height="142.33333333333331" width="186.52173913043478" fill="#dadaeb" stroke="#6B7279"/><polygon class="sidebar" transform="translate(0, 142.33333333333331)" points="0,0 12,0 12,0" fill="#6B7279" visibility="hidden"/><text font-size="12" fill="black"><tspan x="4" y="67.41666666666666">Deobfuscate/Decode</tspan><tspan x="4" y="81.91666666666666">Files or Information</tspan></text></g><g class="technique T1564" transform="translate(0, 284.66666666666663)"><rect class="cell" height="142.33333333333331" width="186.52173913043478" fill="#dadaeb" stroke="#6B7279"/><polygon class="sidebar" transform="translate(0, 142.33333333333331)" points="0,0 12,0 12,0" fill="#6B7279" visibility="hidden"/><text font-size="12" fill="black"><tspan x="4" y="74.66666666666666">Hide Artifacts</tspan></text></g><g class="technique T1027" transform="translate(0, 427)"><rect class="cell" height="142.33333333333331" width="186.52173913043478" fill="#dadaeb" stroke="#6B7279"/><polygon class="sidebar" transform="translate(0, 142.33333333333331)" points="0,0 12,0 12,12" fill="#6B7279" visibility="visible"/><text font-size="12" fill="black"><tspan x="4" y="67.41666666666666">Obfuscated</tspan><tspan x="4" y="81.91666666666666">Files or Information</tspan></text></g></g><g class="subtechniques"><g class="subtechnique T1027.002" transform="translate(15, 569.3333333333333)"><rect class="cell" height="142.33333333333331" width="171.52173913043478" fill="white" stroke="#6B7279"/><rect class="cell" height="142.33333333333331" width="3" transform="translate(-3, 0)" fill="#6B7279" stroke="#6B7279"/><text font-size="12" fill="black"><tspan x="4" y="74.66666666666666">Software Packing</tspan></text></g></g><g class="tactic-label"><text font-size="12" fill="black" font-weight="bold"><tspan text-anchor="middle" x="93.26086956521739" y="74.66666666666666">Defense Evasion</tspan></text></g></g><g class="tactic credential-access" transform="translate(621.7391304347825, 0)"><g class="techniques"><g class="technique T1555" transform="translate(0, 142.33333333333331)"><rect class="cell" height="142.33333333333331" width="186.52173913043478" fill="#dadaeb" stroke="#6B7279"/><polygon class="sidebar" transform="translate(0, 142.33333333333331)" points="0,0 12,0 12,0" fill="#6B7279" visibility="hidden"/><text font-size="12" fill="black"><tspan x="4" y="67.41666666666666">Credentials</tspan><tspan x="4" y="81.91666666666666">from Password Stores</tspan></text></g></g><g class="subtechniques"/><g class="tactic-label"><text font-size="12" fill="black" font-weight="bold"><tspan text-anchor="middle" x="93.26086956521739" y="74.66666666666666">Credential Access</tspan></text></g></g><g class="tactic discovery" transform="translate(828.9855072463768, 0)"><g class="techniques"><g class="technique T1083" transform="translate(0, 142.33333333333331)"><rect class="cell" height="142.33333333333331" width="186.52173913043478" fill="#dadaeb" stroke="#6B7279"/><polygon class="sidebar" transform="translate(0, 142.33333333333331)" points="0,0 12,0 12,0" fill="#6B7279" visibility="hidden"/><text font-size="12" fill="black"><tspan x="4" y="67.41666666666666">File and</tspan><tspan x="4" y="81.91666666666666">Directory Discovery</tspan></text></g><g class="technique T1135" transform="translate(0, 284.66666666666663)"><rect class="cell" height="142.33333333333331" width="186.52173913043478" fill="#dadaeb" stroke="#6B7279"/><polygon class="sidebar" transform="translate(0, 142.33333333333331)" points="0,0 12,0 12,0" fill="#6B7279" visibility="hidden"/><text font-size="12" fill="black"><tspan x="4" y="67.41666666666666">Network</tspan><tspan x="4" y="81.91666666666666">Share Discovery</tspan></text></g><g class="technique T1082" transform="translate(0, 427)"><rect class="cell" height="142.33333333333331" width="186.52173913043478" fill="#dadaeb" stroke="#6B7279"/><polygon class="sidebar" transform="translate(0, 142.33333333333331)" points="0,0 12,0 12,0" fill="#6B7279" visibility="hidden"/><text font-size="12" fill="black"><tspan x="4" y="67.41666666666666">System</tspan><tspan x="4" y="81.91666666666666">Information Discovery</tspan></text></g></g><g class="subtechniques"/><g class="tactic-label"><text font-size="12" fill="black" font-weight="bold"><tspan text-anchor="middle" x="93.26086956521739" y="74.66666666666666">Discovery</tspan></text></g></g><g class="tactic collection" transform="translate(1036.231884057971, 0)"><g class="techniques"><g class="technique T1005" transform="translate(0, 142.33333333333331)"><rect class="cell" height="142.33333333333331" width="186.52173913043478" fill="#dadaeb" stroke="#6B7279"/><polygon class="sidebar" transform="translate(0, 142.33333333333331)" points="0,0 12,0 12,0" fill="#6B7279" visibility="hidden"/><text font-size="12" fill="black"><tspan x="4" y="67.41666666666666">Data</tspan><tspan x="4" y="81.91666666666666">from Local System</tspan></text></g><g class="technique T1039" transform="translate(0, 284.66666666666663)"><rect class="cell" height="142.33333333333331" width="186.52173913043478" fill="#dadaeb" stroke="#6B7279"/><polygon class="sidebar" transform="translate(0, 142.33333333333331)" points="0,0 12,0 12,0" fill="#6B7279" visibility="hidden"/><text font-size="12" fill="black"><tspan x="4" y="67.41666666666666">Data from</tspan><tspan x="4" y="81.91666666666666">Network Shared Drive</tspan></text></g></g><g class="subtechniques"/><g class="tactic-label"><text font-size="12" fill="black" font-weight="bold"><tspan text-anchor="middle" x="93.26086956521739" y="74.66666666666666">Collection</tspan></text></g></g><g class="tactic impact" transform="translate(1243.478260869565, 0)"><g class="techniques"><g class="technique T1486" transform="translate(0, 142.33333333333331)"><rect class="cell" height="142.33333333333331" width="186.52173913043478" fill="#dadaeb" stroke="#6B7279"/><polygon class="sidebar" transform="translate(0, 142.33333333333331)" points="0,0 12,0 12,0" fill="#6B7279" visibility="hidden"/><text font-size="12" fill="black"><tspan x="4" y="67.41666666666666">Data</tspan><tspan x="4" y="81.91666666666666">Encrypted for Impact</tspan></text></g><g class="technique T1490" transform="translate(0, 284.66666666666663)"><rect class="cell" height="142.33333333333331" width="186.52173913043478" fill="#dadaeb" stroke="#6B7279"/><polygon class="sidebar" transform="translate(0, 142.33333333333331)" points="0,0 12,0 12,0" fill="#6B7279" visibility="hidden"/><text font-size="12" fill="black"><tspan x="4" y="67.41666666666666">Inhibit</tspan><tspan x="4" y="81.91666666666666">System Recovery</tspan></text></g><g class="technique T1489" transform="translate(0, 427)"><rect class="cell" height="142.33333333333331" width="186.52173913043478" fill="#dadaeb" stroke="#6B7279"/><polygon class="sidebar" transform="translate(0, 142.33333333333331)" points="0,0 12,0 12,0" fill="#6B7279" visibility="hidden"/><text font-size="12" fill="black"><tspan x="4" y="74.66666666666666">Service Stop</tspan></text></g></g><g class="subtechniques"/><g class="tactic-label"><text font-size="12" fill="black" font-weight="bold"><tspan text-anchor="middle" x="93.26086956521739" y="74.66666666666666">Impact</tspan></text></g></g></g></g></g></svg>