<?xml version="1.0" standalone="no"?>
<svg width="1056" height="816" xmlns="http://www.w3.org/2000/svg" id="svgvm0"><g transform="translate(5,5)" style="font-family: sans-serif;"><g transform="translate(0,1)"><g><g class="tactic initial-access" transform="translate(0, 0)"><g class="techniques"><g class="technique T1566" transform="translate(0, 161.20000000000002)"><rect class="cell" height="161.20000000000002" width="136.43478260869566" fill="#c6dbef" stroke="#6B7279"/><polygon class="sidebar" transform="translate(0, 161.20000000000002)" points="0,0 12,0 12,12" fill="#6B7279" visibility="visible"/><text font-size="10.346135265700484" fill="black"><tspan x="4" y="84.10000000000001">T1566: Phishing</tspan></text></g></g><g class="subtechniques"><g class="subtechnique T1566.001" transform="translate(15, 322.40000000000003)"><rect class="cell" height="161.20000000000002" width="121.43478260869566" fill="#c6dbef" stroke="#6B7279"/><rect class="cell" height="161.20000000000002" width="3" transform="translate(-3, 0)" fill="#6B7279" stroke="#6B7279"/><text font-size="10.346135265700484" fill="black"><tspan x="4" y="69.43333333333334">T1566.001:</tspan><tspan x="4" y="84.10000000000001">Spearphishing</tspan><tspan x="4" y="98.76666666666668">Attachment</tspan></text></g></g><g class="tactic-label"><text font-size="12" fill="black" font-weight="bold"><tspan text-anchor="middle" x="68.21739130434783" y="84.10000000000001">Initial Access</tspan></text></g></g><g class="tactic execution" transform="translate(151.59420289855072, 0)"><g class="techniques"><g class="technique T1059" transform="translate(0, 161.20000000000002)"><rect class="cell" height="161.20000000000002" width="136.43478260869566" fill="#c6dbef" stroke="#6B7279"/><polygon class="sidebar" transform="translate(0, 161.20000000000002)" points="0,0 12,0 12,12" fill="#6B7279" visibility="visible"/><text font-size="10.346135265700484" fill="black"><tspan x="4" y="69.43333333333334">T1059: Command</tspan><tspan x="4" y="84.10000000000001">and Scripting</tspan><tspan x="4" y="98.76666666666668">Interpreter</tspan></text></g></g><g class="subtechniques"><g class="subtechnique T1059.007" transform="translate(15, 322.40000000000003)"><rect class="cell" height="161.20000000000002" width="121.43478260869566" fill="#c6dbef" stroke="#6B7279"/><rect class="cell" height="161.20000000000002" width="3" transform="translate(-3, 0)" fill="#6B7279" stroke="#6B7279"/><text font-size="10.346135265700484" fill="black"><tspan x="4" y="76.85000000000001">T1059.007:</tspan><tspan x="4" y="91.35000000000001">JavaScript</tspan></text></g></g><g class="tactic-label"><text font-size="12" fill="black" font-weight="bold"><tspan text-anchor="middle" x="68.21739130434783" y="84.10000000000001">Execution</tspan></text></g></g><g class="tactic defense-evasion" transform="translate(303.18840579710144, 0)"><g class="techniques"><g class="technique T1140" transform="translate(0, 161.20000000000002)"><rect class="cell" height="161.20000000000002" width="136.43478260869566" fill="#c6dbef" stroke="#6B7279"/><polygon class="sidebar" transform="translate(0, 161.20000000000002)" points="0,0 12,0 12,0" fill="#6B7279" visibility="hidden"/><text font-size="10.346135265700484" fill="black"><tspan x="4" y="61.97500000000001">T1140:</tspan><tspan x="4" y="76.72500000000001">Deobfuscate/Decode</tspan><tspan x="4" y="91.47500000000001">Files</tspan><tspan x="4" y="106.22500000000001">or Information</tspan></text></g></g><g class="subtechniques"/><g class="tactic-label"><text font-size="12" fill="black" font-weight="bold"><tspan text-anchor="middle" x="68.21739130434783" y="84.10000000000001">Defense Evasion</tspan></text></g></g><g class="tactic credential-access" transform="translate(454.78260869565213, 0)"><g class="techniques"><g class="technique T1552" transform="translate(0, 161.20000000000002)"><rect class="cell" height="161.20000000000002" width="136.43478260869566" fill="#c6dbef" stroke="#6B7279"/><polygon class="sidebar" transform="translate(0, 161.20000000000002)" points="0,0 12,0 12,12" fill="#6B7279" visibility="visible"/><text font-size="10.346135265700484" fill="black"><tspan x="4" y="69.43333333333334">T1552:</tspan><tspan x="4" y="84.10000000000001">Unsecured</tspan><tspan x="4" y="98.76666666666668">Credentials</tspan></text></g></g><g class="subtechniques"><g class="subtechnique T1552.001" transform="translate(15, 322.40000000000003)"><rect class="cell" height="161.20000000000002" width="121.43478260869566" fill="#c6dbef" stroke="#6B7279"/><rect class="cell" height="161.20000000000002" width="3" transform="translate(-3, 0)" fill="#6B7279" stroke="#6B7279"/><text font-size="10.346135265700484" fill="black"><tspan x="4" y="69.43333333333334">T1552.001:</tspan><tspan x="4" y="84.10000000000001">Credentials</tspan><tspan x="4" y="98.76666666666668">In Files</tspan></text></g><g class="subtechnique T1552.002" transform="translate(15, 483.59999999999997)"><rect class="cell" height="161.20000000000002" width="121.43478260869566" fill="#c6dbef" stroke="#6B7279"/><rect class="cell" height="161.20000000000002" width="3" transform="translate(-3, 0)" fill="#6B7279" stroke="#6B7279"/><text font-size="10.346135265700484" fill="black"><tspan x="4" y="69.43333333333334">T1552.002:</tspan><tspan x="4" y="84.10000000000001">Credentials</tspan><tspan x="4" y="98.76666666666668">in Registry</tspan></text></g></g><g class="tactic-label"><text font-size="12" fill="black" font-weight="bold"><tspan text-anchor="middle" x="68.21739130434783" y="76.85000000000001">Credential</tspan><tspan text-anchor="middle" x="68.21739130434783" y="91.35000000000001">Access</tspan></text></g></g><g class="tactic discovery" transform="translate(606.3768115942029, 0)"><g class="techniques"><g class="technique T1083" transform="translate(0, 161.20000000000002)"><rect class="cell" height="161.20000000000002" width="136.43478260869566" fill="#c6dbef" stroke="#6B7279"/><polygon class="sidebar" transform="translate(0, 161.20000000000002)" points="0,0 12,0 12,0" fill="#6B7279" visibility="hidden"/><text font-size="10.346135265700484" fill="black"><tspan x="4" y="69.43333333333334">T1083: File</tspan><tspan x="4" y="84.10000000000001">and Directory</tspan><tspan x="4" y="98.76666666666668">Discovery</tspan></text></g><g class="technique T1012" transform="translate(0, 322.40000000000003)"><rect class="cell" height="161.20000000000002" width="136.43478260869566" fill="#c6dbef" stroke="#6B7279"/><polygon class="sidebar" transform="translate(0, 161.20000000000002)" points="0,0 12,0 12,0" fill="#6B7279" visibility="hidden"/><text font-size="10.346135265700484" fill="black"><tspan x="4" y="76.85000000000001">T1012:</tspan><tspan x="4" y="91.35000000000001">Query Registry</tspan></text></g><g class="technique T1614" transform="translate(0, 483.59999999999997)"><rect class="cell" height="161.20000000000002" width="136.43478260869566" fill="#c6dbef" stroke="#6B7279"/><polygon class="sidebar" transform="translate(0, 161.20000000000002)" points="0,0 12,0 12,12" fill="#6B7279" visibility="visible"/><text font-size="10.346135265700484" fill="black"><tspan x="4" y="69.43333333333334">T1614:</tspan><tspan x="4" y="84.10000000000001">System Location</tspan><tspan x="4" y="98.76666666666668">Discovery</tspan></text></g></g><g class="subtechniques"><g class="subtechnique T1614.001" transform="translate(15, 644.8000000000001)"><rect class="cell" height="161.20000000000002" width="121.43478260869566" fill="#c6dbef" stroke="#6B7279"/><rect class="cell" height="161.20000000000002" width="3" transform="translate(-3, 0)" fill="#6B7279" stroke="#6B7279"/><text font-size="10.346135265700484" fill="black"><tspan x="4" y="61.97500000000001">T1614.001:</tspan><tspan x="4" y="76.72500000000001">System</tspan><tspan x="4" y="91.47500000000001">Language</tspan><tspan x="4" y="106.22500000000001">Discovery</tspan></text></g></g><g class="tactic-label"><text font-size="12" fill="black" font-weight="bold"><tspan text-anchor="middle" x="68.21739130434783" y="84.10000000000001">Discovery</tspan></text></g></g><g class="tactic command-and-control" transform="translate(757.9710144927536, 0)"><g class="techniques"><g class="technique T1071" transform="translate(0, 161.20000000000002)"><rect class="cell" height="161.20000000000002" width="136.43478260869566" fill="#c6dbef" stroke="#6B7279"/><polygon class="sidebar" transform="translate(0, 161.20000000000002)" points="0,0 12,0 12,12" fill="#6B7279" visibility="visible"/><text font-size="10.346135265700484" fill="black"><tspan x="4" y="69.43333333333334">T1071:</tspan><tspan x="4" y="84.10000000000001">Application</tspan><tspan x="4" y="98.76666666666668">Layer Protocol</tspan></text></g><g class="technique T1573" transform="translate(0, 483.59999999999997)"><rect class="cell" height="161.20000000000002" width="136.43478260869566" fill="#c6dbef" stroke="#6B7279"/><polygon class="sidebar" transform="translate(0, 161.20000000000002)" points="0,0 12,0 12,12" fill="#6B7279" visibility="visible"/><text font-size="10.346135265700484" fill="black"><tspan x="4" y="69.43333333333334">T1573:</tspan><tspan x="4" y="84.10000000000001">Encrypted</tspan><tspan x="4" y="98.76666666666668">Channel</tspan></text></g></g><g class="subtechniques"><g class="subtechnique T1071.001" transform="translate(15, 322.40000000000003)"><rect class="cell" height="161.20000000000002" width="121.43478260869566" fill="#c6dbef" stroke="#6B7279"/><rect class="cell" height="161.20000000000002" width="3" transform="translate(-3, 0)" fill="#6B7279" stroke="#6B7279"/><text font-size="10.346135265700484" fill="black"><tspan x="4" y="76.85000000000001">T1071.001:</tspan><tspan x="4" y="91.35000000000001">Web Protocols</tspan></text></g><g class="subtechnique T1573.001" transform="translate(15, 644.8000000000001)"><rect class="cell" height="161.20000000000002" width="121.43478260869566" fill="#c6dbef" stroke="#6B7279"/><rect class="cell" height="161.20000000000002" width="3" transform="translate(-3, 0)" fill="#6B7279" stroke="#6B7279"/><text font-size="10.346135265700484" fill="black"><tspan x="4" y="69.43333333333334">T1573.001:</tspan><tspan x="4" y="84.10000000000001">Symmetric</tspan><tspan x="4" y="98.76666666666668">Cryptography</tspan></text></g></g><g class="tactic-label"><text font-size="12" fill="black" font-weight="bold"><tspan text-anchor="middle" x="68.21739130434783" y="76.85000000000001">Command</tspan><tspan text-anchor="middle" x="68.21739130434783" y="91.35000000000001">and Control</tspan></text></g></g><g class="tactic exfiltration" transform="translate(909.5652173913043, 0)"><g class="techniques"><g class="technique T1041" transform="translate(0, 161.20000000000002)"><rect class="cell" height="161.20000000000002" width="136.43478260869566" fill="#c6dbef" stroke="#6B7279"/><polygon class="sidebar" transform="translate(0, 161.20000000000002)" points="0,0 12,0 12,0" fill="#6B7279" visibility="hidden"/><text font-size="10.346135265700484" fill="black"><tspan x="4" y="69.43333333333334">T1041:</tspan><tspan x="4" y="84.10000000000001">Exfiltration</tspan><tspan x="4" y="98.76666666666668">Over C2 Channel</tspan></text></g></g><g class="subtechniques"/><g class="tactic-label"><text font-size="12" fill="black" font-weight="bold"><tspan text-anchor="middle" x="68.21739130434783" y="84.10000000000001">Exfiltration</tspan></text></g></g></g></g></g></svg>