<?xml version="1.0" standalone="no"?>
<svg width="1056" height="816" xmlns="http://www.w3.org/2000/svg" id="svgvm0"><g transform="translate(5,5)" style="font-family: sans-serif;"><g transform="translate(0,1)"><g><g class="tactic execution" transform="translate(0, 0)"><g class="techniques"><g class="technique T1059" transform="translate(0, 67.16666666666666)"><rect class="cell" height="67.16666666666666" width="149.42857142857142" fill="#c6dbef" stroke="#6B7279"/><polygon class="sidebar" transform="translate(0, 67.16666666666666)" points="0,0 12,0 12,0" fill="#6B7279" visibility="hidden"/><text font-size="9.32142857142857" fill="black"><tspan x="4" y="22.41666666666666">Command</tspan><tspan x="4" y="37.08333333333333">and Scripting</tspan><tspan x="4" y="51.74999999999999">Interpreter</tspan></text></g><g class="technique T1129" transform="translate(0, 134.33333333333331)"><rect class="cell" height="67.16666666666666" width="149.42857142857142" fill="#c6dbef" stroke="#6B7279"/><polygon class="sidebar" transform="translate(0, 67.16666666666666)" points="0,0 12,0 12,0" fill="#6B7279" visibility="hidden"/><text font-size="9.32142857142857" fill="black"><tspan x="4" y="37.08333333333333">Shared Modules</tspan></text></g><g class="technique T1569" transform="translate(0, 201.5)"><rect class="cell" height="67.16666666666666" width="149.42857142857142" fill="#c6dbef" stroke="#6B7279"/><polygon class="sidebar" transform="translate(0, 67.16666666666666)" points="0,0 12,0 12,12" fill="#6B7279" visibility="visible"/><text font-size="9.32142857142857" fill="black"><tspan x="4" y="37.08333333333333">System Services</tspan></text></g></g><g class="subtechniques"><g class="subtechnique T1569.002" transform="translate(15, 268.66666666666663)"><rect class="cell" height="67.16666666666666" width="134.42857142857142" fill="#c6dbef" stroke="#6B7279"/><rect class="cell" height="67.16666666666666" width="3" transform="translate(-3, 0)" fill="#6B7279" stroke="#6B7279"/><text font-size="9.32142857142857" fill="black"><tspan x="4" y="29.83333333333333">Service</tspan><tspan x="4" y="44.33333333333333">Execution</tspan></text></g></g><g class="tactic-label"><text font-size="12" fill="black" font-weight="bold"><tspan text-anchor="middle" x="74.71428571428571" y="37.08333333333333">Execution</tspan></text></g></g><g class="tactic persistence" transform="translate(149.42857142857142, 0)"><g class="techniques"><g class="technique T1547" transform="translate(0, 67.16666666666666)"><rect class="cell" height="67.16666666666666" width="149.42857142857142" fill="#c6dbef" stroke="#6B7279"/><polygon class="sidebar" transform="translate(0, 67.16666666666666)" points="0,0 12,0 12,12" fill="#6B7279" visibility="visible"/><text font-size="9.32142857142857" fill="black"><tspan x="4" y="22.41666666666666">Boot or</tspan><tspan x="4" y="37.08333333333333">Logon Autostart</tspan><tspan x="4" y="51.74999999999999">Execution</tspan></text></g><g class="technique T1543" transform="translate(0, 201.5)"><rect class="cell" height="67.16666666666666" width="149.42857142857142" fill="#c6dbef" stroke="#6B7279"/><polygon class="sidebar" transform="translate(0, 67.16666666666666)" points="0,0 12,0 12,12" fill="#6B7279" visibility="visible"/><text font-size="9.32142857142857" fill="black"><tspan x="4" y="29.83333333333333">Create or Modify</tspan><tspan x="4" y="44.33333333333333">System Process</tspan></text></g></g><g class="subtechniques"><g class="subtechnique T1547.001" transform="translate(15, 134.33333333333331)"><rect class="cell" height="67.16666666666666" width="134.42857142857142" fill="#c6dbef" stroke="#6B7279"/><rect class="cell" height="67.16666666666666" width="3" transform="translate(-3, 0)" fill="#6B7279" stroke="#6B7279"/><text font-size="9.32142857142857" fill="black"><tspan x="4" y="22.41666666666666">Registry</tspan><tspan x="4" y="37.08333333333333">Run Keys /</tspan><tspan x="4" y="51.74999999999999">Startup Folder</tspan></text></g><g class="subtechnique T1543.003" transform="translate(15, 268.66666666666663)"><rect class="cell" height="67.16666666666666" width="134.42857142857142" fill="#c6dbef" stroke="#6B7279"/><rect class="cell" height="67.16666666666666" width="3" transform="translate(-3, 0)" fill="#6B7279" stroke="#6B7279"/><text font-size="9.32142857142857" fill="black"><tspan x="4" y="37.08333333333333">Windows Service</tspan></text></g></g><g class="tactic-label"><text font-size="12" fill="black" font-weight="bold"><tspan text-anchor="middle" x="74.71428571428571" y="37.08333333333333">Persistence</tspan></text></g></g><g class="tactic privilege-escalation" transform="translate(298.85714285714283, 0)"><g class="techniques"><g class="technique T1547" transform="translate(0, 67.16666666666666)"><rect class="cell" height="67.16666666666666" width="149.42857142857142" fill="#c6dbef" stroke="#6B7279"/><polygon class="sidebar" transform="translate(0, 67.16666666666666)" points="0,0 12,0 12,12" fill="#6B7279" visibility="visible"/><text font-size="9.32142857142857" fill="black"><tspan x="4" y="22.41666666666666">Boot or</tspan><tspan x="4" y="37.08333333333333">Logon Autostart</tspan><tspan x="4" y="51.74999999999999">Execution</tspan></text></g><g class="technique T1543" transform="translate(0, 201.5)"><rect class="cell" height="67.16666666666666" width="149.42857142857142" fill="#c6dbef" stroke="#6B7279"/><polygon class="sidebar" transform="translate(0, 67.16666666666666)" points="0,0 12,0 12,12" fill="#6B7279" visibility="visible"/><text font-size="9.32142857142857" fill="black"><tspan x="4" y="29.83333333333333">Create or Modify</tspan><tspan x="4" y="44.33333333333333">System Process</tspan></text></g></g><g class="subtechniques"><g class="subtechnique T1547.001" transform="translate(15, 134.33333333333331)"><rect class="cell" height="67.16666666666666" width="134.42857142857142" fill="#c6dbef" stroke="#6B7279"/><rect class="cell" height="67.16666666666666" width="3" transform="translate(-3, 0)" fill="#6B7279" stroke="#6B7279"/><text font-size="9.32142857142857" fill="black"><tspan x="4" y="22.41666666666666">Registry</tspan><tspan x="4" y="37.08333333333333">Run Keys /</tspan><tspan x="4" y="51.74999999999999">Startup Folder</tspan></text></g><g class="subtechnique T1543.003" transform="translate(15, 268.66666666666663)"><rect class="cell" height="67.16666666666666" width="134.42857142857142" fill="#c6dbef" stroke="#6B7279"/><rect class="cell" height="67.16666666666666" width="3" transform="translate(-3, 0)" fill="#6B7279" stroke="#6B7279"/><text font-size="9.32142857142857" fill="black"><tspan x="4" y="37.08333333333333">Windows Service</tspan></text></g></g><g class="tactic-label"><text font-size="12" fill="black" font-weight="bold"><tspan text-anchor="middle" x="74.71428571428571" y="29.83333333333333">Privilege</tspan><tspan text-anchor="middle" x="74.71428571428571" y="44.33333333333333">Escalation</tspan></text></g></g><g class="tactic defense-evasion" transform="translate(448.2857142857142, 0)"><g class="techniques"><g class="technique T1140" transform="translate(0, 67.16666666666666)"><rect class="cell" height="67.16666666666666" width="149.42857142857142" fill="#c6dbef" stroke="#6B7279"/><polygon class="sidebar" transform="translate(0, 67.16666666666666)" points="0,0 12,0 12,0" fill="#6B7279" visibility="hidden"/><text font-size="9.32142857142857" fill="black"><tspan x="4" y="22.41666666666666">Deobfuscate/Decode</tspan><tspan x="4" y="37.08333333333333">Files</tspan><tspan x="4" y="51.74999999999999">or Information</tspan></text></g><g class="technique T1222" transform="translate(0, 134.33333333333331)"><rect class="cell" height="67.16666666666666" width="149.42857142857142" fill="#c6dbef" stroke="#6B7279"/><polygon class="sidebar" transform="translate(0, 67.16666666666666)" points="0,0 12,0 12,0" fill="#6B7279" visibility="hidden"/><text font-size="9.32142857142857" fill="black"><tspan x="4" y="14.958333333333329">File</tspan><tspan x="4" y="29.70833333333333">and Directory</tspan><tspan x="4" y="44.45833333333333">Permissions</tspan><tspan x="4" y="59.20833333333333">Modification</tspan></text></g><g class="technique T1564" transform="translate(0, 201.5)"><rect class="cell" height="67.16666666666666" width="149.42857142857142" fill="#c6dbef" stroke="#6B7279"/><polygon class="sidebar" transform="translate(0, 67.16666666666666)" points="0,0 12,0 12,12" fill="#6B7279" visibility="visible"/><text font-size="9.32142857142857" fill="black"><tspan x="4" y="37.08333333333333">Hide Artifacts</tspan></text></g><g class="technique T1562" transform="translate(0, 403)"><rect class="cell" height="67.16666666666666" width="149.42857142857142" fill="#c6dbef" stroke="#6B7279"/><polygon class="sidebar" transform="translate(0, 67.16666666666666)" points="0,0 12,0 12,12" fill="#6B7279" visibility="visible"/><text font-size="9.32142857142857" fill="black"><tspan x="4" y="37.08333333333333">Impair Defenses</tspan></text></g><g class="technique T1027" transform="translate(0, 537.3333333333333)"><rect class="cell" height="67.16666666666666" width="149.42857142857142" fill="#c6dbef" stroke="#6B7279"/><polygon class="sidebar" transform="translate(0, 67.16666666666666)" points="0,0 12,0 12,12" fill="#6B7279" visibility="visible"/><text font-size="9.32142857142857" fill="black"><tspan x="4" y="29.83333333333333">Obfuscated Files</tspan><tspan x="4" y="44.33333333333333">or Information</tspan></text></g><g class="technique T1497" transform="translate(0, 671.6666666666667)"><rect class="cell" height="67.16666666666666" width="149.42857142857142" fill="#c6dbef" stroke="#6B7279"/><polygon class="sidebar" transform="translate(0, 67.16666666666666)" points="0,0 12,0 12,12" fill="#6B7279" visibility="visible"/><text font-size="9.32142857142857" fill="black"><tspan x="4" y="28.83333333333333">Virtualization/Sandbox</tspan><tspan x="4" y="43.33333333333333">Evasion</tspan></text></g></g><g class="subtechniques"><g class="subtechnique T1564.001" transform="translate(15, 268.66666666666663)"><rect class="cell" height="67.16666666666666" width="134.42857142857142" fill="#c6dbef" stroke="#6B7279"/><rect class="cell" height="67.16666666666666" width="3" transform="translate(-3, 0)" fill="#6B7279" stroke="#6B7279"/><text font-size="9.32142857142857" fill="black"><tspan x="4" y="29.83333333333333">Hidden Files</tspan><tspan x="4" y="44.33333333333333">and Directories</tspan></text></g><g class="subtechnique T1564.003" transform="translate(15, 335.83333333333337)"><rect class="cell" height="67.16666666666666" width="134.42857142857142" fill="#c6dbef" stroke="#6B7279"/><rect class="cell" height="67.16666666666666" width="3" transform="translate(-3, 0)" fill="#6B7279" stroke="#6B7279"/><text font-size="9.32142857142857" fill="black"><tspan x="4" y="37.08333333333333">Hidden Window</tspan></text></g><g class="subtechnique T1562.001" transform="translate(15, 470.1666666666667)"><rect class="cell" height="67.16666666666666" width="134.42857142857142" fill="#c6dbef" stroke="#6B7279"/><rect class="cell" height="67.16666666666666" width="3" transform="translate(-3, 0)" fill="#6B7279" stroke="#6B7279"/><text font-size="9.32142857142857" fill="black"><tspan x="4" y="29.83333333333333">Disable</tspan><tspan x="4" y="44.33333333333333">or Modify Tools</tspan></text></g><g class="subtechnique T1027.005" transform="translate(15, 604.5)"><rect class="cell" height="67.16666666666666" width="134.42857142857142" fill="#c6dbef" stroke="#6B7279"/><rect class="cell" height="67.16666666666666" width="3" transform="translate(-3, 0)" fill="#6B7279" stroke="#6B7279"/><text font-size="9.32142857142857" fill="black"><tspan x="4" y="22.41666666666666">Indicator</tspan><tspan x="4" y="37.08333333333333">Removal</tspan><tspan x="4" y="51.74999999999999">from Tools</tspan></text></g><g class="subtechnique T1497.001" transform="translate(15, 738.8333333333333)"><rect class="cell" height="67.16666666666666" width="134.42857142857142" fill="#c6dbef" stroke="#6B7279"/><rect class="cell" height="67.16666666666666" width="3" transform="translate(-3, 0)" fill="#6B7279" stroke="#6B7279"/><text font-size="9.32142857142857" fill="black"><tspan x="4" y="37.08333333333333">System Checks</tspan></text></g></g><g class="tactic-label"><text font-size="12" fill="black" font-weight="bold"><tspan text-anchor="middle" x="74.71428571428571" y="37.08333333333333">Defense Evasion</tspan></text></g></g><g class="tactic discovery" transform="translate(597.7142857142857, 0)"><g class="techniques"><g class="technique T1010" transform="translate(0, 67.16666666666666)"><rect class="cell" height="67.16666666666666" width="149.42857142857142" fill="#c6dbef" stroke="#6B7279"/><polygon class="sidebar" transform="translate(0, 67.16666666666666)" points="0,0 12,0 12,0" fill="#6B7279" visibility="hidden"/><text font-size="9.32142857142857" fill="black"><tspan x="4" y="29.83333333333333">Application</tspan><tspan x="4" y="44.33333333333333">Window Discovery</tspan></text></g><g class="technique T1083" transform="translate(0, 134.33333333333331)"><rect class="cell" height="67.16666666666666" width="149.42857142857142" fill="#c6dbef" stroke="#6B7279"/><polygon class="sidebar" transform="translate(0, 67.16666666666666)" points="0,0 12,0 12,0" fill="#6B7279" visibility="hidden"/><text font-size="9.32142857142857" fill="black"><tspan x="4" y="22.41666666666666">File</tspan><tspan x="4" y="37.08333333333333">and Directory</tspan><tspan x="4" y="51.74999999999999">Discovery</tspan></text></g><g class="technique T1057" transform="translate(0, 201.5)"><rect class="cell" height="67.16666666666666" width="149.42857142857142" fill="#c6dbef" stroke="#6B7279"/><polygon class="sidebar" transform="translate(0, 67.16666666666666)" points="0,0 12,0 12,0" fill="#6B7279" visibility="hidden"/><text font-size="9.32142857142857" fill="black"><tspan x="4" y="37.08333333333333">Process Discovery</tspan></text></g><g class="technique T1518" transform="translate(0, 268.66666666666663)"><rect class="cell" height="67.16666666666666" width="149.42857142857142" fill="#c6dbef" stroke="#6B7279"/><polygon class="sidebar" transform="translate(0, 67.16666666666666)" points="0,0 12,0 12,12" fill="#6B7279" visibility="visible"/><text font-size="9.32142857142857" fill="black"><tspan x="4" y="29.83333333333333">Software</tspan><tspan x="4" y="44.33333333333333">Discovery</tspan></text></g><g class="technique T1082" transform="translate(0, 403)"><rect class="cell" height="67.16666666666666" width="149.42857142857142" fill="#c6dbef" stroke="#6B7279"/><polygon class="sidebar" transform="translate(0, 67.16666666666666)" points="0,0 12,0 12,0" fill="#6B7279" visibility="hidden"/><text font-size="9.32142857142857" fill="black"><tspan x="4" y="22.41666666666666">System</tspan><tspan x="4" y="37.08333333333333">Information</tspan><tspan x="4" y="51.74999999999999">Discovery</tspan></text></g><g class="technique T1614" transform="translate(0, 470.1666666666667)"><rect class="cell" height="67.16666666666666" width="149.42857142857142" fill="#c6dbef" stroke="#6B7279"/><polygon class="sidebar" transform="translate(0, 67.16666666666666)" points="0,0 12,0 12,0" fill="#6B7279" visibility="hidden"/><text font-size="9.32142857142857" fill="black"><tspan x="4" y="29.83333333333333">System Location</tspan><tspan x="4" y="44.33333333333333">Discovery</tspan></text></g><g class="technique T1497" transform="translate(0, 537.3333333333333)"><rect class="cell" height="67.16666666666666" width="149.42857142857142" fill="#c6dbef" stroke="#6B7279"/><polygon class="sidebar" transform="translate(0, 67.16666666666666)" points="0,0 12,0 12,12" fill="#6B7279" visibility="visible"/><text font-size="9.32142857142857" fill="black"><tspan x="4" y="28.83333333333333">Virtualization/Sandbox</tspan><tspan x="4" y="43.33333333333333">Evasion</tspan></text></g></g><g class="subtechniques"><g class="subtechnique T1518.001" transform="translate(15, 335.83333333333337)"><rect class="cell" height="67.16666666666666" width="134.42857142857142" fill="#c6dbef" stroke="#6B7279"/><rect class="cell" height="67.16666666666666" width="3" transform="translate(-3, 0)" fill="#6B7279" stroke="#6B7279"/><text font-size="9.32142857142857" fill="black"><tspan x="4" y="22.41666666666666">Security</tspan><tspan x="4" y="37.08333333333333">Software</tspan><tspan x="4" y="51.74999999999999">Discovery</tspan></text></g><g class="subtechnique T1497.001" transform="translate(15, 604.5)"><rect class="cell" height="67.16666666666666" width="134.42857142857142" fill="#c6dbef" stroke="#6B7279"/><rect class="cell" height="67.16666666666666" width="3" transform="translate(-3, 0)" fill="#6B7279" stroke="#6B7279"/><text font-size="9.32142857142857" fill="black"><tspan x="4" y="37.08333333333333">System Checks</tspan></text></g></g><g class="tactic-label"><text font-size="12" fill="black" font-weight="bold"><tspan text-anchor="middle" x="74.71428571428571" y="37.08333333333333">Discovery</tspan></text></g></g><g class="tactic command-and-control" transform="translate(747.1428571428571, 0)"><g class="techniques"><g class="technique T1090" transform="translate(0, 67.16666666666666)"><rect class="cell" height="67.16666666666666" width="149.42857142857142" fill="#c6dbef" stroke="#6B7279"/><polygon class="sidebar" transform="translate(0, 67.16666666666666)" points="0,0 12,0 12,0" fill="#6B7279" visibility="hidden"/><text font-size="9.32142857142857" fill="black"><tspan x="4" y="37.08333333333333">Proxy</tspan></text></g></g><g class="subtechniques"/><g class="tactic-label"><text font-size="12" fill="black" font-weight="bold"><tspan text-anchor="middle" x="74.71428571428571" y="29.83333333333333">Command</tspan><tspan text-anchor="middle" x="74.71428571428571" y="44.33333333333333">and Control</tspan></text></g></g><g class="tactic impact" transform="translate(896.5714285714284, 0)"><g class="techniques"><g class="technique T1486" transform="translate(0, 67.16666666666666)"><rect class="cell" height="67.16666666666666" width="149.42857142857142" fill="#c6dbef" stroke="#6B7279"/><polygon class="sidebar" transform="translate(0, 67.16666666666666)" points="0,0 12,0 12,0" fill="#6B7279" visibility="hidden"/><text font-size="9.32142857142857" fill="black"><tspan x="4" y="29.83333333333333">Data Encrypted</tspan><tspan x="4" y="44.33333333333333">for Impact</tspan></text></g></g><g class="subtechniques"/><g class="tactic-label"><text font-size="12" fill="black" font-weight="bold"><tspan text-anchor="middle" x="74.71428571428571" y="37.08333333333333">Impact</tspan></text></g></g></g></g></g></svg>