<?xml version="1.0" standalone="no"?>
<svg width="1056" height="816" xmlns="http://www.w3.org/2000/svg" id="svgvm0"><g transform="translate(5,5)" style="font-family: sans-serif;"><g transform="translate(0,1)"><g><g class="tactic initial-access" transform="translate(0, 0)"><g class="techniques"><g class="technique T1566" transform="translate(0, 115.14285714285714)"><rect class="cell" height="115.14285714285714" width="192.1224489795918" fill="#c6dbef" stroke="#6B7279"/><polygon class="sidebar" transform="translate(0, 115.14285714285714)" points="0,0 12,0 12,12" fill="#6B7279" visibility="hidden"/><text font-size="12" fill="black"><tspan x="4" y="61.07142857142857">Phishing</tspan></text></g><g class="technique T1078" transform="translate(0, 230.28571428571428)"><rect class="cell" height="115.14285714285714" width="192.1224489795918" fill="#c6dbef" stroke="#6B7279"/><polygon class="sidebar" transform="translate(0, 115.14285714285714)" points="0,0 12,0 12,0" fill="#6B7279" visibility="hidden"/><text font-size="12" fill="black"><tspan x="4" y="61.07142857142857">Valid Accounts</tspan></text></g></g><g class="subtechniques"/><g class="tactic-label"><text font-size="12" fill="black" font-weight="bold"><tspan text-anchor="middle" x="96.0612244897959" y="61.07142857142857">Initial Access</tspan></text></g></g><g class="tactic execution" transform="translate(213.46938775510202, 0)"><g class="techniques"><g class="technique T1059" transform="translate(0, 115.14285714285714)"><rect class="cell" height="115.14285714285714" width="192.1224489795918" fill="#c6dbef" stroke="#6B7279"/><polygon class="sidebar" transform="translate(0, 115.14285714285714)" points="0,0 12,0 12,12" fill="#6B7279" visibility="visible"/><text font-size="12" fill="black"><tspan x="4" y="53.82142857142857">Command and</tspan><tspan x="4" y="68.32142857142857">Scripting Interpreter</tspan></text></g><g class="technique T1106" transform="translate(0, 460.57142857142856)"><rect class="cell" height="115.14285714285714" width="192.1224489795918" fill="#c6dbef" stroke="#6B7279"/><polygon class="sidebar" transform="translate(0, 115.14285714285714)" points="0,0 12,0 12,0" fill="#6B7279" visibility="hidden"/><text font-size="12" fill="black"><tspan x="4" y="61.07142857142857">Native API</tspan></text></g><g class="technique T1204" transform="translate(0, 575.7142857142858)"><rect class="cell" height="115.14285714285714" width="192.1224489795918" fill="#c6dbef" stroke="#6B7279"/><polygon class="sidebar" transform="translate(0, 115.14285714285714)" points="0,0 12,0 12,12" fill="#6B7279" visibility="visible"/><text font-size="12" fill="black"><tspan x="4" y="61.07142857142857">User Execution</tspan></text></g></g><g class="subtechniques"><g class="subtechnique T1059.001" transform="translate(15, 230.28571428571428)"><rect class="cell" height="115.14285714285714" width="177.1224489795918" fill="#c6dbef" stroke="#6B7279"/><rect class="cell" height="115.14285714285714" width="3" transform="translate(-3, 0)" fill="#6B7279" stroke="#6B7279"/><text font-size="12" fill="black"><tspan x="4" y="61.07142857142857">PowerShell</tspan></text></g><g class="subtechnique T1059.003" transform="translate(15, 345.4285714285714)"><rect class="cell" height="115.14285714285714" width="177.1224489795918" fill="#c6dbef" stroke="#6B7279"/><rect class="cell" height="115.14285714285714" width="3" transform="translate(-3, 0)" fill="#6B7279" stroke="#6B7279"/><text font-size="12" fill="black"><tspan x="4" y="53.82142857142857">Windows</tspan><tspan x="4" y="68.32142857142857">Command Shell</tspan></text></g><g class="subtechnique T1204.002" transform="translate(15, 690.8571428571428)"><rect class="cell" height="115.14285714285714" width="177.1224489795918" fill="#c6dbef" stroke="#6B7279"/><rect class="cell" height="115.14285714285714" width="3" transform="translate(-3, 0)" fill="#6B7279" stroke="#6B7279"/><text font-size="12" fill="black"><tspan x="4" y="61.07142857142857">Malicious File</tspan></text></g></g><g class="tactic-label"><text font-size="12" fill="black" font-weight="bold"><tspan text-anchor="middle" x="96.0612244897959" y="61.07142857142857">Execution</tspan></text></g></g><g class="tactic defense-evasion" transform="translate(426.93877551020404, 0)"><g class="techniques"><g class="technique T1140" transform="translate(0, 115.14285714285714)"><rect class="cell" height="115.14285714285714" width="192.1224489795918" fill="#c6dbef" stroke="#6B7279"/><polygon class="sidebar" transform="translate(0, 115.14285714285714)" points="0,0 12,0 12,0" fill="#6B7279" visibility="hidden"/><text font-size="12" fill="black"><tspan x="4" y="53.82142857142857">Deobfuscate/Decode</tspan><tspan x="4" y="68.32142857142857">Files or Information</tspan></text></g></g><g class="subtechniques"/><g class="tactic-label"><text font-size="12" fill="black" font-weight="bold"><tspan text-anchor="middle" x="96.0612244897959" y="61.07142857142857">Defense Evasion</tspan></text></g></g><g class="tactic discovery" transform="translate(640.408163265306, 0)"><g class="techniques"><g class="technique T1083" transform="translate(0, 115.14285714285714)"><rect class="cell" height="115.14285714285714" width="192.1224489795918" fill="#c6dbef" stroke="#6B7279"/><polygon class="sidebar" transform="translate(0, 115.14285714285714)" points="0,0 12,0 12,0" fill="#6B7279" visibility="hidden"/><text font-size="12" fill="black"><tspan x="4" y="53.82142857142857">File and</tspan><tspan x="4" y="68.32142857142857">Directory Discovery</tspan></text></g><g class="technique T1135" transform="translate(0, 230.28571428571428)"><rect class="cell" height="115.14285714285714" width="192.1224489795918" fill="#c6dbef" stroke="#6B7279"/><polygon class="sidebar" transform="translate(0, 115.14285714285714)" points="0,0 12,0 12,0" fill="#6B7279" visibility="hidden"/><text font-size="12" fill="black"><tspan x="4" y="53.82142857142857">Network</tspan><tspan x="4" y="68.32142857142857">Share Discovery</tspan></text></g></g><g class="subtechniques"/><g class="tactic-label"><text font-size="12" fill="black" font-weight="bold"><tspan text-anchor="middle" x="96.0612244897959" y="61.07142857142857">Discovery</tspan></text></g></g><g class="tactic impact" transform="translate(853.8775510204081, 0)"><g class="techniques"><g class="technique T1486" transform="translate(0, 115.14285714285714)"><rect class="cell" height="115.14285714285714" width="192.1224489795918" fill="#c6dbef" stroke="#6B7279"/><polygon class="sidebar" transform="translate(0, 115.14285714285714)" points="0,0 12,0 12,0" fill="#6B7279" visibility="hidden"/><text font-size="12" fill="black"><tspan x="4" y="53.82142857142857">Data</tspan><tspan x="4" y="68.32142857142857">Encrypted for Impact</tspan></text></g><g class="technique T1490" transform="translate(0, 230.28571428571428)"><rect class="cell" height="115.14285714285714" width="192.1224489795918" fill="#c6dbef" stroke="#6B7279"/><polygon class="sidebar" transform="translate(0, 115.14285714285714)" points="0,0 12,0 12,0" fill="#6B7279" visibility="hidden"/><text font-size="12" fill="black"><tspan x="4" y="53.82142857142857">Inhibit</tspan><tspan x="4" y="68.32142857142857">System Recovery</tspan></text></g></g><g class="subtechniques"/><g class="tactic-label"><text font-size="12" fill="black" font-weight="bold"><tspan text-anchor="middle" x="96.0612244897959" y="61.07142857142857">Impact</tspan></text></g></g></g></g></g></svg>