<?xml version="1.0" standalone="no"?>
<svg width="1440" height="864" xmlns="http://www.w3.org/2000/svg" id="svgvm0"><g transform="translate(5,5)" style="font-family: sans-serif;"><g transform="translate(0,1)"><g><g class="tactic initial-access" transform="translate(0, 0)"><g class="techniques"><g class="technique T1566" transform="translate(0, 122)"><rect class="cell" height="122" width="186.52173913043478" fill="#dadaeb" stroke="#6B7279"/><polygon class="sidebar" transform="translate(0, 122)" points="0,0 12,0 12,12" fill="#6B7279" visibility="visible"/><text font-size="12" fill="black"><tspan x="4" y="64.5">Phishing</tspan></text></g></g><g class="subtechniques"><g class="subtechnique T1566.001" transform="translate(15, 244)"><rect class="cell" height="122" width="171.52173913043478" fill="white" stroke="#6B7279"/><rect class="cell" height="122" width="3" transform="translate(-3, 0)" fill="#6B7279" stroke="#6B7279"/><text font-size="12" fill="black"><tspan x="4" y="57.25">Spearphishing</tspan><tspan x="4" y="71.75">Attachment</tspan></text></g><g class="subtechnique T1566.002" transform="translate(15, 366)"><rect class="cell" height="122" width="171.52173913043478" fill="white" stroke="#6B7279"/><rect class="cell" height="122" width="3" transform="translate(-3, 0)" fill="#6B7279" stroke="#6B7279"/><text font-size="12" fill="black"><tspan x="4" y="64.5">Spearphishing Link</tspan></text></g></g><g class="tactic-label"><text font-size="12" fill="black" font-weight="bold"><tspan text-anchor="middle" x="93.26086956521739" y="64.5">Initial Access</tspan></text></g></g><g class="tactic execution" transform="translate(207.2463768115942, 0)"><g class="techniques"><g class="technique T1204" transform="translate(0, 122)"><rect class="cell" height="122" width="186.52173913043478" fill="#dadaeb" stroke="#6B7279"/><polygon class="sidebar" transform="translate(0, 122)" points="0,0 12,0 12,0" fill="#6B7279" visibility="hidden"/><text font-size="12" fill="black"><tspan x="4" y="64.5">User Execution</tspan></text></g></g><g class="subtechniques"/><g class="tactic-label"><text font-size="12" fill="black" font-weight="bold"><tspan text-anchor="middle" x="93.26086956521739" y="64.5">Execution</tspan></text></g></g><g class="tactic credential-access" transform="translate(414.4927536231884, 0)"><g class="techniques"><g class="technique T1555" transform="translate(0, 122)"><rect class="cell" height="122" width="186.52173913043478" fill="#dadaeb" stroke="#6B7279"/><polygon class="sidebar" transform="translate(0, 122)" points="0,0 12,0 12,12" fill="#6B7279" visibility="visible"/><text font-size="12" fill="black"><tspan x="4" y="57.25">Credentials</tspan><tspan x="4" y="71.75">from Password Stores</tspan></text></g><g class="technique T1539" transform="translate(0, 366)"><rect class="cell" height="122" width="186.52173913043478" fill="#dadaeb" stroke="#6B7279"/><polygon class="sidebar" transform="translate(0, 122)" points="0,0 12,0 12,0" fill="#6B7279" visibility="hidden"/><text font-size="12" fill="black"><tspan x="4" y="57.25">Steal</tspan><tspan x="4" y="71.75">Web Session Cookie</tspan></text></g><g class="technique T1552" transform="translate(0, 488)"><rect class="cell" height="122" width="186.52173913043478" fill="#dadaeb" stroke="#6B7279"/><polygon class="sidebar" transform="translate(0, 122)" points="0,0 12,0 12,12" fill="#6B7279" visibility="visible"/><text font-size="12" fill="black"><tspan x="4" y="64.5">Unsecured Credentials</tspan></text></g></g><g class="subtechniques"><g class="subtechnique T1555.003" transform="translate(15, 244)"><rect class="cell" height="122" width="171.52173913043478" fill="white" stroke="#6B7279"/><rect class="cell" height="122" width="3" transform="translate(-3, 0)" fill="#6B7279" stroke="#6B7279"/><text font-size="12" fill="black"><tspan x="4" y="57.25">Credentials</tspan><tspan x="4" y="71.75">from Web Browsers</tspan></text></g><g class="subtechnique T1552.001" transform="translate(15, 610)"><rect class="cell" height="122" width="171.52173913043478" fill="white" stroke="#6B7279"/><rect class="cell" height="122" width="3" transform="translate(-3, 0)" fill="#6B7279" stroke="#6B7279"/><text font-size="12" fill="black"><tspan x="4" y="57.25">Credentials</tspan><tspan x="4" y="71.75">In Files</tspan></text></g><g class="subtechnique T1552.002" transform="translate(15, 732)"><rect class="cell" height="122" width="171.52173913043478" fill="white" stroke="#6B7279"/><rect class="cell" height="122" width="3" transform="translate(-3, 0)" fill="#6B7279" stroke="#6B7279"/><text font-size="12" fill="black"><tspan x="4" y="57.25">Credentials</tspan><tspan x="4" y="71.75">in Registry</tspan></text></g></g><g class="tactic-label"><text font-size="12" fill="black" font-weight="bold"><tspan text-anchor="middle" x="93.26086956521739" y="64.5">Credential Access</tspan></text></g></g><g class="tactic discovery" transform="translate(621.7391304347825, 0)"><g class="techniques"><g class="technique T1087" transform="translate(0, 122)"><rect class="cell" height="122" width="186.52173913043478" fill="#dadaeb" stroke="#6B7279"/><polygon class="sidebar" transform="translate(0, 122)" points="0,0 12,0 12,0" fill="#6B7279" visibility="visible"/><text font-size="12" fill="black"><tspan x="4" y="64.5">Account Discovery</tspan></text></g><g class="technique T1057" transform="translate(0, 244)"><rect class="cell" height="122" width="186.52173913043478" fill="#dadaeb" stroke="#6B7279"/><polygon class="sidebar" transform="translate(0, 122)" points="0,0 12,0 12,0" fill="#6B7279" visibility="hidden"/><text font-size="12" fill="black"><tspan x="4" y="64.5">Process Discovery</tspan></text></g><g class="technique T1518" transform="translate(0, 366)"><rect class="cell" height="122" width="186.52173913043478" fill="#dadaeb" stroke="#6B7279"/><polygon class="sidebar" transform="translate(0, 122)" points="0,0 12,0 12,12" fill="#6B7279" visibility="visible"/><text font-size="12" fill="black"><tspan x="4" y="64.5">Software Discovery</tspan></text></g><g class="technique T1082" transform="translate(0, 610)"><rect class="cell" height="122" width="186.52173913043478" fill="#dadaeb" stroke="#6B7279"/><polygon class="sidebar" transform="translate(0, 122)" points="0,0 12,0 12,0" fill="#6B7279" visibility="hidden"/><text font-size="12" fill="black"><tspan x="4" y="57.25">System</tspan><tspan x="4" y="71.75">Information Discovery</tspan></text></g><g class="technique T1124" transform="translate(0, 732)"><rect class="cell" height="122" width="186.52173913043478" fill="#dadaeb" stroke="#6B7279"/><polygon class="sidebar" transform="translate(0, 122)" points="0,0 12,0 12,0" fill="#6B7279" visibility="hidden"/><text font-size="12" fill="black"><tspan x="4" y="64.5">System Time Discovery</tspan></text></g></g><g class="subtechniques"><g class="subtechnique T1518.001" transform="translate(15, 488)"><rect class="cell" height="122" width="171.52173913043478" fill="white" stroke="#6B7279"/><rect class="cell" height="122" width="3" transform="translate(-3, 0)" fill="#6B7279" stroke="#6B7279"/><text font-size="12" fill="black"><tspan x="4" y="57.25">Security</tspan><tspan x="4" y="71.75">Software Discovery</tspan></text></g></g><g class="tactic-label"><text font-size="12" fill="black" font-weight="bold"><tspan text-anchor="middle" x="93.26086956521739" y="64.5">Discovery</tspan></text></g></g><g class="tactic collection" transform="translate(828.9855072463768, 0)"><g class="techniques"><g class="technique T1005" transform="translate(0, 122)"><rect class="cell" height="122" width="186.52173913043478" fill="#dadaeb" stroke="#6B7279"/><polygon class="sidebar" transform="translate(0, 122)" points="0,0 12,0 12,0" fill="#6B7279" visibility="hidden"/><text font-size="12" fill="black"><tspan x="4" y="57.25">Data</tspan><tspan x="4" y="71.75">from Local System</tspan></text></g><g class="technique T1113" transform="translate(0, 244)"><rect class="cell" height="122" width="186.52173913043478" fill="#dadaeb" stroke="#6B7279"/><polygon class="sidebar" transform="translate(0, 122)" points="0,0 12,0 12,0" fill="#6B7279" visibility="hidden"/><text font-size="12" fill="black"><tspan x="4" y="64.5">Screen Capture</tspan></text></g></g><g class="subtechniques"/><g class="tactic-label"><text font-size="12" fill="black" font-weight="bold"><tspan text-anchor="middle" x="93.26086956521739" y="64.5">Collection</tspan></text></g></g><g class="tactic command-and-control" transform="translate(1036.231884057971, 0)"><g class="techniques"><g class="technique T1571" transform="translate(0, 122)"><rect class="cell" height="122" width="186.52173913043478" fill="#dadaeb" stroke="#6B7279"/><polygon class="sidebar" transform="translate(0, 122)" points="0,0 12,0 12,0" fill="#6B7279" visibility="hidden"/><text font-size="12" fill="black"><tspan x="4" y="64.5">Non-Standard Port</tspan></text></g></g><g class="subtechniques"/><g class="tactic-label"><text font-size="12" fill="black" font-weight="bold"><tspan text-anchor="middle" x="93.26086956521739" y="64.5">Command and Control</tspan></text></g></g><g class="tactic exfiltration" transform="translate(1243.478260869565, 0)"><g class="techniques"><g class="technique T1041" transform="translate(0, 122)"><rect class="cell" height="122" width="186.52173913043478" fill="#dadaeb" stroke="#6B7279"/><polygon class="sidebar" transform="translate(0, 122)" points="0,0 12,0 12,0" fill="#6B7279" visibility="hidden"/><text font-size="12" fill="black"><tspan x="4" y="57.25">Exfiltration</tspan><tspan x="4" y="71.75">Over C2 Channel</tspan></text></g></g><g class="subtechniques"/><g class="tactic-label"><text font-size="12" fill="black" font-weight="bold"><tspan text-anchor="middle" x="93.26086956521739" y="64.5">Exfiltration</tspan></text></g></g></g></g></g></svg>