<?xml version="1.0" standalone="no"?>
<svg width="1056" height="816" xmlns="http://www.w3.org/2000/svg" id="svgvm0"><g transform="translate(5,5)" style="font-family: sans-serif;"><g transform="translate(0,1)"><g><g class="tactic initial-access" transform="translate(0, 0)"><g class="techniques"><g class="technique T1566" transform="translate(0, 57.57142857142857)"><rect class="cell" height="57.57142857142857" width="119.16455696202532" fill="#d9d9d9" stroke="#6B7279"/><polygon class="sidebar" transform="translate(0, 57.57142857142857)" points="0,0 12,0 12,12" fill="#6B7279" visibility="visible"/><text font-size="7.326754890678941" fill="black"><tspan x="4" y="32.285714285714285">Phishing</tspan></text></g></g><g class="subtechniques"><g class="subtechnique T1566.001" transform="translate(15, 115.14285714285714)"><rect class="cell" height="57.57142857142857" width="104.16455696202532" fill="#d9d9d9" stroke="#6B7279"/><rect class="cell" height="57.57142857142857" width="3" transform="translate(-3, 0)" fill="#6B7279" stroke="#6B7279"/><text font-size="7.326754890678941" fill="black"><tspan x="4" y="25.035714285714285">Spearphishing</tspan><tspan x="4" y="39.535714285714285">Attachment</tspan></text></g><g class="subtechnique T1566.002" transform="translate(15, 172.7142857142857)"><rect class="cell" height="57.57142857142857" width="104.16455696202532" fill="#d9d9d9" stroke="#6B7279"/><rect class="cell" height="57.57142857142857" width="3" transform="translate(-3, 0)" fill="#6B7279" stroke="#6B7279"/><text font-size="7.326754890678941" fill="black"><tspan x="4" y="25.035714285714285">Spearphishing</tspan><tspan x="4" y="39.535714285714285">Link</tspan></text></g></g><g class="tactic-label"><text font-size="12" fill="black" font-weight="bold"><tspan text-anchor="middle" x="59.58227848101266" y="25.035714285714285">Initial</tspan><tspan text-anchor="middle" x="59.58227848101266" y="39.535714285714285">Access</tspan></text></g></g><g class="tactic execution" transform="translate(132.40506329113924, 0)"><g class="techniques"><g class="technique T1059" transform="translate(0, 57.57142857142857)"><rect class="cell" height="57.57142857142857" width="119.16455696202532" fill="#d9d9d9" stroke="#6B7279"/><polygon class="sidebar" transform="translate(0, 57.57142857142857)" points="0,0 12,0 12,12" fill="#6B7279" visibility="visible"/><text font-size="7.326754890678941" fill="black"><tspan x="4" y="17.619047619047617">Command</tspan><tspan x="4" y="32.285714285714285">and Scripting</tspan><tspan x="4" y="46.95238095238095">Interpreter</tspan></text></g><g class="technique T1204" transform="translate(0, 172.7142857142857)"><rect class="cell" height="57.57142857142857" width="119.16455696202532" fill="#d9d9d9" stroke="#6B7279"/><polygon class="sidebar" transform="translate(0, 57.57142857142857)" points="0,0 12,0 12,12" fill="#6B7279" visibility="visible"/><text font-size="7.326754890678941" fill="black"><tspan x="4" y="25.035714285714285">User</tspan><tspan x="4" y="39.535714285714285">Execution</tspan></text></g></g><g class="subtechniques"><g class="subtechnique T1059.003" transform="translate(15, 115.14285714285714)"><rect class="cell" height="57.57142857142857" width="104.16455696202532" fill="#d9d9d9" stroke="#6B7279"/><rect class="cell" height="57.57142857142857" width="3" transform="translate(-3, 0)" fill="#6B7279" stroke="#6B7279"/><text font-size="7.326754890678941" fill="black"><tspan x="4" y="17.619047619047617">Windows</tspan><tspan x="4" y="32.285714285714285">Command</tspan><tspan x="4" y="46.95238095238095">Shell</tspan></text></g><g class="subtechnique T1204.002" transform="translate(15, 230.28571428571428)"><rect class="cell" height="57.57142857142857" width="104.16455696202532" fill="#d9d9d9" stroke="#6B7279"/><rect class="cell" height="57.57142857142857" width="3" transform="translate(-3, 0)" fill="#6B7279" stroke="#6B7279"/><text font-size="7.326754890678941" fill="black"><tspan x="4" y="25.035714285714285">Malicious</tspan><tspan x="4" y="39.535714285714285">File</tspan></text></g><g class="subtechnique T1204.001" transform="translate(15, 287.8571428571429)"><rect class="cell" height="57.57142857142857" width="104.16455696202532" fill="#d9d9d9" stroke="#6B7279"/><rect class="cell" height="57.57142857142857" width="3" transform="translate(-3, 0)" fill="#6B7279" stroke="#6B7279"/><text font-size="7.326754890678941" fill="black"><tspan x="4" y="25.035714285714285">Malicious</tspan><tspan x="4" y="39.535714285714285">Link</tspan></text></g></g><g class="tactic-label"><text font-size="12" fill="black" font-weight="bold"><tspan text-anchor="middle" x="59.58227848101266" y="32.285714285714285">Execution</tspan></text></g></g><g class="tactic defense-evasion" transform="translate(264.8101265822785, 0)"><g class="techniques"><g class="technique T1140" transform="translate(0, 57.57142857142857)"><rect class="cell" height="57.57142857142857" width="119.16455696202532" fill="#d9d9d9" stroke="#6B7279"/><polygon class="sidebar" transform="translate(0, 57.57142857142857)" points="0,0 12,0 12,0" fill="#6B7279" visibility="hidden"/><text font-size="7.326754890678941" fill="black"><tspan x="4" y="16.619047619047617">Deobfuscate/Decode</tspan><tspan x="4" y="31.285714285714285">Files</tspan><tspan x="4" y="45.95238095238095">or Information</tspan></text></g><g class="technique T1027" transform="translate(0, 115.14285714285714)"><rect class="cell" height="57.57142857142857" width="119.16455696202532" fill="#d9d9d9" stroke="#6B7279"/><polygon class="sidebar" transform="translate(0, 57.57142857142857)" points="0,0 12,0 12,12" fill="#6B7279" visibility="visible"/><text font-size="7.326754890678941" fill="black"><tspan x="4" y="17.619047619047617">Obfuscated</tspan><tspan x="4" y="32.285714285714285">Files or</tspan><tspan x="4" y="46.95238095238095">Information</tspan></text></g><g class="technique T1497" transform="translate(0, 345.4285714285714)"><rect class="cell" height="57.57142857142857" width="119.16455696202532" fill="#d9d9d9" stroke="#6B7279"/><polygon class="sidebar" transform="translate(0, 57.57142857142857)" points="0,0 12,0 12,12" fill="#6B7279" visibility="visible"/><text font-size="7.326754890678941" fill="black"><tspan x="4" y="24.035714285714285">Virtualization/Sandbox</tspan><tspan x="4" y="38.535714285714285">Evasion</tspan></text></g></g><g class="subtechniques"><g class="subtechnique T1027.001" transform="translate(15, 172.7142857142857)"><rect class="cell" height="57.57142857142857" width="104.16455696202532" fill="#d9d9d9" stroke="#6B7279"/><rect class="cell" height="57.57142857142857" width="3" transform="translate(-3, 0)" fill="#6B7279" stroke="#6B7279"/><text font-size="7.326754890678941" fill="black"><tspan x="4" y="25.035714285714285">Binary</tspan><tspan x="4" y="39.535714285714285">Padding</tspan></text></g><g class="subtechnique T1027.007" transform="translate(15, 230.28571428571428)"><rect class="cell" height="57.57142857142857" width="104.16455696202532" fill="#d9d9d9" stroke="#6B7279"/><rect class="cell" height="57.57142857142857" width="3" transform="translate(-3, 0)" fill="#6B7279" stroke="#6B7279"/><text font-size="7.326754890678941" fill="black"><tspan x="4" y="25.035714285714285">Dynamic API</tspan><tspan x="4" y="39.535714285714285">Resolution</tspan></text></g><g class="subtechnique T1027.002" transform="translate(15, 287.8571428571429)"><rect class="cell" height="57.57142857142857" width="104.16455696202532" fill="#d9d9d9" stroke="#6B7279"/><rect class="cell" height="57.57142857142857" width="3" transform="translate(-3, 0)" fill="#6B7279" stroke="#6B7279"/><text font-size="7.326754890678941" fill="black"><tspan x="4" y="25.035714285714285">Software</tspan><tspan x="4" y="39.535714285714285">Packing</tspan></text></g><g class="subtechnique T1497.001" transform="translate(15, 403)"><rect class="cell" height="57.57142857142857" width="104.16455696202532" fill="#d9d9d9" stroke="#6B7279"/><rect class="cell" height="57.57142857142857" width="3" transform="translate(-3, 0)" fill="#6B7279" stroke="#6B7279"/><text font-size="7.326754890678941" fill="black"><tspan x="4" y="25.035714285714285">System</tspan><tspan x="4" y="39.535714285714285">Checks</tspan></text></g></g><g class="tactic-label"><text font-size="12" fill="black" font-weight="bold"><tspan text-anchor="middle" x="59.58227848101266" y="25.035714285714285">Defense</tspan><tspan text-anchor="middle" x="59.58227848101266" y="39.535714285714285">Evasion</tspan></text></g></g><g class="tactic credential-access" transform="translate(397.2151898734177, 0)"><g class="techniques"><g class="technique T1555" transform="translate(0, 57.57142857142857)"><rect class="cell" height="57.57142857142857" width="119.16455696202532" fill="#d9d9d9" stroke="#6B7279"/><polygon class="sidebar" transform="translate(0, 57.57142857142857)" points="0,0 12,0 12,12" fill="#6B7279" visibility="visible"/><text font-size="7.326754890678941" fill="black"><tspan x="4" y="17.619047619047617">Credentials</tspan><tspan x="4" y="32.285714285714285">from Password</tspan><tspan x="4" y="46.95238095238095">Stores</tspan></text></g><g class="technique T1212" transform="translate(0, 172.7142857142857)"><rect class="cell" height="57.57142857142857" width="119.16455696202532" fill="#d9d9d9" stroke="#6B7279"/><polygon class="sidebar" transform="translate(0, 57.57142857142857)" points="0,0 12,0 12,0" fill="#6B7279" visibility="hidden"/><text font-size="7.326754890678941" fill="black"><tspan x="4" y="11.071428571428571">Exploitation</tspan><tspan x="4" y="25.214285714285715">for</tspan><tspan x="4" y="39.357142857142854">Credential</tspan><tspan x="4" y="53.5">Access</tspan></text></g><g class="technique T1111" transform="translate(0, 230.28571428571428)"><rect class="cell" height="57.57142857142857" width="119.16455696202532" fill="#d9d9d9" stroke="#6B7279"/><polygon class="sidebar" transform="translate(0, 57.57142857142857)" points="0,0 12,0 12,0" fill="#6B7279" visibility="hidden"/><text font-size="7.326754890678941" fill="black"><tspan x="4" y="17.619047619047617">Multi-Factor</tspan><tspan x="4" y="32.285714285714285">Authentication</tspan><tspan x="4" y="46.95238095238095">Interception</tspan></text></g><g class="technique T1539" transform="translate(0, 287.8571428571429)"><rect class="cell" height="57.57142857142857" width="119.16455696202532" fill="#d9d9d9" stroke="#6B7279"/><polygon class="sidebar" transform="translate(0, 57.57142857142857)" points="0,0 12,0 12,0" fill="#6B7279" visibility="hidden"/><text font-size="7.326754890678941" fill="black"><tspan x="4" y="17.619047619047617">Steal</tspan><tspan x="4" y="32.285714285714285">Web Session</tspan><tspan x="4" y="46.95238095238095">Cookie</tspan></text></g></g><g class="subtechniques"><g class="subtechnique T1555.003" transform="translate(15, 115.14285714285714)"><rect class="cell" height="57.57142857142857" width="104.16455696202532" fill="#d9d9d9" stroke="#6B7279"/><rect class="cell" height="57.57142857142857" width="3" transform="translate(-3, 0)" fill="#6B7279" stroke="#6B7279"/><text font-size="7.326754890678941" fill="black"><tspan x="4" y="17.619047619047617">Credentials</tspan><tspan x="4" y="32.285714285714285">from Web</tspan><tspan x="4" y="46.95238095238095">Browsers</tspan></text></g></g><g class="tactic-label"><text font-size="12" fill="black" font-weight="bold"><tspan text-anchor="middle" x="59.58227848101266" y="25.035714285714285">Credential</tspan><tspan text-anchor="middle" x="59.58227848101266" y="39.535714285714285">Access</tspan></text></g></g><g class="tactic discovery" transform="translate(529.620253164557, 0)"><g class="techniques"><g class="technique T1087" transform="translate(0, 57.57142857142857)"><rect class="cell" height="57.57142857142857" width="119.16455696202532" fill="#d9d9d9" stroke="#6B7279"/><polygon class="sidebar" transform="translate(0, 57.57142857142857)" points="0,0 12,0 12,12" fill="#6B7279" visibility="visible"/><text font-size="7.326754890678941" fill="black"><tspan x="4" y="25.035714285714285">Account</tspan><tspan x="4" y="39.535714285714285">Discovery</tspan></text></g><g class="technique T1010" transform="translate(0, 172.7142857142857)"><rect class="cell" height="57.57142857142857" width="119.16455696202532" fill="#d9d9d9" stroke="#6B7279"/><polygon class="sidebar" transform="translate(0, 57.57142857142857)" points="0,0 12,0 12,0" fill="#6B7279" visibility="hidden"/><text font-size="7.326754890678941" fill="black"><tspan x="4" y="17.619047619047617">Application</tspan><tspan x="4" y="32.285714285714285">Window</tspan><tspan x="4" y="46.95238095238095">Discovery</tspan></text></g><g class="technique T1083" transform="translate(0, 230.28571428571428)"><rect class="cell" height="57.57142857142857" width="119.16455696202532" fill="#d9d9d9" stroke="#6B7279"/><polygon class="sidebar" transform="translate(0, 57.57142857142857)" points="0,0 12,0 12,0" fill="#6B7279" visibility="hidden"/><text font-size="7.326754890678941" fill="black"><tspan x="4" y="17.619047619047617">File</tspan><tspan x="4" y="32.285714285714285">and Directory</tspan><tspan x="4" y="46.95238095238095">Discovery</tspan></text></g><g class="technique T1057" transform="translate(0, 287.8571428571429)"><rect class="cell" height="57.57142857142857" width="119.16455696202532" fill="#d9d9d9" stroke="#6B7279"/><polygon class="sidebar" transform="translate(0, 57.57142857142857)" points="0,0 12,0 12,0" fill="#6B7279" visibility="hidden"/><text font-size="7.326754890678941" fill="black"><tspan x="4" y="25.035714285714285">Process</tspan><tspan x="4" y="39.535714285714285">Discovery</tspan></text></g><g class="technique T1012" transform="translate(0, 345.4285714285714)"><rect class="cell" height="57.57142857142857" width="119.16455696202532" fill="#d9d9d9" stroke="#6B7279"/><polygon class="sidebar" transform="translate(0, 57.57142857142857)" points="0,0 12,0 12,0" fill="#6B7279" visibility="hidden"/><text font-size="7.326754890678941" fill="black"><tspan x="4" y="25.035714285714285">Query</tspan><tspan x="4" y="39.535714285714285">Registry</tspan></text></g><g class="technique T1518" transform="translate(0, 403)"><rect class="cell" height="57.57142857142857" width="119.16455696202532" fill="#d9d9d9" stroke="#6B7279"/><polygon class="sidebar" transform="translate(0, 57.57142857142857)" points="0,0 12,0 12,0" fill="#6B7279" visibility="visible"/><text font-size="7.326754890678941" fill="black"><tspan x="4" y="25.035714285714285">Software</tspan><tspan x="4" y="39.535714285714285">Discovery</tspan></text></g><g class="technique T1082" transform="translate(0, 460.57142857142856)"><rect class="cell" height="57.57142857142857" width="119.16455696202532" fill="#d9d9d9" stroke="#6B7279"/><polygon class="sidebar" transform="translate(0, 57.57142857142857)" points="0,0 12,0 12,0" fill="#6B7279" visibility="hidden"/><text font-size="7.326754890678941" fill="black"><tspan x="4" y="17.619047619047617">System</tspan><tspan x="4" y="32.285714285714285">Information</tspan><tspan x="4" y="46.95238095238095">Discovery</tspan></text></g><g class="technique T1016" transform="translate(0, 518.1428571428572)"><rect class="cell" height="57.57142857142857" width="119.16455696202532" fill="#d9d9d9" stroke="#6B7279"/><polygon class="sidebar" transform="translate(0, 57.57142857142857)" points="0,0 12,0 12,12" fill="#6B7279" visibility="visible"/><text font-size="7.326754890678941" fill="black"><tspan x="4" y="11.071428571428571">System</tspan><tspan x="4" y="25.214285714285715">Network</tspan><tspan x="4" y="39.357142857142854">Configuration</tspan><tspan x="4" y="53.5">Discovery</tspan></text></g><g class="technique T1007" transform="translate(0, 633.2857142857142)"><rect class="cell" height="57.57142857142857" width="119.16455696202532" fill="#d9d9d9" stroke="#6B7279"/><polygon class="sidebar" transform="translate(0, 57.57142857142857)" points="0,0 12,0 12,0" fill="#6B7279" visibility="hidden"/><text font-size="7.326754890678941" fill="black"><tspan x="4" y="17.619047619047617">System</tspan><tspan x="4" y="32.285714285714285">Service</tspan><tspan x="4" y="46.95238095238095">Discovery</tspan></text></g><g class="technique T1497" transform="translate(0, 690.8571428571428)"><rect class="cell" height="57.57142857142857" width="119.16455696202532" fill="#d9d9d9" stroke="#6B7279"/><polygon class="sidebar" transform="translate(0, 57.57142857142857)" points="0,0 12,0 12,12" fill="#6B7279" visibility="visible"/><text font-size="7.326754890678941" fill="black"><tspan x="4" y="24.035714285714285">Virtualization/Sandbox</tspan><tspan x="4" y="38.535714285714285">Evasion</tspan></text></g></g><g class="subtechniques"><g class="subtechnique T1087.001" transform="translate(15, 115.14285714285714)"><rect class="cell" height="57.57142857142857" width="104.16455696202532" fill="#d9d9d9" stroke="#6B7279"/><rect class="cell" height="57.57142857142857" width="3" transform="translate(-3, 0)" fill="#6B7279" stroke="#6B7279"/><text font-size="7.326754890678941" fill="black"><tspan x="4" y="25.035714285714285">Local</tspan><tspan x="4" y="39.535714285714285">Account</tspan></text></g><g class="subtechnique T1016.001" transform="translate(15, 575.7142857142858)"><rect class="cell" height="57.57142857142857" width="104.16455696202532" fill="#d9d9d9" stroke="#6B7279"/><rect class="cell" height="57.57142857142857" width="3" transform="translate(-3, 0)" fill="#6B7279" stroke="#6B7279"/><text font-size="7.326754890678941" fill="black"><tspan x="4" y="17.619047619047617">Internet</tspan><tspan x="4" y="32.285714285714285">Connection</tspan><tspan x="4" y="46.95238095238095">Discovery</tspan></text></g><g class="subtechnique T1497.001" transform="translate(15, 748.4285714285714)"><rect class="cell" height="57.57142857142857" width="104.16455696202532" fill="#d9d9d9" stroke="#6B7279"/><rect class="cell" height="57.57142857142857" width="3" transform="translate(-3, 0)" fill="#6B7279" stroke="#6B7279"/><text font-size="7.326754890678941" fill="black"><tspan x="4" y="25.035714285714285">System</tspan><tspan x="4" y="39.535714285714285">Checks</tspan></text></g></g><g class="tactic-label"><text font-size="12" fill="black" font-weight="bold"><tspan text-anchor="middle" x="59.58227848101266" y="32.285714285714285">Discovery</tspan></text></g></g><g class="tactic collection" transform="translate(662.0253164556962, 0)"><g class="techniques"><g class="technique T1005" transform="translate(0, 57.57142857142857)"><rect class="cell" height="57.57142857142857" width="119.16455696202532" fill="#d9d9d9" stroke="#6B7279"/><polygon class="sidebar" transform="translate(0, 57.57142857142857)" points="0,0 12,0 12,0" fill="#6B7279" visibility="hidden"/><text font-size="7.326754890678941" fill="black"><tspan x="4" y="25.035714285714285">Data from</tspan><tspan x="4" y="39.535714285714285">Local System</tspan></text></g><g class="technique T1113" transform="translate(0, 115.14285714285714)"><rect class="cell" height="57.57142857142857" width="119.16455696202532" fill="#d9d9d9" stroke="#6B7279"/><polygon class="sidebar" transform="translate(0, 57.57142857142857)" points="0,0 12,0 12,0" fill="#6B7279" visibility="hidden"/><text font-size="7.326754890678941" fill="black"><tspan x="4" y="25.035714285714285">Screen</tspan><tspan x="4" y="39.535714285714285">Capture</tspan></text></g></g><g class="subtechniques"/><g class="tactic-label"><text font-size="12" fill="black" font-weight="bold"><tspan text-anchor="middle" x="59.58227848101266" y="32.285714285714285">Collection</tspan></text></g></g><g class="tactic command-and-control" transform="translate(794.4303797468355, 0)"><g class="techniques"><g class="technique T1071" transform="translate(0, 57.57142857142857)"><rect class="cell" height="57.57142857142857" width="119.16455696202532" fill="#d9d9d9" stroke="#6B7279"/><polygon class="sidebar" transform="translate(0, 57.57142857142857)" points="0,0 12,0 12,12" fill="#6B7279" visibility="visible"/><text font-size="7.326754890678941" fill="black"><tspan x="4" y="17.619047619047617">Application</tspan><tspan x="4" y="32.285714285714285">Layer</tspan><tspan x="4" y="46.95238095238095">Protocol</tspan></text></g><g class="technique T1132" transform="translate(0, 172.7142857142857)"><rect class="cell" height="57.57142857142857" width="119.16455696202532" fill="#d9d9d9" stroke="#6B7279"/><polygon class="sidebar" transform="translate(0, 57.57142857142857)" points="0,0 12,0 12,12" fill="#6B7279" visibility="visible"/><text font-size="7.326754890678941" fill="black"><tspan x="4" y="32.285714285714285">Data Encoding</tspan></text></g></g><g class="subtechniques"><g class="subtechnique T1071.001" transform="translate(15, 115.14285714285714)"><rect class="cell" height="57.57142857142857" width="104.16455696202532" fill="#d9d9d9" stroke="#6B7279"/><rect class="cell" height="57.57142857142857" width="3" transform="translate(-3, 0)" fill="#6B7279" stroke="#6B7279"/><text font-size="7.326754890678941" fill="black"><tspan x="4" y="25.035714285714285">Web</tspan><tspan x="4" y="39.535714285714285">Protocols</tspan></text></g><g class="subtechnique T1132.001" transform="translate(15, 230.28571428571428)"><rect class="cell" height="57.57142857142857" width="104.16455696202532" fill="#d9d9d9" stroke="#6B7279"/><rect class="cell" height="57.57142857142857" width="3" transform="translate(-3, 0)" fill="#6B7279" stroke="#6B7279"/><text font-size="7.326754890678941" fill="black"><tspan x="4" y="25.035714285714285">Standard</tspan><tspan x="4" y="39.535714285714285">Encoding</tspan></text></g></g><g class="tactic-label"><text font-size="12" fill="black" font-weight="bold"><tspan text-anchor="middle" x="59.58227848101266" y="25.035714285714285">Command</tspan><tspan text-anchor="middle" x="59.58227848101266" y="39.535714285714285">and Control</tspan></text></g></g><g class="tactic exfiltration" transform="translate(926.8354430379748, 0)"><g class="techniques"><g class="technique T1020" transform="translate(0, 57.57142857142857)"><rect class="cell" height="57.57142857142857" width="119.16455696202532" fill="#d9d9d9" stroke="#6B7279"/><polygon class="sidebar" transform="translate(0, 57.57142857142857)" points="0,0 12,0 12,0" fill="#6B7279" visibility="hidden"/><text font-size="7.326754890678941" fill="black"><tspan x="4" y="25.035714285714285">Automated</tspan><tspan x="4" y="39.535714285714285">Exfiltration</tspan></text></g><g class="technique T1030" transform="translate(0, 115.14285714285714)"><rect class="cell" height="57.57142857142857" width="119.16455696202532" fill="#d9d9d9" stroke="#6B7279"/><polygon class="sidebar" transform="translate(0, 57.57142857142857)" points="0,0 12,0 12,0" fill="#6B7279" visibility="hidden"/><text font-size="7.326754890678941" fill="black"><tspan x="4" y="25.035714285714285">Data Transfer</tspan><tspan x="4" y="39.535714285714285">Size Limits</tspan></text></g><g class="technique T1041" transform="translate(0, 172.7142857142857)"><rect class="cell" height="57.57142857142857" width="119.16455696202532" fill="#d9d9d9" stroke="#6B7279"/><polygon class="sidebar" transform="translate(0, 57.57142857142857)" points="0,0 12,0 12,0" fill="#6B7279" visibility="hidden"/><text font-size="7.326754890678941" fill="black"><tspan x="4" y="17.619047619047617">Exfiltration</tspan><tspan x="4" y="32.285714285714285">Over</tspan><tspan x="4" y="46.95238095238095">C2 Channel</tspan></text></g></g><g class="subtechniques"/><g class="tactic-label"><text font-size="12" fill="black" font-weight="bold"><tspan text-anchor="middle" x="59.58227848101266" y="32.285714285714285">Exfiltration</tspan></text></g></g></g></g></g></svg>