<?xml version="1.0" standalone="no"?>
<svg width="1056" height="816" xmlns="http://www.w3.org/2000/svg" id="svgvm0"><g transform="translate(5,5)" style="font-family: sans-serif;"><g transform="translate(0,1)"><g><g class="tactic initial-access" transform="translate(0, 0)"><g class="techniques"><g class="technique T1566" transform="translate(0, 73.27272727272728)"><rect class="cell" height="73.27272727272728" width="86.36697247706422" fill="#c6dbef" stroke="#6B7279"/><polygon class="sidebar" transform="translate(0, 73.27272727272728)" points="0,0 12,0 12,12" fill="#6B7279" visibility="hidden"/><text font-size="7.656842507645259" fill="black"><tspan x="4" y="40.13636363636364">Phishing</tspan></text></g></g><g class="subtechniques"/><g class="tactic-label"><text font-size="9.46934250764526" fill="black" font-weight="bold"><tspan text-anchor="middle" x="43.18348623853211" y="32.88636363636364">Initial</tspan><tspan text-anchor="middle" x="43.18348623853211" y="47.38636363636364">Access</tspan></text></g></g><g class="tactic execution" transform="translate(95.96330275229357, 0)"><g class="techniques"><g class="technique T1059" transform="translate(0, 73.27272727272728)"><rect class="cell" height="73.27272727272728" width="86.36697247706422" fill="#c6dbef" stroke="#6B7279"/><polygon class="sidebar" transform="translate(0, 73.27272727272728)" points="0,0 12,0 12,12" fill="#6B7279" visibility="visible"/><text font-size="7.656842507645259" fill="black"><tspan x="4" y="25.469696969696972">Command and</tspan><tspan x="4" y="40.13636363636364">Scripting</tspan><tspan x="4" y="54.803030303030305">Interpreter</tspan></text></g><g class="technique T1106" transform="translate(0, 293.0909090909091)"><rect class="cell" height="73.27272727272728" width="86.36697247706422" fill="#c6dbef" stroke="#6B7279"/><polygon class="sidebar" transform="translate(0, 73.27272727272728)" points="0,0 12,0 12,0" fill="#6B7279" visibility="hidden"/><text font-size="7.656842507645259" fill="black"><tspan x="4" y="32.88636363636364">Native</tspan><tspan x="4" y="47.38636363636364">API</tspan></text></g><g class="technique T1204" transform="translate(0, 366.3636363636364)"><rect class="cell" height="73.27272727272728" width="86.36697247706422" fill="#c6dbef" stroke="#6B7279"/><polygon class="sidebar" transform="translate(0, 73.27272727272728)" points="0,0 12,0 12,12" fill="#6B7279" visibility="visible"/><text font-size="7.656842507645259" fill="black"><tspan x="4" y="32.88636363636364">User</tspan><tspan x="4" y="47.38636363636364">Execution</tspan></text></g></g><g class="subtechniques"><g class="subtechnique T1059.001" transform="translate(15, 146.54545454545456)"><rect class="cell" height="73.27272727272728" width="71.36697247706422" fill="#c6dbef" stroke="#6B7279"/><rect class="cell" height="73.27272727272728" width="3" transform="translate(-3, 0)" fill="#6B7279" stroke="#6B7279"/><text font-size="7.656842507645259" fill="black"><tspan x="4" y="39.13636363636364">PowerShell</tspan></text></g><g class="subtechnique T1059.003" transform="translate(15, 219.8181818181818)"><rect class="cell" height="73.27272727272728" width="71.36697247706422" fill="#c6dbef" stroke="#6B7279"/><rect class="cell" height="73.27272727272728" width="3" transform="translate(-3, 0)" fill="#6B7279" stroke="#6B7279"/><text font-size="7.656842507645259" fill="black"><tspan x="4" y="25.469696969696972">Windows</tspan><tspan x="4" y="40.13636363636364">Command</tspan><tspan x="4" y="54.803030303030305">Shell</tspan></text></g><g class="subtechnique T1204.002" transform="translate(15, 439.6363636363636)"><rect class="cell" height="73.27272727272728" width="71.36697247706422" fill="#c6dbef" stroke="#6B7279"/><rect class="cell" height="73.27272727272728" width="3" transform="translate(-3, 0)" fill="#6B7279" stroke="#6B7279"/><text font-size="7.656842507645259" fill="black"><tspan x="4" y="32.88636363636364">Malicious</tspan><tspan x="4" y="47.38636363636364">File</tspan></text></g><g class="subtechnique T1204.001" transform="translate(15, 512.9090909090909)"><rect class="cell" height="73.27272727272728" width="71.36697247706422" fill="#c6dbef" stroke="#6B7279"/><rect class="cell" height="73.27272727272728" width="3" transform="translate(-3, 0)" fill="#6B7279" stroke="#6B7279"/><text font-size="7.656842507645259" fill="black"><tspan x="4" y="32.88636363636364">Malicious</tspan><tspan x="4" y="47.38636363636364">Link</tspan></text></g></g><g class="tactic-label"><text font-size="9.46934250764526" fill="black" font-weight="bold"><tspan text-anchor="middle" x="43.18348623853211" y="40.13636363636364">Execution</tspan></text></g></g><g class="tactic persistence" transform="translate(191.92660550458714, 0)"><g class="techniques"><g class="technique T1547" transform="translate(0, 73.27272727272728)"><rect class="cell" height="73.27272727272728" width="86.36697247706422" fill="#c6dbef" stroke="#6B7279"/><polygon class="sidebar" transform="translate(0, 73.27272727272728)" points="0,0 12,0 12,12" fill="#6B7279" visibility="visible"/><text font-size="7.656842507645259" fill="black"><tspan x="4" y="18.01136363636364">Boot</tspan><tspan x="4" y="32.76136363636364">or Logon</tspan><tspan x="4" y="47.51136363636364">Autostart</tspan><tspan x="4" y="62.26136363636364">Execution</tspan></text></g></g><g class="subtechniques"><g class="subtechnique T1547.001" transform="translate(15, 146.54545454545456)"><rect class="cell" height="73.27272727272728" width="71.36697247706422" fill="#c6dbef" stroke="#6B7279"/><rect class="cell" height="73.27272727272728" width="3" transform="translate(-3, 0)" fill="#6B7279" stroke="#6B7279"/><text font-size="7.656842507645259" fill="black"><tspan x="4" y="18.01136363636364">Registry</tspan><tspan x="4" y="32.76136363636364">Run Keys</tspan><tspan x="4" y="47.51136363636364">/ Startup</tspan><tspan x="4" y="62.26136363636364">Folder</tspan></text></g></g><g class="tactic-label"><text font-size="9.46934250764526" fill="black" font-weight="bold"><tspan text-anchor="middle" x="43.18348623853211" y="40.13636363636364">Persistence</tspan></text></g></g><g class="tactic privilege-escalation" transform="translate(287.88990825688074, 0)"><g class="techniques"><g class="technique T1547" transform="translate(0, 73.27272727272728)"><rect class="cell" height="73.27272727272728" width="86.36697247706422" fill="#c6dbef" stroke="#6B7279"/><polygon class="sidebar" transform="translate(0, 73.27272727272728)" points="0,0 12,0 12,12" fill="#6B7279" visibility="visible"/><text font-size="7.656842507645259" fill="black"><tspan x="4" y="18.01136363636364">Boot</tspan><tspan x="4" y="32.76136363636364">or Logon</tspan><tspan x="4" y="47.51136363636364">Autostart</tspan><tspan x="4" y="62.26136363636364">Execution</tspan></text></g></g><g class="subtechniques"><g class="subtechnique T1547.001" transform="translate(15, 146.54545454545456)"><rect class="cell" height="73.27272727272728" width="71.36697247706422" fill="#c6dbef" stroke="#6B7279"/><rect class="cell" height="73.27272727272728" width="3" transform="translate(-3, 0)" fill="#6B7279" stroke="#6B7279"/><text font-size="7.656842507645259" fill="black"><tspan x="4" y="18.01136363636364">Registry</tspan><tspan x="4" y="32.76136363636364">Run Keys</tspan><tspan x="4" y="47.51136363636364">/ Startup</tspan><tspan x="4" y="62.26136363636364">Folder</tspan></text></g></g><g class="tactic-label"><text font-size="9.46934250764526" fill="black" font-weight="bold"><tspan text-anchor="middle" x="43.18348623853211" y="32.88636363636364">Privilege</tspan><tspan text-anchor="middle" x="43.18348623853211" y="47.38636363636364">Escalation</tspan></text></g></g><g class="tactic defense-evasion" transform="translate(383.8532110091743, 0)"><g class="techniques"><g class="technique T1484" transform="translate(0, 73.27272727272728)"><rect class="cell" height="73.27272727272728" width="86.36697247706422" fill="#c6dbef" stroke="#6B7279"/><polygon class="sidebar" transform="translate(0, 73.27272727272728)" points="0,0 12,0 12,12" fill="#6B7279" visibility="visible"/><text font-size="7.656842507645259" fill="black"><tspan x="4" y="24.469696969696972">Domain</tspan><tspan x="4" y="39.13636363636364">Policy</tspan><tspan x="4" y="53.803030303030305">Modification</tspan></text></g><g class="technique T1562" transform="translate(0, 293.0909090909091)"><rect class="cell" height="73.27272727272728" width="86.36697247706422" fill="#c6dbef" stroke="#6B7279"/><polygon class="sidebar" transform="translate(0, 73.27272727272728)" points="0,0 12,0 12,12" fill="#6B7279" visibility="visible"/><text font-size="7.656842507645259" fill="black"><tspan x="4" y="32.88636363636364">Impair</tspan><tspan x="4" y="47.38636363636364">Defenses</tspan></text></g><g class="technique T1070" transform="translate(0, 439.6363636363636)"><rect class="cell" height="73.27272727272728" width="86.36697247706422" fill="#c6dbef" stroke="#6B7279"/><polygon class="sidebar" transform="translate(0, 73.27272727272728)" points="0,0 12,0 12,12" fill="#6B7279" visibility="visible"/><text font-size="7.656842507645259" fill="black"><tspan x="4" y="32.88636363636364">Indicator</tspan><tspan x="4" y="47.38636363636364">Removal</tspan></text></g><g class="technique T1112" transform="translate(0, 586.1818181818182)"><rect class="cell" height="73.27272727272728" width="86.36697247706422" fill="#c6dbef" stroke="#6B7279"/><polygon class="sidebar" transform="translate(0, 73.27272727272728)" points="0,0 12,0 12,0" fill="#6B7279" visibility="hidden"/><text font-size="7.656842507645259" fill="black"><tspan x="4" y="32.88636363636364">Modify</tspan><tspan x="4" y="47.38636363636364">Registry</tspan></text></g><g class="technique T1550" transform="translate(0, 659.4545454545455)"><rect class="cell" height="73.27272727272728" width="86.36697247706422" fill="#c6dbef" stroke="#6B7279"/><polygon class="sidebar" transform="translate(0, 73.27272727272728)" points="0,0 12,0 12,12" fill="#6B7279" visibility="visible"/><text font-size="7.656842507645259" fill="black"><tspan x="4" y="24.469696969696972">Use Alternate</tspan><tspan x="4" y="39.13636363636364">Authentication</tspan><tspan x="4" y="53.803030303030305">Material</tspan></text></g></g><g class="subtechniques"><g class="subtechnique T1484.002" transform="translate(15, 146.54545454545456)"><rect class="cell" height="73.27272727272728" width="71.36697247706422" fill="#c6dbef" stroke="#6B7279"/><rect class="cell" height="73.27272727272728" width="3" transform="translate(-3, 0)" fill="#6B7279" stroke="#6B7279"/><text font-size="7.656842507645259" fill="black"><tspan x="4" y="31.88636363636364">Domain Trust</tspan><tspan x="4" y="46.38636363636364">Modification</tspan></text></g><g class="subtechnique T1484.001" transform="translate(15, 219.8181818181818)"><rect class="cell" height="73.27272727272728" width="71.36697247706422" fill="#c6dbef" stroke="#6B7279"/><rect class="cell" height="73.27272727272728" width="3" transform="translate(-3, 0)" fill="#6B7279" stroke="#6B7279"/><text font-size="7.656842507645259" fill="black"><tspan x="4" y="31.88636363636364">Group Policy</tspan><tspan x="4" y="46.38636363636364">Modification</tspan></text></g><g class="subtechnique T1562.001" transform="translate(15, 366.3636363636364)"><rect class="cell" height="73.27272727272728" width="71.36697247706422" fill="#c6dbef" stroke="#6B7279"/><rect class="cell" height="73.27272727272728" width="3" transform="translate(-3, 0)" fill="#6B7279" stroke="#6B7279"/><text font-size="7.656842507645259" fill="black"><tspan x="4" y="18.01136363636364">Disable</tspan><tspan x="4" y="32.76136363636364">or</tspan><tspan x="4" y="47.51136363636364">Modify</tspan><tspan x="4" y="62.26136363636364">Tools</tspan></text></g><g class="subtechnique T1070.001" transform="translate(15, 512.9090909090909)"><rect class="cell" height="73.27272727272728" width="71.36697247706422" fill="#c6dbef" stroke="#6B7279"/><rect class="cell" height="73.27272727272728" width="3" transform="translate(-3, 0)" fill="#6B7279" stroke="#6B7279"/><text font-size="7.656842507645259" fill="black"><tspan x="4" y="18.01136363636364">Clear</tspan><tspan x="4" y="32.76136363636364">Windows</tspan><tspan x="4" y="47.51136363636364">Event</tspan><tspan x="4" y="62.26136363636364">Logs</tspan></text></g><g class="subtechnique T1550.002" transform="translate(15, 732.7272727272727)"><rect class="cell" height="73.27272727272728" width="71.36697247706422" fill="#c6dbef" stroke="#6B7279"/><rect class="cell" height="73.27272727272728" width="3" transform="translate(-3, 0)" fill="#6B7279" stroke="#6B7279"/><text font-size="7.656842507645259" fill="black"><tspan x="4" y="25.469696969696972">Pass</tspan><tspan x="4" y="40.13636363636364">the</tspan><tspan x="4" y="54.803030303030305">Hash</tspan></text></g></g><g class="tactic-label"><text font-size="9.46934250764526" fill="black" font-weight="bold"><tspan text-anchor="middle" x="43.18348623853211" y="32.88636363636364">Defense</tspan><tspan text-anchor="middle" x="43.18348623853211" y="47.38636363636364">Evasion</tspan></text></g></g><g class="tactic discovery" transform="translate(479.81651376146783, 0)"><g class="techniques"><g class="technique T1087" transform="translate(0, 73.27272727272728)"><rect class="cell" height="73.27272727272728" width="86.36697247706422" fill="#c6dbef" stroke="#6B7279"/><polygon class="sidebar" transform="translate(0, 73.27272727272728)" points="0,0 12,0 12,12" fill="#6B7279" visibility="visible"/><text font-size="7.656842507645259" fill="black"><tspan x="4" y="32.88636363636364">Account</tspan><tspan x="4" y="47.38636363636364">Discovery</tspan></text></g><g class="technique T1083" transform="translate(0, 293.0909090909091)"><rect class="cell" height="73.27272727272728" width="86.36697247706422" fill="#c6dbef" stroke="#6B7279"/><polygon class="sidebar" transform="translate(0, 73.27272727272728)" points="0,0 12,0 12,0" fill="#6B7279" visibility="hidden"/><text font-size="7.656842507645259" fill="black"><tspan x="4" y="25.469696969696972">File and</tspan><tspan x="4" y="40.13636363636364">Directory</tspan><tspan x="4" y="54.803030303030305">Discovery</tspan></text></g><g class="technique T1135" transform="translate(0, 366.3636363636364)"><rect class="cell" height="73.27272727272728" width="86.36697247706422" fill="#c6dbef" stroke="#6B7279"/><polygon class="sidebar" transform="translate(0, 73.27272727272728)" points="0,0 12,0 12,0" fill="#6B7279" visibility="hidden"/><text font-size="7.656842507645259" fill="black"><tspan x="4" y="25.469696969696972">Network</tspan><tspan x="4" y="40.13636363636364">Share</tspan><tspan x="4" y="54.803030303030305">Discovery</tspan></text></g><g class="technique T1057" transform="translate(0, 439.6363636363636)"><rect class="cell" height="73.27272727272728" width="86.36697247706422" fill="#c6dbef" stroke="#6B7279"/><polygon class="sidebar" transform="translate(0, 73.27272727272728)" points="0,0 12,0 12,0" fill="#6B7279" visibility="hidden"/><text font-size="7.656842507645259" fill="black"><tspan x="4" y="32.88636363636364">Process</tspan><tspan x="4" y="47.38636363636364">Discovery</tspan></text></g><g class="technique T1049" transform="translate(0, 512.9090909090909)"><rect class="cell" height="73.27272727272728" width="86.36697247706422" fill="#c6dbef" stroke="#6B7279"/><polygon class="sidebar" transform="translate(0, 73.27272727272728)" points="0,0 12,0 12,0" fill="#6B7279" visibility="hidden"/><text font-size="7.656842507645259" fill="black"><tspan x="4" y="18.01136363636364">System</tspan><tspan x="4" y="32.76136363636364">Network</tspan><tspan x="4" y="47.51136363636364">Connections</tspan><tspan x="4" y="62.26136363636364">Discovery</tspan></text></g></g><g class="subtechniques"><g class="subtechnique T1087.002" transform="translate(15, 146.54545454545456)"><rect class="cell" height="73.27272727272728" width="71.36697247706422" fill="#c6dbef" stroke="#6B7279"/><rect class="cell" height="73.27272727272728" width="3" transform="translate(-3, 0)" fill="#6B7279" stroke="#6B7279"/><text font-size="7.656842507645259" fill="black"><tspan x="4" y="32.88636363636364">Domain</tspan><tspan x="4" y="47.38636363636364">Account</tspan></text></g><g class="subtechnique T1087.001" transform="translate(15, 219.8181818181818)"><rect class="cell" height="73.27272727272728" width="71.36697247706422" fill="#c6dbef" stroke="#6B7279"/><rect class="cell" height="73.27272727272728" width="3" transform="translate(-3, 0)" fill="#6B7279" stroke="#6B7279"/><text font-size="7.656842507645259" fill="black"><tspan x="4" y="32.88636363636364">Local</tspan><tspan x="4" y="47.38636363636364">Account</tspan></text></g></g><g class="tactic-label"><text font-size="9.46934250764526" fill="black" font-weight="bold"><tspan text-anchor="middle" x="43.18348623853211" y="40.13636363636364">Discovery</tspan></text></g></g><g class="tactic lateral-movement" transform="translate(575.7798165137615, 0)"><g class="techniques"><g class="technique T1021" transform="translate(0, 73.27272727272728)"><rect class="cell" height="73.27272727272728" width="86.36697247706422" fill="#c6dbef" stroke="#6B7279"/><polygon class="sidebar" transform="translate(0, 73.27272727272728)" points="0,0 12,0 12,12" fill="#6B7279" visibility="visible"/><text font-size="7.656842507645259" fill="black"><tspan x="4" y="32.88636363636364">Remote</tspan><tspan x="4" y="47.38636363636364">Services</tspan></text></g><g class="technique T1550" transform="translate(0, 366.3636363636364)"><rect class="cell" height="73.27272727272728" width="86.36697247706422" fill="#c6dbef" stroke="#6B7279"/><polygon class="sidebar" transform="translate(0, 73.27272727272728)" points="0,0 12,0 12,12" fill="#6B7279" visibility="visible"/><text font-size="7.656842507645259" fill="black"><tspan x="4" y="24.469696969696972">Use Alternate</tspan><tspan x="4" y="39.13636363636364">Authentication</tspan><tspan x="4" y="53.803030303030305">Material</tspan></text></g></g><g class="subtechniques"><g class="subtechnique T1021.001" transform="translate(15, 146.54545454545456)"><rect class="cell" height="73.27272727272728" width="71.36697247706422" fill="#c6dbef" stroke="#6B7279"/><rect class="cell" height="73.27272727272728" width="3" transform="translate(-3, 0)" fill="#6B7279" stroke="#6B7279"/><text font-size="7.656842507645259" fill="black"><tspan x="4" y="25.469696969696972">Remote</tspan><tspan x="4" y="40.13636363636364">Desktop</tspan><tspan x="4" y="54.803030303030305">Protocol</tspan></text></g><g class="subtechnique T1021.002" transform="translate(15, 219.8181818181818)"><rect class="cell" height="73.27272727272728" width="71.36697247706422" fill="#c6dbef" stroke="#6B7279"/><rect class="cell" height="73.27272727272728" width="3" transform="translate(-3, 0)" fill="#6B7279" stroke="#6B7279"/><text font-size="7.656842507645259" fill="black"><tspan x="4" y="24.469696969696972">SMB/Windows</tspan><tspan x="4" y="39.13636363636364">Admin</tspan><tspan x="4" y="53.803030303030305">Shares</tspan></text></g><g class="subtechnique T1021.005" transform="translate(15, 293.0909090909091)"><rect class="cell" height="73.27272727272728" width="71.36697247706422" fill="#c6dbef" stroke="#6B7279"/><rect class="cell" height="73.27272727272728" width="3" transform="translate(-3, 0)" fill="#6B7279" stroke="#6B7279"/><text font-size="7.656842507645259" fill="black"><tspan x="4" y="40.13636363636364">VNC</tspan></text></g><g class="subtechnique T1550.002" transform="translate(15, 439.6363636363636)"><rect class="cell" height="73.27272727272728" width="71.36697247706422" fill="#c6dbef" stroke="#6B7279"/><rect class="cell" height="73.27272727272728" width="3" transform="translate(-3, 0)" fill="#6B7279" stroke="#6B7279"/><text font-size="7.656842507645259" fill="black"><tspan x="4" y="25.469696969696972">Pass</tspan><tspan x="4" y="40.13636363636364">the</tspan><tspan x="4" y="54.803030303030305">Hash</tspan></text></g></g><g class="tactic-label"><text font-size="9.46934250764526" fill="black" font-weight="bold"><tspan text-anchor="middle" x="43.18348623853211" y="32.88636363636364">Lateral</tspan><tspan text-anchor="middle" x="43.18348623853211" y="47.38636363636364">Movement</tspan></text></g></g><g class="tactic collection" transform="translate(671.743119266055, 0)"><g class="techniques"><g class="technique T1119" transform="translate(0, 73.27272727272728)"><rect class="cell" height="73.27272727272728" width="86.36697247706422" fill="#c6dbef" stroke="#6B7279"/><polygon class="sidebar" transform="translate(0, 73.27272727272728)" points="0,0 12,0 12,0" fill="#6B7279" visibility="hidden"/><text font-size="7.656842507645259" fill="black"><tspan x="4" y="32.88636363636364">Automated</tspan><tspan x="4" y="47.38636363636364">Collection</tspan></text></g><g class="technique T1005" transform="translate(0, 146.54545454545456)"><rect class="cell" height="73.27272727272728" width="86.36697247706422" fill="#c6dbef" stroke="#6B7279"/><polygon class="sidebar" transform="translate(0, 73.27272727272728)" points="0,0 12,0 12,0" fill="#6B7279" visibility="hidden"/><text font-size="7.656842507645259" fill="black"><tspan x="4" y="25.469696969696972">Data from</tspan><tspan x="4" y="40.13636363636364">Local</tspan><tspan x="4" y="54.803030303030305">System</tspan></text></g><g class="technique T1039" transform="translate(0, 219.8181818181818)"><rect class="cell" height="73.27272727272728" width="86.36697247706422" fill="#c6dbef" stroke="#6B7279"/><polygon class="sidebar" transform="translate(0, 73.27272727272728)" points="0,0 12,0 12,0" fill="#6B7279" visibility="hidden"/><text font-size="7.656842507645259" fill="black"><tspan x="4" y="18.01136363636364">Data from</tspan><tspan x="4" y="32.76136363636364">Network</tspan><tspan x="4" y="47.51136363636364">Shared</tspan><tspan x="4" y="62.26136363636364">Drive</tspan></text></g><g class="technique T1025" transform="translate(0, 293.0909090909091)"><rect class="cell" height="73.27272727272728" width="86.36697247706422" fill="#c6dbef" stroke="#6B7279"/><polygon class="sidebar" transform="translate(0, 73.27272727272728)" points="0,0 12,0 12,0" fill="#6B7279" visibility="hidden"/><text font-size="7.656842507645259" fill="black"><tspan x="4" y="25.469696969696972">Data from</tspan><tspan x="4" y="40.13636363636364">Removable</tspan><tspan x="4" y="54.803030303030305">Media</tspan></text></g></g><g class="subtechniques"/><g class="tactic-label"><text font-size="9.46934250764526" fill="black" font-weight="bold"><tspan text-anchor="middle" x="43.18348623853211" y="40.13636363636364">Collection</tspan></text></g></g><g class="tactic command-and-control" transform="translate(767.7064220183486, 0)"><g class="techniques"><g class="technique T1105" transform="translate(0, 73.27272727272728)"><rect class="cell" height="73.27272727272728" width="86.36697247706422" fill="#c6dbef" stroke="#6B7279"/><polygon class="sidebar" transform="translate(0, 73.27272727272728)" points="0,0 12,0 12,0" fill="#6B7279" visibility="hidden"/><text font-size="7.656842507645259" fill="black"><tspan x="4" y="25.469696969696972">Ingress</tspan><tspan x="4" y="40.13636363636364">Tool</tspan><tspan x="4" y="54.803030303030305">Transfer</tspan></text></g><g class="technique T1572" transform="translate(0, 146.54545454545456)"><rect class="cell" height="73.27272727272728" width="86.36697247706422" fill="#c6dbef" stroke="#6B7279"/><polygon class="sidebar" transform="translate(0, 73.27272727272728)" points="0,0 12,0 12,0" fill="#6B7279" visibility="hidden"/><text font-size="7.656842507645259" fill="black"><tspan x="4" y="32.88636363636364">Protocol</tspan><tspan x="4" y="47.38636363636364">Tunneling</tspan></text></g><g class="technique T1219" transform="translate(0, 219.8181818181818)"><rect class="cell" height="73.27272727272728" width="86.36697247706422" fill="#c6dbef" stroke="#6B7279"/><polygon class="sidebar" transform="translate(0, 73.27272727272728)" points="0,0 12,0 12,0" fill="#6B7279" visibility="hidden"/><text font-size="7.656842507645259" fill="black"><tspan x="4" y="25.469696969696972">Remote</tspan><tspan x="4" y="40.13636363636364">Access</tspan><tspan x="4" y="54.803030303030305">Software</tspan></text></g></g><g class="subtechniques"/><g class="tactic-label"><text font-size="9.46934250764526" fill="black" font-weight="bold"><tspan text-anchor="middle" x="43.18348623853211" y="25.469696969696972">Command</tspan><tspan text-anchor="middle" x="43.18348623853211" y="40.13636363636364">and</tspan><tspan text-anchor="middle" x="43.18348623853211" y="54.803030303030305">Control</tspan></text></g></g><g class="tactic exfiltration" transform="translate(863.6697247706421, 0)"><g class="techniques"><g class="technique T1567" transform="translate(0, 73.27272727272728)"><rect class="cell" height="73.27272727272728" width="86.36697247706422" fill="#c6dbef" stroke="#6B7279"/><polygon class="sidebar" transform="translate(0, 73.27272727272728)" points="0,0 12,0 12,12" fill="#6B7279" visibility="visible"/><text font-size="7.656842507645259" fill="black"><tspan x="4" y="24.469696969696972">Exfiltration</tspan><tspan x="4" y="39.13636363636364">Over</tspan><tspan x="4" y="53.803030303030305">Web Service</tspan></text></g></g><g class="subtechniques"><g class="subtechnique T1567.002" transform="translate(15, 146.54545454545456)"><rect class="cell" height="73.27272727272728" width="71.36697247706422" fill="#c6dbef" stroke="#6B7279"/><rect class="cell" height="73.27272727272728" width="3" transform="translate(-3, 0)" fill="#6B7279" stroke="#6B7279"/><text font-size="7.656842507645259" fill="black"><tspan x="4" y="24.469696969696972">Exfiltration</tspan><tspan x="4" y="39.13636363636364">to Cloud</tspan><tspan x="4" y="53.803030303030305">Storage</tspan></text></g></g><g class="tactic-label"><text font-size="9.46934250764526" fill="black" font-weight="bold"><tspan text-anchor="middle" x="43.18348623853211" y="39.13636363636364">Exfiltration</tspan></text></g></g><g class="tactic impact" transform="translate(959.6330275229357, 0)"><g class="techniques"><g class="technique T1486" transform="translate(0, 73.27272727272728)"><rect class="cell" height="73.27272727272728" width="86.36697247706422" fill="#c6dbef" stroke="#6B7279"/><polygon class="sidebar" transform="translate(0, 73.27272727272728)" points="0,0 12,0 12,0" fill="#6B7279" visibility="hidden"/><text font-size="7.656842507645259" fill="black"><tspan x="4" y="18.01136363636364">Data</tspan><tspan x="4" y="32.76136363636364">Encrypted</tspan><tspan x="4" y="47.51136363636364">for</tspan><tspan x="4" y="62.26136363636364">Impact</tspan></text></g></g><g class="subtechniques"/><g class="tactic-label"><text font-size="9.46934250764526" fill="black" font-weight="bold"><tspan text-anchor="middle" x="43.18348623853211" y="40.13636363636364">Impact</tspan></text></g></g></g></g></g></svg>