<?xml version="1.0" standalone="no"?>
<svg width="1056" height="816" xmlns="http://www.w3.org/2000/svg" id="svgvm0"><g transform="translate(5,5)" style="font-family: sans-serif;"><g transform="translate(0,1)"><g><g class="tactic execution" transform="translate(0, 0)"><g class="techniques"><g class="technique T1059" transform="translate(0, 100.75)"><rect class="cell" height="100.75" width="159.5593220338983" fill="#c6dbef" stroke="#6B7279"/><polygon class="sidebar" transform="translate(0, 100.75)" points="0,0 12,0 12,12" fill="#6B7279" visibility="visible"/><text font-size="12" fill="black"><tspan x="4" y="39.20833333333333">Command</tspan><tspan x="4" y="53.875">and Scripting</tspan><tspan x="4" y="68.54166666666666">Interpreter</tspan></text></g><g class="technique T1106" transform="translate(0, 302.25)"><rect class="cell" height="100.75" width="159.5593220338983" fill="#c6dbef" stroke="#6B7279"/><polygon class="sidebar" transform="translate(0, 100.75)" points="0,0 12,0 12,0" fill="#6B7279" visibility="hidden"/><text font-size="12" fill="black"><tspan x="4" y="53.875">Native API</tspan></text></g><g class="technique T1569" transform="translate(0, 403)"><rect class="cell" height="100.75" width="159.5593220338983" fill="#c6dbef" stroke="#6B7279"/><polygon class="sidebar" transform="translate(0, 100.75)" points="0,0 12,0 12,12" fill="#6B7279" visibility="visible"/><text font-size="12" fill="black"><tspan x="4" y="53.875">System Services</tspan></text></g><g class="technique T1204" transform="translate(0, 604.5)"><rect class="cell" height="100.75" width="159.5593220338983" fill="#c6dbef" stroke="#6B7279"/><polygon class="sidebar" transform="translate(0, 100.75)" points="0,0 12,0 12,12" fill="#6B7279" visibility="visible"/><text font-size="12" fill="black"><tspan x="4" y="53.875">User Execution</tspan></text></g></g><g class="subtechniques"><g class="subtechnique T1059.003" transform="translate(15, 201.5)"><rect class="cell" height="100.75" width="144.5593220338983" fill="#c6dbef" stroke="#6B7279"/><rect class="cell" height="100.75" width="3" transform="translate(-3, 0)" fill="#6B7279" stroke="#6B7279"/><text font-size="12" fill="black"><tspan x="4" y="46.625">Windows</tspan><tspan x="4" y="61.125">Command Shell</tspan></text></g><g class="subtechnique T1569.002" transform="translate(15, 503.75)"><rect class="cell" height="100.75" width="144.5593220338983" fill="#c6dbef" stroke="#6B7279"/><rect class="cell" height="100.75" width="3" transform="translate(-3, 0)" fill="#6B7279" stroke="#6B7279"/><text font-size="12" fill="black"><tspan x="4" y="46.625">Service</tspan><tspan x="4" y="61.125">Execution</tspan></text></g><g class="subtechnique T1204.002" transform="translate(15, 705.25)"><rect class="cell" height="100.75" width="144.5593220338983" fill="#c6dbef" stroke="#6B7279"/><rect class="cell" height="100.75" width="3" transform="translate(-3, 0)" fill="#6B7279" stroke="#6B7279"/><text font-size="12" fill="black"><tspan x="4" y="53.875">Malicious File</tspan></text></g></g><g class="tactic-label"><text font-size="12" fill="black" font-weight="bold"><tspan text-anchor="middle" x="79.77966101694915" y="53.875">Execution</tspan></text></g></g><g class="tactic persistence" transform="translate(177.28813559322032, 0)"><g class="techniques"><g class="technique T1543" transform="translate(0, 100.75)"><rect class="cell" height="100.75" width="159.5593220338983" fill="#c6dbef" stroke="#6B7279"/><polygon class="sidebar" transform="translate(0, 100.75)" points="0,0 12,0 12,12" fill="#6B7279" visibility="visible"/><text font-size="12" fill="black"><tspan x="4" y="46.625">Create or Modify</tspan><tspan x="4" y="61.125">System Process</tspan></text></g></g><g class="subtechniques"><g class="subtechnique T1543.003" transform="translate(15, 201.5)"><rect class="cell" height="100.75" width="144.5593220338983" fill="#c6dbef" stroke="#6B7279"/><rect class="cell" height="100.75" width="3" transform="translate(-3, 0)" fill="#6B7279" stroke="#6B7279"/><text font-size="12" fill="black"><tspan x="4" y="53.875">Windows Service</tspan></text></g></g><g class="tactic-label"><text font-size="12" fill="black" font-weight="bold"><tspan text-anchor="middle" x="79.77966101694915" y="53.875">Persistence</tspan></text></g></g><g class="tactic privilege-escalation" transform="translate(354.57627118644064, 0)"><g class="techniques"><g class="technique T1543" transform="translate(0, 100.75)"><rect class="cell" height="100.75" width="159.5593220338983" fill="#c6dbef" stroke="#6B7279"/><polygon class="sidebar" transform="translate(0, 100.75)" points="0,0 12,0 12,12" fill="#6B7279" visibility="visible"/><text font-size="12" fill="black"><tspan x="4" y="46.625">Create or Modify</tspan><tspan x="4" y="61.125">System Process</tspan></text></g></g><g class="subtechniques"><g class="subtechnique T1543.003" transform="translate(15, 201.5)"><rect class="cell" height="100.75" width="144.5593220338983" fill="#c6dbef" stroke="#6B7279"/><rect class="cell" height="100.75" width="3" transform="translate(-3, 0)" fill="#6B7279" stroke="#6B7279"/><text font-size="12" fill="black"><tspan x="4" y="53.875">Windows Service</tspan></text></g></g><g class="tactic-label"><text font-size="12" fill="black" font-weight="bold"><tspan text-anchor="middle" x="79.77966101694915" y="46.625">Privilege</tspan><tspan text-anchor="middle" x="79.77966101694915" y="61.125">Escalation</tspan></text></g></g><g class="tactic defense-evasion" transform="translate(531.864406779661, 0)"><g class="techniques"><g class="technique T1562" transform="translate(0, 100.75)"><rect class="cell" height="100.75" width="159.5593220338983" fill="#c6dbef" stroke="#6B7279"/><polygon class="sidebar" transform="translate(0, 100.75)" points="0,0 12,0 12,12" fill="#6B7279" visibility="visible"/><text font-size="12" fill="black"><tspan x="4" y="53.875">Impair Defenses</tspan></text></g><g class="technique T1070" transform="translate(0, 302.25)"><rect class="cell" height="100.75" width="159.5593220338983" fill="#c6dbef" stroke="#6B7279"/><polygon class="sidebar" transform="translate(0, 100.75)" points="0,0 12,0 12,12" fill="#6B7279" visibility="visible"/><text font-size="12" fill="black"><tspan x="4" y="53.875">Indicator Removal</tspan></text></g><g class="technique T1112" transform="translate(0, 503.75)"><rect class="cell" height="100.75" width="159.5593220338983" fill="#c6dbef" stroke="#6B7279"/><polygon class="sidebar" transform="translate(0, 100.75)" points="0,0 12,0 12,0" fill="#6B7279" visibility="hidden"/><text font-size="12" fill="black"><tspan x="4" y="53.875">Modify Registry</tspan></text></g></g><g class="subtechniques"><g class="subtechnique T1562.009" transform="translate(15, 201.5)"><rect class="cell" height="100.75" width="144.5593220338983" fill="#c6dbef" stroke="#6B7279"/><rect class="cell" height="100.75" width="3" transform="translate(-3, 0)" fill="#6B7279" stroke="#6B7279"/><text font-size="12" fill="black"><tspan x="4" y="53.875">Safe Mode Boot</tspan></text></g><g class="subtechnique T1070.004" transform="translate(15, 403)"><rect class="cell" height="100.75" width="144.5593220338983" fill="#c6dbef" stroke="#6B7279"/><rect class="cell" height="100.75" width="3" transform="translate(-3, 0)" fill="#6B7279" stroke="#6B7279"/><text font-size="12" fill="black"><tspan x="4" y="53.875">File Deletion</tspan></text></g></g><g class="tactic-label"><text font-size="12" fill="black" font-weight="bold"><tspan text-anchor="middle" x="79.77966101694915" y="53.875">Defense Evasion</tspan></text></g></g><g class="tactic discovery" transform="translate(709.1525423728813, 0)"><g class="techniques"><g class="technique T1083" transform="translate(0, 100.75)"><rect class="cell" height="100.75" width="159.5593220338983" fill="#c6dbef" stroke="#6B7279"/><polygon class="sidebar" transform="translate(0, 100.75)" points="0,0 12,0 12,0" fill="#6B7279" visibility="hidden"/><text font-size="12" fill="black"><tspan x="4" y="46.625">File and Directory</tspan><tspan x="4" y="61.125">Discovery</tspan></text></g><g class="technique T1135" transform="translate(0, 201.5)"><rect class="cell" height="100.75" width="159.5593220338983" fill="#c6dbef" stroke="#6B7279"/><polygon class="sidebar" transform="translate(0, 100.75)" points="0,0 12,0 12,0" fill="#6B7279" visibility="hidden"/><text font-size="12" fill="black"><tspan x="4" y="46.625">Network</tspan><tspan x="4" y="61.125">Share Discovery</tspan></text></g><g class="technique T1614" transform="translate(0, 302.25)"><rect class="cell" height="100.75" width="159.5593220338983" fill="#c6dbef" stroke="#6B7279"/><polygon class="sidebar" transform="translate(0, 100.75)" points="0,0 12,0 12,12" fill="#6B7279" visibility="visible"/><text font-size="12" fill="black"><tspan x="4" y="46.625">System</tspan><tspan x="4" y="61.125">Location Discovery</tspan></text></g></g><g class="subtechniques"><g class="subtechnique T1614.001" transform="translate(15, 403)"><rect class="cell" height="100.75" width="144.5593220338983" fill="#c6dbef" stroke="#6B7279"/><rect class="cell" height="100.75" width="3" transform="translate(-3, 0)" fill="#6B7279" stroke="#6B7279"/><text font-size="12" fill="black"><tspan x="4" y="46.625">System Language</tspan><tspan x="4" y="61.125">Discovery</tspan></text></g></g><g class="tactic-label"><text font-size="12" fill="black" font-weight="bold"><tspan text-anchor="middle" x="79.77966101694915" y="53.875">Discovery</tspan></text></g></g><g class="tactic impact" transform="translate(886.4406779661016, 0)"><g class="techniques"><g class="technique T1486" transform="translate(0, 100.75)"><rect class="cell" height="100.75" width="159.5593220338983" fill="#c6dbef" stroke="#6B7279"/><polygon class="sidebar" transform="translate(0, 100.75)" points="0,0 12,0 12,0" fill="#6B7279" visibility="hidden"/><text font-size="12" fill="black"><tspan x="4" y="46.625">Data Encrypted</tspan><tspan x="4" y="61.125">for Impact</tspan></text></g><g class="technique T1490" transform="translate(0, 201.5)"><rect class="cell" height="100.75" width="159.5593220338983" fill="#c6dbef" stroke="#6B7279"/><polygon class="sidebar" transform="translate(0, 100.75)" points="0,0 12,0 12,0" fill="#6B7279" visibility="hidden"/><text font-size="12" fill="black"><tspan x="4" y="46.625">Inhibit</tspan><tspan x="4" y="61.125">System Recovery</tspan></text></g></g><g class="subtechniques"/><g class="tactic-label"><text font-size="12" fill="black" font-weight="bold"><tspan text-anchor="middle" x="79.77966101694915" y="53.875">Impact</tspan></text></g></g></g></g></g></svg>