<?xml version="1.0" standalone="no"?>
<svg width="1056" height="816" xmlns="http://www.w3.org/2000/svg" id="svgvm0"><g transform="translate(5,5)" style="font-family: sans-serif;"><g transform="translate(0,1)"><rect class="tactic-header-background" width="1046" height="134.33333333333331" fill="#ffffff" stroke="#6B7279"/><g><g class="tactic execution" transform="translate(0, 0)"><g class="techniques"><g class="technique T1059" transform="translate(0, 134.33333333333331)"><rect class="cell" height="134.33333333333331" width="324.6206896551724" fill="#6baed6" stroke="#6B7279"/><polygon class="sidebar" transform="translate(0, 134.33333333333331)" points="0,0 12,0 12,12" fill="#6B7279" visibility="visible"/><text font-size="12" fill="black"><tspan x="4" y="70.66666666666666">Command and Scripting Interpreter</tspan></text></g><g class="technique T1106" transform="translate(0, 403)"><rect class="cell" height="134.33333333333331" width="324.6206896551724" fill="#6baed6" stroke="#6B7279"/><polygon class="sidebar" transform="translate(0, 134.33333333333331)" points="0,0 12,0 12,0" fill="#6B7279" visibility="hidden"/><text font-size="12" fill="black"><tspan x="4" y="70.66666666666666">Native API</tspan></text></g><g class="technique T1204" transform="translate(0, 537.3333333333333)"><rect class="cell" height="134.33333333333331" width="324.6206896551724" fill="#6baed6" stroke="#6B7279"/><polygon class="sidebar" transform="translate(0, 134.33333333333331)" points="0,0 12,0 12,12" fill="#6B7279" visibility="visible"/><text font-size="12" fill="black"><tspan x="4" y="70.66666666666666">User Execution</tspan></text></g></g><g class="subtechniques"><g class="subtechnique T1059.003" transform="translate(15, 268.66666666666663)"><rect class="cell" height="134.33333333333331" width="309.6206896551724" fill="white" stroke="#6B7279"/><rect class="cell" height="134.33333333333331" width="3" transform="translate(-3, 0)" fill="#6B7279" stroke="#6B7279"/><text font-size="12" fill="black"><tspan x="4" y="70.66666666666666">Windows Command Shell</tspan></text></g><g class="subtechnique T1204.002" transform="translate(15, 671.6666666666667)"><rect class="cell" height="134.33333333333331" width="309.6206896551724" fill="white" stroke="#6B7279"/><rect class="cell" height="134.33333333333331" width="3" transform="translate(-3, 0)" fill="#6B7279" stroke="#6B7279"/><text font-size="12" fill="black"><tspan x="4" y="70.66666666666666">Malicious File</tspan></text></g></g><g class="tactic-label"><text font-size="12" fill="black" font-weight="bold"><tspan text-anchor="middle" x="162.3103448275862" y="70.66666666666666">Execution</tspan></text></g></g><g class="tactic discovery" transform="translate(360.6896551724138, 0)"><g class="techniques"><g class="technique T1083" transform="translate(0, 134.33333333333331)"><rect class="cell" height="134.33333333333331" width="324.6206896551724" fill="#6baed6" stroke="#6B7279"/><polygon class="sidebar" transform="translate(0, 134.33333333333331)" points="0,0 12,0 12,0" fill="#6B7279" visibility="hidden"/><text font-size="12" fill="black"><tspan x="4" y="70.66666666666666">File and Directory Discovery</tspan></text></g><g class="technique T1135" transform="translate(0, 268.66666666666663)"><rect class="cell" height="134.33333333333331" width="324.6206896551724" fill="#6baed6" stroke="#6B7279"/><polygon class="sidebar" transform="translate(0, 134.33333333333331)" points="0,0 12,0 12,0" fill="#6B7279" visibility="hidden"/><text font-size="12" fill="black"><tspan x="4" y="70.66666666666666">Network Share Discovery</tspan></text></g><g class="technique T1057" transform="translate(0, 403)"><rect class="cell" height="134.33333333333331" width="324.6206896551724" fill="#6baed6" stroke="#6B7279"/><polygon class="sidebar" transform="translate(0, 134.33333333333331)" points="0,0 12,0 12,0" fill="#6B7279" visibility="hidden"/><text font-size="12" fill="black"><tspan x="4" y="70.66666666666666">Process Discovery</tspan></text></g></g><g class="subtechniques"/><g class="tactic-label"><text font-size="12" fill="black" font-weight="bold"><tspan text-anchor="middle" x="162.3103448275862" y="70.66666666666666">Discovery</tspan></text></g></g><g class="tactic impact" transform="translate(721.3793103448276, 0)"><g class="techniques"><g class="technique T1486" transform="translate(0, 134.33333333333331)"><rect class="cell" height="134.33333333333331" width="324.6206896551724" fill="#6baed6" stroke="#6B7279"/><polygon class="sidebar" transform="translate(0, 134.33333333333331)" points="0,0 12,0 12,0" fill="#6B7279" visibility="hidden"/><text font-size="12" fill="black"><tspan x="4" y="70.66666666666666">Data Encrypted for Impact</tspan></text></g></g><g class="subtechniques"/><g class="tactic-label"><text font-size="12" fill="black" font-weight="bold"><tspan text-anchor="middle" x="162.3103448275862" y="70.66666666666666">Impact</tspan></text></g></g></g></g></g></svg>