<?xml version="1.0" standalone="no"?>
<svg width="1440" height="816" xmlns="http://www.w3.org/2000/svg" id="svgvm0"><g transform="translate(5,5)" style="font-family: sans-serif;"><g transform="translate(0,1)"><g><g class="tactic initial-access" transform="translate(0, 0)"><g class="techniques"><g class="technique T1190" transform="translate(0, 26.866666666666667)"><rect class="cell" height="26.866666666666667" width="144.6067415730337" fill="#dadaeb" stroke="#6B7279"/><polygon class="sidebar" transform="translate(0, 26.866666666666667)" points="0,0 12,0 12,0" fill="#6B7279" visibility="hidden"/><text font-size="9.432370251471374" fill="black"><tspan x="4" y="9.466666666666667">Exploit Public-Facing</tspan><tspan x="4" y="22.4">Application</tspan></text></g><g class="technique T1566" transform="translate(0, 53.733333333333334)"><rect class="cell" height="26.866666666666667" width="144.6067415730337" fill="#dadaeb" stroke="#6B7279"/><polygon class="sidebar" transform="translate(0, 26.866666666666667)" points="0,0 12,0 12,12" fill="#6B7279" visibility="visible"/><text font-size="12" fill="black"><tspan x="4" y="16.933333333333334">Phishing</tspan></text></g><g class="technique T1078" transform="translate(0, 161.20000000000002)"><rect class="cell" height="26.866666666666667" width="144.6067415730337" fill="#dadaeb" stroke="#6B7279"/><polygon class="sidebar" transform="translate(0, 26.866666666666667)" points="0,0 12,0 12,12" fill="#6B7279" visibility="visible"/><text font-size="12" fill="black"><tspan x="4" y="16.933333333333334">Valid Accounts</tspan></text></g></g><g class="subtechniques"><g class="subtechnique T1566.001" transform="translate(15, 80.60000000000001)"><rect class="cell" height="26.866666666666667" width="129.6067415730337" fill="white" stroke="#6B7279"/><rect class="cell" height="26.866666666666667" width="3" transform="translate(-3, 0)" fill="#6B7279" stroke="#6B7279"/><text font-size="10.746666666666668" fill="black"><tspan x="4" y="10.466666666666667">Spearphishing</tspan><tspan x="4" y="23.4">Attachment</tspan></text></g><g class="subtechnique T1566.002" transform="translate(15, 107.46666666666667)"><rect class="cell" height="26.866666666666667" width="129.6067415730337" fill="white" stroke="#6B7279"/><rect class="cell" height="26.866666666666667" width="3" transform="translate(-3, 0)" fill="#6B7279" stroke="#6B7279"/><text font-size="10.746666666666668" fill="black"><tspan x="4" y="10.466666666666667">Spearphishing</tspan><tspan x="4" y="23.4">Link</tspan></text></g><g class="subtechnique T1566.003" transform="translate(15, 134.33333333333331)"><rect class="cell" height="26.866666666666667" width="129.6067415730337" fill="white" stroke="#6B7279"/><rect class="cell" height="26.866666666666667" width="3" transform="translate(-3, 0)" fill="#6B7279" stroke="#6B7279"/><text font-size="10.746666666666668" fill="black"><tspan x="4" y="10.466666666666667">Spearphishing</tspan><tspan x="4" y="23.4">via Service</tspan></text></g><g class="subtechnique T1078.001" transform="translate(15, 188.06666666666666)"><rect class="cell" height="26.866666666666667" width="129.6067415730337" fill="white" stroke="#6B7279"/><rect class="cell" height="26.866666666666667" width="3" transform="translate(-3, 0)" fill="#6B7279" stroke="#6B7279"/><text font-size="11.02061095505618" fill="black"><tspan x="4" y="16.933333333333334">Default Accounts</tspan></text></g><g class="subtechnique T1078.002" transform="translate(15, 214.93333333333334)"><rect class="cell" height="26.866666666666667" width="129.6067415730337" fill="white" stroke="#6B7279"/><rect class="cell" height="26.866666666666667" width="3" transform="translate(-3, 0)" fill="#6B7279" stroke="#6B7279"/><text font-size="11.755318352059923" fill="black"><tspan x="4" y="16.933333333333334">Domain Accounts</tspan></text></g><g class="subtechnique T1078.003" transform="translate(15, 241.79999999999998)"><rect class="cell" height="26.866666666666667" width="129.6067415730337" fill="white" stroke="#6B7279"/><rect class="cell" height="26.866666666666667" width="3" transform="translate(-3, 0)" fill="#6B7279" stroke="#6B7279"/><text font-size="12" fill="black"><tspan x="4" y="16.933333333333334">Local Accounts</tspan></text></g><g class="subtechnique T1078.004" transform="translate(15, 268.66666666666663)"><rect class="cell" height="26.866666666666667" width="129.6067415730337" fill="white" stroke="#6B7279"/><rect class="cell" height="26.866666666666667" width="3" transform="translate(-3, 0)" fill="#6B7279" stroke="#6B7279"/><text font-size="12" fill="black"><tspan x="4" y="16.933333333333334">Cloud Accounts</tspan></text></g></g><g class="tactic-label"><text font-size="12" fill="black" font-weight="bold"><tspan text-anchor="middle" x="72.30337078651685" y="16.933333333333334">Initial Access</tspan></text></g></g><g class="tactic execution" transform="translate(160.67415730337078, 0)"><g class="techniques"><g class="technique T1059" transform="translate(0, 26.866666666666667)"><rect class="cell" height="26.866666666666667" width="144.6067415730337" fill="#dadaeb" stroke="#6B7279"/><polygon class="sidebar" transform="translate(0, 26.866666666666667)" points="0,0 12,0 12,12" fill="#6B7279" visibility="visible"/><text font-size="9.432370251471374" fill="black"><tspan x="4" y="9.466666666666667">Command and</tspan><tspan x="4" y="22.4">Scripting Interpreter</tspan></text></g><g class="technique T1106" transform="translate(0, 107.46666666666667)"><rect class="cell" height="26.866666666666667" width="144.6067415730337" fill="#dadaeb" stroke="#6B7279"/><polygon class="sidebar" transform="translate(0, 26.866666666666667)" points="0,0 12,0 12,0" fill="#6B7279" visibility="hidden"/><text font-size="12" fill="black"><tspan x="4" y="16.933333333333334">Native API</tspan></text></g><g class="technique T1204" transform="translate(0, 134.33333333333331)"><rect class="cell" height="26.866666666666667" width="144.6067415730337" fill="#dadaeb" stroke="#6B7279"/><polygon class="sidebar" transform="translate(0, 26.866666666666667)" points="0,0 12,0 12,12" fill="#6B7279" visibility="visible"/><text font-size="12" fill="black"><tspan x="4" y="16.933333333333334">User Execution</tspan></text></g></g><g class="subtechniques"><g class="subtechnique T1059.001" transform="translate(15, 53.733333333333334)"><rect class="cell" height="26.866666666666667" width="129.6067415730337" fill="white" stroke="#6B7279"/><rect class="cell" height="26.866666666666667" width="3" transform="translate(-3, 0)" fill="#6B7279" stroke="#6B7279"/><text font-size="12" fill="black"><tspan x="4" y="16.933333333333334">PowerShell</tspan></text></g><g class="subtechnique T1059.003" transform="translate(15, 80.60000000000001)"><rect class="cell" height="26.866666666666667" width="129.6067415730337" fill="white" stroke="#6B7279"/><rect class="cell" height="26.866666666666667" width="3" transform="translate(-3, 0)" fill="#6B7279" stroke="#6B7279"/><text font-size="10.746666666666668" fill="black"><tspan x="4" y="10.466666666666667">Windows</tspan><tspan x="4" y="23.4">Command Shell</tspan></text></g><g class="subtechnique T1204.002" transform="translate(15, 161.20000000000002)"><rect class="cell" height="26.866666666666667" width="129.6067415730337" fill="white" stroke="#6B7279"/><rect class="cell" height="26.866666666666667" width="3" transform="translate(-3, 0)" fill="#6B7279" stroke="#6B7279"/><text font-size="12" fill="black"><tspan x="4" y="16.933333333333334">Malicious File</tspan></text></g></g><g class="tactic-label"><text font-size="12" fill="black" font-weight="bold"><tspan text-anchor="middle" x="72.30337078651685" y="16.933333333333334">Execution</tspan></text></g></g><g class="tactic persistence" transform="translate(321.34831460674155, 0)"><g class="techniques"><g class="technique T1078" transform="translate(0, 26.866666666666667)"><rect class="cell" height="26.866666666666667" width="144.6067415730337" fill="#dadaeb" stroke="#6B7279"/><polygon class="sidebar" transform="translate(0, 26.866666666666667)" points="0,0 12,0 12,12" fill="#6B7279" visibility="visible"/><text font-size="12" fill="black"><tspan x="4" y="16.933333333333334">Valid Accounts</tspan></text></g></g><g class="subtechniques"><g class="subtechnique T1078.001" transform="translate(15, 53.733333333333334)"><rect class="cell" height="26.866666666666667" width="129.6067415730337" fill="white" stroke="#6B7279"/><rect class="cell" height="26.866666666666667" width="3" transform="translate(-3, 0)" fill="#6B7279" stroke="#6B7279"/><text font-size="11.02061095505618" fill="black"><tspan x="4" y="16.933333333333334">Default Accounts</tspan></text></g><g class="subtechnique T1078.002" transform="translate(15, 80.60000000000001)"><rect class="cell" height="26.866666666666667" width="129.6067415730337" fill="white" stroke="#6B7279"/><rect class="cell" height="26.866666666666667" width="3" transform="translate(-3, 0)" fill="#6B7279" stroke="#6B7279"/><text font-size="11.755318352059923" fill="black"><tspan x="4" y="16.933333333333334">Domain Accounts</tspan></text></g><g class="subtechnique T1078.003" transform="translate(15, 107.46666666666667)"><rect class="cell" height="26.866666666666667" width="129.6067415730337" fill="white" stroke="#6B7279"/><rect class="cell" height="26.866666666666667" width="3" transform="translate(-3, 0)" fill="#6B7279" stroke="#6B7279"/><text font-size="12" fill="black"><tspan x="4" y="16.933333333333334">Local Accounts</tspan></text></g><g class="subtechnique T1078.004" transform="translate(15, 134.33333333333331)"><rect class="cell" height="26.866666666666667" width="129.6067415730337" fill="white" stroke="#6B7279"/><rect class="cell" height="26.866666666666667" width="3" transform="translate(-3, 0)" fill="#6B7279" stroke="#6B7279"/><text font-size="12" fill="black"><tspan x="4" y="16.933333333333334">Cloud Accounts</tspan></text></g></g><g class="tactic-label"><text font-size="12" fill="black" font-weight="bold"><tspan text-anchor="middle" x="72.30337078651685" y="16.933333333333334">Persistence</tspan></text></g></g><g class="tactic privilege-escalation" transform="translate(482.02247191011236, 0)"><g class="techniques"><g class="technique T1548" transform="translate(0, 26.866666666666667)"><rect class="cell" height="26.866666666666667" width="144.6067415730337" fill="#dadaeb" stroke="#6B7279"/><polygon class="sidebar" transform="translate(0, 26.866666666666667)" points="0,0 12,0 12,12" fill="#6B7279" visibility="visible"/><text font-size="10.746666666666668" fill="black"><tspan x="4" y="10.466666666666667">Abuse Elevation</tspan><tspan x="4" y="23.4">Control Mechanism</tspan></text></g><g class="technique T1134" transform="translate(0, 80.60000000000001)"><rect class="cell" height="26.866666666666667" width="144.6067415730337" fill="#dadaeb" stroke="#6B7279"/><polygon class="sidebar" transform="translate(0, 26.866666666666667)" points="0,0 12,0 12,12" fill="#6B7279" visibility="visible"/><text font-size="10.746666666666668" fill="black"><tspan x="4" y="10.466666666666667">Access</tspan><tspan x="4" y="23.4">Token Manipulation</tspan></text></g><g class="technique T1611" transform="translate(0, 134.33333333333331)"><rect class="cell" height="26.866666666666667" width="144.6067415730337" fill="#dadaeb" stroke="#6B7279"/><polygon class="sidebar" transform="translate(0, 26.866666666666667)" points="0,0 12,0 12,0" fill="#6B7279" visibility="hidden"/><text font-size="12" fill="black"><tspan x="4" y="16.933333333333334">Escape to Host</tspan></text></g><g class="technique T1068" transform="translate(0, 161.20000000000002)"><rect class="cell" height="26.866666666666667" width="144.6067415730337" fill="#dadaeb" stroke="#6B7279"/><polygon class="sidebar" transform="translate(0, 26.866666666666667)" points="0,0 12,0 12,0" fill="#6B7279" visibility="hidden"/><text font-size="9.903988764044943" fill="black"><tspan x="4" y="9.466666666666667">Exploitation for</tspan><tspan x="4" y="22.4">Privilege Escalation</tspan></text></g><g class="technique T1055" transform="translate(0, 188.06666666666666)"><rect class="cell" height="26.866666666666667" width="144.6067415730337" fill="#dadaeb" stroke="#6B7279"/><polygon class="sidebar" transform="translate(0, 26.866666666666667)" points="0,0 12,0 12,12" fill="#6B7279" visibility="visible"/><text font-size="11.651751487111698" fill="black"><tspan x="4" y="16.933333333333334">Process Injection</tspan></text></g><g class="technique T1078" transform="translate(0, 241.79999999999998)"><rect class="cell" height="26.866666666666667" width="144.6067415730337" fill="#dadaeb" stroke="#6B7279"/><polygon class="sidebar" transform="translate(0, 26.866666666666667)" points="0,0 12,0 12,12" fill="#6B7279" visibility="visible"/><text font-size="12" fill="black"><tspan x="4" y="16.933333333333334">Valid Accounts</tspan></text></g></g><g class="subtechniques"><g class="subtechnique T1548.002" transform="translate(15, 53.733333333333334)"><rect class="cell" height="26.866666666666667" width="129.6067415730337" fill="white" stroke="#6B7279"/><rect class="cell" height="26.866666666666667" width="3" transform="translate(-3, 0)" fill="#6B7279" stroke="#6B7279"/><text font-size="10.746666666666668" fill="black"><tspan x="4" y="10.466666666666667">Bypass User</tspan><tspan x="4" y="23.4">Account Control</tspan></text></g><g class="subtechnique T1134.001" transform="translate(15, 107.46666666666667)"><rect class="cell" height="26.866666666666667" width="129.6067415730337" fill="white" stroke="#6B7279"/><rect class="cell" height="26.866666666666667" width="3" transform="translate(-3, 0)" fill="#6B7279" stroke="#6B7279"/><text font-size="9.280514488468361" fill="black"><tspan x="4" y="9.466666666666667">Token</tspan><tspan x="4" y="22.4">Impersonation/Theft</tspan></text></g><g class="subtechnique T1055.001" transform="translate(15, 214.93333333333334)"><rect class="cell" height="26.866666666666667" width="129.6067415730337" fill="white" stroke="#6B7279"/><rect class="cell" height="26.866666666666667" width="3" transform="translate(-3, 0)" fill="#6B7279" stroke="#6B7279"/><text font-size="10.372339722405815" fill="black"><tspan x="4" y="10.466666666666667">Dynamic-link</tspan><tspan x="4" y="23.4">Library Injection</tspan></text></g><g class="subtechnique T1078.001" transform="translate(15, 268.66666666666663)"><rect class="cell" height="26.866666666666667" width="129.6067415730337" fill="white" stroke="#6B7279"/><rect class="cell" height="26.866666666666667" width="3" transform="translate(-3, 0)" fill="#6B7279" stroke="#6B7279"/><text font-size="11.02061095505618" fill="black"><tspan x="4" y="16.933333333333334">Default Accounts</tspan></text></g><g class="subtechnique T1078.002" transform="translate(15, 295.5333333333333)"><rect class="cell" height="26.866666666666667" width="129.6067415730337" fill="white" stroke="#6B7279"/><rect class="cell" height="26.866666666666667" width="3" transform="translate(-3, 0)" fill="#6B7279" stroke="#6B7279"/><text font-size="11.755318352059923" fill="black"><tspan x="4" y="16.933333333333334">Domain Accounts</tspan></text></g><g class="subtechnique T1078.003" transform="translate(15, 322.40000000000003)"><rect class="cell" height="26.866666666666667" width="129.6067415730337" fill="white" stroke="#6B7279"/><rect class="cell" height="26.866666666666667" width="3" transform="translate(-3, 0)" fill="#6B7279" stroke="#6B7279"/><text font-size="12" fill="black"><tspan x="4" y="16.933333333333334">Local Accounts</tspan></text></g><g class="subtechnique T1078.004" transform="translate(15, 349.26666666666665)"><rect class="cell" height="26.866666666666667" width="129.6067415730337" fill="white" stroke="#6B7279"/><rect class="cell" height="26.866666666666667" width="3" transform="translate(-3, 0)" fill="#6B7279" stroke="#6B7279"/><text font-size="12" fill="black"><tspan x="4" y="16.933333333333334">Cloud Accounts</tspan></text></g></g><g class="tactic-label"><text font-size="10.746666666666668" fill="black" font-weight="bold"><tspan text-anchor="middle" x="72.30337078651685" y="10.466666666666667">Privilege</tspan><tspan text-anchor="middle" x="72.30337078651685" y="23.4">Escalation</tspan></text></g></g><g class="tactic defense-evasion" transform="translate(642.6966292134831, 0)"><g class="techniques"><g class="technique T1548" transform="translate(0, 26.866666666666667)"><rect class="cell" height="26.866666666666667" width="144.6067415730337" fill="#dadaeb" stroke="#6B7279"/><polygon class="sidebar" transform="translate(0, 26.866666666666667)" points="0,0 12,0 12,12" fill="#6B7279" visibility="visible"/><text font-size="10.746666666666668" fill="black"><tspan x="4" y="10.466666666666667">Abuse Elevation</tspan><tspan x="4" y="23.4">Control Mechanism</tspan></text></g><g class="technique T1134" transform="translate(0, 80.60000000000001)"><rect class="cell" height="26.866666666666667" width="144.6067415730337" fill="#dadaeb" stroke="#6B7279"/><polygon class="sidebar" transform="translate(0, 26.866666666666667)" points="0,0 12,0 12,12" fill="#6B7279" visibility="visible"/><text font-size="10.746666666666668" fill="black"><tspan x="4" y="10.466666666666667">Access</tspan><tspan x="4" y="23.4">Token Manipulation</tspan></text></g><g class="technique T1140" transform="translate(0, 134.33333333333331)"><rect class="cell" height="26.866666666666667" width="144.6067415730337" fill="#dadaeb" stroke="#6B7279"/><polygon class="sidebar" transform="translate(0, 26.866666666666667)" points="0,0 12,0 12,0" fill="#6B7279" visibility="hidden"/><text font-size="9.903988764044943" fill="black"><tspan x="4" y="9.466666666666667">Deobfuscate/Decode</tspan><tspan x="4" y="22.4">Files or Information</tspan></text></g><g class="technique T1222" transform="translate(0, 161.20000000000002)"><rect class="cell" height="26.866666666666667" width="144.6067415730337" fill="#dadaeb" stroke="#6B7279"/><polygon class="sidebar" transform="translate(0, 26.866666666666667)" points="0,0 12,0 12,12" fill="#6B7279" visibility="visible"/><text font-size="8.253323970037453" fill="black"><tspan x="4" y="9.466666666666667">File and Directory</tspan><tspan x="4" y="22.4">Permissions Modification</tspan></text></g><g class="technique T1562" transform="translate(0, 214.93333333333334)"><rect class="cell" height="26.866666666666667" width="144.6067415730337" fill="#dadaeb" stroke="#6B7279"/><polygon class="sidebar" transform="translate(0, 26.866666666666667)" points="0,0 12,0 12,12" fill="#6B7279" visibility="visible"/><text font-size="12" fill="black"><tspan x="4" y="16.933333333333334">Impair Defenses</tspan></text></g><g class="technique T1036" transform="translate(0, 349.26666666666665)"><rect class="cell" height="26.866666666666667" width="144.6067415730337" fill="#dadaeb" stroke="#6B7279"/><polygon class="sidebar" transform="translate(0, 26.866666666666667)" points="0,0 12,0 12,12" fill="#6B7279" visibility="visible"/><text font-size="12" fill="black"><tspan x="4" y="16.933333333333334">Masquerading</tspan></text></g><g class="technique T1112" transform="translate(0, 510.46666666666664)"><rect class="cell" height="26.866666666666667" width="144.6067415730337" fill="#dadaeb" stroke="#6B7279"/><polygon class="sidebar" transform="translate(0, 26.866666666666667)" points="0,0 12,0 12,0" fill="#6B7279" visibility="hidden"/><text font-size="12" fill="black"><tspan x="4" y="16.933333333333334">Modify Registry</tspan></text></g><g class="technique T1027" transform="translate(0, 537.3333333333333)"><rect class="cell" height="26.866666666666667" width="144.6067415730337" fill="#dadaeb" stroke="#6B7279"/><polygon class="sidebar" transform="translate(0, 26.866666666666667)" points="0,0 12,0 12,12" fill="#6B7279" visibility="visible"/><text font-size="10.746666666666668" fill="black"><tspan x="4" y="10.466666666666667">Obfuscated Files</tspan><tspan x="4" y="23.4">or Information</tspan></text></g><g class="technique T1055" transform="translate(0, 617.9333333333334)"><rect class="cell" height="26.866666666666667" width="144.6067415730337" fill="#dadaeb" stroke="#6B7279"/><polygon class="sidebar" transform="translate(0, 26.866666666666667)" points="0,0 12,0 12,12" fill="#6B7279" visibility="visible"/><text font-size="11.651751487111698" fill="black"><tspan x="4" y="16.933333333333334">Process Injection</tspan></text></g><g class="technique T1078" transform="translate(0, 671.6666666666667)"><rect class="cell" height="26.866666666666667" width="144.6067415730337" fill="#dadaeb" stroke="#6B7279"/><polygon class="sidebar" transform="translate(0, 26.866666666666667)" points="0,0 12,0 12,12" fill="#6B7279" visibility="visible"/><text font-size="12" fill="black"><tspan x="4" y="16.933333333333334">Valid Accounts</tspan></text></g></g><g class="subtechniques"><g class="subtechnique T1548.002" transform="translate(15, 53.733333333333334)"><rect class="cell" height="26.866666666666667" width="129.6067415730337" fill="white" stroke="#6B7279"/><rect class="cell" height="26.866666666666667" width="3" transform="translate(-3, 0)" fill="#6B7279" stroke="#6B7279"/><text font-size="10.746666666666668" fill="black"><tspan x="4" y="10.466666666666667">Bypass User</tspan><tspan x="4" y="23.4">Account Control</tspan></text></g><g class="subtechnique T1134.001" transform="translate(15, 107.46666666666667)"><rect class="cell" height="26.866666666666667" width="129.6067415730337" fill="white" stroke="#6B7279"/><rect class="cell" height="26.866666666666667" width="3" transform="translate(-3, 0)" fill="#6B7279" stroke="#6B7279"/><text font-size="9.280514488468361" fill="black"><tspan x="4" y="9.466666666666667">Token</tspan><tspan x="4" y="22.4">Impersonation/Theft</tspan></text></g><g class="subtechnique T1222.001" transform="translate(15, 188.06666666666666)"><rect class="cell" height="26.866666666666667" width="129.6067415730337" fill="white" stroke="#6B7279"/><rect class="cell" height="26.866666666666667" width="3" transform="translate(-3, 0)" fill="#6B7279" stroke="#6B7279"/><text font-size="7.164444444444445" fill="black"><tspan x="4" y="7.311111111111111">Windows</tspan><tspan x="4" y="15.933333333333334">File and Directory</tspan><tspan x="4" y="24.555555555555554">Permissions Modification</tspan></text></g><g class="subtechnique T1562.001" transform="translate(15, 241.79999999999998)"><rect class="cell" height="26.866666666666667" width="129.6067415730337" fill="white" stroke="#6B7279"/><rect class="cell" height="26.866666666666667" width="3" transform="translate(-3, 0)" fill="#6B7279" stroke="#6B7279"/><text font-size="10.746666666666668" fill="black"><tspan x="4" y="10.466666666666667">Disable</tspan><tspan x="4" y="23.4">or Modify Tools</tspan></text></g><g class="subtechnique T1562.002" transform="translate(15, 268.66666666666663)"><rect class="cell" height="26.866666666666667" width="129.6067415730337" fill="white" stroke="#6B7279"/><rect class="cell" height="26.866666666666667" width="3" transform="translate(-3, 0)" fill="#6B7279" stroke="#6B7279"/><text font-size="10.746666666666668" fill="black"><tspan x="4" y="10.466666666666667">Disable Windows</tspan><tspan x="4" y="23.4">Event Logging</tspan></text></g><g class="subtechnique T1562.004" transform="translate(15, 295.5333333333333)"><rect class="cell" height="26.866666666666667" width="129.6067415730337" fill="white" stroke="#6B7279"/><rect class="cell" height="26.866666666666667" width="3" transform="translate(-3, 0)" fill="#6B7279" stroke="#6B7279"/><text font-size="10.372339722405815" fill="black"><tspan x="4" y="10.466666666666667">Disable or Modify</tspan><tspan x="4" y="23.4">System Firewall</tspan></text></g><g class="subtechnique T1562.006" transform="translate(15, 322.40000000000003)"><rect class="cell" height="26.866666666666667" width="129.6067415730337" fill="white" stroke="#6B7279"/><rect class="cell" height="26.866666666666667" width="3" transform="translate(-3, 0)" fill="#6B7279" stroke="#6B7279"/><text font-size="10.746666666666668" fill="black"><tspan x="4" y="10.466666666666667">Indicator</tspan><tspan x="4" y="23.4">Blocking</tspan></text></g><g class="subtechnique T1036.001" transform="translate(15, 376.1333333333333)"><rect class="cell" height="26.866666666666667" width="129.6067415730337" fill="white" stroke="#6B7279"/><rect class="cell" height="26.866666666666667" width="3" transform="translate(-3, 0)" fill="#6B7279" stroke="#6B7279"/><text font-size="10.746666666666668" fill="black"><tspan x="4" y="10.466666666666667">Invalid</tspan><tspan x="4" y="23.4">Code Signature</tspan></text></g><g class="subtechnique T1036.002" transform="translate(15, 403)"><rect class="cell" height="26.866666666666667" width="129.6067415730337" fill="white" stroke="#6B7279"/><rect class="cell" height="26.866666666666667" width="3" transform="translate(-3, 0)" fill="#6B7279" stroke="#6B7279"/><text font-size="10.746666666666668" fill="black"><tspan x="4" y="10.466666666666667">Right-to-Left</tspan><tspan x="4" y="23.4">Override</tspan></text></g><g class="subtechnique T1036.003" transform="translate(15, 429.8666666666667)"><rect class="cell" height="26.866666666666667" width="129.6067415730337" fill="white" stroke="#6B7279"/><rect class="cell" height="26.866666666666667" width="3" transform="translate(-3, 0)" fill="#6B7279" stroke="#6B7279"/><text font-size="10.746666666666668" fill="black"><tspan x="4" y="10.466666666666667">Rename</tspan><tspan x="4" y="23.4">System Utilities</tspan></text></g><g class="subtechnique T1036.004" transform="translate(15, 456.73333333333335)"><rect class="cell" height="26.866666666666667" width="129.6067415730337" fill="white" stroke="#6B7279"/><rect class="cell" height="26.866666666666667" width="3" transform="translate(-3, 0)" fill="#6B7279" stroke="#6B7279"/><text font-size="10.746666666666668" fill="black"><tspan x="4" y="10.466666666666667">Masquerade</tspan><tspan x="4" y="23.4">Task or Service</tspan></text></g><g class="subtechnique T1036.005" transform="translate(15, 483.59999999999997)"><rect class="cell" height="26.866666666666667" width="129.6067415730337" fill="white" stroke="#6B7279"/><rect class="cell" height="26.866666666666667" width="3" transform="translate(-3, 0)" fill="#6B7279" stroke="#6B7279"/><text font-size="10.746666666666668" fill="black"><tspan x="4" y="10.466666666666667">Match Legitimate</tspan><tspan x="4" y="23.4">Name or Location</tspan></text></g><g class="subtechnique T1027.002" transform="translate(15, 564.1999999999999)"><rect class="cell" height="26.866666666666667" width="129.6067415730337" fill="white" stroke="#6B7279"/><rect class="cell" height="26.866666666666667" width="3" transform="translate(-3, 0)" fill="#6B7279" stroke="#6B7279"/><text font-size="11.02061095505618" fill="black"><tspan x="4" y="16.933333333333334">Software Packing</tspan></text></g><g class="subtechnique T1027.004" transform="translate(15, 591.0666666666666)"><rect class="cell" height="26.866666666666667" width="129.6067415730337" fill="white" stroke="#6B7279"/><rect class="cell" height="26.866666666666667" width="3" transform="translate(-3, 0)" fill="#6B7279" stroke="#6B7279"/><text font-size="10.746666666666668" fill="black"><tspan x="4" y="10.466666666666667">Compile</tspan><tspan x="4" y="23.4">After Delivery</tspan></text></g><g class="subtechnique T1055.001" transform="translate(15, 644.8000000000001)"><rect class="cell" height="26.866666666666667" width="129.6067415730337" fill="white" stroke="#6B7279"/><rect class="cell" height="26.866666666666667" width="3" transform="translate(-3, 0)" fill="#6B7279" stroke="#6B7279"/><text font-size="10.372339722405815" fill="black"><tspan x="4" y="10.466666666666667">Dynamic-link</tspan><tspan x="4" y="23.4">Library Injection</tspan></text></g><g class="subtechnique T1078.001" transform="translate(15, 698.5333333333333)"><rect class="cell" height="26.866666666666667" width="129.6067415730337" fill="white" stroke="#6B7279"/><rect class="cell" height="26.866666666666667" width="3" transform="translate(-3, 0)" fill="#6B7279" stroke="#6B7279"/><text font-size="11.02061095505618" fill="black"><tspan x="4" y="16.933333333333334">Default Accounts</tspan></text></g><g class="subtechnique T1078.002" transform="translate(15, 725.4)"><rect class="cell" height="26.866666666666667" width="129.6067415730337" fill="white" stroke="#6B7279"/><rect class="cell" height="26.866666666666667" width="3" transform="translate(-3, 0)" fill="#6B7279" stroke="#6B7279"/><text font-size="11.755318352059923" fill="black"><tspan x="4" y="16.933333333333334">Domain Accounts</tspan></text></g><g class="subtechnique T1078.003" transform="translate(15, 752.2666666666667)"><rect class="cell" height="26.866666666666667" width="129.6067415730337" fill="white" stroke="#6B7279"/><rect class="cell" height="26.866666666666667" width="3" transform="translate(-3, 0)" fill="#6B7279" stroke="#6B7279"/><text font-size="12" fill="black"><tspan x="4" y="16.933333333333334">Local Accounts</tspan></text></g><g class="subtechnique T1078.004" transform="translate(15, 779.1333333333333)"><rect class="cell" height="26.866666666666667" width="129.6067415730337" fill="white" stroke="#6B7279"/><rect class="cell" height="26.866666666666667" width="3" transform="translate(-3, 0)" fill="#6B7279" stroke="#6B7279"/><text font-size="12" fill="black"><tspan x="4" y="16.933333333333334">Cloud Accounts</tspan></text></g></g><g class="tactic-label"><text font-size="12" fill="black" font-weight="bold"><tspan text-anchor="middle" x="72.30337078651685" y="16.933333333333334">Defense Evasion</tspan></text></g></g><g class="tactic discovery" transform="translate(803.3707865168539, 0)"><g class="techniques"><g class="technique T1087" transform="translate(0, 26.866666666666667)"><rect class="cell" height="26.866666666666667" width="144.6067415730337" fill="#dadaeb" stroke="#6B7279"/><polygon class="sidebar" transform="translate(0, 26.866666666666667)" points="0,0 12,0 12,12" fill="#6B7279" visibility="visible"/><text font-size="11.651751487111698" fill="black"><tspan x="4" y="16.933333333333334">Account Discovery</tspan></text></g><g class="technique T1482" transform="translate(0, 161.20000000000002)"><rect class="cell" height="26.866666666666667" width="144.6067415730337" fill="#dadaeb" stroke="#6B7279"/><polygon class="sidebar" transform="translate(0, 26.866666666666667)" points="0,0 12,0 12,0" fill="#6B7279" visibility="hidden"/><text font-size="10.746666666666668" fill="black"><tspan x="4" y="10.466666666666667">Domain</tspan><tspan x="4" y="23.4">Trust Discovery</tspan></text></g><g class="technique T1083" transform="translate(0, 188.06666666666666)"><rect class="cell" height="26.866666666666667" width="144.6067415730337" fill="#dadaeb" stroke="#6B7279"/><polygon class="sidebar" transform="translate(0, 26.866666666666667)" points="0,0 12,0 12,0" fill="#6B7279" visibility="hidden"/><text font-size="10.746666666666668" fill="black"><tspan x="4" y="10.466666666666667">File and Directory</tspan><tspan x="4" y="23.4">Discovery</tspan></text></g><g class="technique T1046" transform="translate(0, 214.93333333333334)"><rect class="cell" height="26.866666666666667" width="144.6067415730337" fill="#dadaeb" stroke="#6B7279"/><polygon class="sidebar" transform="translate(0, 26.866666666666667)" points="0,0 12,0 12,0" fill="#6B7279" visibility="hidden"/><text font-size="10.746666666666668" fill="black"><tspan x="4" y="10.466666666666667">Network</tspan><tspan x="4" y="23.4">Service Scanning</tspan></text></g><g class="technique T1069" transform="translate(0, 241.79999999999998)"><rect class="cell" height="26.866666666666667" width="144.6067415730337" fill="#dadaeb" stroke="#6B7279"/><polygon class="sidebar" transform="translate(0, 26.866666666666667)" points="0,0 12,0 12,12" fill="#6B7279" visibility="visible"/><text font-size="10.746666666666668" fill="black"><tspan x="4" y="10.466666666666667">Permission</tspan><tspan x="4" y="23.4">Groups Discovery</tspan></text></g><g class="technique T1057" transform="translate(0, 349.26666666666665)"><rect class="cell" height="26.866666666666667" width="144.6067415730337" fill="#dadaeb" stroke="#6B7279"/><polygon class="sidebar" transform="translate(0, 26.866666666666667)" points="0,0 12,0 12,0" fill="#6B7279" visibility="hidden"/><text font-size="11.651751487111698" fill="black"><tspan x="4" y="16.933333333333334">Process Discovery</tspan></text></g></g><g class="subtechniques"><g class="subtechnique T1087.001" transform="translate(15, 53.733333333333334)"><rect class="cell" height="26.866666666666667" width="129.6067415730337" fill="white" stroke="#6B7279"/><rect class="cell" height="26.866666666666667" width="3" transform="translate(-3, 0)" fill="#6B7279" stroke="#6B7279"/><text font-size="12" fill="black"><tspan x="4" y="16.933333333333334">Local Account</tspan></text></g><g class="subtechnique T1087.002" transform="translate(15, 80.60000000000001)"><rect class="cell" height="26.866666666666667" width="129.6067415730337" fill="white" stroke="#6B7279"/><rect class="cell" height="26.866666666666667" width="3" transform="translate(-3, 0)" fill="#6B7279" stroke="#6B7279"/><text font-size="12" fill="black"><tspan x="4" y="16.933333333333334">Domain Account</tspan></text></g><g class="subtechnique T1087.003" transform="translate(15, 107.46666666666667)"><rect class="cell" height="26.866666666666667" width="129.6067415730337" fill="white" stroke="#6B7279"/><rect class="cell" height="26.866666666666667" width="3" transform="translate(-3, 0)" fill="#6B7279" stroke="#6B7279"/><text font-size="12" fill="black"><tspan x="4" y="16.933333333333334">Email Account</tspan></text></g><g class="subtechnique T1087.004" transform="translate(15, 134.33333333333331)"><rect class="cell" height="26.866666666666667" width="129.6067415730337" fill="white" stroke="#6B7279"/><rect class="cell" height="26.866666666666667" width="3" transform="translate(-3, 0)" fill="#6B7279" stroke="#6B7279"/><text font-size="12" fill="black"><tspan x="4" y="16.933333333333334">Cloud Account</tspan></text></g><g class="subtechnique T1069.002" transform="translate(15, 268.66666666666663)"><rect class="cell" height="26.866666666666667" width="129.6067415730337" fill="white" stroke="#6B7279"/><rect class="cell" height="26.866666666666667" width="3" transform="translate(-3, 0)" fill="#6B7279" stroke="#6B7279"/><text font-size="12" fill="black"><tspan x="4" y="16.933333333333334">Domain Groups</tspan></text></g><g class="subtechnique T1069.003" transform="translate(15, 295.5333333333333)"><rect class="cell" height="26.866666666666667" width="129.6067415730337" fill="white" stroke="#6B7279"/><rect class="cell" height="26.866666666666667" width="3" transform="translate(-3, 0)" fill="#6B7279" stroke="#6B7279"/><text font-size="12" fill="black"><tspan x="4" y="16.933333333333334">Cloud Groups</tspan></text></g><g class="subtechnique T1069.001" transform="translate(15, 322.40000000000003)"><rect class="cell" height="26.866666666666667" width="129.6067415730337" fill="white" stroke="#6B7279"/><rect class="cell" height="26.866666666666667" width="3" transform="translate(-3, 0)" fill="#6B7279" stroke="#6B7279"/><text font-size="12" fill="black"><tspan x="4" y="16.933333333333334">Local Groups</tspan></text></g></g><g class="tactic-label"><text font-size="12" fill="black" font-weight="bold"><tspan text-anchor="middle" x="72.30337078651685" y="16.933333333333334">Discovery</tspan></text></g></g><g class="tactic collection" transform="translate(964.0449438202247, 0)"><g class="techniques"><g class="technique T1560" transform="translate(0, 26.866666666666667)"><rect class="cell" height="26.866666666666667" width="144.6067415730337" fill="#dadaeb" stroke="#6B7279"/><polygon class="sidebar" transform="translate(0, 26.866666666666667)" points="0,0 12,0 12,12" fill="#6B7279" visibility="visible"/><text font-size="10.746666666666668" fill="black"><tspan x="4" y="10.466666666666667">Archive</tspan><tspan x="4" y="23.4">Collected Data</tspan></text></g><g class="technique T1119" transform="translate(0, 134.33333333333331)"><rect class="cell" height="26.866666666666667" width="144.6067415730337" fill="#dadaeb" stroke="#6B7279"/><polygon class="sidebar" transform="translate(0, 26.866666666666667)" points="0,0 12,0 12,0" fill="#6B7279" visibility="hidden"/><text font-size="10.746666666666668" fill="black"><tspan x="4" y="10.466666666666667">Automated</tspan><tspan x="4" y="23.4">Collection</tspan></text></g><g class="technique T1005" transform="translate(0, 161.20000000000002)"><rect class="cell" height="26.866666666666667" width="144.6067415730337" fill="#dadaeb" stroke="#6B7279"/><polygon class="sidebar" transform="translate(0, 26.866666666666667)" points="0,0 12,0 12,0" fill="#6B7279" visibility="hidden"/><text font-size="10.746666666666668" fill="black"><tspan x="4" y="10.466666666666667">Data</tspan><tspan x="4" y="23.4">from Local System</tspan></text></g><g class="technique T1039" transform="translate(0, 188.06666666666666)"><rect class="cell" height="26.866666666666667" width="144.6067415730337" fill="#dadaeb" stroke="#6B7279"/><polygon class="sidebar" transform="translate(0, 26.866666666666667)" points="0,0 12,0 12,0" fill="#6B7279" visibility="hidden"/><text font-size="10.746666666666668" fill="black"><tspan x="4" y="10.466666666666667">Data from Network</tspan><tspan x="4" y="23.4">Shared Drive</tspan></text></g><g class="technique T1025" transform="translate(0, 214.93333333333334)"><rect class="cell" height="26.866666666666667" width="144.6067415730337" fill="#dadaeb" stroke="#6B7279"/><polygon class="sidebar" transform="translate(0, 26.866666666666667)" points="0,0 12,0 12,0" fill="#6B7279" visibility="hidden"/><text font-size="10.746666666666668" fill="black"><tspan x="4" y="10.466666666666667">Data from</tspan><tspan x="4" y="23.4">Removable Media</tspan></text></g><g class="technique T1074" transform="translate(0, 241.79999999999998)"><rect class="cell" height="26.866666666666667" width="144.6067415730337" fill="#dadaeb" stroke="#6B7279"/><polygon class="sidebar" transform="translate(0, 26.866666666666667)" points="0,0 12,0 12,12" fill="#6B7279" visibility="visible"/><text font-size="12" fill="black"><tspan x="4" y="16.933333333333334">Data Staged</tspan></text></g></g><g class="subtechniques"><g class="subtechnique T1560.001" transform="translate(15, 53.733333333333334)"><rect class="cell" height="26.866666666666667" width="129.6067415730337" fill="white" stroke="#6B7279"/><rect class="cell" height="26.866666666666667" width="3" transform="translate(-3, 0)" fill="#6B7279" stroke="#6B7279"/><text font-size="10.746666666666668" fill="black"><tspan x="4" y="10.466666666666667">Archive</tspan><tspan x="4" y="23.4">via Utility</tspan></text></g><g class="subtechnique T1560.002" transform="translate(15, 80.60000000000001)"><rect class="cell" height="26.866666666666667" width="129.6067415730337" fill="white" stroke="#6B7279"/><rect class="cell" height="26.866666666666667" width="3" transform="translate(-3, 0)" fill="#6B7279" stroke="#6B7279"/><text font-size="10.746666666666668" fill="black"><tspan x="4" y="10.466666666666667">Archive</tspan><tspan x="4" y="23.4">via Library</tspan></text></g><g class="subtechnique T1560.003" transform="translate(15, 107.46666666666667)"><rect class="cell" height="26.866666666666667" width="129.6067415730337" fill="white" stroke="#6B7279"/><rect class="cell" height="26.866666666666667" width="3" transform="translate(-3, 0)" fill="#6B7279" stroke="#6B7279"/><text font-size="10.746666666666668" fill="black"><tspan x="4" y="10.466666666666667">Archive via</tspan><tspan x="4" y="23.4">Custom Method</tspan></text></g><g class="subtechnique T1074.001" transform="translate(15, 268.66666666666663)"><rect class="cell" height="26.866666666666667" width="129.6067415730337" fill="white" stroke="#6B7279"/><rect class="cell" height="26.866666666666667" width="3" transform="translate(-3, 0)" fill="#6B7279" stroke="#6B7279"/><text font-size="10.746666666666668" fill="black"><tspan x="4" y="10.466666666666667">Local</tspan><tspan x="4" y="23.4">Data Staging</tspan></text></g><g class="subtechnique T1074.002" transform="translate(15, 295.5333333333333)"><rect class="cell" height="26.866666666666667" width="129.6067415730337" fill="white" stroke="#6B7279"/><rect class="cell" height="26.866666666666667" width="3" transform="translate(-3, 0)" fill="#6B7279" stroke="#6B7279"/><text font-size="10.746666666666668" fill="black"><tspan x="4" y="10.466666666666667">Remote</tspan><tspan x="4" y="23.4">Data Staging</tspan></text></g></g><g class="tactic-label"><text font-size="12" fill="black" font-weight="bold"><tspan text-anchor="middle" x="72.30337078651685" y="16.933333333333334">Collection</tspan></text></g></g><g class="tactic exfiltration" transform="translate(1124.7191011235955, 0)"><g class="techniques"><g class="technique T1567" transform="translate(0, 26.866666666666667)"><rect class="cell" height="26.866666666666667" width="144.6067415730337" fill="#dadaeb" stroke="#6B7279"/><polygon class="sidebar" transform="translate(0, 26.866666666666667)" points="0,0 12,0 12,12" fill="#6B7279" visibility="hidden"/><text font-size="10.746666666666668" fill="black"><tspan x="4" y="10.466666666666667">Exfiltration</tspan><tspan x="4" y="23.4">Over Web Service</tspan></text></g></g><g class="subtechniques"/><g class="tactic-label"><text font-size="12" fill="black" font-weight="bold"><tspan text-anchor="middle" x="72.30337078651685" y="16.933333333333334">Exfiltration</tspan></text></g></g><g class="tactic impact" transform="translate(1285.3932584269662, 0)"><g class="techniques"><g class="technique T1486" transform="translate(0, 26.866666666666667)"><rect class="cell" height="26.866666666666667" width="144.6067415730337" fill="#dadaeb" stroke="#6B7279"/><polygon class="sidebar" transform="translate(0, 26.866666666666667)" points="0,0 12,0 12,0" fill="#6B7279" visibility="hidden"/><text font-size="10.746666666666668" fill="black"><tspan x="4" y="10.466666666666667">Data Encrypted</tspan><tspan x="4" y="23.4">for Impact</tspan></text></g><g class="technique T1489" transform="translate(0, 53.733333333333334)"><rect class="cell" height="26.866666666666667" width="144.6067415730337" fill="#dadaeb" stroke="#6B7279"/><polygon class="sidebar" transform="translate(0, 26.866666666666667)" points="0,0 12,0 12,0" fill="#6B7279" visibility="hidden"/><text font-size="12" fill="black"><tspan x="4" y="16.933333333333334">Service Stop</tspan></text></g></g><g class="subtechniques"/><g class="tactic-label"><text font-size="12" fill="black" font-weight="bold"><tspan text-anchor="middle" x="72.30337078651685" y="16.933333333333334">Impact</tspan></text></g></g></g></g></g></svg>