<?xml version="1.0" standalone="no"?>
<svg width="1056" height="816" xmlns="http://www.w3.org/2000/svg" id="svgvm0"><g transform="translate(5,5)" style="font-family: sans-serif;"><g transform="translate(0,1)"><g><g class="tactic initial-access" transform="translate(0, 0)"><g class="techniques"><g class="technique T1566" transform="translate(0, 100.75)"><rect class="cell" height="100.75" width="136.43478260869566" fill="#dadaeb" stroke="#6B7279"/><polygon class="sidebar" transform="translate(0, 100.75)" points="0,0 12,0 12,12" fill="#6B7279" visibility="visible"/><text font-size="10.346135265700484" fill="black"><tspan x="4" y="53.875">T1566: Phishing</tspan></text></g><g class="technique T1133" transform="translate(0, 503.75)"><rect class="cell" height="100.75" width="136.43478260869566" fill="#dadaeb" stroke="#6B7279"/><polygon class="sidebar" transform="translate(0, 100.75)" points="0,0 12,0 12,0" fill="#6B7279" visibility="hidden"/><text font-size="10.346135265700484" fill="black"><tspan x="4" y="46.625">T1133: External</tspan><tspan x="4" y="61.125">Remote Services</tspan></text></g><g class="technique T1190" transform="translate(0, 604.5)"><rect class="cell" height="100.75" width="136.43478260869566" fill="#dadaeb" stroke="#6B7279"/><polygon class="sidebar" transform="translate(0, 100.75)" points="0,0 12,0 12,0" fill="#6B7279" visibility="hidden"/><text font-size="10.346135265700484" fill="black"><tspan x="4" y="39.20833333333333">T1190: Exploit</tspan><tspan x="4" y="53.875">Public-Facing</tspan><tspan x="4" y="68.54166666666666">Application</tspan></text></g></g><g class="subtechniques"><g class="subtechnique T1566.003" transform="translate(15, 201.5)"><rect class="cell" height="100.75" width="121.43478260869566" fill="#dadaeb" stroke="#6B7279"/><rect class="cell" height="100.75" width="3" transform="translate(-3, 0)" fill="#6B7279" stroke="#6B7279"/><text font-size="10.346135265700484" fill="black"><tspan x="4" y="39.20833333333333">T1566.003:</tspan><tspan x="4" y="53.875">Spearphishing</tspan><tspan x="4" y="68.54166666666666">via Service</tspan></text></g><g class="subtechnique T1566.002" transform="translate(15, 302.25)"><rect class="cell" height="100.75" width="121.43478260869566" fill="#dadaeb" stroke="#6B7279"/><rect class="cell" height="100.75" width="3" transform="translate(-3, 0)" fill="#6B7279" stroke="#6B7279"/><text font-size="10.346135265700484" fill="black"><tspan x="4" y="39.20833333333333">T1566.002:</tspan><tspan x="4" y="53.875">Spearphishing</tspan><tspan x="4" y="68.54166666666666">Link</tspan></text></g><g class="subtechnique T1566.001" transform="translate(15, 403)"><rect class="cell" height="100.75" width="121.43478260869566" fill="#dadaeb" stroke="#6B7279"/><rect class="cell" height="100.75" width="3" transform="translate(-3, 0)" fill="#6B7279" stroke="#6B7279"/><text font-size="10.346135265700484" fill="black"><tspan x="4" y="39.20833333333333">T1566.001:</tspan><tspan x="4" y="53.875">Spearphishing</tspan><tspan x="4" y="68.54166666666666">Attachment</tspan></text></g></g><g class="tactic-label"><text font-size="12" fill="black" font-weight="bold"><tspan text-anchor="middle" x="68.21739130434783" y="53.875">Initial Access</tspan></text></g></g><g class="tactic execution" transform="translate(151.59420289855072, 0)"><g class="techniques"><g class="technique T1047" transform="translate(0, 100.75)"><rect class="cell" height="100.75" width="136.43478260869566" fill="#dadaeb" stroke="#6B7279"/><polygon class="sidebar" transform="translate(0, 100.75)" points="0,0 12,0 12,0" fill="#6B7279" visibility="hidden"/><text font-size="10.346135265700484" fill="black"><tspan x="4" y="39.20833333333333">T1047: Windows</tspan><tspan x="4" y="53.875">Management</tspan><tspan x="4" y="68.54166666666666">Instrumentation</tspan></text></g><g class="technique T1204" transform="translate(0, 201.5)"><rect class="cell" height="100.75" width="136.43478260869566" fill="#dadaeb" stroke="#6B7279"/><polygon class="sidebar" transform="translate(0, 100.75)" points="0,0 12,0 12,12" fill="#6B7279" visibility="visible"/><text font-size="10.346135265700484" fill="black"><tspan x="4" y="46.625">T1204:</tspan><tspan x="4" y="61.125">User Execution</tspan></text></g><g class="technique T1203" transform="translate(0, 503.75)"><rect class="cell" height="100.75" width="136.43478260869566" fill="#dadaeb" stroke="#6B7279"/><polygon class="sidebar" transform="translate(0, 100.75)" points="0,0 12,0 12,0" fill="#6B7279" visibility="hidden"/><text font-size="10.346135265700484" fill="black"><tspan x="4" y="31.75">T1203:</tspan><tspan x="4" y="46.5">Exploitation</tspan><tspan x="4" y="61.25">for Client</tspan><tspan x="4" y="76">Execution</tspan></text></g><g class="technique T1059" transform="translate(0, 604.5)"><rect class="cell" height="100.75" width="136.43478260869566" fill="#dadaeb" stroke="#6B7279"/><polygon class="sidebar" transform="translate(0, 100.75)" points="0,0 12,0 12,12" fill="#6B7279" visibility="visible"/><text font-size="10.346135265700484" fill="black"><tspan x="4" y="39.20833333333333">T1059: Command</tspan><tspan x="4" y="53.875">and Scripting</tspan><tspan x="4" y="68.54166666666666">Interpreter</tspan></text></g></g><g class="subtechniques"><g class="subtechnique T1204.001" transform="translate(15, 302.25)"><rect class="cell" height="100.75" width="121.43478260869566" fill="#dadaeb" stroke="#6B7279"/><rect class="cell" height="100.75" width="3" transform="translate(-3, 0)" fill="#6B7279" stroke="#6B7279"/><text font-size="10.346135265700484" fill="black"><tspan x="4" y="39.20833333333333">T1204.001:</tspan><tspan x="4" y="53.875">Malicious</tspan><tspan x="4" y="68.54166666666666">Link</tspan></text></g><g class="subtechnique T1204.002" transform="translate(15, 403)"><rect class="cell" height="100.75" width="121.43478260869566" fill="#dadaeb" stroke="#6B7279"/><rect class="cell" height="100.75" width="3" transform="translate(-3, 0)" fill="#6B7279" stroke="#6B7279"/><text font-size="10.346135265700484" fill="black"><tspan x="4" y="39.20833333333333">T1204.002:</tspan><tspan x="4" y="53.875">Malicious</tspan><tspan x="4" y="68.54166666666666">File</tspan></text></g><g class="subtechnique T1059.003" transform="translate(15, 705.25)"><rect class="cell" height="100.75" width="121.43478260869566" fill="#dadaeb" stroke="#6B7279"/><rect class="cell" height="100.75" width="3" transform="translate(-3, 0)" fill="#6B7279" stroke="#6B7279"/><text font-size="10.346135265700484" fill="black"><tspan x="4" y="39.20833333333333">T1059.003:</tspan><tspan x="4" y="53.875">Windows</tspan><tspan x="4" y="68.54166666666666">Command Shell</tspan></text></g></g><g class="tactic-label"><text font-size="12" fill="black" font-weight="bold"><tspan text-anchor="middle" x="68.21739130434783" y="53.875">Execution</tspan></text></g></g><g class="tactic persistence" transform="translate(303.18840579710144, 0)"><g class="techniques"><g class="technique T1547" transform="translate(0, 100.75)"><rect class="cell" height="100.75" width="136.43478260869566" fill="#dadaeb" stroke="#6B7279"/><polygon class="sidebar" transform="translate(0, 100.75)" points="0,0 12,0 12,12" fill="#6B7279" visibility="visible"/><text font-size="10.346135265700484" fill="black"><tspan x="4" y="39.20833333333333">T1547: Boot or</tspan><tspan x="4" y="53.875">Logon Autostart</tspan><tspan x="4" y="68.54166666666666">Execution</tspan></text></g></g><g class="subtechniques"><g class="subtechnique T1547.001" transform="translate(15, 201.5)"><rect class="cell" height="100.75" width="121.43478260869566" fill="#dadaeb" stroke="#6B7279"/><rect class="cell" height="100.75" width="3" transform="translate(-3, 0)" fill="#6B7279" stroke="#6B7279"/><text font-size="10.346135265700484" fill="black"><tspan x="4" y="31.75">T1547.001:</tspan><tspan x="4" y="46.5">Registry</tspan><tspan x="4" y="61.25">Run Keys /</tspan><tspan x="4" y="76">Startup Folder</tspan></text></g></g><g class="tactic-label"><text font-size="12" fill="black" font-weight="bold"><tspan text-anchor="middle" x="68.21739130434783" y="53.875">Persistence</tspan></text></g></g><g class="tactic defense-evasion" transform="translate(454.78260869565213, 0)"><g class="techniques"><g class="technique T1027" transform="translate(0, 100.75)"><rect class="cell" height="100.75" width="136.43478260869566" fill="#dadaeb" stroke="#6B7279"/><polygon class="sidebar" transform="translate(0, 100.75)" points="0,0 12,0 12,12" fill="#6B7279" visibility="visible"/><text font-size="10.346135265700484" fill="black"><tspan x="4" y="31.75">T1027:</tspan><tspan x="4" y="46.5">Obfuscated</tspan><tspan x="4" y="61.25">Files</tspan><tspan x="4" y="76">or Information</tspan></text></g><g class="technique T1140" transform="translate(0, 302.25)"><rect class="cell" height="100.75" width="136.43478260869566" fill="#dadaeb" stroke="#6B7279"/><polygon class="sidebar" transform="translate(0, 100.75)" points="0,0 12,0 12,0" fill="#6B7279" visibility="hidden"/><text font-size="10.346135265700484" fill="black"><tspan x="4" y="31.75">T1140:</tspan><tspan x="4" y="46.5">Deobfuscate/Decode</tspan><tspan x="4" y="61.25">Files</tspan><tspan x="4" y="76">or Information</tspan></text></g></g><g class="subtechniques"><g class="subtechnique T1027.002" transform="translate(15, 201.5)"><rect class="cell" height="100.75" width="121.43478260869566" fill="#dadaeb" stroke="#6B7279"/><rect class="cell" height="100.75" width="3" transform="translate(-3, 0)" fill="#6B7279" stroke="#6B7279"/><text font-size="10.346135265700484" fill="black"><tspan x="4" y="39.20833333333333">T1027.002:</tspan><tspan x="4" y="53.875">Software</tspan><tspan x="4" y="68.54166666666666">Packing</tspan></text></g></g><g class="tactic-label"><text font-size="12" fill="black" font-weight="bold"><tspan text-anchor="middle" x="68.21739130434783" y="53.875">Defense Evasion</tspan></text></g></g><g class="tactic discovery" transform="translate(606.3768115942029, 0)"><g class="techniques"><g class="technique T1614" transform="translate(0, 100.75)"><rect class="cell" height="100.75" width="136.43478260869566" fill="#dadaeb" stroke="#6B7279"/><polygon class="sidebar" transform="translate(0, 100.75)" points="0,0 12,0 12,12" fill="#6B7279" visibility="visible"/><text font-size="10.346135265700484" fill="black"><tspan x="4" y="39.20833333333333">T1614:</tspan><tspan x="4" y="53.875">System Location</tspan><tspan x="4" y="68.54166666666666">Discovery</tspan></text></g><g class="technique T1012" transform="translate(0, 302.25)"><rect class="cell" height="100.75" width="136.43478260869566" fill="#dadaeb" stroke="#6B7279"/><polygon class="sidebar" transform="translate(0, 100.75)" points="0,0 12,0 12,0" fill="#6B7279" visibility="hidden"/><text font-size="10.346135265700484" fill="black"><tspan x="4" y="46.625">T1012:</tspan><tspan x="4" y="61.125">Query Registry</tspan></text></g><g class="technique T1057" transform="translate(0, 403)"><rect class="cell" height="100.75" width="136.43478260869566" fill="#dadaeb" stroke="#6B7279"/><polygon class="sidebar" transform="translate(0, 100.75)" points="0,0 12,0 12,0" fill="#6B7279" visibility="hidden"/><text font-size="10.346135265700484" fill="black"><tspan x="4" y="46.625">T1057: Process</tspan><tspan x="4" y="61.125">Discovery</tspan></text></g><g class="technique T1135" transform="translate(0, 503.75)"><rect class="cell" height="100.75" width="136.43478260869566" fill="#dadaeb" stroke="#6B7279"/><polygon class="sidebar" transform="translate(0, 100.75)" points="0,0 12,0 12,0" fill="#6B7279" visibility="hidden"/><text font-size="10.346135265700484" fill="black"><tspan x="4" y="46.625">T1135: Network</tspan><tspan x="4" y="61.125">Share Discovery</tspan></text></g><g class="technique T1083" transform="translate(0, 604.5)"><rect class="cell" height="100.75" width="136.43478260869566" fill="#dadaeb" stroke="#6B7279"/><polygon class="sidebar" transform="translate(0, 100.75)" points="0,0 12,0 12,0" fill="#6B7279" visibility="hidden"/><text font-size="10.346135265700484" fill="black"><tspan x="4" y="39.20833333333333">T1083: File</tspan><tspan x="4" y="53.875">and Directory</tspan><tspan x="4" y="68.54166666666666">Discovery</tspan></text></g></g><g class="subtechniques"><g class="subtechnique T1614.001" transform="translate(15, 201.5)"><rect class="cell" height="100.75" width="121.43478260869566" fill="#dadaeb" stroke="#6B7279"/><rect class="cell" height="100.75" width="3" transform="translate(-3, 0)" fill="#6B7279" stroke="#6B7279"/><text font-size="10.346135265700484" fill="black"><tspan x="4" y="31.75">T1614.001:</tspan><tspan x="4" y="46.5">System</tspan><tspan x="4" y="61.25">Language</tspan><tspan x="4" y="76">Discovery</tspan></text></g></g><g class="tactic-label"><text font-size="12" fill="black" font-weight="bold"><tspan text-anchor="middle" x="68.21739130434783" y="53.875">Discovery</tspan></text></g></g><g class="tactic command-and-control" transform="translate(757.9710144927536, 0)"><g class="techniques"><g class="technique T1102" transform="translate(0, 100.75)"><rect class="cell" height="100.75" width="136.43478260869566" fill="#dadaeb" stroke="#6B7279"/><polygon class="sidebar" transform="translate(0, 100.75)" points="0,0 12,0 12,12" fill="#6B7279" visibility="visible"/><text font-size="10.346135265700484" fill="black"><tspan x="4" y="46.625">T1102:</tspan><tspan x="4" y="61.125">Web Service</tspan></text></g></g><g class="subtechniques"><g class="subtechnique T1102.003" transform="translate(15, 201.5)"><rect class="cell" height="100.75" width="121.43478260869566" fill="#dadaeb" stroke="#6B7279"/><rect class="cell" height="100.75" width="3" transform="translate(-3, 0)" fill="#6B7279" stroke="#6B7279"/><text font-size="10.346135265700484" fill="black"><tspan x="4" y="39.20833333333333">T1102.003:</tspan><tspan x="4" y="53.875">One-Way</tspan><tspan x="4" y="68.54166666666666">Communication</tspan></text></g></g><g class="tactic-label"><text font-size="12" fill="black" font-weight="bold"><tspan text-anchor="middle" x="68.21739130434783" y="46.625">Command</tspan><tspan text-anchor="middle" x="68.21739130434783" y="61.125">and Control</tspan></text></g></g><g class="tactic impact" transform="translate(909.5652173913043, 0)"><g class="techniques"><g class="technique T1490" transform="translate(0, 100.75)"><rect class="cell" height="100.75" width="136.43478260869566" fill="#dadaeb" stroke="#6B7279"/><polygon class="sidebar" transform="translate(0, 100.75)" points="0,0 12,0 12,0" fill="#6B7279" visibility="hidden"/><text font-size="10.346135265700484" fill="black"><tspan x="4" y="46.625">T1490: Inhibit</tspan><tspan x="4" y="61.125">System Recovery</tspan></text></g><g class="technique T1486" transform="translate(0, 201.5)"><rect class="cell" height="100.75" width="136.43478260869566" fill="#dadaeb" stroke="#6B7279"/><polygon class="sidebar" transform="translate(0, 100.75)" points="0,0 12,0 12,0" fill="#6B7279" visibility="hidden"/><text font-size="10.346135265700484" fill="black"><tspan x="4" y="39.20833333333333">T1486:</tspan><tspan x="4" y="53.875">Data Encrypted</tspan><tspan x="4" y="68.54166666666666">for Impact</tspan></text></g></g><g class="subtechniques"/><g class="tactic-label"><text font-size="12" fill="black" font-weight="bold"><tspan text-anchor="middle" x="68.21739130434783" y="53.875">Impact</tspan></text></g></g></g></g></g></svg>