<?xml version="1.0" standalone="no"?>
<svg width="1440" height="864" xmlns="http://www.w3.org/2000/svg" id="svgvm0"><g transform="translate(5,5)" style="font-family: sans-serif;"><g transform="translate(0,1)"><g><g class="tactic initial-access" transform="translate(0, 0)"><g class="techniques"><g class="technique T1078" transform="translate(0, 106.75)"><rect class="cell" height="106.75" width="144.6067415730337" fill="#dadaeb" stroke="#6B7279"/><polygon class="sidebar" transform="translate(0, 106.75)" points="0,0 12,0 12,0" fill="#6B7279" visibility="hidden"/><text font-size="9.003626149131767" fill="black"><tspan x="4" y="56.875">Valid Accounts</tspan></text></g></g><g class="subtechniques"/><g class="tactic-label"><text font-size="12" fill="black" font-weight="bold"><tspan text-anchor="middle" x="72.30337078651685" y="56.875">Initial Access</tspan></text></g></g><g class="tactic execution" transform="translate(160.67415730337078, 0)"><g class="techniques"><g class="technique T1106" transform="translate(0, 106.75)"><rect class="cell" height="106.75" width="144.6067415730337" fill="#dadaeb" stroke="#6B7279"/><polygon class="sidebar" transform="translate(0, 106.75)" points="0,0 12,0 12,0" fill="#6B7279" visibility="hidden"/><text font-size="9.003626149131767" fill="black"><tspan x="4" y="56.875">Native API</tspan></text></g></g><g class="subtechniques"/><g class="tactic-label"><text font-size="12" fill="black" font-weight="bold"><tspan text-anchor="middle" x="72.30337078651685" y="56.875">Execution</tspan></text></g></g><g class="tactic persistence" transform="translate(321.34831460674155, 0)"><g class="techniques"><g class="technique T1547" transform="translate(0, 106.75)"><rect class="cell" height="106.75" width="144.6067415730337" fill="#dadaeb" stroke="#6B7279"/><polygon class="sidebar" transform="translate(0, 106.75)" points="0,0 12,0 12,12" fill="#6B7279" visibility="visible"/><text font-size="9.003626149131767" fill="black"><tspan x="4" y="42.20833333333333">Boot or</tspan><tspan x="4" y="56.875">Logon Autostart</tspan><tspan x="4" y="71.54166666666666">Execution</tspan></text></g><g class="technique T1078" transform="translate(0, 320.25)"><rect class="cell" height="106.75" width="144.6067415730337" fill="#dadaeb" stroke="#6B7279"/><polygon class="sidebar" transform="translate(0, 106.75)" points="0,0 12,0 12,0" fill="#6B7279" visibility="hidden"/><text font-size="9.003626149131767" fill="black"><tspan x="4" y="56.875">Valid Accounts</tspan></text></g></g><g class="subtechniques"><g class="subtechnique T1547.001" transform="translate(15, 213.5)"><rect class="cell" height="106.75" width="129.6067415730337" fill="white" stroke="#6B7279"/><rect class="cell" height="106.75" width="3" transform="translate(-3, 0)" fill="#6B7279" stroke="#6B7279"/><text font-size="9.003626149131767" fill="black"><tspan x="4" y="42.20833333333333">Registry</tspan><tspan x="4" y="56.875">Run Keys /</tspan><tspan x="4" y="71.54166666666666">Startup Folder</tspan></text></g></g><g class="tactic-label"><text font-size="12" fill="black" font-weight="bold"><tspan text-anchor="middle" x="72.30337078651685" y="56.875">Persistence</tspan></text></g></g><g class="tactic privilege-escalation" transform="translate(482.02247191011236, 0)"><g class="techniques"><g class="technique T1548" transform="translate(0, 106.75)"><rect class="cell" height="106.75" width="144.6067415730337" fill="#dadaeb" stroke="#6B7279"/><polygon class="sidebar" transform="translate(0, 106.75)" points="0,0 12,0 12,12" fill="#6B7279" visibility="visible"/><text font-size="9.003626149131767" fill="black"><tspan x="4" y="42.20833333333333">Abuse Elevation</tspan><tspan x="4" y="56.875">Control</tspan><tspan x="4" y="71.54166666666666">Mechanism</tspan></text></g><g class="technique T1134" transform="translate(0, 320.25)"><rect class="cell" height="106.75" width="144.6067415730337" fill="#dadaeb" stroke="#6B7279"/><polygon class="sidebar" transform="translate(0, 106.75)" points="0,0 12,0 12,0" fill="#6B7279" visibility="hidden"/><text font-size="9.003626149131767" fill="black"><tspan x="4" y="49.625">Access Token</tspan><tspan x="4" y="64.125">Manipulation</tspan></text></g><g class="technique T1547" transform="translate(0, 427)"><rect class="cell" height="106.75" width="144.6067415730337" fill="#dadaeb" stroke="#6B7279"/><polygon class="sidebar" transform="translate(0, 106.75)" points="0,0 12,0 12,12" fill="#6B7279" visibility="hidden"/><text font-size="9.003626149131767" fill="black"><tspan x="4" y="42.20833333333333">Boot or</tspan><tspan x="4" y="56.875">Logon Autostart</tspan><tspan x="4" y="71.54166666666666">Execution</tspan></text></g><g class="technique T1078" transform="translate(0, 533.75)"><rect class="cell" height="106.75" width="144.6067415730337" fill="#dadaeb" stroke="#6B7279"/><polygon class="sidebar" transform="translate(0, 106.75)" points="0,0 12,0 12,0" fill="#6B7279" visibility="hidden"/><text font-size="9.003626149131767" fill="black"><tspan x="4" y="56.875">Valid Accounts</tspan></text></g></g><g class="subtechniques"><g class="subtechnique T1548.002" transform="translate(15, 213.5)"><rect class="cell" height="106.75" width="129.6067415730337" fill="white" stroke="#6B7279"/><rect class="cell" height="106.75" width="3" transform="translate(-3, 0)" fill="#6B7279" stroke="#6B7279"/><text font-size="9.003626149131767" fill="black"><tspan x="4" y="42.20833333333333">Bypass</tspan><tspan x="4" y="56.875">User Account</tspan><tspan x="4" y="71.54166666666666">Control</tspan></text></g></g><g class="tactic-label"><text font-size="12" fill="black" font-weight="bold"><tspan text-anchor="middle" x="72.30337078651685" y="49.625">Privilege</tspan><tspan text-anchor="middle" x="72.30337078651685" y="64.125">Escalation</tspan></text></g></g><g class="tactic defense-evasion" transform="translate(642.6966292134831, 0)"><g class="techniques"><g class="technique T1548" transform="translate(0, 106.75)"><rect class="cell" height="106.75" width="144.6067415730337" fill="#dadaeb" stroke="#6B7279"/><polygon class="sidebar" transform="translate(0, 106.75)" points="0,0 12,0 12,12" fill="#6B7279" visibility="hidden"/><text font-size="9.003626149131767" fill="black"><tspan x="4" y="42.20833333333333">Abuse Elevation</tspan><tspan x="4" y="56.875">Control</tspan><tspan x="4" y="71.54166666666666">Mechanism</tspan></text></g><g class="technique T1134" transform="translate(0, 213.5)"><rect class="cell" height="106.75" width="144.6067415730337" fill="#dadaeb" stroke="#6B7279"/><polygon class="sidebar" transform="translate(0, 106.75)" points="0,0 12,0 12,0" fill="#6B7279" visibility="hidden"/><text font-size="9.003626149131767" fill="black"><tspan x="4" y="49.625">Access Token</tspan><tspan x="4" y="64.125">Manipulation</tspan></text></g><g class="technique T1211" transform="translate(0, 320.25)"><rect class="cell" height="106.75" width="144.6067415730337" fill="#dadaeb" stroke="#6B7279"/><polygon class="sidebar" transform="translate(0, 106.75)" points="0,0 12,0 12,0" fill="#6B7279" visibility="hidden"/><text font-size="9.003626149131767" fill="black"><tspan x="4" y="49.625">Exploitation for</tspan><tspan x="4" y="64.125">Defense Evasion</tspan></text></g><g class="technique T1222" transform="translate(0, 427)"><rect class="cell" height="106.75" width="144.6067415730337" fill="#dadaeb" stroke="#6B7279"/><polygon class="sidebar" transform="translate(0, 106.75)" points="0,0 12,0 12,0" fill="#6B7279" visibility="hidden"/><text font-size="9.003626149131767" fill="black"><tspan x="4" y="34.75">File</tspan><tspan x="4" y="49.5">and Directory</tspan><tspan x="4" y="64.25">Permissions</tspan><tspan x="4" y="79">Modification</tspan></text></g><g class="technique T1070" transform="translate(0, 533.75)"><rect class="cell" height="106.75" width="144.6067415730337" fill="#dadaeb" stroke="#6B7279"/><polygon class="sidebar" transform="translate(0, 106.75)" points="0,0 12,0 12,0" fill="#6B7279" visibility="hidden"/><text font-size="9.003626149131767" fill="black"><tspan x="4" y="49.625">Indicator</tspan><tspan x="4" y="64.125">Removal on Host</tspan></text></g><g class="technique T1078" transform="translate(0, 640.5)"><rect class="cell" height="106.75" width="144.6067415730337" fill="#dadaeb" stroke="#6B7279"/><polygon class="sidebar" transform="translate(0, 106.75)" points="0,0 12,0 12,0" fill="#6B7279" visibility="hidden"/><text font-size="9.003626149131767" fill="black"><tspan x="4" y="56.875">Valid Accounts</tspan></text></g><g class="technique T1497" transform="translate(0, 747.25)"><rect class="cell" height="106.75" width="144.6067415730337" fill="#dadaeb" stroke="#6B7279"/><polygon class="sidebar" transform="translate(0, 106.75)" points="0,0 12,0 12,0" fill="#6B7279" visibility="hidden"/><text font-size="9.003626149131767" fill="black"><tspan x="4" y="48.625">Virtualization/Sandbox</tspan><tspan x="4" y="63.125">Evasion</tspan></text></g></g><g class="subtechniques"/><g class="tactic-label"><text font-size="12" fill="black" font-weight="bold"><tspan text-anchor="middle" x="72.30337078651685" y="56.875">Defense Evasion</tspan></text></g></g><g class="tactic discovery" transform="translate(803.3707865168539, 0)"><g class="techniques"><g class="technique T1083" transform="translate(0, 106.75)"><rect class="cell" height="106.75" width="144.6067415730337" fill="#dadaeb" stroke="#6B7279"/><polygon class="sidebar" transform="translate(0, 106.75)" points="0,0 12,0 12,0" fill="#6B7279" visibility="hidden"/><text font-size="9.003626149131767" fill="black"><tspan x="4" y="42.20833333333333">File</tspan><tspan x="4" y="56.875">and Directory</tspan><tspan x="4" y="71.54166666666666">Discovery</tspan></text></g><g class="technique T1135" transform="translate(0, 213.5)"><rect class="cell" height="106.75" width="144.6067415730337" fill="#dadaeb" stroke="#6B7279"/><polygon class="sidebar" transform="translate(0, 106.75)" points="0,0 12,0 12,0" fill="#6B7279" visibility="hidden"/><text font-size="9.003626149131767" fill="black"><tspan x="4" y="49.625">Network</tspan><tspan x="4" y="64.125">Share Discovery</tspan></text></g><g class="technique T1057" transform="translate(0, 320.25)"><rect class="cell" height="106.75" width="144.6067415730337" fill="#dadaeb" stroke="#6B7279"/><polygon class="sidebar" transform="translate(0, 106.75)" points="0,0 12,0 12,0" fill="#6B7279" visibility="hidden"/><text font-size="9.003626149131767" fill="black"><tspan x="4" y="49.625">Process</tspan><tspan x="4" y="64.125">Discovery</tspan></text></g><g class="technique T1018" transform="translate(0, 427)"><rect class="cell" height="106.75" width="144.6067415730337" fill="#dadaeb" stroke="#6B7279"/><polygon class="sidebar" transform="translate(0, 106.75)" points="0,0 12,0 12,0" fill="#6B7279" visibility="hidden"/><text font-size="9.003626149131767" fill="black"><tspan x="4" y="49.625">Remote</tspan><tspan x="4" y="64.125">System Discovery</tspan></text></g><g class="technique T1082" transform="translate(0, 533.75)"><rect class="cell" height="106.75" width="144.6067415730337" fill="#dadaeb" stroke="#6B7279"/><polygon class="sidebar" transform="translate(0, 106.75)" points="0,0 12,0 12,0" fill="#6B7279" visibility="hidden"/><text font-size="9.003626149131767" fill="black"><tspan x="4" y="42.20833333333333">System</tspan><tspan x="4" y="56.875">Information</tspan><tspan x="4" y="71.54166666666666">Discovery</tspan></text></g><g class="technique T1497" transform="translate(0, 640.5)"><rect class="cell" height="106.75" width="144.6067415730337" fill="#dadaeb" stroke="#6B7279"/><polygon class="sidebar" transform="translate(0, 106.75)" points="0,0 12,0 12,0" fill="#6B7279" visibility="hidden"/><text font-size="9.003626149131767" fill="black"><tspan x="4" y="48.625">Virtualization/Sandbox</tspan><tspan x="4" y="63.125">Evasion</tspan></text></g></g><g class="subtechniques"/><g class="tactic-label"><text font-size="12" fill="black" font-weight="bold"><tspan text-anchor="middle" x="72.30337078651685" y="56.875">Discovery</tspan></text></g></g><g class="tactic command-and-control" transform="translate(964.0449438202247, 0)"><g class="techniques"><g class="technique T1001" transform="translate(0, 106.75)"><rect class="cell" height="106.75" width="144.6067415730337" fill="#dadaeb" stroke="#6B7279"/><polygon class="sidebar" transform="translate(0, 106.75)" points="0,0 12,0 12,0" fill="#6B7279" visibility="hidden"/><text font-size="9.003626149131767" fill="black"><tspan x="4" y="56.875">Data Obfuscation</tspan></text></g></g><g class="subtechniques"/><g class="tactic-label"><text font-size="12" fill="black" font-weight="bold"><tspan text-anchor="middle" x="72.30337078651685" y="49.625">Command</tspan><tspan text-anchor="middle" x="72.30337078651685" y="64.125">and Control</tspan></text></g></g><g class="tactic exfiltration" transform="translate(1124.7191011235955, 0)"><g class="techniques"><g class="technique T1041" transform="translate(0, 106.75)"><rect class="cell" height="106.75" width="144.6067415730337" fill="#dadaeb" stroke="#6B7279"/><polygon class="sidebar" transform="translate(0, 106.75)" points="0,0 12,0 12,0" fill="#6B7279" visibility="hidden"/><text font-size="9.003626149131767" fill="black"><tspan x="4" y="49.625">Exfiltration</tspan><tspan x="4" y="64.125">Over C2 Channel</tspan></text></g></g><g class="subtechniques"/><g class="tactic-label"><text font-size="12" fill="black" font-weight="bold"><tspan text-anchor="middle" x="72.30337078651685" y="56.875">Exfiltration</tspan></text></g></g><g class="tactic impact" transform="translate(1285.3932584269662, 0)"><g class="techniques"><g class="technique T1486" transform="translate(0, 106.75)"><rect class="cell" height="106.75" width="144.6067415730337" fill="#dadaeb" stroke="#6B7279"/><polygon class="sidebar" transform="translate(0, 106.75)" points="0,0 12,0 12,0" fill="#6B7279" visibility="hidden"/><text font-size="9.003626149131767" fill="black"><tspan x="4" y="49.625">Data Encrypted</tspan><tspan x="4" y="64.125">for Impact</tspan></text></g><g class="technique T1489" transform="translate(0, 213.5)"><rect class="cell" height="106.75" width="144.6067415730337" fill="#dadaeb" stroke="#6B7279"/><polygon class="sidebar" transform="translate(0, 106.75)" points="0,0 12,0 12,0" fill="#6B7279" visibility="hidden"/><text font-size="9.003626149131767" fill="black"><tspan x="4" y="56.875">Service Stop</tspan></text></g><g class="technique T1529" transform="translate(0, 320.25)"><rect class="cell" height="106.75" width="144.6067415730337" fill="#dadaeb" stroke="#6B7279"/><polygon class="sidebar" transform="translate(0, 106.75)" points="0,0 12,0 12,0" fill="#6B7279" visibility="hidden"/><text font-size="9.003626149131767" fill="black"><tspan x="4" y="49.625">System</tspan><tspan x="4" y="64.125">Shutdown/Reboot</tspan></text></g></g><g class="subtechniques"/><g class="tactic-label"><text font-size="12" fill="black" font-weight="bold"><tspan text-anchor="middle" x="72.30337078651685" y="56.875">Impact</tspan></text></g></g></g></g></g></svg>