<?xml version="1.0" standalone="no"?>
<svg width="1056" height="816" xmlns="http://www.w3.org/2000/svg" id="svgvm0"><g transform="translate(5,5)" style="font-family: sans-serif;"><g transform="translate(0,1)"><g><g class="tactic initial-access" transform="translate(0, 0)"><g class="techniques"><g class="technique T1566" transform="translate(0, 80.60000000000001)"><rect class="cell" height="80.60000000000001" width="159.5593220338983" fill="#c6dbef" stroke="#6B7279"/><polygon class="sidebar" transform="translate(0, 80.60000000000001)" points="0,0 12,0 12,12" fill="#6B7279" visibility="visible"/><text font-size="12" fill="black"><tspan x="4" y="43.800000000000004">T1566: Phishing</tspan></text></g></g><g class="subtechniques"><g class="subtechnique T1566.002" transform="translate(15, 161.20000000000002)"><rect class="cell" height="80.60000000000001" width="144.5593220338983" fill="#c6dbef" stroke="#6B7279"/><rect class="cell" height="80.60000000000001" width="3" transform="translate(-3, 0)" fill="#6B7279" stroke="#6B7279"/><text font-size="12" fill="black"><tspan x="4" y="29.133333333333336">T1566.002:</tspan><tspan x="4" y="43.800000000000004">Spearphishing</tspan><tspan x="4" y="58.46666666666667">Link</tspan></text></g><g class="subtechnique T1566.003" transform="translate(15, 241.79999999999998)"><rect class="cell" height="80.60000000000001" width="144.5593220338983" fill="#c6dbef" stroke="#6B7279"/><rect class="cell" height="80.60000000000001" width="3" transform="translate(-3, 0)" fill="#6B7279" stroke="#6B7279"/><text font-size="12" fill="black"><tspan x="4" y="29.133333333333336">T1566.003:</tspan><tspan x="4" y="43.800000000000004">Spearphishing</tspan><tspan x="4" y="58.46666666666667">via Service</tspan></text></g><g class="subtechnique T1566.001" transform="translate(15, 322.40000000000003)"><rect class="cell" height="80.60000000000001" width="144.5593220338983" fill="#c6dbef" stroke="#6B7279"/><rect class="cell" height="80.60000000000001" width="3" transform="translate(-3, 0)" fill="#6B7279" stroke="#6B7279"/><text font-size="12" fill="black"><tspan x="4" y="29.133333333333336">T1566.001:</tspan><tspan x="4" y="43.800000000000004">Spearphishing</tspan><tspan x="4" y="58.46666666666667">Attachment</tspan></text></g></g><g class="tactic-label"><text font-size="12" fill="black" font-weight="bold"><tspan text-anchor="middle" x="79.77966101694915" y="43.800000000000004">Initial Access</tspan></text></g></g><g class="tactic execution" transform="translate(177.28813559322032, 0)"><g class="techniques"><g class="technique T1059" transform="translate(0, 80.60000000000001)"><rect class="cell" height="80.60000000000001" width="159.5593220338983" fill="#c6dbef" stroke="#6B7279"/><polygon class="sidebar" transform="translate(0, 80.60000000000001)" points="0,0 12,0 12,12" fill="#6B7279" visibility="visible"/><text font-size="12" fill="black"><tspan x="4" y="29.133333333333336">T1059: Command</tspan><tspan x="4" y="43.800000000000004">and Scripting</tspan><tspan x="4" y="58.46666666666667">Interpreter</tspan></text></g><g class="technique T1203" transform="translate(0, 241.79999999999998)"><rect class="cell" height="80.60000000000001" width="159.5593220338983" fill="#c6dbef" stroke="#6B7279"/><polygon class="sidebar" transform="translate(0, 80.60000000000001)" points="0,0 12,0 12,0" fill="#6B7279" visibility="hidden"/><text font-size="12" fill="black"><tspan x="4" y="29.133333333333336">T1203:</tspan><tspan x="4" y="43.800000000000004">Exploitation for</tspan><tspan x="4" y="58.46666666666667">Client Execution</tspan></text></g><g class="technique T1106" transform="translate(0, 322.40000000000003)"><rect class="cell" height="80.60000000000001" width="159.5593220338983" fill="#c6dbef" stroke="#6B7279"/><polygon class="sidebar" transform="translate(0, 80.60000000000001)" points="0,0 12,0 12,0" fill="#6B7279" visibility="hidden"/><text font-size="12" fill="black"><tspan x="4" y="43.800000000000004">T1106: Native API</tspan></text></g><g class="technique T1204" transform="translate(0, 403)"><rect class="cell" height="80.60000000000001" width="159.5593220338983" fill="#c6dbef" stroke="#6B7279"/><polygon class="sidebar" transform="translate(0, 80.60000000000001)" points="0,0 12,0 12,12" fill="#6B7279" visibility="visible"/><text font-size="12" fill="black"><tspan x="4" y="36.550000000000004">T1204:</tspan><tspan x="4" y="51.050000000000004">User Execution</tspan></text></g></g><g class="subtechniques"><g class="subtechnique T1059.001" transform="translate(15, 161.20000000000002)"><rect class="cell" height="80.60000000000001" width="144.5593220338983" fill="#c6dbef" stroke="#6B7279"/><rect class="cell" height="80.60000000000001" width="3" transform="translate(-3, 0)" fill="#6B7279" stroke="#6B7279"/><text font-size="12" fill="black"><tspan x="4" y="36.550000000000004">T1059.001:</tspan><tspan x="4" y="51.050000000000004">PowerShell</tspan></text></g><g class="subtechnique T1204.002" transform="translate(15, 483.59999999999997)"><rect class="cell" height="80.60000000000001" width="144.5593220338983" fill="#c6dbef" stroke="#6B7279"/><rect class="cell" height="80.60000000000001" width="3" transform="translate(-3, 0)" fill="#6B7279" stroke="#6B7279"/><text font-size="12" fill="black"><tspan x="4" y="36.550000000000004">T1204.002:</tspan><tspan x="4" y="51.050000000000004">Malicious File</tspan></text></g></g><g class="tactic-label"><text font-size="12" fill="black" font-weight="bold"><tspan text-anchor="middle" x="79.77966101694915" y="43.800000000000004">Execution</tspan></text></g></g><g class="tactic defense-evasion" transform="translate(354.57627118644064, 0)"><g class="techniques"><g class="technique T1140" transform="translate(0, 80.60000000000001)"><rect class="cell" height="80.60000000000001" width="159.5593220338983" fill="#c6dbef" stroke="#6B7279"/><polygon class="sidebar" transform="translate(0, 80.60000000000001)" points="0,0 12,0 12,0" fill="#6B7279" visibility="hidden"/><text font-size="12" fill="black"><tspan x="4" y="21.675000000000004">T1140:</tspan><tspan x="4" y="36.425000000000004">Deobfuscate/Decode</tspan><tspan x="4" y="51.175000000000004">Files</tspan><tspan x="4" y="65.92500000000001">or Information</tspan></text></g><g class="technique T1027" transform="translate(0, 161.20000000000002)"><rect class="cell" height="80.60000000000001" width="159.5593220338983" fill="#c6dbef" stroke="#6B7279"/><polygon class="sidebar" transform="translate(0, 80.60000000000001)" points="0,0 12,0 12,12" fill="#6B7279" visibility="visible"/><text font-size="12" fill="black"><tspan x="4" y="29.133333333333336">T1027:</tspan><tspan x="4" y="43.800000000000004">Obfuscated Files</tspan><tspan x="4" y="58.46666666666667">or Information</tspan></text></g></g><g class="subtechniques"><g class="subtechnique T1027.002" transform="translate(15, 241.79999999999998)"><rect class="cell" height="80.60000000000001" width="144.5593220338983" fill="#c6dbef" stroke="#6B7279"/><rect class="cell" height="80.60000000000001" width="3" transform="translate(-3, 0)" fill="#6B7279" stroke="#6B7279"/><text font-size="12" fill="black"><tspan x="4" y="36.550000000000004">T1027.002:</tspan><tspan x="4" y="51.050000000000004">Software Packing</tspan></text></g></g><g class="tactic-label"><text font-size="12" fill="black" font-weight="bold"><tspan text-anchor="middle" x="79.77966101694915" y="43.800000000000004">Defense Evasion</tspan></text></g></g><g class="tactic discovery" transform="translate(531.864406779661, 0)"><g class="techniques"><g class="technique T1087" transform="translate(0, 80.60000000000001)"><rect class="cell" height="80.60000000000001" width="159.5593220338983" fill="#c6dbef" stroke="#6B7279"/><polygon class="sidebar" transform="translate(0, 80.60000000000001)" points="0,0 12,0 12,12" fill="#6B7279" visibility="visible"/><text font-size="12" fill="black"><tspan x="4" y="36.550000000000004">T1087:</tspan><tspan x="4" y="51.050000000000004">Account Discovery</tspan></text></g><g class="technique T1082" transform="translate(0, 241.79999999999998)"><rect class="cell" height="80.60000000000001" width="159.5593220338983" fill="#c6dbef" stroke="#6B7279"/><polygon class="sidebar" transform="translate(0, 80.60000000000001)" points="0,0 12,0 12,0" fill="#6B7279" visibility="hidden"/><text font-size="12" fill="black"><tspan x="4" y="29.133333333333336">T1082:</tspan><tspan x="4" y="43.800000000000004">System Information</tspan><tspan x="4" y="58.46666666666667">Discovery</tspan></text></g><g class="technique T1033" transform="translate(0, 322.40000000000003)"><rect class="cell" height="80.60000000000001" width="159.5593220338983" fill="#c6dbef" stroke="#6B7279"/><polygon class="sidebar" transform="translate(0, 80.60000000000001)" points="0,0 12,0 12,0" fill="#6B7279" visibility="hidden"/><text font-size="12" fill="black"><tspan x="4" y="29.133333333333336">T1033:</tspan><tspan x="4" y="43.800000000000004">System Owner/User</tspan><tspan x="4" y="58.46666666666667">Discovery</tspan></text></g></g><g class="subtechniques"><g class="subtechnique T1087.001" transform="translate(15, 161.20000000000002)"><rect class="cell" height="80.60000000000001" width="144.5593220338983" fill="#c6dbef" stroke="#6B7279"/><rect class="cell" height="80.60000000000001" width="3" transform="translate(-3, 0)" fill="#6B7279" stroke="#6B7279"/><text font-size="12" fill="black"><tspan x="4" y="36.550000000000004">T1087.001:</tspan><tspan x="4" y="51.050000000000004">Local Account</tspan></text></g></g><g class="tactic-label"><text font-size="12" fill="black" font-weight="bold"><tspan text-anchor="middle" x="79.77966101694915" y="43.800000000000004">Discovery</tspan></text></g></g><g class="tactic command-and-control" transform="translate(709.1525423728813, 0)"><g class="techniques"><g class="technique T1071" transform="translate(0, 80.60000000000001)"><rect class="cell" height="80.60000000000001" width="159.5593220338983" fill="#c6dbef" stroke="#6B7279"/><polygon class="sidebar" transform="translate(0, 80.60000000000001)" points="0,0 12,0 12,12" fill="#6B7279" visibility="visible"/><text font-size="12" fill="black"><tspan x="4" y="36.550000000000004">T1071: Application</tspan><tspan x="4" y="51.050000000000004">Layer Protocol</tspan></text></g><g class="technique T1132" transform="translate(0, 241.79999999999998)"><rect class="cell" height="80.60000000000001" width="159.5593220338983" fill="#c6dbef" stroke="#6B7279"/><polygon class="sidebar" transform="translate(0, 80.60000000000001)" points="0,0 12,0 12,12" fill="#6B7279" visibility="visible"/><text font-size="12" fill="black"><tspan x="4" y="36.550000000000004">T1132:</tspan><tspan x="4" y="51.050000000000004">Data Encoding</tspan></text></g><g class="technique T1573" transform="translate(0, 403)"><rect class="cell" height="80.60000000000001" width="159.5593220338983" fill="#c6dbef" stroke="#6B7279"/><polygon class="sidebar" transform="translate(0, 80.60000000000001)" points="0,0 12,0 12,12" fill="#6B7279" visibility="visible"/><text font-size="12" fill="black"><tspan x="4" y="36.550000000000004">T1573:</tspan><tspan x="4" y="51.050000000000004">Encrypted Channel</tspan></text></g><g class="technique T1102" transform="translate(0, 644.8000000000001)"><rect class="cell" height="80.60000000000001" width="159.5593220338983" fill="#c6dbef" stroke="#6B7279"/><polygon class="sidebar" transform="translate(0, 80.60000000000001)" points="0,0 12,0 12,12" fill="#6B7279" visibility="visible"/><text font-size="12" fill="black"><tspan x="4" y="43.800000000000004">T1102: Web Service</tspan></text></g></g><g class="subtechniques"><g class="subtechnique T1071.001" transform="translate(15, 161.20000000000002)"><rect class="cell" height="80.60000000000001" width="144.5593220338983" fill="#c6dbef" stroke="#6B7279"/><rect class="cell" height="80.60000000000001" width="3" transform="translate(-3, 0)" fill="#6B7279" stroke="#6B7279"/><text font-size="12" fill="black"><tspan x="4" y="36.550000000000004">T1071.001:</tspan><tspan x="4" y="51.050000000000004">Web Protocols</tspan></text></g><g class="subtechnique T1132.002" transform="translate(15, 322.40000000000003)"><rect class="cell" height="80.60000000000001" width="144.5593220338983" fill="#c6dbef" stroke="#6B7279"/><rect class="cell" height="80.60000000000001" width="3" transform="translate(-3, 0)" fill="#6B7279" stroke="#6B7279"/><text font-size="12" fill="black"><tspan x="4" y="29.133333333333336">T1132.002:</tspan><tspan x="4" y="43.800000000000004">Non-Standard</tspan><tspan x="4" y="58.46666666666667">Encoding</tspan></text></g><g class="subtechnique T1573.002" transform="translate(15, 483.59999999999997)"><rect class="cell" height="80.60000000000001" width="144.5593220338983" fill="#c6dbef" stroke="#6B7279"/><rect class="cell" height="80.60000000000001" width="3" transform="translate(-3, 0)" fill="#6B7279" stroke="#6B7279"/><text font-size="12" fill="black"><tspan x="4" y="29.133333333333336">T1573.002:</tspan><tspan x="4" y="43.800000000000004">Asymmetric</tspan><tspan x="4" y="58.46666666666667">Cryptography</tspan></text></g><g class="subtechnique T1573.001" transform="translate(15, 564.1999999999999)"><rect class="cell" height="80.60000000000001" width="144.5593220338983" fill="#c6dbef" stroke="#6B7279"/><rect class="cell" height="80.60000000000001" width="3" transform="translate(-3, 0)" fill="#6B7279" stroke="#6B7279"/><text font-size="12" fill="black"><tspan x="4" y="29.133333333333336">T1573.001:</tspan><tspan x="4" y="43.800000000000004">Symmetric</tspan><tspan x="4" y="58.46666666666667">Cryptography</tspan></text></g><g class="subtechnique T1102.002" transform="translate(15, 725.4)"><rect class="cell" height="80.60000000000001" width="144.5593220338983" fill="#c6dbef" stroke="#6B7279"/><rect class="cell" height="80.60000000000001" width="3" transform="translate(-3, 0)" fill="#6B7279" stroke="#6B7279"/><text font-size="12" fill="black"><tspan x="4" y="29.133333333333336">T1102.002:</tspan><tspan x="4" y="43.800000000000004">Bidirectional</tspan><tspan x="4" y="58.46666666666667">Communication</tspan></text></g></g><g class="tactic-label"><text font-size="12" fill="black" font-weight="bold"><tspan text-anchor="middle" x="79.77966101694915" y="36.550000000000004">Command</tspan><tspan text-anchor="middle" x="79.77966101694915" y="51.050000000000004">and Control</tspan></text></g></g><g class="tactic exfiltration" transform="translate(886.4406779661016, 0)"><g class="techniques"><g class="technique T1041" transform="translate(0, 80.60000000000001)"><rect class="cell" height="80.60000000000001" width="159.5593220338983" fill="#c6dbef" stroke="#6B7279"/><polygon class="sidebar" transform="translate(0, 80.60000000000001)" points="0,0 12,0 12,0" fill="#6B7279" visibility="hidden"/><text font-size="12" fill="black"><tspan x="4" y="29.133333333333336">T1041:</tspan><tspan x="4" y="43.800000000000004">Exfiltration</tspan><tspan x="4" y="58.46666666666667">Over C2 Channel</tspan></text></g></g><g class="subtechniques"/><g class="tactic-label"><text font-size="12" fill="black" font-weight="bold"><tspan text-anchor="middle" x="79.77966101694915" y="43.800000000000004">Exfiltration</tspan></text></g></g></g></g></g></svg>