<?xml version="1.0" standalone="no"?>
<svg width="1056" height="816" xmlns="http://www.w3.org/2000/svg" id="svgvm0"><g transform="translate(5,5)" style="font-family: sans-serif;"><g transform="translate(0,1)"><g><g class="tactic initial-access" transform="translate(0, 0)"><g class="techniques"><g class="technique T1566" transform="translate(0, 67.16666666666666)"><rect class="cell" height="67.16666666666666" width="95.09090909090908" fill="#dadaeb" stroke="#6B7279"/><polygon class="sidebar" transform="translate(0, 67.16666666666666)" points="0,0 12,0 12,12" fill="#6B7279" visibility="visible"/><text font-size="12" fill="black"><tspan x="4" y="37.08333333333333">Phishing</tspan></text></g><g class="technique T1078" transform="translate(0, 268.66666666666663)"><rect class="cell" height="67.16666666666666" width="95.09090909090908" fill="#dadaeb" stroke="#6B7279"/><polygon class="sidebar" transform="translate(0, 67.16666666666666)" points="0,0 12,0 12,12" fill="#6B7279" visibility="visible"/><text font-size="12" fill="black"><tspan x="4" y="29.83333333333333">Valid</tspan><tspan x="4" y="44.33333333333333">Accounts</tspan></text></g></g><g class="subtechniques"><g class="subtechnique T1566.001" transform="translate(15, 134.33333333333331)"><rect class="cell" height="67.16666666666666" width="80.09090909090908" fill="white" stroke="#6B7279"/><rect class="cell" height="67.16666666666666" width="3" transform="translate(-3, 0)" fill="#6B7279" stroke="#6B7279"/><text font-size="8.04090909090909" fill="black"><tspan x="4" y="28.83333333333333">Spearphishing</tspan><tspan x="4" y="43.33333333333333">Attachment</tspan></text></g><g class="subtechnique T1566.002" transform="translate(15, 201.5)"><rect class="cell" height="67.16666666666666" width="80.09090909090908" fill="white" stroke="#6B7279"/><rect class="cell" height="67.16666666666666" width="3" transform="translate(-3, 0)" fill="#6B7279" stroke="#6B7279"/><text font-size="8.04090909090909" fill="black"><tspan x="4" y="28.83333333333333">Spearphishing</tspan><tspan x="4" y="43.33333333333333">Link</tspan></text></g><g class="subtechnique T1078.002" transform="translate(15, 335.83333333333337)"><rect class="cell" height="67.16666666666666" width="80.09090909090908" fill="white" stroke="#6B7279"/><rect class="cell" height="67.16666666666666" width="3" transform="translate(-3, 0)" fill="#6B7279" stroke="#6B7279"/><text font-size="12" fill="black"><tspan x="4" y="29.83333333333333">Domain</tspan><tspan x="4" y="44.33333333333333">Accounts</tspan></text></g></g><g class="tactic-label"><text font-size="12" fill="black" font-weight="bold"><tspan text-anchor="middle" x="47.54545454545454" y="29.83333333333333">Initial</tspan><tspan text-anchor="middle" x="47.54545454545454" y="44.33333333333333">Access</tspan></text></g></g><g class="tactic execution" transform="translate(105.65656565656565, 0)"><g class="techniques"><g class="technique T1059" transform="translate(0, 67.16666666666666)"><rect class="cell" height="67.16666666666666" width="95.09090909090908" fill="#dadaeb" stroke="#6B7279"/><polygon class="sidebar" transform="translate(0, 67.16666666666666)" points="0,0 12,0 12,12" fill="#6B7279" visibility="visible"/><text font-size="11.480165289256197" fill="black"><tspan x="4" y="22.41666666666666">Command and</tspan><tspan x="4" y="37.08333333333333">Scripting</tspan><tspan x="4" y="51.74999999999999">Interpreter</tspan></text></g><g class="technique T1559" transform="translate(0, 470.1666666666667)"><rect class="cell" height="67.16666666666666" width="95.09090909090908" fill="#dadaeb" stroke="#6B7279"/><polygon class="sidebar" transform="translate(0, 67.16666666666666)" points="0,0 12,0 12,12" fill="#6B7279" visibility="visible"/><text font-size="9.713986013986013" fill="black"><tspan x="4" y="28.83333333333333">Inter-Process</tspan><tspan x="4" y="43.33333333333333">Communication</tspan></text></g><g class="technique T1204" transform="translate(0, 604.5)"><rect class="cell" height="67.16666666666666" width="95.09090909090908" fill="#dadaeb" stroke="#6B7279"/><polygon class="sidebar" transform="translate(0, 67.16666666666666)" points="0,0 12,0 12,12" fill="#6B7279" visibility="visible"/><text font-size="12" fill="black"><tspan x="4" y="29.83333333333333">User</tspan><tspan x="4" y="44.33333333333333">Execution</tspan></text></g></g><g class="subtechniques"><g class="subtechnique T1059.001" transform="translate(15, 134.33333333333331)"><rect class="cell" height="67.16666666666666" width="80.09090909090908" fill="white" stroke="#6B7279"/><rect class="cell" height="67.16666666666666" width="3" transform="translate(-3, 0)" fill="#6B7279" stroke="#6B7279"/><text font-size="10.453181818181816" fill="black"><tspan x="4" y="37.08333333333333">PowerShell</tspan></text></g><g class="subtechnique T1059.003" transform="translate(15, 201.5)"><rect class="cell" height="67.16666666666666" width="80.09090909090908" fill="white" stroke="#6B7279"/><rect class="cell" height="67.16666666666666" width="3" transform="translate(-3, 0)" fill="#6B7279" stroke="#6B7279"/><text font-size="12" fill="black"><tspan x="4" y="22.41666666666666">Windows</tspan><tspan x="4" y="37.08333333333333">Command</tspan><tspan x="4" y="51.74999999999999">Shell</tspan></text></g><g class="subtechnique T1059.005" transform="translate(15, 268.66666666666663)"><rect class="cell" height="67.16666666666666" width="80.09090909090908" fill="white" stroke="#6B7279"/><rect class="cell" height="67.16666666666666" width="3" transform="translate(-3, 0)" fill="#6B7279" stroke="#6B7279"/><text font-size="12" fill="black"><tspan x="4" y="29.83333333333333">Visual</tspan><tspan x="4" y="44.33333333333333">Basic</tspan></text></g><g class="subtechnique T1059.006" transform="translate(15, 335.83333333333337)"><rect class="cell" height="67.16666666666666" width="80.09090909090908" fill="white" stroke="#6B7279"/><rect class="cell" height="67.16666666666666" width="3" transform="translate(-3, 0)" fill="#6B7279" stroke="#6B7279"/><text font-size="12" fill="black"><tspan x="4" y="37.08333333333333">Python</tspan></text></g><g class="subtechnique T1059.007" transform="translate(15, 403)"><rect class="cell" height="67.16666666666666" width="80.09090909090908" fill="white" stroke="#6B7279"/><rect class="cell" height="67.16666666666666" width="3" transform="translate(-3, 0)" fill="#6B7279" stroke="#6B7279"/><text font-size="5.807323232323231" fill="black"><tspan x="4" y="35.08333333333333">JavaScript/JScript</tspan></text></g><g class="subtechnique T1559.002" transform="translate(15, 537.3333333333333)"><rect class="cell" height="67.16666666666666" width="80.09090909090908" fill="white" stroke="#6B7279"/><rect class="cell" height="67.16666666666666" width="3" transform="translate(-3, 0)" fill="#6B7279" stroke="#6B7279"/><text font-size="12" fill="black"><tspan x="4" y="22.41666666666666">Dynamic</tspan><tspan x="4" y="37.08333333333333">Data</tspan><tspan x="4" y="51.74999999999999">Exchange</tspan></text></g><g class="subtechnique T1204.001" transform="translate(15, 671.6666666666667)"><rect class="cell" height="67.16666666666666" width="80.09090909090908" fill="white" stroke="#6B7279"/><rect class="cell" height="67.16666666666666" width="3" transform="translate(-3, 0)" fill="#6B7279" stroke="#6B7279"/><text font-size="11.614646464646462" fill="black"><tspan x="4" y="29.83333333333333">Malicious</tspan><tspan x="4" y="44.33333333333333">Link</tspan></text></g><g class="subtechnique T1204.002" transform="translate(15, 738.8333333333333)"><rect class="cell" height="67.16666666666666" width="80.09090909090908" fill="white" stroke="#6B7279"/><rect class="cell" height="67.16666666666666" width="3" transform="translate(-3, 0)" fill="#6B7279" stroke="#6B7279"/><text font-size="11.614646464646462" fill="black"><tspan x="4" y="29.83333333333333">Malicious</tspan><tspan x="4" y="44.33333333333333">File</tspan></text></g></g><g class="tactic-label"><text font-size="12" fill="black" font-weight="bold"><tspan text-anchor="middle" x="47.54545454545454" y="37.08333333333333">Execution</tspan></text></g></g><g class="tactic persistence" transform="translate(211.3131313131313, 0)"><g class="techniques"><g class="technique T1078" transform="translate(0, 67.16666666666666)"><rect class="cell" height="67.16666666666666" width="95.09090909090908" fill="#dadaeb" stroke="#6B7279"/><polygon class="sidebar" transform="translate(0, 67.16666666666666)" points="0,0 12,0 12,12" fill="#6B7279" visibility="visible"/><text font-size="12" fill="black"><tspan x="4" y="29.83333333333333">Valid</tspan><tspan x="4" y="44.33333333333333">Accounts</tspan></text></g></g><g class="subtechniques"><g class="subtechnique T1078.002" transform="translate(15, 134.33333333333331)"><rect class="cell" height="67.16666666666666" width="80.09090909090908" fill="white" stroke="#6B7279"/><rect class="cell" height="67.16666666666666" width="3" transform="translate(-3, 0)" fill="#6B7279" stroke="#6B7279"/><text font-size="12" fill="black"><tspan x="4" y="29.83333333333333">Domain</tspan><tspan x="4" y="44.33333333333333">Accounts</tspan></text></g></g><g class="tactic-label"><text font-size="11.480165289256197" fill="black" font-weight="bold"><tspan text-anchor="middle" x="47.54545454545454" y="37.08333333333333">Persistence</tspan></text></g></g><g class="tactic privilege-escalation" transform="translate(316.96969696969694, 0)"><g class="techniques"><g class="technique T1055" transform="translate(0, 67.16666666666666)"><rect class="cell" height="67.16666666666666" width="95.09090909090908" fill="#dadaeb" stroke="#6B7279"/><polygon class="sidebar" transform="translate(0, 67.16666666666666)" points="0,0 12,0 12,12" fill="#6B7279" visibility="visible"/><text font-size="12" fill="black"><tspan x="4" y="29.83333333333333">Process</tspan><tspan x="4" y="44.33333333333333">Injection</tspan></text></g><g class="technique T1078" transform="translate(0, 201.5)"><rect class="cell" height="67.16666666666666" width="95.09090909090908" fill="#dadaeb" stroke="#6B7279"/><polygon class="sidebar" transform="translate(0, 67.16666666666666)" points="0,0 12,0 12,12" fill="#6B7279" visibility="visible"/><text font-size="12" fill="black"><tspan x="4" y="29.83333333333333">Valid</tspan><tspan x="4" y="44.33333333333333">Accounts</tspan></text></g></g><g class="subtechniques"><g class="subtechnique T1055.001" transform="translate(15, 134.33333333333331)"><rect class="cell" height="67.16666666666666" width="80.09090909090908" fill="white" stroke="#6B7279"/><rect class="cell" height="67.16666666666666" width="3" transform="translate(-3, 0)" fill="#6B7279" stroke="#6B7279"/><text font-size="8.710984848484847" fill="black"><tspan x="4" y="21.41666666666666">Dynamic-link</tspan><tspan x="4" y="36.08333333333333">Library</tspan><tspan x="4" y="50.74999999999999">Injection</tspan></text></g><g class="subtechnique T1078.002" transform="translate(15, 268.66666666666663)"><rect class="cell" height="67.16666666666666" width="80.09090909090908" fill="white" stroke="#6B7279"/><rect class="cell" height="67.16666666666666" width="3" transform="translate(-3, 0)" fill="#6B7279" stroke="#6B7279"/><text font-size="12" fill="black"><tspan x="4" y="29.83333333333333">Domain</tspan><tspan x="4" y="44.33333333333333">Accounts</tspan></text></g></g><g class="tactic-label"><text font-size="12" fill="black" font-weight="bold"><tspan text-anchor="middle" x="47.54545454545454" y="29.83333333333333">Privilege</tspan><tspan text-anchor="middle" x="47.54545454545454" y="44.33333333333333">Escalation</tspan></text></g></g><g class="tactic defense-evasion" transform="translate(422.6262626262626, 0)"><g class="techniques"><g class="technique T1027" transform="translate(0, 67.16666666666666)"><rect class="cell" height="67.16666666666666" width="95.09090909090908" fill="#dadaeb" stroke="#6B7279"/><polygon class="sidebar" transform="translate(0, 67.16666666666666)" points="0,0 12,0 12,12" fill="#6B7279" visibility="visible"/><text font-size="11.480165289256197" fill="black"><tspan x="4" y="22.41666666666666">Obfuscated</tspan><tspan x="4" y="37.08333333333333">Files or</tspan><tspan x="4" y="51.74999999999999">Information</tspan></text></g><g class="technique T1055" transform="translate(0, 201.5)"><rect class="cell" height="67.16666666666666" width="95.09090909090908" fill="#dadaeb" stroke="#6B7279"/><polygon class="sidebar" transform="translate(0, 67.16666666666666)" points="0,0 12,0 12,12" fill="#6B7279" visibility="visible"/><text font-size="12" fill="black"><tspan x="4" y="29.83333333333333">Process</tspan><tspan x="4" y="44.33333333333333">Injection</tspan></text></g><g class="technique T1218" transform="translate(0, 335.83333333333337)"><rect class="cell" height="67.16666666666666" width="95.09090909090908" fill="#dadaeb" stroke="#6B7279"/><polygon class="sidebar" transform="translate(0, 67.16666666666666)" points="0,0 12,0 12,12" fill="#6B7279" visibility="visible"/><text font-size="12" fill="black"><tspan x="4" y="14.958333333333329">Signed</tspan><tspan x="4" y="29.70833333333333">Binary</tspan><tspan x="4" y="44.45833333333333">Proxy</tspan><tspan x="4" y="59.20833333333333">Execution</tspan></text></g><g class="technique T1078" transform="translate(0, 537.3333333333333)"><rect class="cell" height="67.16666666666666" width="95.09090909090908" fill="#dadaeb" stroke="#6B7279"/><polygon class="sidebar" transform="translate(0, 67.16666666666666)" points="0,0 12,0 12,12" fill="#6B7279" visibility="visible"/><text font-size="12" fill="black"><tspan x="4" y="29.83333333333333">Valid</tspan><tspan x="4" y="44.33333333333333">Accounts</tspan></text></g></g><g class="subtechniques"><g class="subtechnique T1027.002" transform="translate(15, 134.33333333333331)"><rect class="cell" height="67.16666666666666" width="80.09090909090908" fill="white" stroke="#6B7279"/><rect class="cell" height="67.16666666666666" width="3" transform="translate(-3, 0)" fill="#6B7279" stroke="#6B7279"/><text font-size="12" fill="black"><tspan x="4" y="29.83333333333333">Software</tspan><tspan x="4" y="44.33333333333333">Packing</tspan></text></g><g class="subtechnique T1055.001" transform="translate(15, 268.66666666666663)"><rect class="cell" height="67.16666666666666" width="80.09090909090908" fill="white" stroke="#6B7279"/><rect class="cell" height="67.16666666666666" width="3" transform="translate(-3, 0)" fill="#6B7279" stroke="#6B7279"/><text font-size="8.710984848484847" fill="black"><tspan x="4" y="21.41666666666666">Dynamic-link</tspan><tspan x="4" y="36.08333333333333">Library</tspan><tspan x="4" y="50.74999999999999">Injection</tspan></text></g><g class="subtechnique T1218.011" transform="translate(15, 403)"><rect class="cell" height="67.16666666666666" width="80.09090909090908" fill="white" stroke="#6B7279"/><rect class="cell" height="67.16666666666666" width="3" transform="translate(-3, 0)" fill="#6B7279" stroke="#6B7279"/><text font-size="12" fill="black"><tspan x="4" y="37.08333333333333">Rundll32</tspan></text></g><g class="subtechnique T1218.007" transform="translate(15, 470.1666666666667)"><rect class="cell" height="67.16666666666666" width="80.09090909090908" fill="white" stroke="#6B7279"/><rect class="cell" height="67.16666666666666" width="3" transform="translate(-3, 0)" fill="#6B7279" stroke="#6B7279"/><text font-size="12" fill="black"><tspan x="4" y="37.08333333333333">Msiexec</tspan></text></g><g class="subtechnique T1078.002" transform="translate(15, 604.5)"><rect class="cell" height="67.16666666666666" width="80.09090909090908" fill="white" stroke="#6B7279"/><rect class="cell" height="67.16666666666666" width="3" transform="translate(-3, 0)" fill="#6B7279" stroke="#6B7279"/><text font-size="12" fill="black"><tspan x="4" y="29.83333333333333">Domain</tspan><tspan x="4" y="44.33333333333333">Accounts</tspan></text></g></g><g class="tactic-label"><text font-size="12" fill="black" font-weight="bold"><tspan text-anchor="middle" x="47.54545454545454" y="29.83333333333333">Defense</tspan><tspan text-anchor="middle" x="47.54545454545454" y="44.33333333333333">Evasion</tspan></text></g></g><g class="tactic credential-access" transform="translate(528.2828282828282, 0)"><g class="techniques"><g class="technique T1555" transform="translate(0, 67.16666666666666)"><rect class="cell" height="67.16666666666666" width="95.09090909090908" fill="#dadaeb" stroke="#6B7279"/><polygon class="sidebar" transform="translate(0, 67.16666666666666)" points="0,0 12,0 12,12" fill="#6B7279" visibility="visible"/><text font-size="11.480165289256197" fill="black"><tspan x="4" y="14.958333333333329">Credentials</tspan><tspan x="4" y="29.70833333333333">from</tspan><tspan x="4" y="44.45833333333333">Password</tspan><tspan x="4" y="59.20833333333333">Stores</tspan></text></g><g class="technique T1552" transform="translate(0, 201.5)"><rect class="cell" height="67.16666666666666" width="95.09090909090908" fill="#dadaeb" stroke="#6B7279"/><polygon class="sidebar" transform="translate(0, 67.16666666666666)" points="0,0 12,0 12,12" fill="#6B7279" visibility="visible"/><text font-size="11.480165289256197" fill="black"><tspan x="4" y="29.83333333333333">Unsecured</tspan><tspan x="4" y="44.33333333333333">Credentials</tspan></text></g></g><g class="subtechniques"><g class="subtechnique T1555.003" transform="translate(15, 134.33333333333331)"><rect class="cell" height="67.16666666666666" width="80.09090909090908" fill="white" stroke="#6B7279"/><rect class="cell" height="67.16666666666666" width="3" transform="translate(-3, 0)" fill="#6B7279" stroke="#6B7279"/><text font-size="9.50289256198347" fill="black"><tspan x="4" y="21.41666666666666">Credentials</tspan><tspan x="4" y="36.08333333333333">from Web</tspan><tspan x="4" y="50.74999999999999">Browsers</tspan></text></g><g class="subtechnique T1552.001" transform="translate(15, 268.66666666666663)"><rect class="cell" height="67.16666666666666" width="80.09090909090908" fill="white" stroke="#6B7279"/><rect class="cell" height="67.16666666666666" width="3" transform="translate(-3, 0)" fill="#6B7279" stroke="#6B7279"/><text font-size="9.50289256198347" fill="black"><tspan x="4" y="28.83333333333333">Credentials</tspan><tspan x="4" y="43.33333333333333">In Files</tspan></text></g></g><g class="tactic-label"><text font-size="12" fill="black" font-weight="bold"><tspan text-anchor="middle" x="47.54545454545454" y="29.83333333333333">Credential</tspan><tspan text-anchor="middle" x="47.54545454545454" y="44.33333333333333">Access</tspan></text></g></g><g class="tactic discovery" transform="translate(633.9393939393939, 0)"><g class="techniques"><g class="technique T1087" transform="translate(0, 67.16666666666666)"><rect class="cell" height="67.16666666666666" width="95.09090909090908" fill="#dadaeb" stroke="#6B7279"/><polygon class="sidebar" transform="translate(0, 67.16666666666666)" points="0,0 12,0 12,12" fill="#6B7279" visibility="visible"/><text font-size="12" fill="black"><tspan x="4" y="29.83333333333333">Account</tspan><tspan x="4" y="44.33333333333333">Discovery</tspan></text></g><g class="technique T1069" transform="translate(0, 201.5)"><rect class="cell" height="67.16666666666666" width="95.09090909090908" fill="#dadaeb" stroke="#6B7279"/><polygon class="sidebar" transform="translate(0, 67.16666666666666)" points="0,0 12,0 12,0" fill="#6B7279" visibility="visible"/><text font-size="12" fill="black"><tspan x="4" y="22.41666666666666">Permission</tspan><tspan x="4" y="37.08333333333333">Groups</tspan><tspan x="4" y="51.74999999999999">Discovery</tspan></text></g></g><g class="subtechniques"><g class="subtechnique T1087.003" transform="translate(15, 134.33333333333331)"><rect class="cell" height="67.16666666666666" width="80.09090909090908" fill="white" stroke="#6B7279"/><rect class="cell" height="67.16666666666666" width="3" transform="translate(-3, 0)" fill="#6B7279" stroke="#6B7279"/><text font-size="12" fill="black"><tspan x="4" y="29.83333333333333">Email</tspan><tspan x="4" y="44.33333333333333">Account</tspan></text></g></g><g class="tactic-label"><text font-size="12" fill="black" font-weight="bold"><tspan text-anchor="middle" x="47.54545454545454" y="37.08333333333333">Discovery</tspan></text></g></g><g class="tactic collection" transform="translate(739.5959595959596, 0)"><g class="techniques"><g class="technique T1185" transform="translate(0, 67.16666666666666)"><rect class="cell" height="67.16666666666666" width="95.09090909090908" fill="#dadaeb" stroke="#6B7279"/><polygon class="sidebar" transform="translate(0, 67.16666666666666)" points="0,0 12,0 12,0" fill="#6B7279" visibility="hidden"/><text font-size="12" fill="black"><tspan x="4" y="29.83333333333333">Man in the</tspan><tspan x="4" y="44.33333333333333">Browser</tspan></text></g></g><g class="subtechniques"/><g class="tactic-label"><text font-size="12" fill="black" font-weight="bold"><tspan text-anchor="middle" x="47.54545454545454" y="37.08333333333333">Collection</tspan></text></g></g><g class="tactic command-and-control" transform="translate(845.2525252525252, 0)"><g class="techniques"><g class="technique T1071" transform="translate(0, 67.16666666666666)"><rect class="cell" height="67.16666666666666" width="95.09090909090908" fill="#dadaeb" stroke="#6B7279"/><polygon class="sidebar" transform="translate(0, 67.16666666666666)" points="0,0 12,0 12,12" fill="#6B7279" visibility="visible"/><text font-size="11.480165289256197" fill="black"><tspan x="4" y="22.41666666666666">Application</tspan><tspan x="4" y="37.08333333333333">Layer</tspan><tspan x="4" y="51.74999999999999">Protocol</tspan></text></g><g class="technique T1568" transform="translate(0, 201.5)"><rect class="cell" height="67.16666666666666" width="95.09090909090908" fill="#dadaeb" stroke="#6B7279"/><polygon class="sidebar" transform="translate(0, 67.16666666666666)" points="0,0 12,0 12,12" fill="#6B7279" visibility="visible"/><text font-size="12" fill="black"><tspan x="4" y="29.83333333333333">Dynamic</tspan><tspan x="4" y="44.33333333333333">Resolution</tspan></text></g><g class="technique T1573" transform="translate(0, 335.83333333333337)"><rect class="cell" height="67.16666666666666" width="95.09090909090908" fill="#dadaeb" stroke="#6B7279"/><polygon class="sidebar" transform="translate(0, 67.16666666666666)" points="0,0 12,0 12,12" fill="#6B7279" visibility="visible"/><text font-size="12" fill="black"><tspan x="4" y="29.83333333333333">Encrypted</tspan><tspan x="4" y="44.33333333333333">Channel</tspan></text></g><g class="technique T1105" transform="translate(0, 537.3333333333333)"><rect class="cell" height="67.16666666666666" width="95.09090909090908" fill="#dadaeb" stroke="#6B7279"/><polygon class="sidebar" transform="translate(0, 67.16666666666666)" points="0,0 12,0 12,0" fill="#6B7279" visibility="hidden"/><text font-size="12" fill="black"><tspan x="4" y="22.41666666666666">Ingress</tspan><tspan x="4" y="37.08333333333333">Tool</tspan><tspan x="4" y="51.74999999999999">Transfer</tspan></text></g><g class="technique T1219" transform="translate(0, 604.5)"><rect class="cell" height="67.16666666666666" width="95.09090909090908" fill="#dadaeb" stroke="#6B7279"/><polygon class="sidebar" transform="translate(0, 67.16666666666666)" points="0,0 12,0 12,0" fill="#6B7279" visibility="hidden"/><text font-size="12" fill="black"><tspan x="4" y="22.41666666666666">Remote</tspan><tspan x="4" y="37.08333333333333">Access</tspan><tspan x="4" y="51.74999999999999">Software</tspan></text></g></g><g class="subtechniques"><g class="subtechnique T1071.001" transform="translate(15, 134.33333333333331)"><rect class="cell" height="67.16666666666666" width="80.09090909090908" fill="white" stroke="#6B7279"/><rect class="cell" height="67.16666666666666" width="3" transform="translate(-3, 0)" fill="#6B7279" stroke="#6B7279"/><text font-size="11.614646464646462" fill="black"><tspan x="4" y="29.83333333333333">Web</tspan><tspan x="4" y="44.33333333333333">Protocols</tspan></text></g><g class="subtechnique T1568.001" transform="translate(15, 268.66666666666663)"><rect class="cell" height="67.16666666666666" width="80.09090909090908" fill="white" stroke="#6B7279"/><rect class="cell" height="67.16666666666666" width="3" transform="translate(-3, 0)" fill="#6B7279" stroke="#6B7279"/><text font-size="12" fill="black"><tspan x="4" y="29.83333333333333">Fast</tspan><tspan x="4" y="44.33333333333333">Flux DNS</tspan></text></g><g class="subtechnique T1573.001" transform="translate(15, 403)"><rect class="cell" height="67.16666666666666" width="80.09090909090908" fill="white" stroke="#6B7279"/><rect class="cell" height="67.16666666666666" width="3" transform="translate(-3, 0)" fill="#6B7279" stroke="#6B7279"/><text font-size="8.710984848484847" fill="black"><tspan x="4" y="28.83333333333333">Symmetric</tspan><tspan x="4" y="43.33333333333333">Cryptography</tspan></text></g><g class="subtechnique T1573.002" transform="translate(15, 470.1666666666667)"><rect class="cell" height="67.16666666666666" width="80.09090909090908" fill="white" stroke="#6B7279"/><rect class="cell" height="67.16666666666666" width="3" transform="translate(-3, 0)" fill="#6B7279" stroke="#6B7279"/><text font-size="8.710984848484847" fill="black"><tspan x="4" y="28.83333333333333">Asymmetric</tspan><tspan x="4" y="43.33333333333333">Cryptography</tspan></text></g></g><g class="tactic-label"><text font-size="12" fill="black" font-weight="bold"><tspan text-anchor="middle" x="47.54545454545454" y="22.41666666666666">Command</tspan><tspan text-anchor="middle" x="47.54545454545454" y="37.08333333333333">and</tspan><tspan text-anchor="middle" x="47.54545454545454" y="51.74999999999999">Control</tspan></text></g></g><g class="tactic impact" transform="translate(950.9090909090908, 0)"><g class="techniques"><g class="technique T1486" transform="translate(0, 67.16666666666666)"><rect class="cell" height="67.16666666666666" width="95.09090909090908" fill="#dadaeb" stroke="#6B7279"/><polygon class="sidebar" transform="translate(0, 67.16666666666666)" points="0,0 12,0 12,0" fill="#6B7279" visibility="hidden"/><text font-size="12" fill="black"><tspan x="4" y="22.41666666666666">Data</tspan><tspan x="4" y="37.08333333333333">Encrypted</tspan><tspan x="4" y="51.74999999999999">for Impact</tspan></text></g></g><g class="subtechniques"/><g class="tactic-label"><text font-size="12" fill="black" font-weight="bold"><tspan text-anchor="middle" x="47.54545454545454" y="37.08333333333333">Impact</tspan></text></g></g></g></g></g></svg>