<?xml version="1.0" standalone="no"?>
<svg width="1440" height="864" xmlns="http://www.w3.org/2000/svg" id="svgvm1"><g transform="translate(5,5)" style="font-family: sans-serif;"><g transform="translate(0,1)"><g><g class="tactic initial-access" transform="translate(2.2737367544323206e-15, 0)"><g class="techniques"><g class="technique T1189" transform="translate(0, 122)"><rect class="cell" height="122" width="118.07339449541283" fill="#dadaeb" stroke="#6B7279"/><polygon class="sidebar" transform="translate(0, 122)" points="0,0 12,0 12,0" fill="#6B7279" visibility="hidden"/><text font-size="12" fill="black"><tspan x="4" y="57.25">Drive-by</tspan><tspan x="4" y="71.75">Compromise</tspan></text></g><g class="technique T1133" transform="translate(0, 244)"><rect class="cell" height="122" width="118.07339449541283" fill="#dadaeb" stroke="#6B7279"/><polygon class="sidebar" transform="translate(0, 122)" points="0,0 12,0 12,0" fill="#6B7279" visibility="hidden"/><text font-size="12" fill="black"><tspan x="4" y="49.83333333333333">External</tspan><tspan x="4" y="64.5">Remote</tspan><tspan x="4" y="79.16666666666666">Services</tspan></text></g><g class="technique T1566" transform="translate(0, 366)"><rect class="cell" height="122" width="118.07339449541283" fill="#dadaeb" stroke="#6B7279"/><polygon class="sidebar" transform="translate(0, 122)" points="0,0 12,0 12,12" fill="#6B7279" visibility="hidden"/><text font-size="12" fill="black"><tspan x="4" y="64.5">Phishing</tspan></text></g><g class="technique T1078" transform="translate(0, 488)"><rect class="cell" height="122" width="118.07339449541283" fill="#dadaeb" stroke="#6B7279"/><polygon class="sidebar" transform="translate(0, 122)" points="0,0 12,0 12,12" fill="#6B7279" visibility="hidden"/><text font-size="12" fill="black"><tspan x="4" y="57.25">Valid</tspan><tspan x="4" y="71.75">Accounts</tspan></text></g></g><g class="subtechniques"/><g class="tactic-label"><text font-size="12" fill="black" font-weight="bold"><tspan text-anchor="middle" x="59.036697247706414" y="57.25">Initial</tspan><tspan text-anchor="middle" x="59.036697247706414" y="71.75">Access</tspan></text></g></g><g class="tactic execution" transform="translate(131.1926605504587, 0)"><g class="techniques"><g class="technique T1106" transform="translate(0, 122)"><rect class="cell" height="122" width="118.07339449541283" fill="#dadaeb" stroke="#6B7279"/><polygon class="sidebar" transform="translate(0, 122)" points="0,0 12,0 12,0" fill="#6B7279" visibility="hidden"/><text font-size="12" fill="black"><tspan x="4" y="64.5">Native API</tspan></text></g><g class="technique T1569" transform="translate(0, 244)"><rect class="cell" height="122" width="118.07339449541283" fill="#dadaeb" stroke="#6B7279"/><polygon class="sidebar" transform="translate(0, 122)" points="0,0 12,0 12,12" fill="#6B7279" visibility="visible"/><text font-size="12" fill="black"><tspan x="4" y="57.25">System</tspan><tspan x="4" y="71.75">Services</tspan></text></g><g class="technique T1204" transform="translate(0, 488)"><rect class="cell" height="122" width="118.07339449541283" fill="#dadaeb" stroke="#6B7279"/><polygon class="sidebar" transform="translate(0, 122)" points="0,0 12,0 12,12" fill="#6B7279" visibility="visible"/><text font-size="12" fill="black"><tspan x="4" y="57.25">User</tspan><tspan x="4" y="71.75">Execution</tspan></text></g></g><g class="subtechniques"><g class="subtechnique T1569.002" transform="translate(15, 366)"><rect class="cell" height="122" width="103.07339449541283" fill="white" stroke="#6B7279"/><rect class="cell" height="122" width="3" transform="translate(-3, 0)" fill="#6B7279" stroke="#6B7279"/><text font-size="12" fill="black"><tspan x="4" y="57.25">Service</tspan><tspan x="4" y="71.75">Execution</tspan></text></g><g class="subtechnique T1204.002" transform="translate(15, 610)"><rect class="cell" height="122" width="103.07339449541283" fill="white" stroke="#6B7279"/><rect class="cell" height="122" width="3" transform="translate(-3, 0)" fill="#6B7279" stroke="#6B7279"/><text font-size="12" fill="black"><tspan x="4" y="57.25">Malicious</tspan><tspan x="4" y="71.75">File</tspan></text></g></g><g class="tactic-label"><text font-size="12" fill="black" font-weight="bold"><tspan text-anchor="middle" x="59.036697247706414" y="64.5">Execution</tspan></text></g></g><g class="tactic persistence" transform="translate(262.3853211009174, 0)"><g class="techniques"><g class="technique T1547" transform="translate(0, 122)"><rect class="cell" height="122" width="118.07339449541283" fill="#dadaeb" stroke="#6B7279"/><polygon class="sidebar" transform="translate(0, 122)" points="0,0 12,0 12,12" fill="#6B7279" visibility="visible"/><text font-size="12" fill="black"><tspan x="4" y="49.83333333333333">Boot or Logon</tspan><tspan x="4" y="64.5">Autostart</tspan><tspan x="4" y="79.16666666666666">Execution</tspan></text></g><g class="technique T1554" transform="translate(0, 366)"><rect class="cell" height="122" width="118.07339449541283" fill="#dadaeb" stroke="#6B7279"/><polygon class="sidebar" transform="translate(0, 122)" points="0,0 12,0 12,0" fill="#6B7279" visibility="hidden"/><text font-size="12" fill="black"><tspan x="4" y="42.375">Compromise</tspan><tspan x="4" y="57.125">Client</tspan><tspan x="4" y="71.875">Software</tspan><tspan x="4" y="86.625">Binary</tspan></text></g><g class="technique T1543" transform="translate(0, 488)"><rect class="cell" height="122" width="118.07339449541283" fill="#dadaeb" stroke="#6B7279"/><polygon class="sidebar" transform="translate(0, 122)" points="0,0 12,0 12,12" fill="#6B7279" visibility="visible"/><text font-size="12" fill="black"><tspan x="4" y="49.83333333333333">Create or</tspan><tspan x="4" y="64.5">Modify System</tspan><tspan x="4" y="79.16666666666666">Process</tspan></text></g></g><g class="subtechniques"><g class="subtechnique T1547.001" transform="translate(15, 244)"><rect class="cell" height="122" width="103.07339449541283" fill="white" stroke="#6B7279"/><rect class="cell" height="122" width="3" transform="translate(-3, 0)" fill="#6B7279" stroke="#6B7279"/><text font-size="12" fill="black"><tspan x="4" y="42.375">Registry</tspan><tspan x="4" y="57.125">Run Keys</tspan><tspan x="4" y="71.875">/ Startup</tspan><tspan x="4" y="86.625">Folder</tspan></text></g><g class="subtechnique T1543.003" transform="translate(15, 610)"><rect class="cell" height="122" width="103.07339449541283" fill="white" stroke="#6B7279"/><rect class="cell" height="122" width="3" transform="translate(-3, 0)" fill="#6B7279" stroke="#6B7279"/><text font-size="12" fill="black"><tspan x="4" y="57.25">Windows</tspan><tspan x="4" y="71.75">Service</tspan></text></g></g><g class="tactic-label"><text font-size="12" fill="black" font-weight="bold"><tspan text-anchor="middle" x="59.036697247706414" y="64.5">Persistence</tspan></text></g></g><g class="tactic privilege-escalation" transform="translate(393.5779816513761, 0)"><g class="techniques"><g class="technique T1547" transform="translate(0, 122)"><rect class="cell" height="122" width="118.07339449541283" fill="#dadaeb" stroke="#6B7279"/><polygon class="sidebar" transform="translate(0, 122)" points="0,0 12,0 12,12" fill="#6B7279" visibility="visible"/><text font-size="12" fill="black"><tspan x="4" y="49.83333333333333">Boot or Logon</tspan><tspan x="4" y="64.5">Autostart</tspan><tspan x="4" y="79.16666666666666">Execution</tspan></text></g><g class="technique T1543" transform="translate(0, 366)"><rect class="cell" height="122" width="118.07339449541283" fill="#dadaeb" stroke="#6B7279"/><polygon class="sidebar" transform="translate(0, 122)" points="0,0 12,0 12,12" fill="#6B7279" visibility="visible"/><text font-size="12" fill="black"><tspan x="4" y="49.83333333333333">Create or</tspan><tspan x="4" y="64.5">Modify System</tspan><tspan x="4" y="79.16666666666666">Process</tspan></text></g></g><g class="subtechniques"><g class="subtechnique T1547.001" transform="translate(15, 244)"><rect class="cell" height="122" width="103.07339449541283" fill="white" stroke="#6B7279"/><rect class="cell" height="122" width="3" transform="translate(-3, 0)" fill="#6B7279" stroke="#6B7279"/><text font-size="12" fill="black"><tspan x="4" y="42.375">Registry</tspan><tspan x="4" y="57.125">Run Keys</tspan><tspan x="4" y="71.875">/ Startup</tspan><tspan x="4" y="86.625">Folder</tspan></text></g><g class="subtechnique T1543.003" transform="translate(15, 488)"><rect class="cell" height="122" width="103.07339449541283" fill="white" stroke="#6B7279"/><rect class="cell" height="122" width="3" transform="translate(-3, 0)" fill="#6B7279" stroke="#6B7279"/><text font-size="12" fill="black"><tspan x="4" y="57.25">Windows</tspan><tspan x="4" y="71.75">Service</tspan></text></g></g><g class="tactic-label"><text font-size="12" fill="black" font-weight="bold"><tspan text-anchor="middle" x="59.036697247706414" y="57.25">Privilege</tspan><tspan text-anchor="middle" x="59.036697247706414" y="71.75">Escalation</tspan></text></g></g><g class="tactic defense-evasion" transform="translate(524.7706422018348, 0)"><g class="techniques"><g class="technique T1222" transform="translate(0, 122)"><rect class="cell" height="122" width="118.07339449541283" fill="#dadaeb" stroke="#6B7279"/><polygon class="sidebar" transform="translate(0, 122)" points="0,0 12,0 12,12" fill="#6B7279" visibility="visible"/><text font-size="12" fill="black"><tspan x="4" y="42.375">File</tspan><tspan x="4" y="57.125">and Directory</tspan><tspan x="4" y="71.875">Permissions</tspan><tspan x="4" y="86.625">Modification</tspan></text></g><g class="technique T1564" transform="translate(0, 366)"><rect class="cell" height="122" width="118.07339449541283" fill="#dadaeb" stroke="#6B7279"/><polygon class="sidebar" transform="translate(0, 122)" points="0,0 12,0 12,12" fill="#6B7279" visibility="visible"/><text font-size="12" fill="black"><tspan x="4" y="57.25">Hide</tspan><tspan x="4" y="71.75">Artifacts</tspan></text></g></g><g class="subtechniques"><g class="subtechnique T1222.001" transform="translate(15, 244)"><rect class="cell" height="122" width="103.07339449541283" fill="white" stroke="#6B7279"/><rect class="cell" height="122" width="3" transform="translate(-3, 0)" fill="#6B7279" stroke="#6B7279"/><text font-size="10.604340155257583" fill="black"><tspan x="4" y="42.375">Windows File</tspan><tspan x="4" y="57.125">and Directory</tspan><tspan x="4" y="71.875">Permissions</tspan><tspan x="4" y="86.625">Modification</tspan></text></g><g class="subtechnique T1564.001" transform="translate(15, 488)"><rect class="cell" height="122" width="103.07339449541283" fill="white" stroke="#6B7279"/><rect class="cell" height="122" width="3" transform="translate(-3, 0)" fill="#6B7279" stroke="#6B7279"/><text font-size="12" fill="black"><tspan x="4" y="49.83333333333333">Hidden</tspan><tspan x="4" y="64.5">Files and</tspan><tspan x="4" y="79.16666666666666">Directories</tspan></text></g><g class="subtechnique T1564.003" transform="translate(15, 610)"><rect class="cell" height="122" width="103.07339449541283" fill="white" stroke="#6B7279"/><rect class="cell" height="122" width="3" transform="translate(-3, 0)" fill="#6B7279" stroke="#6B7279"/><text font-size="12" fill="black"><tspan x="4" y="57.25">Hidden</tspan><tspan x="4" y="71.75">Window</tspan></text></g><g class="subtechnique T1564.004" transform="translate(15, 732)"><rect class="cell" height="122" width="103.07339449541283" fill="white" stroke="#6B7279"/><rect class="cell" height="122" width="3" transform="translate(-3, 0)" fill="#6B7279" stroke="#6B7279"/><text font-size="12" fill="black"><tspan x="4" y="57.25">NTFS File</tspan><tspan x="4" y="71.75">Attributes</tspan></text></g></g><g class="tactic-label"><text font-size="12" fill="black" font-weight="bold"><tspan text-anchor="middle" x="59.036697247706414" y="57.25">Defense</tspan><tspan text-anchor="middle" x="59.036697247706414" y="71.75">Evasion</tspan></text></g></g><g class="tactic credential-access" transform="translate(655.9633027522934, 0)"><g class="techniques"><g class="technique T1555" transform="translate(0, 122)"><rect class="cell" height="122" width="118.07339449541283" fill="#dadaeb" stroke="#6B7279"/><polygon class="sidebar" transform="translate(0, 122)" points="0,0 12,0 12,0" fill="#6B7279" visibility="visible"/><text font-size="12" fill="black"><tspan x="4" y="49.83333333333333">Credentials</tspan><tspan x="4" y="64.5">from Password</tspan><tspan x="4" y="79.16666666666666">Stores</tspan></text></g></g><g class="subtechniques"/><g class="tactic-label"><text font-size="12" fill="black" font-weight="bold"><tspan text-anchor="middle" x="59.036697247706414" y="57.25">Credential</tspan><tspan text-anchor="middle" x="59.036697247706414" y="71.75">Access</tspan></text></g></g><g class="tactic discovery" transform="translate(787.1559633027522, 0)"><g class="techniques"><g class="technique T1083" transform="translate(0, 122)"><rect class="cell" height="122" width="118.07339449541283" fill="#dadaeb" stroke="#6B7279"/><polygon class="sidebar" transform="translate(0, 122)" points="0,0 12,0 12,0" fill="#6B7279" visibility="hidden"/><text font-size="12" fill="black"><tspan x="4" y="49.83333333333333">File</tspan><tspan x="4" y="64.5">and Directory</tspan><tspan x="4" y="79.16666666666666">Discovery</tspan></text></g><g class="technique T1012" transform="translate(0, 244)"><rect class="cell" height="122" width="118.07339449541283" fill="#dadaeb" stroke="#6B7279"/><polygon class="sidebar" transform="translate(0, 122)" points="0,0 12,0 12,0" fill="#6B7279" visibility="hidden"/><text font-size="12" fill="black"><tspan x="4" y="57.25">Query</tspan><tspan x="4" y="71.75">Registry</tspan></text></g><g class="technique T1016" transform="translate(0, 366)"><rect class="cell" height="122" width="118.07339449541283" fill="#dadaeb" stroke="#6B7279"/><polygon class="sidebar" transform="translate(0, 122)" points="0,0 12,0 12,12" fill="#6B7279" visibility="visible"/><text font-size="12" fill="black"><tspan x="4" y="42.375">System</tspan><tspan x="4" y="57.125">Network</tspan><tspan x="4" y="71.875">Configuration</tspan><tspan x="4" y="86.625">Discovery</tspan></text></g></g><g class="subtechniques"><g class="subtechnique T1016.001" transform="translate(15, 488)"><rect class="cell" height="122" width="103.07339449541283" fill="white" stroke="#6B7279"/><rect class="cell" height="122" width="3" transform="translate(-3, 0)" fill="#6B7279" stroke="#6B7279"/><text font-size="12" fill="black"><tspan x="4" y="49.83333333333333">Internet</tspan><tspan x="4" y="64.5">Connection</tspan><tspan x="4" y="79.16666666666666">Discovery</tspan></text></g></g><g class="tactic-label"><text font-size="12" fill="black" font-weight="bold"><tspan text-anchor="middle" x="59.036697247706414" y="64.5">Discovery</tspan></text></g></g><g class="tactic lateral-movement" transform="translate(918.3486238532109, 0)"><g class="techniques"><g class="technique T1570" transform="translate(0, 122)"><rect class="cell" height="122" width="118.07339449541283" fill="#dadaeb" stroke="#6B7279"/><polygon class="sidebar" transform="translate(0, 122)" points="0,0 12,0 12,0" fill="#6B7279" visibility="hidden"/><text font-size="12" fill="black"><tspan x="4" y="57.25">Lateral</tspan><tspan x="4" y="71.75">Tool Transfer</tspan></text></g></g><g class="subtechniques"/><g class="tactic-label"><text font-size="12" fill="black" font-weight="bold"><tspan text-anchor="middle" x="59.036697247706414" y="57.25">Lateral</tspan><tspan text-anchor="middle" x="59.036697247706414" y="71.75">Movement</tspan></text></g></g><g class="tactic command-and-control" transform="translate(1049.5412844036696, 0)"><g class="techniques"><g class="technique T1071" transform="translate(0, 122)"><rect class="cell" height="122" width="118.07339449541283" fill="#dadaeb" stroke="#6B7279"/><polygon class="sidebar" transform="translate(0, 122)" points="0,0 12,0 12,12" fill="#6B7279" visibility="visible"/><text font-size="12" fill="black"><tspan x="4" y="49.83333333333333">Application</tspan><tspan x="4" y="64.5">Layer</tspan><tspan x="4" y="79.16666666666666">Protocol</tspan></text></g><g class="technique T1001" transform="translate(0, 610)"><rect class="cell" height="122" width="118.07339449541283" fill="#dadaeb" stroke="#6B7279"/><polygon class="sidebar" transform="translate(0, 122)" points="0,0 12,0 12,12" fill="#6B7279" visibility="visible"/><text font-size="12" fill="black"><tspan x="4" y="57.25">Data</tspan><tspan x="4" y="71.75">Obfuscation</tspan></text></g></g><g class="subtechniques"><g class="subtechnique T1071.002" transform="translate(15, 244)"><rect class="cell" height="122" width="103.07339449541283" fill="white" stroke="#6B7279"/><rect class="cell" height="122" width="3" transform="translate(-3, 0)" fill="#6B7279" stroke="#6B7279"/><text font-size="12" fill="black"><tspan x="4" y="49.83333333333333">File</tspan><tspan x="4" y="64.5">Transfer</tspan><tspan x="4" y="79.16666666666666">Protocols</tspan></text></g><g class="subtechnique T1071.003" transform="translate(15, 366)"><rect class="cell" height="122" width="103.07339449541283" fill="white" stroke="#6B7279"/><rect class="cell" height="122" width="3" transform="translate(-3, 0)" fill="#6B7279" stroke="#6B7279"/><text font-size="12" fill="black"><tspan x="4" y="57.25">Mail</tspan><tspan x="4" y="71.75">Protocols</tspan></text></g><g class="subtechnique T1071.004" transform="translate(15, 488)"><rect class="cell" height="122" width="103.07339449541283" fill="white" stroke="#6B7279"/><rect class="cell" height="122" width="3" transform="translate(-3, 0)" fill="#6B7279" stroke="#6B7279"/><text font-size="12" fill="black"><tspan x="4" y="64.5">DNS</tspan></text></g><g class="subtechnique T1001.001" transform="translate(15, 732)"><rect class="cell" height="122" width="103.07339449541283" fill="white" stroke="#6B7279"/><rect class="cell" height="122" width="3" transform="translate(-3, 0)" fill="#6B7279" stroke="#6B7279"/><text font-size="12" fill="black"><tspan x="4" y="64.5">Junk Data</tspan></text></g></g><g class="tactic-label"><text font-size="12" fill="black" font-weight="bold"><tspan text-anchor="middle" x="59.036697247706414" y="57.25">Command</tspan><tspan text-anchor="middle" x="59.036697247706414" y="71.75">and Control</tspan></text></g></g><g class="tactic exfiltration" transform="translate(1180.7339449541282, 0)"><g class="techniques"><g class="technique T1041" transform="translate(0, 122)"><rect class="cell" height="122" width="118.07339449541283" fill="#dadaeb" stroke="#6B7279"/><polygon class="sidebar" transform="translate(0, 122)" points="0,0 12,0 12,0" fill="#6B7279" visibility="hidden"/><text font-size="12" fill="black"><tspan x="4" y="49.83333333333333">Exfiltration</tspan><tspan x="4" y="64.5">Over</tspan><tspan x="4" y="79.16666666666666">C2 Channel</tspan></text></g></g><g class="subtechniques"/><g class="tactic-label"><text font-size="12" fill="black" font-weight="bold"><tspan text-anchor="middle" x="59.036697247706414" y="64.5">Exfiltration</tspan></text></g></g><g class="tactic impact" transform="translate(1311.9266055045869, 0)"><g class="techniques"><g class="technique T1486" transform="translate(0, 122)"><rect class="cell" height="122" width="118.07339449541283" fill="#dadaeb" stroke="#6B7279"/><polygon class="sidebar" transform="translate(0, 122)" points="0,0 12,0 12,0" fill="#6B7279" visibility="hidden"/><text font-size="12" fill="black"><tspan x="4" y="49.83333333333333">Data</tspan><tspan x="4" y="64.5">Encrypted</tspan><tspan x="4" y="79.16666666666666">for Impact</tspan></text></g></g><g class="subtechniques"/><g class="tactic-label"><text font-size="12" fill="black" font-weight="bold"><tspan text-anchor="middle" x="59.036697247706414" y="64.5">Impact</tspan></text></g></g></g></g></g></svg>