<?xml version="1.0" standalone="no"?>
<svg width="944.8437500000001" height="529.1125000000001" xmlns="http://www.w3.org/2000/svg" id="svgvm0"><g transform="translate(5,5)" style="font-family: sans-serif;"><g transform="translate(0,1)"><g><g class="tactic initial-access" transform="translate(0, 0)"><g class="techniques"><g class="technique T1566" transform="translate(0, 57.679166666666674)"><rect class="cell" height="57.679166666666674" width="121.93614130434784" fill="#dadaeb" stroke="#6B7279"/><polygon class="sidebar" transform="translate(0, 57.679166666666674)" points="0,0 12,0 12,12" fill="#6B7279" visibility="visible"/><text font-size="12" fill="black"><tspan x="4" y="32.33958333333334">Phishing</tspan></text></g><g class="technique T1078" transform="translate(0, 173.03750000000002)"><rect class="cell" height="57.679166666666674" width="121.93614130434784" fill="#dadaeb" stroke="#6B7279"/><polygon class="sidebar" transform="translate(0, 57.679166666666674)" points="0,0 12,0 12,12" fill="#6B7279" visibility="visible"/><text font-size="12" fill="black"><tspan x="4" y="25.089583333333337">Valid</tspan><tspan x="4" y="39.58958333333334">Accounts</tspan></text></g></g><g class="subtechniques"><g class="subtechnique T1566.001" transform="translate(15, 115.35833333333335)"><rect class="cell" height="57.679166666666674" width="106.93614130434784" fill="white" stroke="#6B7279"/><rect class="cell" height="57.679166666666674" width="3" transform="translate(-3, 0)" fill="#6B7279" stroke="#6B7279"/><text font-size="11.035184991638797" fill="black"><tspan x="4" y="25.089583333333337">Spearphishing</tspan><tspan x="4" y="39.58958333333334">Attachment</tspan></text></g><g class="subtechnique T1078.003" transform="translate(15, 230.7166666666667)"><rect class="cell" height="57.679166666666674" width="106.93614130434784" fill="white" stroke="#6B7279"/><rect class="cell" height="57.679166666666674" width="3" transform="translate(-3, 0)" fill="#6B7279" stroke="#6B7279"/><text font-size="12" fill="black"><tspan x="4" y="25.089583333333337">Local</tspan><tspan x="4" y="39.58958333333334">Accounts</tspan></text></g></g><g class="tactic-label"><text font-size="12" fill="black" font-weight="bold"><tspan text-anchor="middle" x="60.96807065217392" y="25.089583333333337">Initial</tspan><tspan text-anchor="middle" x="60.96807065217392" y="39.58958333333334">Access</tspan></text></g></g><g class="tactic execution" transform="translate(135.48460144927537, 0)"><g class="techniques"><g class="technique T1059" transform="translate(0, 57.679166666666674)"><rect class="cell" height="57.679166666666674" width="121.93614130434784" fill="#dadaeb" stroke="#6B7279"/><polygon class="sidebar" transform="translate(0, 57.679166666666674)" points="0,0 12,0 12,12" fill="#6B7279" visibility="visible"/><text font-size="12" fill="black"><tspan x="4" y="17.67291666666667">Command</tspan><tspan x="4" y="32.33958333333334">and Scripting</tspan><tspan x="4" y="47.00625">Interpreter</tspan></text></g><g class="technique T1106" transform="translate(0, 173.03750000000002)"><rect class="cell" height="57.679166666666674" width="121.93614130434784" fill="#dadaeb" stroke="#6B7279"/><polygon class="sidebar" transform="translate(0, 57.679166666666674)" points="0,0 12,0 12,0" fill="#6B7279" visibility="hidden"/><text font-size="12" fill="black"><tspan x="4" y="32.33958333333334">Native API</tspan></text></g></g><g class="subtechniques"><g class="subtechnique T1059.003" transform="translate(15, 115.35833333333335)"><rect class="cell" height="57.679166666666674" width="106.93614130434784" fill="white" stroke="#6B7279"/><rect class="cell" height="57.679166666666674" width="3" transform="translate(-3, 0)" fill="#6B7279" stroke="#6B7279"/><text font-size="12" fill="black"><tspan x="4" y="17.67291666666667">Windows</tspan><tspan x="4" y="32.33958333333334">Command</tspan><tspan x="4" y="47.00625">Shell</tspan></text></g></g><g class="tactic-label"><text font-size="12" fill="black" font-weight="bold"><tspan text-anchor="middle" x="60.96807065217392" y="32.33958333333334">Execution</tspan></text></g></g><g class="tactic persistence" transform="translate(270.96920289855075, 0)"><g class="techniques"><g class="technique T1547" transform="translate(0, 57.679166666666674)"><rect class="cell" height="57.679166666666674" width="121.93614130434784" fill="#dadaeb" stroke="#6B7279"/><polygon class="sidebar" transform="translate(0, 57.679166666666674)" points="0,0 12,0 12,12" fill="#6B7279" visibility="visible"/><text font-size="12" fill="black"><tspan x="4" y="17.67291666666667">Boot or Logon</tspan><tspan x="4" y="32.33958333333334">Autostart</tspan><tspan x="4" y="47.00625">Execution</tspan></text></g><g class="technique T1078" transform="translate(0, 173.03750000000002)"><rect class="cell" height="57.679166666666674" width="121.93614130434784" fill="#dadaeb" stroke="#6B7279"/><polygon class="sidebar" transform="translate(0, 57.679166666666674)" points="0,0 12,0 12,12" fill="#6B7279" visibility="visible"/><text font-size="12" fill="black"><tspan x="4" y="25.089583333333337">Valid</tspan><tspan x="4" y="39.58958333333334">Accounts</tspan></text></g></g><g class="subtechniques"><g class="subtechnique T1547.001" transform="translate(15, 115.35833333333335)"><rect class="cell" height="57.679166666666674" width="106.93614130434784" fill="white" stroke="#6B7279"/><rect class="cell" height="57.679166666666674" width="3" transform="translate(-3, 0)" fill="#6B7279" stroke="#6B7279"/><text font-size="11.535833333333336" fill="black"><tspan x="4" y="11.084895833333334">Registry</tspan><tspan x="4" y="25.254687500000003">Run Keys</tspan><tspan x="4" y="39.42447916666667">/ Startup</tspan><tspan x="4" y="53.59427083333334">Folder</tspan></text></g><g class="subtechnique T1078.003" transform="translate(15, 230.7166666666667)"><rect class="cell" height="57.679166666666674" width="106.93614130434784" fill="white" stroke="#6B7279"/><rect class="cell" height="57.679166666666674" width="3" transform="translate(-3, 0)" fill="#6B7279" stroke="#6B7279"/><text font-size="12" fill="black"><tspan x="4" y="25.089583333333337">Local</tspan><tspan x="4" y="39.58958333333334">Accounts</tspan></text></g></g><g class="tactic-label"><text font-size="12" fill="black" font-weight="bold"><tspan text-anchor="middle" x="60.96807065217392" y="32.33958333333334">Persistence</tspan></text></g></g><g class="tactic privilege-escalation" transform="translate(406.4538043478261, 0)"><g class="techniques"><g class="technique T1134" transform="translate(0, 57.679166666666674)"><rect class="cell" height="57.679166666666674" width="121.93614130434784" fill="#dadaeb" stroke="#6B7279"/><polygon class="sidebar" transform="translate(0, 57.679166666666674)" points="0,0 12,0 12,0" fill="#6B7279" visibility="visible"/><text font-size="12" fill="black"><tspan x="4" y="25.089583333333337">Access Token</tspan><tspan x="4" y="39.58958333333334">Manipulation</tspan></text></g><g class="technique T1547" transform="translate(0, 115.35833333333335)"><rect class="cell" height="57.679166666666674" width="121.93614130434784" fill="#dadaeb" stroke="#6B7279"/><polygon class="sidebar" transform="translate(0, 57.679166666666674)" points="0,0 12,0 12,12" fill="#6B7279" visibility="visible"/><text font-size="12" fill="black"><tspan x="4" y="17.67291666666667">Boot or Logon</tspan><tspan x="4" y="32.33958333333334">Autostart</tspan><tspan x="4" y="47.00625">Execution</tspan></text></g><g class="technique T1055" transform="translate(0, 230.7166666666667)"><rect class="cell" height="57.679166666666674" width="121.93614130434784" fill="#dadaeb" stroke="#6B7279"/><polygon class="sidebar" transform="translate(0, 57.679166666666674)" points="0,0 12,0 12,0" fill="#6B7279" visibility="visible"/><text font-size="12" fill="black"><tspan x="4" y="25.089583333333337">Process</tspan><tspan x="4" y="39.58958333333334">Injection</tspan></text></g><g class="technique T1078" transform="translate(0, 288.39583333333337)"><rect class="cell" height="57.679166666666674" width="121.93614130434784" fill="#dadaeb" stroke="#6B7279"/><polygon class="sidebar" transform="translate(0, 57.679166666666674)" points="0,0 12,0 12,12" fill="#6B7279" visibility="visible"/><text font-size="12" fill="black"><tspan x="4" y="25.089583333333337">Valid</tspan><tspan x="4" y="39.58958333333334">Accounts</tspan></text></g></g><g class="subtechniques"><g class="subtechnique T1547.001" transform="translate(15, 173.03750000000002)"><rect class="cell" height="57.679166666666674" width="106.93614130434784" fill="white" stroke="#6B7279"/><rect class="cell" height="57.679166666666674" width="3" transform="translate(-3, 0)" fill="#6B7279" stroke="#6B7279"/><text font-size="11.535833333333336" fill="black"><tspan x="4" y="11.084895833333334">Registry</tspan><tspan x="4" y="25.254687500000003">Run Keys</tspan><tspan x="4" y="39.42447916666667">/ Startup</tspan><tspan x="4" y="53.59427083333334">Folder</tspan></text></g><g class="subtechnique T1078.003" transform="translate(15, 346.07500000000005)"><rect class="cell" height="57.679166666666674" width="106.93614130434784" fill="white" stroke="#6B7279"/><rect class="cell" height="57.679166666666674" width="3" transform="translate(-3, 0)" fill="#6B7279" stroke="#6B7279"/><text font-size="12" fill="black"><tspan x="4" y="25.089583333333337">Local</tspan><tspan x="4" y="39.58958333333334">Accounts</tspan></text></g></g><g class="tactic-label"><text font-size="12" fill="black" font-weight="bold"><tspan text-anchor="middle" x="60.96807065217392" y="25.089583333333337">Privilege</tspan><tspan text-anchor="middle" x="60.96807065217392" y="39.58958333333334">Escalation</tspan></text></g></g><g class="tactic defense-evasion" transform="translate(541.9384057971015, 0)"><g class="techniques"><g class="technique T1134" transform="translate(0, 57.679166666666674)"><rect class="cell" height="57.679166666666674" width="121.93614130434784" fill="#dadaeb" stroke="#6B7279"/><polygon class="sidebar" transform="translate(0, 57.679166666666674)" points="0,0 12,0 12,0" fill="#6B7279" visibility="visible"/><text font-size="12" fill="black"><tspan x="4" y="25.089583333333337">Access Token</tspan><tspan x="4" y="39.58958333333334">Manipulation</tspan></text></g><g class="technique T1562" transform="translate(0, 115.35833333333335)"><rect class="cell" height="57.679166666666674" width="121.93614130434784" fill="#dadaeb" stroke="#6B7279"/><polygon class="sidebar" transform="translate(0, 57.679166666666674)" points="0,0 12,0 12,12" fill="#6B7279" visibility="visible"/><text font-size="12" fill="black"><tspan x="4" y="25.089583333333337">Impair</tspan><tspan x="4" y="39.58958333333334">Defenses</tspan></text></g><g class="technique T1036" transform="translate(0, 230.7166666666667)"><rect class="cell" height="57.679166666666674" width="121.93614130434784" fill="#dadaeb" stroke="#6B7279"/><polygon class="sidebar" transform="translate(0, 57.679166666666674)" points="0,0 12,0 12,12" fill="#6B7279" visibility="visible"/><text font-size="12" fill="black"><tspan x="4" y="32.33958333333334">Masquerading</tspan></text></g><g class="technique T1055" transform="translate(0, 346.07500000000005)"><rect class="cell" height="57.679166666666674" width="121.93614130434784" fill="#dadaeb" stroke="#6B7279"/><polygon class="sidebar" transform="translate(0, 57.679166666666674)" points="0,0 12,0 12,0" fill="#6B7279" visibility="visible"/><text font-size="12" fill="black"><tspan x="4" y="25.089583333333337">Process</tspan><tspan x="4" y="39.58958333333334">Injection</tspan></text></g><g class="technique T1078" transform="translate(0, 403.7541666666667)"><rect class="cell" height="57.679166666666674" width="121.93614130434784" fill="#dadaeb" stroke="#6B7279"/><polygon class="sidebar" transform="translate(0, 57.679166666666674)" points="0,0 12,0 12,12" fill="#6B7279" visibility="visible"/><text font-size="12" fill="black"><tspan x="4" y="25.089583333333337">Valid</tspan><tspan x="4" y="39.58958333333334">Accounts</tspan></text></g></g><g class="subtechniques"><g class="subtechnique T1562.001" transform="translate(15, 173.03750000000002)"><rect class="cell" height="57.679166666666674" width="106.93614130434784" fill="white" stroke="#6B7279"/><rect class="cell" height="57.679166666666674" width="3" transform="translate(-3, 0)" fill="#6B7279" stroke="#6B7279"/><text font-size="12" fill="black"><tspan x="4" y="17.67291666666667">Disable</tspan><tspan x="4" y="32.33958333333334">or Modify</tspan><tspan x="4" y="47.00625">Tools</tspan></text></g><g class="subtechnique T1036.005" transform="translate(15, 288.39583333333337)"><rect class="cell" height="57.679166666666674" width="106.93614130434784" fill="white" stroke="#6B7279"/><rect class="cell" height="57.679166666666674" width="3" transform="translate(-3, 0)" fill="#6B7279" stroke="#6B7279"/><text font-size="11.535833333333336" fill="black"><tspan x="4" y="11.084895833333334">Match</tspan><tspan x="4" y="25.254687500000003">Legitimate</tspan><tspan x="4" y="39.42447916666667">Name</tspan><tspan x="4" y="53.59427083333334">or Location</tspan></text></g><g class="subtechnique T1078.003" transform="translate(15, 461.4333333333334)"><rect class="cell" height="57.679166666666674" width="106.93614130434784" fill="white" stroke="#6B7279"/><rect class="cell" height="57.679166666666674" width="3" transform="translate(-3, 0)" fill="#6B7279" stroke="#6B7279"/><text font-size="12" fill="black"><tspan x="4" y="25.089583333333337">Local</tspan><tspan x="4" y="39.58958333333334">Accounts</tspan></text></g></g><g class="tactic-label"><text font-size="12" fill="black" font-weight="bold"><tspan text-anchor="middle" x="60.96807065217392" y="25.089583333333337">Defense</tspan><tspan text-anchor="middle" x="60.96807065217392" y="39.58958333333334">Evasion</tspan></text></g></g><g class="tactic discovery" transform="translate(677.4230072463769, 0)"><g class="techniques"><g class="technique T1083" transform="translate(0, 57.679166666666674)"><rect class="cell" height="57.679166666666674" width="121.93614130434784" fill="#dadaeb" stroke="#6B7279"/><polygon class="sidebar" transform="translate(0, 57.679166666666674)" points="0,0 12,0 12,0" fill="#6B7279" visibility="hidden"/><text font-size="12" fill="black"><tspan x="4" y="17.67291666666667">File</tspan><tspan x="4" y="32.33958333333334">and Directory</tspan><tspan x="4" y="47.00625">Discovery</tspan></text></g><g class="technique T1057" transform="translate(0, 115.35833333333335)"><rect class="cell" height="57.679166666666674" width="121.93614130434784" fill="#dadaeb" stroke="#6B7279"/><polygon class="sidebar" transform="translate(0, 57.679166666666674)" points="0,0 12,0 12,0" fill="#6B7279" visibility="hidden"/><text font-size="12" fill="black"><tspan x="4" y="25.089583333333337">Process</tspan><tspan x="4" y="39.58958333333334">Discovery</tspan></text></g><g class="technique T1016" transform="translate(0, 173.03750000000002)"><rect class="cell" height="57.679166666666674" width="121.93614130434784" fill="#dadaeb" stroke="#6B7279"/><polygon class="sidebar" transform="translate(0, 57.679166666666674)" points="0,0 12,0 12,0" fill="#6B7279" visibility="hidden"/><text font-size="11.800528920807455" fill="black"><tspan x="4" y="17.67291666666667">System Network</tspan><tspan x="4" y="32.33958333333334">Configuration</tspan><tspan x="4" y="47.00625">Discovery</tspan></text></g></g><g class="subtechniques"/><g class="tactic-label"><text font-size="12" fill="black" font-weight="bold"><tspan text-anchor="middle" x="60.96807065217392" y="32.33958333333334">Discovery</tspan></text></g></g><g class="tactic impact" transform="translate(812.9076086956522, 0)"><g class="techniques"><g class="technique T1486" transform="translate(0, 57.679166666666674)"><rect class="cell" height="57.679166666666674" width="121.93614130434784" fill="#dadaeb" stroke="#6B7279"/><polygon class="sidebar" transform="translate(0, 57.679166666666674)" points="0,0 12,0 12,0" fill="#6B7279" visibility="hidden"/><text font-size="12" fill="black"><tspan x="4" y="17.67291666666667">Data</tspan><tspan x="4" y="32.33958333333334">Encrypted</tspan><tspan x="4" y="47.00625">for Impact</tspan></text></g><g class="technique T1490" transform="translate(0, 115.35833333333335)"><rect class="cell" height="57.679166666666674" width="121.93614130434784" fill="#dadaeb" stroke="#6B7279"/><polygon class="sidebar" transform="translate(0, 57.679166666666674)" points="0,0 12,0 12,0" fill="#6B7279" visibility="hidden"/><text font-size="12" fill="black"><tspan x="4" y="17.67291666666667">Inhibit</tspan><tspan x="4" y="32.33958333333334">System</tspan><tspan x="4" y="47.00625">Recovery</tspan></text></g><g class="technique T1489" transform="translate(0, 173.03750000000002)"><rect class="cell" height="57.679166666666674" width="121.93614130434784" fill="#dadaeb" stroke="#6B7279"/><polygon class="sidebar" transform="translate(0, 57.679166666666674)" points="0,0 12,0 12,0" fill="#6B7279" visibility="hidden"/><text font-size="12" fill="black"><tspan x="4" y="32.33958333333334">Service Stop</tspan></text></g></g><g class="subtechniques"/><g class="tactic-label"><text font-size="12" fill="black" font-weight="bold"><tspan text-anchor="middle" x="60.96807065217392" y="32.33958333333334">Impact</tspan></text></g></g></g></g></g></svg>