<?xml version="1.0" standalone="no"?>
<svg width="1056" height="816" xmlns="http://www.w3.org/2000/svg" id="svgvm0"><g transform="translate(5,5)" style="font-family: sans-serif;"><g transform="translate(0,1)"><g><g class="tactic execution" transform="translate(0, 0)"><g class="techniques"><g class="technique T1106" transform="translate(0, 201.5)"><rect class="cell" height="201.5" width="241.38461538461542" fill="#c6dbef" stroke="#6B7279"/><polygon class="sidebar" transform="translate(0, 201.5)" points="0,0 12,0 12,0" fill="#6B7279" visibility="hidden"/><text font-size="12" fill="black"><tspan x="4" y="104.25">Native API</tspan></text></g><g class="technique T1204" transform="translate(0, 403)"><rect class="cell" height="201.5" width="241.38461538461542" fill="#c6dbef" stroke="#6B7279"/><polygon class="sidebar" transform="translate(0, 201.5)" points="0,0 12,0 12,12" fill="#6B7279" visibility="visible"/><text font-size="12" fill="black"><tspan x="4" y="104.25">User Execution</tspan></text></g></g><g class="subtechniques"><g class="subtechnique T1204.002" transform="translate(15, 604.5)"><rect class="cell" height="201.5" width="226.38461538461542" fill="#c6dbef" stroke="#6B7279"/><rect class="cell" height="201.5" width="3" transform="translate(-3, 0)" fill="#6B7279" stroke="#6B7279"/><text font-size="12" fill="black"><tspan x="4" y="104.25">Malicious File</tspan></text></g></g><g class="tactic-label"><text font-size="12" fill="black" font-weight="bold"><tspan text-anchor="middle" x="120.69230769230771" y="104.25">Execution</tspan></text></g></g><g class="tactic defense-evasion" transform="translate(268.20512820512823, 0)"><g class="techniques"><g class="technique T1140" transform="translate(0, 201.5)"><rect class="cell" height="201.5" width="241.38461538461542" fill="#c6dbef" stroke="#6B7279"/><polygon class="sidebar" transform="translate(0, 201.5)" points="0,0 12,0 12,0" fill="#6B7279" visibility="hidden"/><text font-size="12" fill="black"><tspan x="4" y="97">Deobfuscate/Decode</tspan><tspan x="4" y="111.5">Files or Information</tspan></text></g><g class="technique T1027" transform="translate(0, 403)"><rect class="cell" height="201.5" width="241.38461538461542" fill="#c6dbef" stroke="#6B7279"/><polygon class="sidebar" transform="translate(0, 201.5)" points="0,0 12,0 12,0" fill="#6B7279" visibility="hidden"/><text font-size="12" fill="black"><tspan x="4" y="97">Obfuscated</tspan><tspan x="4" y="111.5">Files or Information</tspan></text></g></g><g class="subtechniques"/><g class="tactic-label"><text font-size="12" fill="black" font-weight="bold"><tspan text-anchor="middle" x="120.69230769230771" y="104.25">Defense Evasion</tspan></text></g></g><g class="tactic discovery" transform="translate(536.4102564102565, 0)"><g class="techniques"><g class="technique T1083" transform="translate(0, 201.5)"><rect class="cell" height="201.5" width="241.38461538461542" fill="#c6dbef" stroke="#6B7279"/><polygon class="sidebar" transform="translate(0, 201.5)" points="0,0 12,0 12,0" fill="#6B7279" visibility="hidden"/><text font-size="12" fill="black"><tspan x="4" y="104.25">File and Directory Discovery</tspan></text></g><g class="technique T1135" transform="translate(0, 403)"><rect class="cell" height="201.5" width="241.38461538461542" fill="#c6dbef" stroke="#6B7279"/><polygon class="sidebar" transform="translate(0, 201.5)" points="0,0 12,0 12,0" fill="#6B7279" visibility="hidden"/><text font-size="12" fill="black"><tspan x="4" y="104.25">Network Share Discovery</tspan></text></g></g><g class="subtechniques"/><g class="tactic-label"><text font-size="12" fill="black" font-weight="bold"><tspan text-anchor="middle" x="120.69230769230771" y="104.25">Discovery</tspan></text></g></g><g class="tactic impact" transform="translate(804.6153846153848, 0)"><g class="techniques"><g class="technique T1486" transform="translate(0, 201.5)"><rect class="cell" height="201.5" width="241.38461538461542" fill="#c6dbef" stroke="#6B7279"/><polygon class="sidebar" transform="translate(0, 201.5)" points="0,0 12,0 12,0" fill="#6B7279" visibility="hidden"/><text font-size="12" fill="black"><tspan x="4" y="104.25">Data Encrypted for Impact</tspan></text></g></g><g class="subtechniques"/><g class="tactic-label"><text font-size="12" fill="black" font-weight="bold"><tspan text-anchor="middle" x="120.69230769230771" y="104.25">Impact</tspan></text></g></g></g></g></g></svg>